<?xml version="1.0" encoding="utf-8" ?>
<svg baseProfile="full" height="384mm" version="1.1" width="791mm" xmlns="http://www.w3.org/2000/svg" xmlns:ev="http://www.w3.org/2001/xml-events" xmlns:xlink="http://www.w3.org/1999/xlink"><defs /><rect fill="none" height="384" stroke="rgb(0,0,255)" stroke-width="1.0" width="791" x="0" y="0" /><g id="0-1W"><polygon fill="none" points="70.337412089,25.0 7.66666666667,25.0 0,17.3333333333 0,2.0 37.5,2.0 37.5,-2.0 0,-2.0 0,-17.3333333333 7.66666666667,-25.0 80.473472765,-25.0 147.532373119,3.35374574179 151.608084369,13.4008415093 145.636699851,27.5236485269 111.097226167,12.9197190003 109.539473684,16.6039295266 144.078947368,31.2078590532 138.107562851,45.3306660707 128.060467083,49.4063773207" stroke="rgb(0,0,255)" stroke-width="1.0" transform="translate(0,0.0)" /><text fill="none" stroke="rgb(246,146,30)" transform="translate(42.5,5.0) rotate(0.200010736797)" x="0" y="0">(0,-1) W</text></g><g id="00W"><polygon fill="none" points="70.337412089,25.0 7.66666666667,25.0 0,17.3333333333 0,2.0 37.5,2.0 37.5,-2.0 0,-2.0 0,-17.3333333333 7.66666666667,-25.0 80.473472765,-25.0 147.532373119,3.35374574179 151.608084369,13.4008415093 145.636699851,27.5236485269 111.097226167,12.9197190003 109.539473684,16.6039295266 144.078947368,31.2078590532 138.107562851,45.3306660707 128.060467083,49.4063773207" stroke="rgb(0,0,255)" stroke-width="1.0" transform="translate(0,53.0)" /><text fill="none" stroke="rgb(246,146,30)" transform="translate(42.5,58.0) rotate(0.200010736797)" x="0" y="0">(0,0) W</text></g><g id="-10E"><polygon fill="none" points="70.337412089,25.0 7.66666666667,25.0 0,17.3333333333 0,2.0 37.5,2.0 37.5,-2.0 0,-2.0 0,-17.3333333333 7.66666666667,-25.0 80.473472765,-25.0 147.532373119,3.35374574179 151.608084369,13.4008415093 145.636699851,27.5236485269 111.097226167,12.9197190003 109.539473684,16.6039295266 144.078947368,31.2078590532 138.107562851,45.3306660707 128.060467083,49.4063773207" stroke="rgb(0,0,255)" stroke-width="1.0" transform="translate(0,106.0)" /><text fill="none" stroke="rgb(246,146,30)" transform="translate(42.5,111.0) rotate(0.200010736797)" x="0" y="0">(-1,0) E</text></g><g id="0-1E"><polygon fill="none" points="70.337412089,25.0 7.66666666667,25.0 0,17.3333333333 0,2.0 37.5,2.0 37.5,-2.0 0,-2.0 0,-17.3333333333 7.66666666667,-25.0 80.473472765,-25.0 147.532373119,3.35374574179 151.608084369,13.4008415093 145.636699851,27.5236485269 111.097226167,12.9197190003 109.539473684,16.6039295266 144.078947368,31.2078590532 138.107562851,45.3306660707 128.060467083,49.4063773207" stroke="rgb(0,0,255)" stroke-width="1.0" transform="translate(0,159.0)" /><text fill="none" stroke="rgb(246,146,30)" transform="translate(42.5,164.0) rotate(0.200010736797)" x="0" y="0">(0,-1) E</text></g><g id="-10S"><polygon fill="none" points="67.9841306634,25.0 7.66666666667,25.0 0,17.3333333333 0,2.0 37.5,2.0 37.5,-2.0 0,-2.0 0,-17.3333333333 7.66666666667,-25.0 83.2360205255,-25.0 145.939368079,17.1784002575 148.021666275,27.8188696914 139.463495038,40.5416373221 108.348030724,19.611327231 106.115464314,22.9303100912 137.230928628,43.8606201823 128.672757391,56.583387813 118.032287957,58.6656860097" stroke="rgb(0,0,255)" stroke-width="1.0" transform="translate(0,212.0)" /><text fill="none" stroke="rgb(246,146,30)" transform="translate(42.5,217.0) rotate(0.296072194511)" x="0" y="0">(-1,0) S</text></g><g id="00S"><polygon fill="none" points="65.0407078565,25.0 7.66666666667,25.0 0,17.3333333333 0,2.0 37.5,2.0 37.5,-2.0 0,-2.0 0,-17.3333333333 7.66666666667,-25.0 86.6913429511,-25.0 140.760858304,32.6314755269 140.415290784,43.4682711162 129.232927676,53.9594991864 103.575032939,26.6113285406 100.657894737,29.3481706458 126.315789474,56.6963412916 115.133426365,67.1875693618 104.296630776,66.8420018427" stroke="rgb(0,0,255)" stroke-width="1.0" transform="translate(0,265.0)" /><text fill="none" stroke="rgb(246,146,30)" transform="translate(42.5,270.0) rotate(0.408637855098)" x="0" y="0">(0,0) S</text></g></svg>