<?xml version="1.0" encoding="utf-8" ?>
<svg baseProfile="full" height="384mm" version="1.1" width="791mm" xmlns="http://www.w3.org/2000/svg" xmlns:ev="http://www.w3.org/2001/xml-events" xmlns:xlink="http://www.w3.org/1999/xlink"><defs /><rect fill="none" height="384" stroke="rgb(0,0,255)" stroke-width="1.0" width="791" x="0" y="0" /><g id="-2-1W"><polygon fill="none" points="73.664483028,25.0 7.66666666667,25.0 0,17.3333333333 0,2.0 37.5,2.0 37.5,-2.0 0,-2.0 0,-17.3333333333 7.66666666667,-25.0 76.5677807932,-25.0 145.005834605,-17.0252700131 151.733623483,-8.52277553418 149.958917882,6.70750782307 112.71094228,2.36719521276 112.247975602,6.34031261031 149.495951204,10.6806252206 147.721245603,25.9109085779 139.218751124,32.6386974562" stroke="rgb(0,0,255)" stroke-width="1.0" transform="translate(0,0.0)" /><text fill="none" stroke="rgb(246,146,30)" transform="translate(42.5,5.0) rotate(0.0580008275461)" x="0" y="0">(-2,-1) W</text></g><g id="-22W"><polygon fill="none" points="73.664483028,25.0 7.66666666667,25.0 0,17.3333333333 0,2.0 37.5,2.0 37.5,-2.0 0,-2.0 0,-17.3333333333 7.66666666667,-25.0 76.5677807932,-25.0 145.005834605,-17.0252700131 151.733623483,-8.52277553418 149.958917882,6.70750782307 112.71094228,2.36719521276 112.247975602,6.34031261031 149.495951204,10.6806252206 147.721245603,25.9109085779 139.218751124,32.6386974562" stroke="rgb(0,0,255)" stroke-width="1.0" transform="translate(0,53.0)" /><text fill="none" stroke="rgb(246,146,30)" transform="translate(42.5,58.0) rotate(0.0580008275461)" x="0" y="0">(-2,2) W</text></g><g id="2-3W"><polygon fill="none" points="73.664483028,25.0 7.66666666667,25.0 0,17.3333333333 0,2.0 37.5,2.0 37.5,-2.0 0,-2.0 0,-17.3333333333 7.66666666667,-25.0 76.5677807932,-25.0 145.005834605,-17.0252700131 151.733623483,-8.52277553418 149.958917882,6.70750782307 112.71094228,2.36719521276 112.247975602,6.34031261031 149.495951204,10.6806252206 147.721245603,25.9109085779 139.218751124,32.6386974562" stroke="rgb(0,0,255)" stroke-width="1.0" transform="translate(0,106.0)" /><text fill="none" stroke="rgb(246,146,30)" transform="translate(42.5,111.0) rotate(0.0580008275461)" x="0" y="0">(2,-3) W</text></g><g id="20W"><polygon fill="none" points="73.664483028,25.0 7.66666666667,25.0 0,17.3333333333 0,2.0 37.5,2.0 37.5,-2.0 0,-2.0 0,-17.3333333333 7.66666666667,-25.0 76.5677807932,-25.0 145.005834605,-17.0252700131 151.733623483,-8.52277553418 149.958917882,6.70750782307 112.71094228,2.36719521276 112.247975602,6.34031261031 149.495951204,10.6806252206 147.721245603,25.9109085779 139.218751124,32.6386974562" stroke="rgb(0,0,255)" stroke-width="1.0" transform="translate(0,159.0)" /><text fill="none" stroke="rgb(246,146,30)" transform="translate(42.5,164.0) rotate(0.0580008275461)" x="0" y="0">(2,0) W</text></g><g id="-30E"><polygon fill="none" points="73.664483028,25.0 7.66666666667,25.0 0,17.3333333333 0,2.0 37.5,2.0 37.5,-2.0 0,-2.0 0,-17.3333333333 7.66666666667,-25.0 76.5677807932,-25.0 145.005834605,-17.0252700131 151.733623483,-8.52277553418 149.958917882,6.70750782307 112.71094228,2.36719521276 112.247975602,6.34031261031 149.495951204,10.6806252206 147.721245603,25.9109085779 139.218751124,32.6386974562" stroke="rgb(0,0,255)" stroke-width="1.0" transform="translate(0,212.0)" /><text fill="none" stroke="rgb(246,146,30)" transform="translate(42.5,217.0) rotate(0.0580008275461)" x="0" y="0">(-3,0) E</text></g><g id="-12E"><polygon fill="none" points="73.664483028,25.0 7.66666666667,25.0 0,17.3333333333 0,2.0 37.5,2.0 37.5,-2.0 0,-2.0 0,-17.3333333333 7.66666666667,-25.0 76.5677807932,-25.0 145.005834605,-17.0252700131 151.733623483,-8.52277553418 149.958917882,6.70750782307 112.71094228,2.36719521276 112.247975602,6.34031261031 149.495951204,10.6806252206 147.721245603,25.9109085779 139.218751124,32.6386974562" stroke="rgb(0,0,255)" stroke-width="1.0" transform="translate(0,265.0)" /><text fill="none" stroke="rgb(246,146,30)" transform="translate(42.5,270.0) rotate(0.0580008275461)" x="0" y="0">(-1,2) E</text></g><g id="0-3E"><polygon fill="none" points="73.664483028,25.0 7.66666666667,25.0 0,17.3333333333 0,2.0 37.5,2.0 37.5,-2.0 0,-2.0 0,-17.3333333333 7.66666666667,-25.0 76.5677807932,-25.0 145.005834605,-17.0252700131 151.733623483,-8.52277553418 149.958917882,6.70750782307 112.71094228,2.36719521276 112.247975602,6.34031261031 149.495951204,10.6806252206 147.721245603,25.9109085779 139.218751124,32.6386974562" stroke="rgb(0,0,255)" stroke-width="1.0" transform="translate(0,318.0)" /><text fill="none" stroke="rgb(246,146,30)" transform="translate(42.5,323.0) rotate(0.0580008275461)" x="0" y="0">(0,-3) E</text></g><g id="2-1E"><polygon fill="none" points="73.664483028,25.0 7.66666666667,25.0 0,17.3333333333 0,2.0 37.5,2.0 37.5,-2.0 0,-2.0 0,-17.3333333333 7.66666666667,-25.0 76.5677807932,-25.0 145.005834605,-17.0252700131 151.733623483,-8.52277553418 149.958917882,6.70750782307 112.71094228,2.36719521276 112.247975602,6.34031261031 149.495951204,10.6806252206 147.721245603,25.9109085779 139.218751124,32.6386974562" stroke="rgb(0,0,255)" stroke-width="1.0" transform="translate(0,371.0)" /><text fill="none" stroke="rgb(246,146,30)" transform="translate(42.5,376.0) rotate(0.0580008275461)" x="0" y="0">(2,-1) E</text></g><g id="-20W"><polygon fill="none" points="73.608685891,25.0 7.66666666667,25.0 0,17.3333333333 0,2.0 37.5,2.0 37.5,-2.0 0,-2.0 0,-17.3333333333 7.66666666667,-25.0 76.6332817801,-25.0 145.0970019,-16.6865754605 151.783603313,-8.15165208125 149.935281348,7.06987271171 112.708726148,2.54952007851 112.2265552,6.5203526332 149.4531104,11.0407052664 147.604788435,26.2622300594 139.069865056,32.948831473" stroke="rgb(0,0,255)" stroke-width="1.0" transform="translate(0,424.0)" /><text fill="none" stroke="rgb(246,146,30)" transform="translate(42.5,429.0) rotate(0.0604182938964)" x="0" y="0">(-2,0) W</text></g><g id="-21W"><polygon fill="none" points="73.608685891,25.0 7.66666666667,25.0 0,17.3333333333 0,2.0 37.5,2.0 37.5,-2.0 0,-2.0 0,-17.3333333333 7.66666666667,-25.0 76.6332817801,-25.0 145.0970019,-16.6865754605 151.783603313,-8.15165208125 149.935281348,7.06987271171 112.708726148,2.54952007851 112.2265552,6.5203526332 149.4531104,11.0407052664 147.604788435,26.2622300594 139.069865056,32.948831473" stroke="rgb(0,0,255)" stroke-width="1.0" transform="translate(0,477.0)" /><text fill="none" stroke="rgb(246,146,30)" transform="translate(42.5,482.0) rotate(0.0604182938964)" x="0" y="0">(-2,1) W</text></g><g id="2-2W"><polygon fill="none" points="73.608685891,25.0 7.66666666667,25.0 0,17.3333333333 0,2.0 37.5,2.0 37.5,-2.0 0,-2.0 0,-17.3333333333 7.66666666667,-25.0 76.6332817801,-25.0 145.0970019,-16.6865754605 151.783603313,-8.15165208125 149.935281348,7.06987271171 112.708726148,2.54952007851 112.2265552,6.5203526332 149.4531104,11.0407052664 147.604788435,26.2622300594 139.069865056,32.948831473" stroke="rgb(0,0,255)" stroke-width="1.0" transform="translate(0,530.0)" /><text fill="none" stroke="rgb(246,146,30)" transform="translate(42.5,535.0) rotate(0.0604182938964)" x="0" y="0">(2,-2) W</text></g><g id="2-1W"><polygon fill="none" points="73.608685891,25.0 7.66666666667,25.0 0,17.3333333333 0,2.0 37.5,2.0 37.5,-2.0 0,-2.0 0,-17.3333333333 7.66666666667,-25.0 76.6332817801,-25.0 145.0970019,-16.6865754605 151.783603313,-8.15165208125 149.935281348,7.06987271171 112.708726148,2.54952007851 112.2265552,6.5203526332 149.4531104,11.0407052664 147.604788435,26.2622300594 139.069865056,32.948831473" stroke="rgb(0,0,255)" stroke-width="1.0" transform="translate(0,583.0)" /><text fill="none" stroke="rgb(246,146,30)" transform="translate(42.5,588.0) rotate(0.0604182938964)" x="0" y="0">(2,-1) W</text></g><g id="-2-1E"><polygon fill="none" points="73.608685891,25.0 7.66666666667,25.0 0,17.3333333333 0,2.0 37.5,2.0 37.5,-2.0 0,-2.0 0,-17.3333333333 7.66666666667,-25.0 76.6332817801,-25.0 145.0970019,-16.6865754605 151.783603313,-8.15165208125 149.935281348,7.06987271171 112.708726148,2.54952007851 112.2265552,6.5203526332 149.4531104,11.0407052664 147.604788435,26.2622300594 139.069865056,32.948831473" stroke="rgb(0,0,255)" stroke-width="1.0" transform="translate(0,636.0)" /><text fill="none" stroke="rgb(246,146,30)" transform="translate(42.5,641.0) rotate(0.0604182938964)" x="0" y="0">(-2,-1) E</text></g><g id="-1-2E"><polygon fill="none" points="73.608685891,25.0 7.66666666667,25.0 0,17.3333333333 0,2.0 37.5,2.0 37.5,-2.0 0,-2.0 0,-17.3333333333 7.66666666667,-25.0 76.6332817801,-25.0 145.0970019,-16.6865754605 151.783603313,-8.15165208125 149.935281348,7.06987271171 112.708726148,2.54952007851 112.2265552,6.5203526332 149.4531104,11.0407052664 147.604788435,26.2622300594 139.069865056,32.948831473" stroke="rgb(0,0,255)" stroke-width="1.0" transform="translate(0,689.0)" /><text fill="none" stroke="rgb(246,146,30)" transform="translate(42.5,694.0) rotate(0.0604182938964)" x="0" y="0">(-1,-2) E</text></g><g id="01E"><polygon fill="none" points="73.608685891,25.0 7.66666666667,25.0 0,17.3333333333 0,2.0 37.5,2.0 37.5,-2.0 0,-2.0 0,-17.3333333333 7.66666666667,-25.0 76.6332817801,-25.0 145.0970019,-16.6865754605 151.783603313,-8.15165208125 149.935281348,7.06987271171 112.708726148,2.54952007851 112.2265552,6.5203526332 149.4531104,11.0407052664 147.604788435,26.2622300594 139.069865056,32.948831473" stroke="rgb(0,0,255)" stroke-width="1.0" transform="translate(0,742.0)" /><text fill="none" stroke="rgb(246,146,30)" transform="translate(42.5,747.0) rotate(0.0604182938964)" x="0" y="0">(0,1) E</text></g><g id="10E"><polygon fill="none" points="73.608685891,25.0 7.66666666667,25.0 0,17.3333333333 0,2.0 37.5,2.0 37.5,-2.0 0,-2.0 0,-17.3333333333 7.66666666667,-25.0 76.6332817801,-25.0 145.0970019,-16.6865754605 151.783603313,-8.15165208125 149.935281348,7.06987271171 112.708726148,2.54952007851 112.2265552,6.5203526332 149.4531104,11.0407052664 147.604788435,26.2622300594 139.069865056,32.948831473" stroke="rgb(0,0,255)" stroke-width="1.0" transform="translate(0,795.0)" /><text fill="none" stroke="rgb(246,146,30)" transform="translate(42.5,800.0) rotate(0.0604182938964)" x="0" y="0">(1,0) E</text></g><g id="0-3W"><polygon fill="none" points="73.5924228589,25.0 7.66666666667,25.0 0,17.3333333333 0,2.0 37.5,2.0 37.5,-2.0 0,-2.0 0,-17.3333333333 7.66666666667,-25.0 76.6523731657,-25.0 145.123260959,-16.5877930424 151.797830371,-8.04345698101 149.928063721,7.17544849162 112.707914467,2.60264961895 112.220149254,6.57279887268 149.440298507,11.1455977454 147.570531857,26.364503218 139.026195796,33.0390726292" stroke="rgb(0,0,255)" stroke-width="1.0" transform="translate(0,848.0)" /><text fill="none" stroke="rgb(246,146,30)" transform="translate(42.5,853.0) rotate(0.0611227741173)" x="0" y="0">(0,-3) W</text></g><g id="02W"><polygon fill="none" points="73.5924228589,25.0 7.66666666667,25.0 0,17.3333333333 0,2.0 37.5,2.0 37.5,-2.0 0,-2.0 0,-17.3333333333 7.66666666667,-25.0 76.6523731657,-25.0 145.123260959,-16.5877930424 151.797830371,-8.04345698101 149.928063721,7.17544849162 112.707914467,2.60264961895 112.220149254,6.57279887268 149.440298507,11.1455977454 147.570531857,26.364503218 139.026195796,33.0390726292" stroke="rgb(0,0,255)" stroke-width="1.0" transform="translate(0,901.0)" /><text fill="none" stroke="rgb(246,146,30)" transform="translate(42.5,906.0) rotate(0.0611227741173)" x="0" y="0">(0,2) W</text></g><g id="-32E"><polygon fill="none" points="73.5924228589,25.0 7.66666666667,25.0 0,17.3333333333 0,2.0 37.5,2.0 37.5,-2.0 0,-2.0 0,-17.3333333333 7.66666666667,-25.0 76.6523731657,-25.0 145.123260959,-16.5877930424 151.797830371,-8.04345698101 149.928063721,7.17544849162 112.707914467,2.60264961895 112.220149254,6.57279887268 149.440298507,11.1455977454 147.570531857,26.364503218 139.026195796,33.0390726292" stroke="rgb(0,0,255)" stroke-width="1.0" transform="translate(0,954.0)" /><text fill="none" stroke="rgb(246,146,30)" transform="translate(42.5,959.0) rotate(0.0611227741173)" x="0" y="0">(-3,2) E</text></g><g id="2-3E"><polygon fill="none" points="73.5924228589,25.0 7.66666666667,25.0 0,17.3333333333 0,2.0 37.5,2.0 37.5,-2.0 0,-2.0 0,-17.3333333333 7.66666666667,-25.0 76.6523731657,-25.0 145.123260959,-16.5877930424 151.797830371,-8.04345698101 149.928063721,7.17544849162 112.707914467,2.60264961895 112.220149254,6.57279887268 149.440298507,11.1455977454 147.570531857,26.364503218 139.026195796,33.0390726292" stroke="rgb(0,0,255)" stroke-width="1.0" transform="translate(0,1007.0)" /><text fill="none" stroke="rgb(246,146,30)" transform="translate(42.5,1012.0) rotate(0.0611227741173)" x="0" y="0">(2,-3) E</text></g><g id="-1-2W"><polygon fill="none" points="73.5688112527,25.0 7.66666666667,25.0 0,17.3333333333 0,2.0 37.5,2.0 37.5,-2.0 0,-2.0 0,-17.3333333333 7.66666666667,-25.0 76.6800911381,-25.0 145.161133595,-16.444324614 151.818212529,-7.88635431594 149.917321165,7.32869491609 112.706602934,2.67977581908 112.21071823,6.648919097 149.421436461,11.297838194 147.520545097,26.512887426 138.962574799,33.16996636" stroke="rgb(0,0,255)" stroke-width="1.0" transform="translate(0,1060.0)" /><text fill="none" stroke="rgb(246,146,30)" transform="translate(42.5,1065.0) rotate(0.0621454707533)" x="0" y="0">(-1,-2) W</text></g><g id="11W"><polygon fill="none" points="73.5688112527,25.0 7.66666666667,25.0 0,17.3333333333 0,2.0 37.5,2.0 37.5,-2.0 0,-2.0 0,-17.3333333333 7.66666666667,-25.0 76.6800911381,-25.0 145.161133595,-16.444324614 151.818212529,-7.88635431594 149.917321165,7.32869491609 112.706602934,2.67977581908 112.21071823,6.648919097 149.421436461,11.297838194 147.520545097,26.512887426 138.962574799,33.16996636" stroke="rgb(0,0,255)" stroke-width="1.0" transform="translate(0,1113.0)" /><text fill="none" stroke="rgb(246,146,30)" transform="translate(42.5,1118.0) rotate(0.0621454707533)" x="0" y="0">(1,1) W</text></g><g id="-31E"><polygon fill="none" points="73.5688112527,25.0 7.66666666667,25.0 0,17.3333333333 0,2.0 37.5,2.0 37.5,-2.0 0,-2.0 0,-17.3333333333 7.66666666667,-25.0 76.6800911381,-25.0 145.161133595,-16.444324614 151.818212529,-7.88635431594 149.917321165,7.32869491609 112.706602934,2.67977581908 112.21071823,6.648919097 149.421436461,11.297838194 147.520545097,26.512887426 138.962574799,33.16996636" stroke="rgb(0,0,255)" stroke-width="1.0" transform="translate(0,1166.0)" /><text fill="none" stroke="rgb(246,146,30)" transform="translate(42.5,1171.0) rotate(0.0621454707533)" x="0" y="0">(-3,1) E</text></g><g id="2-2E"><polygon fill="none" points="73.5688112527,25.0 7.66666666667,25.0 0,17.3333333333 0,2.0 37.5,2.0 37.5,-2.0 0,-2.0 0,-17.3333333333 7.66666666667,-25.0 76.6800911381,-25.0 145.161133595,-16.444324614 151.818212529,-7.88635431594 149.917321165,7.32869491609 112.706602934,2.67977581908 112.21071823,6.648919097 149.421436461,11.297838194 147.520545097,26.512887426 138.962574799,33.16996636" stroke="rgb(0,0,255)" stroke-width="1.0" transform="translate(0,1219.0)" /><text fill="none" stroke="rgb(246,146,30)" transform="translate(42.5,1224.0) rotate(0.0621454707533)" x="0" y="0">(2,-2) E</text></g><g id="-12W"><polygon fill="none" points="73.5688112527,25.0 7.66666666667,25.0 0,17.3333333333 0,2.0 37.5,2.0 37.5,-2.0 0,-2.0 0,-17.3333333333 7.66666666667,-25.0 76.6800911381,-25.0 145.161133595,-16.444324614 151.818212529,-7.88635431594 149.917321165,7.32869491609 112.706602934,2.67977581908 112.21071823,6.648919097 149.421436461,11.297838194 147.520545097,26.512887426 138.962574799,33.16996636" stroke="rgb(0,0,255)" stroke-width="1.0" transform="translate(0,1272.0)" /><text fill="none" stroke="rgb(246,146,30)" transform="translate(42.5,1277.0) rotate(0.0621454707533)" x="0" y="0">(-1,2) W</text></g><g id="1-3W"><polygon fill="none" points="73.5688112527,25.0 7.66666666667,25.0 0,17.3333333333 0,2.0 37.5,2.0 37.5,-2.0 0,-2.0 0,-17.3333333333 7.66666666667,-25.0 76.6800911381,-25.0 145.161133595,-16.444324614 151.818212529,-7.88635431594 149.917321165,7.32869491609 112.706602934,2.67977581908 112.21071823,6.648919097 149.421436461,11.297838194 147.520545097,26.512887426 138.962574799,33.16996636" stroke="rgb(0,0,255)" stroke-width="1.0" transform="translate(0,1325.0)" /><text fill="none" stroke="rgb(246,146,30)" transform="translate(42.5,1330.0) rotate(0.0621454707533)" x="0" y="0">(1,-3) W</text></g><g id="-22E"><polygon fill="none" points="73.5688112527,25.0 7.66666666667,25.0 0,17.3333333333 0,2.0 37.5,2.0 37.5,-2.0 0,-2.0 0,-17.3333333333 7.66666666667,-25.0 76.6800911381,-25.0 145.161133595,-16.444324614 151.818212529,-7.88635431594 149.917321165,7.32869491609 112.706602934,2.67977581908 112.21071823,6.648919097 149.421436461,11.297838194 147.520545097,26.512887426 138.962574799,33.16996636" stroke="rgb(0,0,255)" stroke-width="1.0" transform="translate(0,1378.0)" /><text fill="none" stroke="rgb(246,146,30)" transform="translate(42.5,1383.0) rotate(0.0621454707533)" x="0" y="0">(-2,2) E</text></g><g id="1-3E"><polygon fill="none" points="73.5688112527,25.0 7.66666666667,25.0 0,17.3333333333 0,2.0 37.5,2.0 37.5,-2.0 0,-2.0 0,-17.3333333333 7.66666666667,-25.0 76.6800911381,-25.0 145.161133595,-16.444324614 151.818212529,-7.88635431594 149.917321165,7.32869491609 112.706602934,2.67977581908 112.21071823,6.648919097 149.421436461,11.297838194 147.520545097,26.512887426 138.962574799,33.16996636" stroke="rgb(0,0,255)" stroke-width="1.0" transform="translate(0,1431.0)" /><text fill="none" stroke="rgb(246,146,30)" transform="translate(42.5,1436.0) rotate(0.0621454707533)" x="0" y="0">(1,-3) E</text></g><g id="-1-1W"><polygon fill="none" points="73.4574150444,25.0 7.66666666667,25.0 0,17.3333333333 0,2.0 37.5,2.0 37.5,-2.0 0,-2.0 0,-17.3333333333 7.66666666667,-25.0 76.8108606,-25.0 145.335785954,-15.7666820757 151.910003751,-7.1448947948 149.862434267,8.0511102828 112.698291414,3.04346752258 112.164142853,7.00764276022 149.328285706,12.0152855204 147.280716221,27.211290598 138.658928941,33.7855083948" stroke="rgb(0,0,255)" stroke-width="1.0" transform="translate(0,1484.0)" /><text fill="none" stroke="rgb(246,146,30)" transform="translate(42.5,1489.0) rotate(0.0669686176655)" x="0" y="0">(-1,-1) W</text></g><g id="-11W"><polygon fill="none" points="73.4574150444,25.0 7.66666666667,25.0 0,17.3333333333 0,2.0 37.5,2.0 37.5,-2.0 0,-2.0 0,-17.3333333333 7.66666666667,-25.0 76.8108606,-25.0 145.335785954,-15.7666820757 151.910003751,-7.1448947948 149.862434267,8.0511102828 112.698291414,3.04346752258 112.164142853,7.00764276022 149.328285706,12.0152855204 147.280716221,27.211290598 138.658928941,33.7855083948" stroke="rgb(0,0,255)" stroke-width="1.0" transform="translate(0,1537.0)" /><text fill="none" stroke="rgb(246,146,30)" transform="translate(42.5,1542.0) rotate(0.0669686176655)" x="0" y="0">(-1,1) W</text></g><g id="1-2W"><polygon fill="none" points="73.4574150444,25.0 7.66666666667,25.0 0,17.3333333333 0,2.0 37.5,2.0 37.5,-2.0 0,-2.0 0,-17.3333333333 7.66666666667,-25.0 76.8108606,-25.0 145.335785954,-15.7666820757 151.910003751,-7.1448947948 149.862434267,8.0511102828 112.698291414,3.04346752258 112.164142853,7.00764276022 149.328285706,12.0152855204 147.280716221,27.211290598 138.658928941,33.7855083948" stroke="rgb(0,0,255)" stroke-width="1.0" transform="translate(0,1590.0)" /><text fill="none" stroke="rgb(246,146,30)" transform="translate(42.5,1595.0) rotate(0.0669686176655)" x="0" y="0">(1,-2) W</text></g><g id="10W"><polygon fill="none" points="73.4574150444,25.0 7.66666666667,25.0 0,17.3333333333 0,2.0 37.5,2.0 37.5,-2.0 0,-2.0 0,-17.3333333333 7.66666666667,-25.0 76.8108606,-25.0 145.335785954,-15.7666820757 151.910003751,-7.1448947948 149.862434267,8.0511102828 112.698291414,3.04346752258 112.164142853,7.00764276022 149.328285706,12.0152855204 147.280716221,27.211290598 138.658928941,33.7855083948" stroke="rgb(0,0,255)" stroke-width="1.0" transform="translate(0,1643.0)" /><text fill="none" stroke="rgb(246,146,30)" transform="translate(42.5,1648.0) rotate(0.0669686176655)" x="0" y="0">(1,0) W</text></g><g id="-20E"><polygon fill="none" points="73.4574150444,25.0 7.66666666667,25.0 0,17.3333333333 0,2.0 37.5,2.0 37.5,-2.0 0,-2.0 0,-17.3333333333 7.66666666667,-25.0 76.8108606,-25.0 145.335785954,-15.7666820757 151.910003751,-7.1448947948 149.862434267,8.0511102828 112.698291414,3.04346752258 112.164142853,7.00764276022 149.328285706,12.0152855204 147.280716221,27.211290598 138.658928941,33.7855083948" stroke="rgb(0,0,255)" stroke-width="1.0" transform="translate(0,1696.0)" /><text fill="none" stroke="rgb(246,146,30)" transform="translate(42.5,1701.0) rotate(0.0669686176655)" x="0" y="0">(-2,0) E</text></g><g id="-11E"><polygon fill="none" points="73.4574150444,25.0 7.66666666667,25.0 0,17.3333333333 0,2.0 37.5,2.0 37.5,-2.0 0,-2.0 0,-17.3333333333 7.66666666667,-25.0 76.8108606,-25.0 145.335785954,-15.7666820757 151.910003751,-7.1448947948 149.862434267,8.0511102828 112.698291414,3.04346752258 112.164142853,7.00764276022 149.328285706,12.0152855204 147.280716221,27.211290598 138.658928941,33.7855083948" stroke="rgb(0,0,255)" stroke-width="1.0" transform="translate(0,1749.0)" /><text fill="none" stroke="rgb(246,146,30)" transform="translate(42.5,1754.0) rotate(0.0669686176655)" x="0" y="0">(-1,1) E</text></g><g id="0-2E"><polygon fill="none" points="73.4574150444,25.0 7.66666666667,25.0 0,17.3333333333 0,2.0 37.5,2.0 37.5,-2.0 0,-2.0 0,-17.3333333333 7.66666666667,-25.0 76.8108606,-25.0 145.335785954,-15.7666820757 151.910003751,-7.1448947948 149.862434267,8.0511102828 112.698291414,3.04346752258 112.164142853,7.00764276022 149.328285706,12.0152855204 147.280716221,27.211290598 138.658928941,33.7855083948" stroke="rgb(0,0,255)" stroke-width="1.0" transform="translate(0,1802.0)" /><text fill="none" stroke="rgb(246,146,30)" transform="translate(42.5,1807.0) rotate(0.0669686176655)" x="0" y="0">(0,-2) E</text></g><g id="1-1E"><polygon fill="none" points="73.4574150444,25.0 7.66666666667,25.0 0,17.3333333333 0,2.0 37.5,2.0 37.5,-2.0 0,-2.0 0,-17.3333333333 7.66666666667,-25.0 76.8108606,-25.0 145.335785954,-15.7666820757 151.910003751,-7.1448947948 149.862434267,8.0511102828 112.698291414,3.04346752258 112.164142853,7.00764276022 149.328285706,12.0152855204 147.280716221,27.211290598 138.658928941,33.7855083948" stroke="rgb(0,0,255)" stroke-width="1.0" transform="translate(0,1855.0)" /><text fill="none" stroke="rgb(246,146,30)" transform="translate(42.5,1860.0) rotate(0.0669686176655)" x="0" y="0">(1,-1) E</text></g><g id="0-2W"><polygon fill="none" points="73.4458040297,25.0 7.66666666667,25.0 0,17.3333333333 0,2.0 37.5,2.0 37.5,-2.0 0,-2.0 0,-17.3333333333 7.66666666667,-25.0 76.8244909217,-25.0 145.353607683,-15.6959787437 151.919156418,-7.06758808466 149.856314494,8.12635130928 112.697223585,3.08135747282 112.159090909,7.04499383646 149.318181818,12.0899876729 147.255339894,27.2839270669 138.626949235,33.8494758017" stroke="rgb(0,0,255)" stroke-width="1.0" transform="translate(0,1908.0)" /><text fill="none" stroke="rgb(246,146,30)" transform="translate(42.5,1913.0) rotate(0.0674711667501)" x="0" y="0">(0,-2) W</text></g><g id="01W"><polygon fill="none" points="73.4458040297,25.0 7.66666666667,25.0 0,17.3333333333 0,2.0 37.5,2.0 37.5,-2.0 0,-2.0 0,-17.3333333333 7.66666666667,-25.0 76.8244909217,-25.0 145.353607683,-15.6959787437 151.919156418,-7.06758808466 149.856314494,8.12635130928 112.697223585,3.08135747282 112.159090909,7.04499383646 149.318181818,12.0899876729 147.255339894,27.2839270669 138.626949235,33.8494758017" stroke="rgb(0,0,255)" stroke-width="1.0" transform="translate(0,1961.0)" /><text fill="none" stroke="rgb(246,146,30)" transform="translate(42.5,1966.0) rotate(0.0674711667501)" x="0" y="0">(0,1) W</text></g><g id="-21E"><polygon fill="none" points="73.4458040297,25.0 7.66666666667,25.0 0,17.3333333333 0,2.0 37.5,2.0 37.5,-2.0 0,-2.0 0,-17.3333333333 7.66666666667,-25.0 76.8244909217,-25.0 145.353607683,-15.6959787437 151.919156418,-7.06758808466 149.856314494,8.12635130928 112.697223585,3.08135747282 112.159090909,7.04499383646 149.318181818,12.0899876729 147.255339894,27.2839270669 138.626949235,33.8494758017" stroke="rgb(0,0,255)" stroke-width="1.0" transform="translate(0,2014.0)" /><text fill="none" stroke="rgb(246,146,30)" transform="translate(42.5,2019.0) rotate(0.0674711667501)" x="0" y="0">(-2,1) E</text></g><g id="1-2E"><polygon fill="none" points="73.4458040297,25.0 7.66666666667,25.0 0,17.3333333333 0,2.0 37.5,2.0 37.5,-2.0 0,-2.0 0,-17.3333333333 7.66666666667,-25.0 76.8244909217,-25.0 145.353607683,-15.6959787437 151.919156418,-7.06758808466 149.856314494,8.12635130928 112.697223585,3.08135747282 112.159090909,7.04499383646 149.318181818,12.0899876729 147.255339894,27.2839270669 138.626949235,33.8494758017" stroke="rgb(0,0,255)" stroke-width="1.0" transform="translate(0,2067.0)" /><text fill="none" stroke="rgb(246,146,30)" transform="translate(42.5,2072.0) rotate(0.0674711667501)" x="0" y="0">(1,-2) E</text></g><g id="-10W"><polygon fill="none" points="73.414089435,25.0 7.66666666667,25.0 0,17.3333333333 0,2.0 37.5,2.0 37.5,-2.0 0,-2.0 0,-17.3333333333 7.66666666667,-25.0 76.8617210981,-25.0 145.40191801,-15.502791727 151.943757115,-6.85641117269 149.839215665,8.33180848586 112.694113239,3.18483211355 112.145102426,7.14697637231 149.290204852,12.2939527446 147.185663402,27.4821724032 138.539282847,34.0240115074" stroke="rgb(0,0,255)" stroke-width="1.0" transform="translate(0,2120.0)" /><text fill="none" stroke="rgb(246,146,30)" transform="translate(42.5,2125.0) rotate(0.0688436662987)" x="0" y="0">(-1,0) W</text></g><g id="1-1W"><polygon fill="none" points="73.414089435,25.0 7.66666666667,25.0 0,17.3333333333 0,2.0 37.5,2.0 37.5,-2.0 0,-2.0 0,-17.3333333333 7.66666666667,-25.0 76.8617210981,-25.0 145.40191801,-15.502791727 151.943757115,-6.85641117269 149.839215665,8.33180848586 112.694113239,3.18483211355 112.145102426,7.14697637231 149.290204852,12.2939527446 147.185663402,27.4821724032 138.539282847,34.0240115074" stroke="rgb(0,0,255)" stroke-width="1.0" transform="translate(0,2173.0)" /><text fill="none" stroke="rgb(246,146,30)" transform="translate(42.5,2178.0) rotate(0.0688436662987)" x="0" y="0">(1,-1) W</text></g><g id="-1-1E"><polygon fill="none" points="73.414089435,25.0 7.66666666667,25.0 0,17.3333333333 0,2.0 37.5,2.0 37.5,-2.0 0,-2.0 0,-17.3333333333 7.66666666667,-25.0 76.8617210981,-25.0 145.40191801,-15.502791727 151.943757115,-6.85641117269 149.839215665,8.33180848586 112.694113239,3.18483211355 112.145102426,7.14697637231 149.290204852,12.2939527446 147.185663402,27.4821724032 138.539282847,34.0240115074" stroke="rgb(0,0,255)" stroke-width="1.0" transform="translate(0,2226.0)" /><text fill="none" stroke="rgb(246,146,30)" transform="translate(42.5,2231.0) rotate(0.0688436662987)" x="0" y="0">(-1,-1) E</text></g><g id="00E"><polygon fill="none" points="73.414089435,25.0 7.66666666667,25.0 0,17.3333333333 0,2.0 37.5,2.0 37.5,-2.0 0,-2.0 0,-17.3333333333 7.66666666667,-25.0 76.8617210981,-25.0 145.40191801,-15.502791727 151.943757115,-6.85641117269 149.839215665,8.33180848586 112.694113239,3.18483211355 112.145102426,7.14697637231 149.290204852,12.2939527446 147.185663402,27.4821724032 138.539282847,34.0240115074" stroke="rgb(0,0,255)" stroke-width="1.0" transform="translate(0,2279.0)" /><text fill="none" stroke="rgb(246,146,30)" transform="translate(42.5,2284.0) rotate(0.0688436662987)" x="0" y="0">(0,0) E</text></g><g id="0-1W"><polygon fill="none" points="73.3529357897,25.0 7.66666666667,25.0 0,17.3333333333 0,2.0 37.5,2.0 37.5,-2.0 0,-2.0 0,-17.3333333333 7.66666666667,-25.0 76.9335101599,-25.0 145.493549128,-15.1300119427 151.989543954,-6.44913602093 149.804662859,8.72773472737 112.68731592,3.38427552695 112.117346939,7.34345920042 149.234693878,12.6869184008 147.049812782,27.8637891491 138.36893686,34.3597839757" stroke="rgb(0,0,255)" stroke-width="1.0" transform="translate(0,2332.0)" /><text fill="none" stroke="rgb(246,146,30)" transform="translate(42.5,2337.0) rotate(0.0714894498855)" x="0" y="0">(0,-1) W</text></g><g id="00W"><polygon fill="none" points="73.3529357897,25.0 7.66666666667,25.0 0,17.3333333333 0,2.0 37.5,2.0 37.5,-2.0 0,-2.0 0,-17.3333333333 7.66666666667,-25.0 76.9335101599,-25.0 145.493549128,-15.1300119427 151.989543954,-6.44913602093 149.804662859,8.72773472737 112.68731592,3.38427552695 112.117346939,7.34345920042 149.234693878,12.6869184008 147.049812782,27.8637891491 138.36893686,34.3597839757" stroke="rgb(0,0,255)" stroke-width="1.0" transform="translate(0,2385.0)" /><text fill="none" stroke="rgb(246,146,30)" transform="translate(42.5,2390.0) rotate(0.0714894498855)" x="0" y="0">(0,0) W</text></g><g id="-10E"><polygon fill="none" points="73.3529357897,25.0 7.66666666667,25.0 0,17.3333333333 0,2.0 37.5,2.0 37.5,-2.0 0,-2.0 0,-17.3333333333 7.66666666667,-25.0 76.9335101599,-25.0 145.493549128,-15.1300119427 151.989543954,-6.44913602093 149.804662859,8.72773472737 112.68731592,3.38427552695 112.117346939,7.34345920042 149.234693878,12.6869184008 147.049812782,27.8637891491 138.36893686,34.3597839757" stroke="rgb(0,0,255)" stroke-width="1.0" transform="translate(0,2438.0)" /><text fill="none" stroke="rgb(246,146,30)" transform="translate(42.5,2443.0) rotate(0.0714894498855)" x="0" y="0">(-1,0) E</text></g><g id="0-1E"><polygon fill="none" points="73.3529357897,25.0 7.66666666667,25.0 0,17.3333333333 0,2.0 37.5,2.0 37.5,-2.0 0,-2.0 0,-17.3333333333 7.66666666667,-25.0 76.9335101599,-25.0 145.493549128,-15.1300119427 151.989543954,-6.44913602093 149.804662859,8.72773472737 112.68731592,3.38427552695 112.117346939,7.34345920042 149.234693878,12.6869184008 147.049812782,27.8637891491 138.36893686,34.3597839757" stroke="rgb(0,0,255)" stroke-width="1.0" transform="translate(0,2491.0)" /><text fill="none" stroke="rgb(246,146,30)" transform="translate(42.5,2496.0) rotate(0.0714894498855)" x="0" y="0">(0,-1) E</text></g><g id="-30S"><polygon fill="none" points="72.7227551072,25.0 7.66666666667,25.0 0,17.3333333333 0,2.0 37.5,2.0 37.5,-2.0 0,-2.0 0,-17.3333333333 7.66666666667,-25.0 77.6732874828,-25.0 146.320668104,-11.2717775375 152.335054662,-2.25054093241 149.328204615,12.7850822308 112.55630014,5.43137287672 111.771904475,9.35370935408 148.54380895,16.7074187082 145.536958903,31.7430418714 136.515722298,37.7574284295" stroke="rgb(0,0,255)" stroke-width="1.0" transform="translate(0,2544.0)" /><text fill="none" stroke="rgb(246,146,30)" transform="translate(42.5,2549.0) rotate(0.0986889999237)" x="0" y="0">(-3,0) S</text></g><g id="-2-1S"><polygon fill="none" points="72.6627869512,25.0 7.66666666667,25.0 0,17.3333333333 0,2.0 37.5,2.0 37.5,-2.0 0,-2.0 0,-17.3333333333 7.66666666667,-25.0 77.7436848833,-25.0 146.388235119,-10.9033973942 152.355968086,-1.85123086948 149.271534528,13.1686686221 112.538084685,5.62521698607 111.733449844,9.54345163606 148.466899687,17.0869032721 145.382466129,32.1068027637 136.330299605,38.0745357306" stroke="rgb(0,0,255)" stroke-width="1.0" transform="translate(0,2597.0)" /><text fill="none" stroke="rgb(246,146,30)" transform="translate(42.5,2602.0) rotate(0.101270333791)" x="0" y="0">(-2,-1) S</text></g><g id="-1-2S"><polygon fill="none" points="72.6627869512,25.0 7.66666666667,25.0 0,17.3333333333 0,2.0 37.5,2.0 37.5,-2.0 0,-2.0 0,-17.3333333333 7.66666666667,-25.0 77.7436848833,-25.0 146.388235119,-10.9033973942 152.355968086,-1.85123086948 149.271534528,13.1686686221 112.538084685,5.62521698607 111.733449844,9.54345163606 148.466899687,17.0869032721 145.382466129,32.1068027637 136.330299605,38.0745357306" stroke="rgb(0,0,255)" stroke-width="1.0" transform="translate(0,2650.0)" /><text fill="none" stroke="rgb(246,146,30)" transform="translate(42.5,2655.0) rotate(0.101270333791)" x="0" y="0">(-1,-2) S</text></g><g id="-31S"><polygon fill="none" points="72.4131820589,25.0 7.66666666667,25.0 0,17.3333333333 0,2.0 37.5,2.0 37.5,-2.0 0,-2.0 0,-17.3333333333 7.66666666667,-25.0 78.0366993222,-25.0 146.64866823,-9.36864629823 152.420794535,-0.190513946057 149.014788488,14.7597447112 112.451655902,6.42983861769 111.563132586,10.3299060935 148.126265171,18.659812187 144.720259124,33.6100708442 135.542126772,39.3821971493" stroke="rgb(0,0,255)" stroke-width="1.0" transform="translate(0,2703.0)" /><text fill="none" stroke="rgb(246,146,30)" transform="translate(42.5,2708.0) rotate(0.111999678224)" x="0" y="0">(-3,1) S</text></g><g id="-32S"><polygon fill="none" points="72.2753744081,25.0 7.66666666667,25.0 0,17.3333333333 0,2.0 37.5,2.0 37.5,-2.0 0,-2.0 0,-17.3333333333 7.66666666667,-25.0 78.198473521,-25.0 146.778096126,-8.52058431146 152.441284658,0.72516342521 148.858725453,15.6340996936 112.396653058,6.87240598569 111.462072395,10.7616937079 147.924144791,19.5233874157 144.341585586,34.4323236841 135.095837849,40.0955122158" stroke="rgb(0,0,255)" stroke-width="1.0" transform="translate(0,2756.0)" /><text fill="none" stroke="rgb(246,146,30)" transform="translate(42.5,2761.0) rotate(0.11791246659)" x="0" y="0">(-3,2) S</text></g><g id="-20S"><polygon fill="none" points="72.2556877252,25.0 7.66666666667,25.0 0,17.3333333333 0,2.0 37.5,2.0 37.5,-2.0 0,-2.0 0,-17.3333333333 7.66666666667,-25.0 78.2215839747,-25.0 146.795752868,-8.39940612876 152.443326282,0.855888037061 148.835605529,15.7587556163 112.388375037,6.9355255152 111.447230493,10.8232301011 147.894460985,19.6464602022 144.286740233,34.5493277814 135.031446067,40.1969011948" stroke="rgb(0,0,255)" stroke-width="1.0" transform="translate(0,2809.0)" /><text fill="none" stroke="rgb(246,146,30)" transform="translate(42.5,2814.0) rotate(0.118756479304)" x="0" y="0">(-2,0) S</text></g><g id="0-2S"><polygon fill="none" points="72.2556877252,25.0 7.66666666667,25.0 0,17.3333333333 0,2.0 37.5,2.0 37.5,-2.0 0,-2.0 0,-17.3333333333 7.66666666667,-25.0 78.2215839747,-25.0 146.795752868,-8.39940612876 152.443326282,0.855888037061 148.835605529,15.7587556163 112.388375037,6.9355255152 111.447230493,10.8232301011 147.894460985,19.6464602022 144.286740233,34.5493277814 135.031446067,40.1969011948" stroke="rgb(0,0,255)" stroke-width="1.0" transform="translate(0,2862.0)" /><text fill="none" stroke="rgb(246,146,30)" transform="translate(42.5,2867.0) rotate(0.118756479304)" x="0" y="0">(0,-2) S</text></g><g id="02S"><polygon fill="none" points="72.2556877252,25.0 7.66666666667,25.0 0,17.3333333333 0,2.0 37.5,2.0 37.5,-2.0 0,-2.0 0,-17.3333333333 7.66666666667,-25.0 78.2215839747,-25.0 146.795752868,-8.39940612876 152.443326282,0.855888037061 148.835605529,15.7587556163 112.388375037,6.9355255152 111.447230493,10.8232301011 147.894460985,19.6464602022 144.286740233,34.5493277814 135.031446067,40.1969011948" stroke="rgb(0,0,255)" stroke-width="1.0" transform="translate(0,2915.0)" /><text fill="none" stroke="rgb(246,146,30)" transform="translate(42.5,2920.0) rotate(0.118756479304)" x="0" y="0">(0,2) S</text></g><g id="20S"><polygon fill="none" points="72.2556877252,25.0 7.66666666667,25.0 0,17.3333333333 0,2.0 37.5,2.0 37.5,-2.0 0,-2.0 0,-17.3333333333 7.66666666667,-25.0 78.2215839747,-25.0 146.795752868,-8.39940612876 152.443326282,0.855888037061 148.835605529,15.7587556163 112.388375037,6.9355255152 111.447230493,10.8232301011 147.894460985,19.6464602022 144.286740233,34.5493277814 135.031446067,40.1969011948" stroke="rgb(0,0,255)" stroke-width="1.0" transform="translate(0,2968.0)" /><text fill="none" stroke="rgb(246,146,30)" transform="translate(42.5,2973.0) rotate(0.118756479304)" x="0" y="0">(2,0) S</text></g><g id="-1-1S"><polygon fill="none" points="72.1967573641,25.0 7.66666666667,25.0 0,17.3333333333 0,2.0 37.5,2.0 37.5,-2.0 0,-2.0 0,-17.3333333333 7.66666666667,-25.0 78.2907630943,-25.0 146.847363351,-8.03664073733 152.448117215,1.24706066412 148.765169677,16.1315159295 112.3629693,7.12430727796 111.402200377,11.0072086515 147.804400755,20.0144173031 144.121453217,34.8988725684 134.837751816,40.4996264324" stroke="rgb(0,0,255)" stroke-width="1.0" transform="translate(0,3021.0)" /><text fill="none" stroke="rgb(246,146,30)" transform="translate(42.5,3026.0) rotate(0.121281937048)" x="0" y="0">(-1,-1) S</text></g><g id="11S"><polygon fill="none" points="72.1967573641,25.0 7.66666666667,25.0 0,17.3333333333 0,2.0 37.5,2.0 37.5,-2.0 0,-2.0 0,-17.3333333333 7.66666666667,-25.0 78.2907630943,-25.0 146.847363351,-8.03664073733 152.448117215,1.24706066412 148.765169677,16.1315159295 112.3629693,7.12430727796 111.402200377,11.0072086515 147.804400755,20.0144173031 144.121453217,34.8988725684 134.837751816,40.4996264324" stroke="rgb(0,0,255)" stroke-width="1.0" transform="translate(0,3074.0)" /><text fill="none" stroke="rgb(246,146,30)" transform="translate(42.5,3079.0) rotate(0.121281937048)" x="0" y="0">(1,1) S</text></g><g id="-22S"><polygon fill="none" points="72.0307127679,25.0 7.66666666667,25.0 0,17.3333333333 0,2.0 37.5,2.0 37.5,-2.0 0,-2.0 0,-17.3333333333 7.66666666667,-25.0 78.4856850116,-25.0 146.982768329,-7.01436861347 152.45099528,2.3480055278 148.556848091,17.1786066207 112.286356288,7.65487708084 111.270491803,11.5237295399 147.540983607,21.0474590797 143.646836417,35.8780601726 134.284462276,41.3462871242" stroke="rgb(0,0,255)" stroke-width="1.0" transform="translate(0,3127.0)" /><text fill="none" stroke="rgb(246,146,30)" transform="translate(42.5,3132.0) rotate(0.128389313635)" x="0" y="0">(-2,2) S</text></g><g id="2-2S"><polygon fill="none" points="72.0307127679,25.0 7.66666666667,25.0 0,17.3333333333 0,2.0 37.5,2.0 37.5,-2.0 0,-2.0 0,-17.3333333333 7.66666666667,-25.0 78.4856850116,-25.0 146.982768329,-7.01436861347 152.45099528,2.3480055278 148.556848091,17.1786066207 112.286356288,7.65487708084 111.270491803,11.5237295399 147.540983607,21.0474590797 143.646836417,35.8780601726 134.284462276,41.3462871242" stroke="rgb(0,0,255)" stroke-width="1.0" transform="translate(0,3180.0)" /><text fill="none" stroke="rgb(246,146,30)" transform="translate(42.5,3185.0) rotate(0.128389313635)" x="0" y="0">(2,-2) S</text></g><g id="-21S"><polygon fill="none" points="72.0122729899,25.0 7.66666666667,25.0 0,17.3333333333 0,2.0 37.5,2.0 37.5,-2.0 0,-2.0 0,-17.3333333333 7.66666666667,-25.0 78.5073317076,-25.0 146.99689458,-6.90083977105 152.450350163,2.47014618351 148.532819791,17.294587721 112.277392118,7.71367105126 111.255427673,11.5809166697 147.510855346,21.1618333395 143.593324975,35.986274877 134.22233902,41.4397304599" stroke="rgb(0,0,255)" stroke-width="1.0" transform="translate(0,3233.0)" /><text fill="none" stroke="rgb(246,146,30)" transform="translate(42.5,3238.0) rotate(0.129177819572)" x="0" y="0">(-2,1) S</text></g><g id="-12S"><polygon fill="none" points="72.0122729899,25.0 7.66666666667,25.0 0,17.3333333333 0,2.0 37.5,2.0 37.5,-2.0 0,-2.0 0,-17.3333333333 7.66666666667,-25.0 78.5073317076,-25.0 146.99689458,-6.90083977105 152.450350163,2.47014618351 148.532819791,17.294587721 112.277392118,7.71367105126 111.255427673,11.5809166697 147.510855346,21.1618333395 143.593324975,35.986274877 134.22233902,41.4397304599" stroke="rgb(0,0,255)" stroke-width="1.0" transform="translate(0,3286.0)" /><text fill="none" stroke="rgb(246,146,30)" transform="translate(42.5,3291.0) rotate(0.129177819572)" x="0" y="0">(-1,2) S</text></g><g id="1-2S"><polygon fill="none" points="72.0122729899,25.0 7.66666666667,25.0 0,17.3333333333 0,2.0 37.5,2.0 37.5,-2.0 0,-2.0 0,-17.3333333333 7.66666666667,-25.0 78.5073317076,-25.0 146.99689458,-6.90083977105 152.450350163,2.47014618351 148.532819791,17.294587721 112.277392118,7.71367105126 111.255427673,11.5809166697 147.510855346,21.1618333395 143.593324975,35.986274877 134.22233902,41.4397304599" stroke="rgb(0,0,255)" stroke-width="1.0" transform="translate(0,3339.0)" /><text fill="none" stroke="rgb(246,146,30)" transform="translate(42.5,3344.0) rotate(0.129177819572)" x="0" y="0">(1,-2) S</text></g><g id="2-1S"><polygon fill="none" points="72.0122729899,25.0 7.66666666667,25.0 0,17.3333333333 0,2.0 37.5,2.0 37.5,-2.0 0,-2.0 0,-17.3333333333 7.66666666667,-25.0 78.5073317076,-25.0 146.99689458,-6.90083977105 152.450350163,2.47014618351 148.532819791,17.294587721 112.277392118,7.71367105126 111.255427673,11.5809166697 147.510855346,21.1618333395 143.593324975,35.986274877 134.22233902,41.4397304599" stroke="rgb(0,0,255)" stroke-width="1.0" transform="translate(0,3392.0)" /><text fill="none" stroke="rgb(246,146,30)" transform="translate(42.5,3397.0) rotate(0.129177819572)" x="0" y="0">(2,-1) S</text></g><g id="-10S"><polygon fill="none" points="71.848524783,25.0 7.66666666667,25.0 0,17.3333333333 0,2.0 37.5,2.0 37.5,-2.0 0,-2.0 0,-17.3333333333 7.66666666667,-25.0 78.6995578635,-25.0 147.114365685,-5.89278402057 152.436194269,3.55357485869 148.311663974,18.3217623222 112.1938142,8.23459583976 111.117849775,12.0871664824 147.23569955,22.1743329648 143.111169255,36.9425204283 133.664810375,42.2643490125" stroke="rgb(0,0,255)" stroke-width="1.0" transform="translate(0,3445.0)" /><text fill="none" stroke="rgb(246,146,30)" transform="translate(42.5,3450.0) rotate(0.136172688035)" x="0" y="0">(-1,0) S</text></g><g id="0-1S"><polygon fill="none" points="71.848524783,25.0 7.66666666667,25.0 0,17.3333333333 0,2.0 37.5,2.0 37.5,-2.0 0,-2.0 0,-17.3333333333 7.66666666667,-25.0 78.6995578635,-25.0 147.114365685,-5.89278402057 152.436194269,3.55357485869 148.311663974,18.3217623222 112.1938142,8.23459583976 111.117849775,12.0871664824 147.23569955,22.1743329648 143.111169255,36.9425204283 133.664810375,42.2643490125" stroke="rgb(0,0,255)" stroke-width="1.0" transform="translate(0,3498.0)" /><text fill="none" stroke="rgb(246,146,30)" transform="translate(42.5,3503.0) rotate(0.136172688035)" x="0" y="0">(0,-1) S</text></g><g id="01S"><polygon fill="none" points="71.848524783,25.0 7.66666666667,25.0 0,17.3333333333 0,2.0 37.5,2.0 37.5,-2.0 0,-2.0 0,-17.3333333333 7.66666666667,-25.0 78.6995578635,-25.0 147.114365685,-5.89278402057 152.436194269,3.55357485869 148.311663974,18.3217623222 112.1938142,8.23459583976 111.117849775,12.0871664824 147.23569955,22.1743329648 143.111169255,36.9425204283 133.664810375,42.2643490125" stroke="rgb(0,0,255)" stroke-width="1.0" transform="translate(0,3551.0)" /><text fill="none" stroke="rgb(246,146,30)" transform="translate(42.5,3556.0) rotate(0.136172688035)" x="0" y="0">(0,1) S</text></g><g id="10S"><polygon fill="none" points="71.848524783,25.0 7.66666666667,25.0 0,17.3333333333 0,2.0 37.5,2.0 37.5,-2.0 0,-2.0 0,-17.3333333333 7.66666666667,-25.0 78.6995578635,-25.0 147.114365685,-5.89278402057 152.436194269,3.55357485869 148.311663974,18.3217623222 112.1938142,8.23459583976 111.117849775,12.0871664824 147.23569955,22.1743329648 143.111169255,36.9425204283 133.664810375,42.2643490125" stroke="rgb(0,0,255)" stroke-width="1.0" transform="translate(0,3604.0)" /><text fill="none" stroke="rgb(246,146,30)" transform="translate(42.5,3609.0) rotate(0.136172688035)" x="0" y="0">(1,0) S</text></g><g id="-11S"><polygon fill="none" points="71.7793558067,25.0 7.66666666667,25.0 0,17.3333333333 0,2.0 37.5,2.0 37.5,-2.0 0,-2.0 0,-17.3333333333 7.66666666667,-25.0 78.7807562269,-25.0 147.159688496,-5.46706996711 152.425677549,4.01053072336 148.214065912,18.754120467 112.156373604,8.4539833104 111.057692308,12.3001371566 147.115384615,22.6002743131 142.903772978,37.3438640567 133.426172288,42.6098531098" stroke="rgb(0,0,255)" stroke-width="1.0" transform="translate(0,3657.0)" /><text fill="none" stroke="rgb(246,146,30)" transform="translate(42.5,3662.0) rotate(0.139123411367)" x="0" y="0">(-1,1) S</text></g><g id="1-1S"><polygon fill="none" points="71.7793558067,25.0 7.66666666667,25.0 0,17.3333333333 0,2.0 37.5,2.0 37.5,-2.0 0,-2.0 0,-17.3333333333 7.66666666667,-25.0 78.7807562269,-25.0 147.159688496,-5.46706996711 152.425677549,4.01053072336 148.214065912,18.754120467 112.156373604,8.4539833104 111.057692308,12.3001371566 147.115384615,22.6002743131 142.903772978,37.3438640567 133.426172288,42.6098531098" stroke="rgb(0,0,255)" stroke-width="1.0" transform="translate(0,3710.0)" /><text fill="none" stroke="rgb(246,146,30)" transform="translate(42.5,3715.0) rotate(0.139123411367)" x="0" y="0">(1,-1) S</text></g><g id="00S"><polygon fill="none" points="71.6802359522,25.0 7.66666666667,25.0 0,17.3333333333 0,2.0 37.5,2.0 37.5,-2.0 0,-2.0 0,-17.3333333333 7.66666666667,-25.0 78.897114317,-25.0 147.220196757,-4.85718295897 152.40592908,4.66456771173 148.069910731,19.3720507049 112.100522976,8.76765800552 110.969387755,12.6043926994 146.93877551,23.2087853988 142.602757162,37.916268392 133.081006491,43.1020007145" stroke="rgb(0,0,255)" stroke-width="1.0" transform="translate(0,3763.0)" /><text fill="none" stroke="rgb(246,146,30)" transform="translate(42.5,3768.0) rotate(0.143347568905)" x="0" y="0">(0,0) S</text></g></svg>