<?xml version="1.0" encoding="utf-8" ?>
<svg baseProfile="full" height="384mm" style="font-size:6;" version="1.1" width="791mm" xmlns="http://www.w3.org/2000/svg" xmlns:ev="http://www.w3.org/2001/xml-events" xmlns:xlink="http://www.w3.org/1999/xlink"><defs /><rect fill="none" height="384" stroke="rgb(0,0,255)" stroke-width="1.0" width="791" x="0" y="0" /><g id="-21S"><polygon fill="none" points="25.6916915258,12.5 3.5,12.5 0,9.0 0,2.0 13.3333333333,2.0 13.3333333333,-2.0 0,-2.0 0,-9.0 3.5,-12.5 28.0130609089,-12.5 52.1070315397,-7.98660500721 54.9027662294,-3.9020159771 53.613911889,2.97830774269 40.5085333751,0.523347094263 39.7720451806,4.45496064843 52.8774236945,6.90992129686 51.588569354,13.7902450167 47.5039803239,16.5859797063" stroke="rgb(0,0,255)" stroke-width="1.0" transform="translate(0,0.0)" /><text fill="none" stroke="rgb(246,146,30)" transform="translate(18.3333333333,5.0) rotate(0.0925892825134)" x="0" y="0">(-2,1) S</text></g><g id="-1-1S"><polygon fill="none" points="25.6916915258,12.5 3.5,12.5 0,9.0 0,2.0 13.3333333333,2.0 13.3333333333,-2.0 0,-2.0 0,-9.0 3.5,-12.5 28.0130609089,-12.5 52.1070315397,-7.98660500721 54.9027662294,-3.9020159771 53.613911889,2.97830774269 40.5085333751,0.523347094263 39.7720451806,4.45496064843 52.8774236945,6.90992129686 51.588569354,13.7902450167 47.5039803239,16.5859797063" stroke="rgb(0,0,255)" stroke-width="1.0" transform="translate(0,28.0)" /><text fill="none" stroke="rgb(246,146,30)" transform="translate(18.3333333333,33.0) rotate(0.0925892825134)" x="0" y="0">(-1,-1) S</text></g><g id="01S"><polygon fill="none" points="25.6916915258,12.5 3.5,12.5 0,9.0 0,2.0 13.3333333333,2.0 13.3333333333,-2.0 0,-2.0 0,-9.0 3.5,-12.5 28.0130609089,-12.5 52.1070315397,-7.98660500721 54.9027662294,-3.9020159771 53.613911889,2.97830774269 40.5085333751,0.523347094263 39.7720451806,4.45496064843 52.8774236945,6.90992129686 51.588569354,13.7902450167 47.5039803239,16.5859797063" stroke="rgb(0,0,255)" stroke-width="1.0" transform="translate(0,56.0)" /><text fill="none" stroke="rgb(246,146,30)" transform="translate(18.3333333333,61.0) rotate(0.0925892825134)" x="0" y="0">(0,1) S</text></g><g id="1-1S"><polygon fill="none" points="25.6916915258,12.5 3.5,12.5 0,9.0 0,2.0 13.3333333333,2.0 13.3333333333,-2.0 0,-2.0 0,-9.0 3.5,-12.5 28.0130609089,-12.5 52.1070315397,-7.98660500721 54.9027662294,-3.9020159771 53.613911889,2.97830774269 40.5085333751,0.523347094263 39.7720451806,4.45496064843 52.8774236945,6.90992129686 51.588569354,13.7902450167 47.5039803239,16.5859797063" stroke="rgb(0,0,255)" stroke-width="1.0" transform="translate(0,84.0)" /><text fill="none" stroke="rgb(246,146,30)" transform="translate(18.3333333333,89.0) rotate(0.0925892825134)" x="0" y="0">(1,-1) S</text></g><g id="-1-1W"><polygon fill="none" points="25.6916915258,12.5 3.5,12.5 0,9.0 0,2.0 13.3333333333,2.0 13.3333333333,-2.0 0,-2.0 0,-9.0 3.5,-12.5 28.0130609089,-12.5 52.1070315397,-7.98660500721 54.9027662294,-3.9020159771 53.613911889,2.97830774269 40.5085333751,0.523347094263 39.7720451806,4.45496064843 52.8774236945,6.90992129686 51.588569354,13.7902450167 47.5039803239,16.5859797063" stroke="rgb(0,0,255)" stroke-width="1.0" transform="translate(0,112.0)" /><text fill="none" stroke="rgb(246,146,30)" transform="translate(18.3333333333,117.0) rotate(0.0925892825134)" x="0" y="0">(-1,-1) W</text></g><g id="-11W"><polygon fill="none" points="25.6916915258,12.5 3.5,12.5 0,9.0 0,2.0 13.3333333333,2.0 13.3333333333,-2.0 0,-2.0 0,-9.0 3.5,-12.5 28.0130609089,-12.5 52.1070315397,-7.98660500721 54.9027662294,-3.9020159771 53.613911889,2.97830774269 40.5085333751,0.523347094263 39.7720451806,4.45496064843 52.8774236945,6.90992129686 51.588569354,13.7902450167 47.5039803239,16.5859797063" stroke="rgb(0,0,255)" stroke-width="1.0" transform="translate(0,140.0)" /><text fill="none" stroke="rgb(246,146,30)" transform="translate(18.3333333333,145.0) rotate(0.0925892825134)" x="0" y="0">(-1,1) W</text></g><g id="1-2W"><polygon fill="none" points="25.6916915258,12.5 3.5,12.5 0,9.0 0,2.0 13.3333333333,2.0 13.3333333333,-2.0 0,-2.0 0,-9.0 3.5,-12.5 28.0130609089,-12.5 52.1070315397,-7.98660500721 54.9027662294,-3.9020159771 53.613911889,2.97830774269 40.5085333751,0.523347094263 39.7720451806,4.45496064843 52.8774236945,6.90992129686 51.588569354,13.7902450167 47.5039803239,16.5859797063" stroke="rgb(0,0,255)" stroke-width="1.0" transform="translate(0,168.0)" /><text fill="none" stroke="rgb(246,146,30)" transform="translate(18.3333333333,173.0) rotate(0.0925892825134)" x="0" y="0">(1,-2) W</text></g><g id="10W"><polygon fill="none" points="25.6916915258,12.5 3.5,12.5 0,9.0 0,2.0 13.3333333333,2.0 13.3333333333,-2.0 0,-2.0 0,-9.0 3.5,-12.5 28.0130609089,-12.5 52.1070315397,-7.98660500721 54.9027662294,-3.9020159771 53.613911889,2.97830774269 40.5085333751,0.523347094263 39.7720451806,4.45496064843 52.8774236945,6.90992129686 51.588569354,13.7902450167 47.5039803239,16.5859797063" stroke="rgb(0,0,255)" stroke-width="1.0" transform="translate(0,196.0)" /><text fill="none" stroke="rgb(246,146,30)" transform="translate(18.3333333333,201.0) rotate(0.0925892825134)" x="0" y="0">(1,0) W</text></g><g id="-20E"><polygon fill="none" points="25.6916915258,12.5 3.5,12.5 0,9.0 0,2.0 13.3333333333,2.0 13.3333333333,-2.0 0,-2.0 0,-9.0 3.5,-12.5 28.0130609089,-12.5 52.1070315397,-7.98660500721 54.9027662294,-3.9020159771 53.613911889,2.97830774269 40.5085333751,0.523347094263 39.7720451806,4.45496064843 52.8774236945,6.90992129686 51.588569354,13.7902450167 47.5039803239,16.5859797063" stroke="rgb(0,0,255)" stroke-width="1.0" transform="translate(0,224.0)" /><text fill="none" stroke="rgb(246,146,30)" transform="translate(18.3333333333,229.0) rotate(0.0925892825134)" x="0" y="0">(-2,0) E</text></g><g id="-11E"><polygon fill="none" points="25.6916915258,12.5 3.5,12.5 0,9.0 0,2.0 13.3333333333,2.0 13.3333333333,-2.0 0,-2.0 0,-9.0 3.5,-12.5 28.0130609089,-12.5 52.1070315397,-7.98660500721 54.9027662294,-3.9020159771 53.613911889,2.97830774269 40.5085333751,0.523347094263 39.7720451806,4.45496064843 52.8774236945,6.90992129686 51.588569354,13.7902450167 47.5039803239,16.5859797063" stroke="rgb(0,0,255)" stroke-width="1.0" transform="translate(0,252.0)" /><text fill="none" stroke="rgb(246,146,30)" transform="translate(18.3333333333,257.0) rotate(0.0925892825134)" x="0" y="0">(-1,1) E</text></g><g id="0-2E"><polygon fill="none" points="25.6916915258,12.5 3.5,12.5 0,9.0 0,2.0 13.3333333333,2.0 13.3333333333,-2.0 0,-2.0 0,-9.0 3.5,-12.5 28.0130609089,-12.5 52.1070315397,-7.98660500721 54.9027662294,-3.9020159771 53.613911889,2.97830774269 40.5085333751,0.523347094263 39.7720451806,4.45496064843 52.8774236945,6.90992129686 51.588569354,13.7902450167 47.5039803239,16.5859797063" stroke="rgb(0,0,255)" stroke-width="1.0" transform="translate(0,280.0)" /><text fill="none" stroke="rgb(246,146,30)" transform="translate(18.3333333333,285.0) rotate(0.0925892825134)" x="0" y="0">(0,-2) E</text></g><g id="1-1E"><polygon fill="none" points="25.6916915258,12.5 3.5,12.5 0,9.0 0,2.0 13.3333333333,2.0 13.3333333333,-2.0 0,-2.0 0,-9.0 3.5,-12.5 28.0130609089,-12.5 52.1070315397,-7.98660500721 54.9027662294,-3.9020159771 53.613911889,2.97830774269 40.5085333751,0.523347094263 39.7720451806,4.45496064843 52.8774236945,6.90992129686 51.588569354,13.7902450167 47.5039803239,16.5859797063" stroke="rgb(0,0,255)" stroke-width="1.0" transform="translate(0,308.0)" /><text fill="none" stroke="rgb(246,146,30)" transform="translate(18.3333333333,313.0) rotate(0.0925892825134)" x="0" y="0">(1,-1) E</text></g><g id="-20S"><polygon fill="none" points="25.6759830613,12.5 3.5,12.5 0,9.0 0,2.0 13.3333333333,2.0 13.3333333333,-2.0 0,-2.0 0,-9.0 3.5,-12.5 28.0347535503,-12.5 52.1365408614,-7.91110250924 54.9201479692,-3.81823902884 53.6108915967,3.0582315594 40.512852381,0.564409897347 39.7647058824,4.49382166205 52.862745098,6.9876433241 51.5534887255,13.8641139123 47.4606252451,16.6477210202" stroke="rgb(0,0,255)" stroke-width="1.0" transform="translate(0,336.0)" /><text fill="none" stroke="rgb(246,146,30)" transform="translate(18.3333333333,341.0) rotate(0.0940723327601)" x="0" y="0">(-2,0) S</text></g><g id="10S"><polygon fill="none" points="25.6759830613,12.5 3.5,12.5 0,9.0 0,2.0 13.3333333333,2.0 13.3333333333,-2.0 0,-2.0 0,-9.0 3.5,-12.5 28.0347535503,-12.5 52.1365408614,-7.91110250924 54.9201479692,-3.81823902884 53.6108915967,3.0582315594 40.512852381,0.564409897347 39.7647058824,4.49382166205 52.862745098,6.9876433241 51.5534887255,13.8641139123 47.4606252451,16.6477210202" stroke="rgb(0,0,255)" stroke-width="1.0" transform="translate(0,364.0)" /><text fill="none" stroke="rgb(246,146,30)" transform="translate(18.3333333333,369.0) rotate(0.0940723327601)" x="0" y="0">(1,0) S</text></g><g id="0-2W"><polygon fill="none" points="25.6759830613,12.5 3.5,12.5 0,9.0 0,2.0 13.3333333333,2.0 13.3333333333,-2.0 0,-2.0 0,-9.0 3.5,-12.5 28.0347535503,-12.5 52.1365408614,-7.91110250924 54.9201479692,-3.81823902884 53.6108915967,3.0582315594 40.512852381,0.564409897347 39.7647058824,4.49382166205 52.862745098,6.9876433241 51.5534887255,13.8641139123 47.4606252451,16.6477210202" stroke="rgb(0,0,255)" stroke-width="1.0" transform="translate(0,392.0)" /><text fill="none" stroke="rgb(246,146,30)" transform="translate(18.3333333333,397.0) rotate(0.0940723327601)" x="0" y="0">(0,-2) W</text></g><g id="01W"><polygon fill="none" points="25.6759830613,12.5 3.5,12.5 0,9.0 0,2.0 13.3333333333,2.0 13.3333333333,-2.0 0,-2.0 0,-9.0 3.5,-12.5 28.0347535503,-12.5 52.1365408614,-7.91110250924 54.9201479692,-3.81823902884 53.6108915967,3.0582315594 40.512852381,0.564409897347 39.7647058824,4.49382166205 52.862745098,6.9876433241 51.5534887255,13.8641139123 47.4606252451,16.6477210202" stroke="rgb(0,0,255)" stroke-width="1.0" transform="translate(0,420.0)" /><text fill="none" stroke="rgb(246,146,30)" transform="translate(18.3333333333,425.0) rotate(0.0940723327601)" x="0" y="0">(0,1) W</text></g><g id="-21E"><polygon fill="none" points="25.6759830613,12.5 3.5,12.5 0,9.0 0,2.0 13.3333333333,2.0 13.3333333333,-2.0 0,-2.0 0,-9.0 3.5,-12.5 28.0347535503,-12.5 52.1365408614,-7.91110250924 54.9201479692,-3.81823902884 53.6108915967,3.0582315594 40.512852381,0.564409897347 39.7647058824,4.49382166205 52.862745098,6.9876433241 51.5534887255,13.8641139123 47.4606252451,16.6477210202" stroke="rgb(0,0,255)" stroke-width="1.0" transform="translate(0,448.0)" /><text fill="none" stroke="rgb(246,146,30)" transform="translate(18.3333333333,453.0) rotate(0.0940723327601)" x="0" y="0">(-2,1) E</text></g><g id="1-2E"><polygon fill="none" points="25.6759830613,12.5 3.5,12.5 0,9.0 0,2.0 13.3333333333,2.0 13.3333333333,-2.0 0,-2.0 0,-9.0 3.5,-12.5 28.0347535503,-12.5 52.1365408614,-7.91110250924 54.9201479692,-3.81823902884 53.6108915967,3.0582315594 40.512852381,0.564409897347 39.7647058824,4.49382166205 52.862745098,6.9876433241 51.5534887255,13.8641139123 47.4606252451,16.6477210202" stroke="rgb(0,0,255)" stroke-width="1.0" transform="translate(0,476.0)" /><text fill="none" stroke="rgb(246,146,30)" transform="translate(18.3333333333,481.0) rotate(0.0940723327601)" x="0" y="0">(1,-2) E</text></g><g id="-11S"><polygon fill="none" points="25.6374217043,12.5 3.5,12.5 0,9.0 0,2.0 13.3333333333,2.0 13.3333333333,-2.0 0,-2.0 0,-9.0 3.5,-12.5 28.0880049481,-12.5 52.2079955566,-7.72548009005 54.9617426616,-3.61246697539 53.602476652,3.25429324433 40.5229333764,0.665215130815 39.7462099423,4.58907811351 52.825753218,7.17815622703 51.4664872084,14.0449164467 47.3534740937,16.7986635518" stroke="rgb(0,0,255)" stroke-width="1.0" transform="translate(0,504.0)" /><text fill="none" stroke="rgb(246,146,30)" transform="translate(18.3333333333,509.0) rotate(0.0977111726361)" x="0" y="0">(-1,1) S</text></g><g id="0-1S"><polygon fill="none" points="25.6374217043,12.5 3.5,12.5 0,9.0 0,2.0 13.3333333333,2.0 13.3333333333,-2.0 0,-2.0 0,-9.0 3.5,-12.5 28.0880049481,-12.5 52.2079955566,-7.72548009005 54.9617426616,-3.61246697539 53.602476652,3.25429324433 40.5229333764,0.665215130815 39.7462099423,4.58907811351 52.825753218,7.17815622703 51.4664872084,14.0449164467 47.3534740937,16.7986635518" stroke="rgb(0,0,255)" stroke-width="1.0" transform="translate(0,532.0)" /><text fill="none" stroke="rgb(246,146,30)" transform="translate(18.3333333333,537.0) rotate(0.0977111726361)" x="0" y="0">(0,-1) S</text></g><g id="-10W"><polygon fill="none" points="25.6374217043,12.5 3.5,12.5 0,9.0 0,2.0 13.3333333333,2.0 13.3333333333,-2.0 0,-2.0 0,-9.0 3.5,-12.5 28.0880049481,-12.5 52.2079955566,-7.72548009005 54.9617426616,-3.61246697539 53.602476652,3.25429324433 40.5229333764,0.665215130815 39.7462099423,4.58907811351 52.825753218,7.17815622703 51.4664872084,14.0449164467 47.3534740937,16.7986635518" stroke="rgb(0,0,255)" stroke-width="1.0" transform="translate(0,560.0)" /><text fill="none" stroke="rgb(246,146,30)" transform="translate(18.3333333333,565.0) rotate(0.0977111726361)" x="0" y="0">(-1,0) W</text></g><g id="1-1W"><polygon fill="none" points="25.6374217043,12.5 3.5,12.5 0,9.0 0,2.0 13.3333333333,2.0 13.3333333333,-2.0 0,-2.0 0,-9.0 3.5,-12.5 28.0880049481,-12.5 52.2079955566,-7.72548009005 54.9617426616,-3.61246697539 53.602476652,3.25429324433 40.5229333764,0.665215130815 39.7462099423,4.58907811351 52.825753218,7.17815622703 51.4664872084,14.0449164467 47.3534740937,16.7986635518" stroke="rgb(0,0,255)" stroke-width="1.0" transform="translate(0,588.0)" /><text fill="none" stroke="rgb(246,146,30)" transform="translate(18.3333333333,593.0) rotate(0.0977111726361)" x="0" y="0">(1,-1) W</text></g><g id="-1-1E"><polygon fill="none" points="25.6374217043,12.5 3.5,12.5 0,9.0 0,2.0 13.3333333333,2.0 13.3333333333,-2.0 0,-2.0 0,-9.0 3.5,-12.5 28.0880049481,-12.5 52.2079955566,-7.72548009005 54.9617426616,-3.61246697539 53.602476652,3.25429324433 40.5229333764,0.665215130815 39.7462099423,4.58907811351 52.825753218,7.17815622703 51.4664872084,14.0449164467 47.3534740937,16.7986635518" stroke="rgb(0,0,255)" stroke-width="1.0" transform="translate(0,616.0)" /><text fill="none" stroke="rgb(246,146,30)" transform="translate(18.3333333333,621.0) rotate(0.0977111726361)" x="0" y="0">(-1,-1) E</text></g><g id="00E"><polygon fill="none" points="25.6374217043,12.5 3.5,12.5 0,9.0 0,2.0 13.3333333333,2.0 13.3333333333,-2.0 0,-2.0 0,-9.0 3.5,-12.5 28.0880049481,-12.5 52.2079955566,-7.72548009005 54.9617426616,-3.61246697539 53.602476652,3.25429324433 40.5229333764,0.665215130815 39.7462099423,4.58907811351 52.825753218,7.17815622703 51.4664872084,14.0449164467 47.3534740937,16.7986635518" stroke="rgb(0,0,255)" stroke-width="1.0" transform="translate(0,644.0)" /><text fill="none" stroke="rgb(246,146,30)" transform="translate(18.3333333333,649.0) rotate(0.0977111726361)" x="0" y="0">(0,0) E</text></g><g id="-10S"><polygon fill="none" points="25.5494767958,12.5 3.5,12.5 0,9.0 0,2.0 13.3333333333,2.0 13.3333333333,-2.0 0,-2.0 0,-9.0 3.5,-12.5 28.2094526788,-12.5 52.3657086558,-7.3007357388 55.0508944375,-3.14263793836 53.5779824187,3.70064564373 40.5431565481,0.895098941268 39.7014925373,4.80554670246 52.736318408,7.61109340492 51.2634063892,14.454376987 47.1053085887,17.1395627687" stroke="rgb(0,0,255)" stroke-width="1.0" transform="translate(0,672.0)" /><text fill="none" stroke="rgb(246,146,30)" transform="translate(18.3333333333,677.0) rotate(0.106000234875)" x="0" y="0">(-1,0) S</text></g><g id="00S"><polygon fill="none" points="25.5494767958,12.5 3.5,12.5 0,9.0 0,2.0 13.3333333333,2.0 13.3333333333,-2.0 0,-2.0 0,-9.0 3.5,-12.5 28.2094526788,-12.5 52.3657086558,-7.3007357388 55.0508944375,-3.14263793836 53.5779824187,3.70064564373 40.5431565481,0.895098941268 39.7014925373,4.80554670246 52.736318408,7.61109340492 51.2634063892,14.454376987 47.1053085887,17.1395627687" stroke="rgb(0,0,255)" stroke-width="1.0" transform="translate(0,700.0)" /><text fill="none" stroke="rgb(246,146,30)" transform="translate(18.3333333333,705.0) rotate(0.106000234875)" x="0" y="0">(0,0) S</text></g><g id="0-1W"><polygon fill="none" points="25.5494767958,12.5 3.5,12.5 0,9.0 0,2.0 13.3333333333,2.0 13.3333333333,-2.0 0,-2.0 0,-9.0 3.5,-12.5 28.2094526788,-12.5 52.3657086558,-7.3007357388 55.0508944375,-3.14263793836 53.5779824187,3.70064564373 40.5431565481,0.895098941268 39.7014925373,4.80554670246 52.736318408,7.61109340492 51.2634063892,14.454376987 47.1053085887,17.1395627687" stroke="rgb(0,0,255)" stroke-width="1.0" transform="translate(0,728.0)" /><text fill="none" stroke="rgb(246,146,30)" transform="translate(18.3333333333,733.0) rotate(0.106000234875)" x="0" y="0">(0,-1) W</text></g><g id="00W"><polygon fill="none" points="25.5494767958,12.5 3.5,12.5 0,9.0 0,2.0 13.3333333333,2.0 13.3333333333,-2.0 0,-2.0 0,-9.0 3.5,-12.5 28.2094526788,-12.5 52.3657086558,-7.3007357388 55.0508944375,-3.14263793836 53.5779824187,3.70064564373 40.5431565481,0.895098941268 39.7014925373,4.80554670246 52.736318408,7.61109340492 51.2634063892,14.454376987 47.1053085887,17.1395627687" stroke="rgb(0,0,255)" stroke-width="1.0" transform="translate(0,756.0)" /><text fill="none" stroke="rgb(246,146,30)" transform="translate(18.3333333333,761.0) rotate(0.106000234875)" x="0" y="0">(0,0) W</text></g><g id="-10E"><polygon fill="none" points="25.5494767958,12.5 3.5,12.5 0,9.0 0,2.0 13.3333333333,2.0 13.3333333333,-2.0 0,-2.0 0,-9.0 3.5,-12.5 28.2094526788,-12.5 52.3657086558,-7.3007357388 55.0508944375,-3.14263793836 53.5779824187,3.70064564373 40.5431565481,0.895098941268 39.7014925373,4.80554670246 52.736318408,7.61109340492 51.2634063892,14.454376987 47.1053085887,17.1395627687" stroke="rgb(0,0,255)" stroke-width="1.0" transform="translate(0,784.0)" /><text fill="none" stroke="rgb(246,146,30)" transform="translate(18.3333333333,789.0) rotate(0.106000234875)" x="0" y="0">(-1,0) E</text></g><g id="0-1E"><polygon fill="none" points="25.5494767958,12.5 3.5,12.5 0,9.0 0,2.0 13.3333333333,2.0 13.3333333333,-2.0 0,-2.0 0,-9.0 3.5,-12.5 28.2094526788,-12.5 52.3657086558,-7.3007357388 55.0508944375,-3.14263793836 53.5779824187,3.70064564373 40.5431565481,0.895098941268 39.7014925373,4.80554670246 52.736318408,7.61109340492 51.2634063892,14.454376987 47.1053085887,17.1395627687" stroke="rgb(0,0,255)" stroke-width="1.0" transform="translate(0,812.0)" /><text fill="none" stroke="rgb(246,146,30)" transform="translate(18.3333333333,817.0) rotate(0.106000234875)" x="0" y="0">(0,-1) E</text></g></svg>