<?xml version="1.0" encoding="utf-8" ?>
<svg baseProfile="full" height="384mm" version="1.1" viewBox="0,0,790,384" width="791mm" xmlns="http://www.w3.org/2000/svg" xmlns:ev="http://www.w3.org/2001/xml-events" xmlns:xlink="http://www.w3.org/1999/xlink"><defs /><rect fill="none" height="279.4" stroke="rgb(0,0,255)" stroke-width="1.0" width="215.9" x="0" y="0" /><g id="-22W"><polygon fill="none" points="31.9978163614,25.0 7.66666666667,25.0 0,17.3333333333 0,2.0 16.6666666667,2.0 16.6666666667,-2.0 0,-2.0 0,-17.3333333333 7.66666666667,-25.0 34.9011141265,-25.0 61.9525283803,-21.8478395801 68.6803172586,-13.3453451012 66.905611658,1.88493825606 50.3509558349,-0.044089570741 49.8879891564,3.9290278268 66.4426449795,5.8580556536 64.6679393789,21.0883390109 56.1654448999,27.8161278891" stroke="rgb(0,0,255)" stroke-width="1.0" transform="translate(0,0.0)" /><text fill="none" stroke="rgb(246,146,30)" transform="translate(21.6666666667,5.0) rotate(0.0580008275461)" x="0" y="0">(-2,2) W</text></g><g id="2-3W"><polygon fill="none" points="31.9978163614,25.0 7.66666666667,25.0 0,17.3333333333 0,2.0 16.6666666667,2.0 16.6666666667,-2.0 0,-2.0 0,-17.3333333333 7.66666666667,-25.0 34.9011141265,-25.0 61.9525283803,-21.8478395801 68.6803172586,-13.3453451012 66.905611658,1.88493825606 50.3509558349,-0.044089570741 49.8879891564,3.9290278268 66.4426449795,5.8580556536 64.6679393789,21.0883390109 56.1654448999,27.8161278891" stroke="rgb(0,0,255)" stroke-width="1.0" transform="translate(0,53.0)" /><text fill="none" stroke="rgb(246,146,30)" transform="translate(21.6666666667,58.0) rotate(0.0580008275461)" x="0" y="0">(2,-3) W</text></g><g id="-12E"><polygon fill="none" points="31.9978163614,25.0 7.66666666667,25.0 0,17.3333333333 0,2.0 16.6666666667,2.0 16.6666666667,-2.0 0,-2.0 0,-17.3333333333 7.66666666667,-25.0 34.9011141265,-25.0 61.9525283803,-21.8478395801 68.6803172586,-13.3453451012 66.905611658,1.88493825606 50.3509558349,-0.044089570741 49.8879891564,3.9290278268 66.4426449795,5.8580556536 64.6679393789,21.0883390109 56.1654448999,27.8161278891" stroke="rgb(0,0,255)" stroke-width="1.0" transform="translate(0,106.0)" /><text fill="none" stroke="rgb(246,146,30)" transform="translate(21.6666666667,111.0) rotate(0.0580008275461)" x="0" y="0">(-1,2) E</text></g><g id="0-3E"><polygon fill="none" points="31.9978163614,25.0 7.66666666667,25.0 0,17.3333333333 0,2.0 16.6666666667,2.0 16.6666666667,-2.0 0,-2.0 0,-17.3333333333 7.66666666667,-25.0 34.9011141265,-25.0 61.9525283803,-21.8478395801 68.6803172586,-13.3453451012 66.905611658,1.88493825606 50.3509558349,-0.044089570741 49.8879891564,3.9290278268 66.4426449795,5.8580556536 64.6679393789,21.0883390109 56.1654448999,27.8161278891" stroke="rgb(0,0,255)" stroke-width="1.0" transform="translate(0,159.0)" /><text fill="none" stroke="rgb(246,146,30)" transform="translate(21.6666666667,164.0) rotate(0.0580008275461)" x="0" y="0">(0,-3) E</text></g><g id="-2-1W"><polygon fill="none" points="31.9978163614,25.0 7.66666666667,25.0 0,17.3333333333 0,2.0 16.6666666667,2.0 16.6666666667,-2.0 0,-2.0 0,-17.3333333333 7.66666666667,-25.0 34.9011141265,-25.0 61.9525283803,-21.8478395801 68.6803172586,-13.3453451012 66.905611658,1.88493825606 50.3509558349,-0.0440895707409 49.8879891564,3.9290278268 66.4426449795,5.8580556536 64.6679393789,21.0883390109 56.1654448999,27.8161278891" stroke="rgb(0,0,255)" stroke-width="1.0" transform="translate(0,212.0)" /><text fill="none" stroke="rgb(246,146,30)" transform="translate(21.6666666667,217.0) rotate(0.0580008275461)" x="0" y="0">(-2,-1) W</text></g><g id="20W"><polygon fill="none" points="31.9978163614,25.0 7.66666666667,25.0 0,17.3333333333 0,2.0 16.6666666667,2.0 16.6666666667,-2.0 0,-2.0 0,-17.3333333333 7.66666666667,-25.0 34.9011141265,-25.0 61.9525283803,-21.8478395801 68.6803172586,-13.3453451012 66.905611658,1.88493825606 50.3509558349,-0.0440895707409 49.8879891564,3.9290278268 66.4426449795,5.8580556536 64.6679393789,21.0883390109 56.1654448999,27.8161278891" stroke="rgb(0,0,255)" stroke-width="1.0" transform="translate(0,265.0)" /><text fill="none" stroke="rgb(246,146,30)" transform="translate(21.6666666667,270.0) rotate(0.0580008275461)" x="0" y="0">(2,0) W</text></g><g id="-30E"><polygon fill="none" points="31.9978163614,25.0 7.66666666667,25.0 0,17.3333333333 0,2.0 16.6666666667,2.0 16.6666666667,-2.0 0,-2.0 0,-17.3333333333 7.66666666667,-25.0 34.9011141265,-25.0 61.9525283803,-21.8478395801 68.6803172586,-13.3453451012 66.905611658,1.88493825606 50.3509558349,-0.0440895707409 49.8879891564,3.9290278268 66.4426449795,5.8580556536 64.6679393789,21.0883390109 56.1654448999,27.8161278891" stroke="rgb(0,0,255)" stroke-width="1.0" transform="translate(0,318.0)" /><text fill="none" stroke="rgb(246,146,30)" transform="translate(21.6666666667,323.0) rotate(0.0580008275461)" x="0" y="0">(-3,0) E</text></g><g id="2-1E"><polygon fill="none" points="31.9978163614,25.0 7.66666666667,25.0 0,17.3333333333 0,2.0 16.6666666667,2.0 16.6666666667,-2.0 0,-2.0 0,-17.3333333333 7.66666666667,-25.0 34.9011141265,-25.0 61.9525283803,-21.8478395801 68.6803172586,-13.3453451012 66.905611658,1.88493825606 50.3509558349,-0.0440895707409 49.8879891564,3.9290278268 66.4426449795,5.8580556536 64.6679393789,21.0883390109 56.1654448999,27.8161278891" stroke="rgb(0,0,255)" stroke-width="1.0" transform="translate(0,371.0)" /><text fill="none" stroke="rgb(246,146,30)" transform="translate(21.6666666667,376.0) rotate(0.0580008275461)" x="0" y="0">(2,-1) E</text></g><g id="-20W"><polygon fill="none" points="31.9420192244,25.0 7.66666666667,25.0 0,17.3333333333 0,2.0 16.6666666667,2.0 16.6666666667,-2.0 0,-2.0 0,-17.3333333333 7.66666666667,-25.0 34.9666151134,-25.0 62.0674961218,-21.7091894974 68.7540975355,-13.1742661181 66.9057755699,2.04725867482 50.3606399254,0.0382130600698 49.8784689779,4.00904561475 66.4236046224,6.01809122951 64.5752826568,21.2396160225 56.0403592775,27.9262174362" stroke="rgb(0,0,255)" stroke-width="1.0" transform="translate(0,424.0)" /><text fill="none" stroke="rgb(246,146,30)" transform="translate(21.6666666667,429.0) rotate(0.0604182938964)" x="0" y="0">(-2,0) W</text></g><g id="-21W"><polygon fill="none" points="31.9420192244,25.0 7.66666666667,25.0 0,17.3333333333 0,2.0 16.6666666667,2.0 16.6666666667,-2.0 0,-2.0 0,-17.3333333333 7.66666666667,-25.0 34.9666151134,-25.0 62.0674961218,-21.7091894974 68.7540975355,-13.1742661181 66.9057755699,2.04725867482 50.3606399254,0.0382130600698 49.8784689779,4.00904561475 66.4236046224,6.01809122951 64.5752826568,21.2396160225 56.0403592775,27.9262174362" stroke="rgb(0,0,255)" stroke-width="1.0" transform="translate(0,477.0)" /><text fill="none" stroke="rgb(246,146,30)" transform="translate(21.6666666667,482.0) rotate(0.0604182938964)" x="0" y="0">(-2,1) W</text></g><g id="2-2W"><polygon fill="none" points="31.9420192244,25.0 7.66666666667,25.0 0,17.3333333333 0,2.0 16.6666666667,2.0 16.6666666667,-2.0 0,-2.0 0,-17.3333333333 7.66666666667,-25.0 34.9666151134,-25.0 62.0674961218,-21.7091894974 68.7540975355,-13.1742661181 66.9057755699,2.04725867482 50.3606399254,0.0382130600698 49.8784689779,4.00904561475 66.4236046224,6.01809122951 64.5752826568,21.2396160225 56.0403592775,27.9262174362" stroke="rgb(0,0,255)" stroke-width="1.0" transform="translate(0,530.0)" /><text fill="none" stroke="rgb(246,146,30)" transform="translate(21.6666666667,535.0) rotate(0.0604182938964)" x="0" y="0">(2,-2) W</text></g><g id="2-1W"><polygon fill="none" points="31.9420192244,25.0 7.66666666667,25.0 0,17.3333333333 0,2.0 16.6666666667,2.0 16.6666666667,-2.0 0,-2.0 0,-17.3333333333 7.66666666667,-25.0 34.9666151134,-25.0 62.0674961218,-21.7091894974 68.7540975355,-13.1742661181 66.9057755699,2.04725867482 50.3606399254,0.0382130600698 49.8784689779,4.00904561475 66.4236046224,6.01809122951 64.5752826568,21.2396160225 56.0403592775,27.9262174362" stroke="rgb(0,0,255)" stroke-width="1.0" transform="translate(0,583.0)" /><text fill="none" stroke="rgb(246,146,30)" transform="translate(21.6666666667,588.0) rotate(0.0604182938964)" x="0" y="0">(2,-1) W</text></g><g id="-2-1E"><polygon fill="none" points="31.9420192244,25.0 7.66666666667,25.0 0,17.3333333333 0,2.0 16.6666666667,2.0 16.6666666667,-2.0 0,-2.0 0,-17.3333333333 7.66666666667,-25.0 34.9666151134,-25.0 62.0674961218,-21.7091894974 68.7540975355,-13.1742661181 66.9057755699,2.04725867482 50.3606399254,0.0382130600698 49.8784689779,4.00904561475 66.4236046224,6.01809122951 64.5752826568,21.2396160225 56.0403592775,27.9262174362" stroke="rgb(0,0,255)" stroke-width="1.0" transform="translate(0,636.0)" /><text fill="none" stroke="rgb(246,146,30)" transform="translate(21.6666666667,641.0) rotate(0.0604182938964)" x="0" y="0">(-2,-1) E</text></g><g id="-1-2E"><polygon fill="none" points="31.9420192244,25.0 7.66666666667,25.0 0,17.3333333333 0,2.0 16.6666666667,2.0 16.6666666667,-2.0 0,-2.0 0,-17.3333333333 7.66666666667,-25.0 34.9666151134,-25.0 62.0674961218,-21.7091894974 68.7540975355,-13.1742661181 66.9057755699,2.04725867482 50.3606399254,0.0382130600698 49.8784689779,4.00904561475 66.4236046224,6.01809122951 64.5752826568,21.2396160225 56.0403592775,27.9262174362" stroke="rgb(0,0,255)" stroke-width="1.0" transform="translate(0,689.0)" /><text fill="none" stroke="rgb(246,146,30)" transform="translate(21.6666666667,694.0) rotate(0.0604182938964)" x="0" y="0">(-1,-2) E</text></g><g id="01E"><polygon fill="none" points="31.9420192244,25.0 7.66666666667,25.0 0,17.3333333333 0,2.0 16.6666666667,2.0 16.6666666667,-2.0 0,-2.0 0,-17.3333333333 7.66666666667,-25.0 34.9666151134,-25.0 62.0674961218,-21.7091894974 68.7540975355,-13.1742661181 66.9057755699,2.04725867482 50.3606399254,0.0382130600698 49.8784689779,4.00904561475 66.4236046224,6.01809122951 64.5752826568,21.2396160225 56.0403592775,27.9262174362" stroke="rgb(0,0,255)" stroke-width="1.0" transform="translate(0,742.0)" /><text fill="none" stroke="rgb(246,146,30)" transform="translate(21.6666666667,747.0) rotate(0.0604182938964)" x="0" y="0">(0,1) E</text></g><g id="10E"><polygon fill="none" points="31.9420192244,25.0 7.66666666667,25.0 0,17.3333333333 0,2.0 16.6666666667,2.0 16.6666666667,-2.0 0,-2.0 0,-17.3333333333 7.66666666667,-25.0 34.9666151134,-25.0 62.0674961218,-21.7091894974 68.7540975355,-13.1742661181 66.9057755699,2.04725867482 50.3606399254,0.0382130600698 49.8784689779,4.00904561475 66.4236046224,6.01809122951 64.5752826568,21.2396160225 56.0403592775,27.9262174362" stroke="rgb(0,0,255)" stroke-width="1.0" transform="translate(0,795.0)" /><text fill="none" stroke="rgb(246,146,30)" transform="translate(21.6666666667,800.0) rotate(0.0604182938964)" x="0" y="0">(1,0) E</text></g><g id="0-3W"><polygon fill="none" points="31.9257561922,25.0 7.66666666667,25.0 0,17.3333333333 0,2.0 16.6666666667,2.0 16.6666666667,-2.0 0,-2.0 0,-17.3333333333 7.66666666667,-25.0 34.985706499,-25.0 62.1008728998,-21.6686806787 68.775442311,-13.1243446173 66.9056756608,2.09456085532 50.3633871036,0.062205800792 49.8756218905,4.03235505452 66.4179104478,6.06471010905 64.5481437976,21.2836155817 56.0038077362,27.9581849929" stroke="rgb(0,0,255)" stroke-width="1.0" transform="translate(0,848.0)" /><text fill="none" stroke="rgb(246,146,30)" transform="translate(21.6666666667,853.0) rotate(0.0611227741173)" x="0" y="0">(0,-3) W</text></g><g id="02W"><polygon fill="none" points="31.9257561922,25.0 7.66666666667,25.0 0,17.3333333333 0,2.0 16.6666666667,2.0 16.6666666667,-2.0 0,-2.0 0,-17.3333333333 7.66666666667,-25.0 34.985706499,-25.0 62.1008728998,-21.6686806787 68.775442311,-13.1243446173 66.9056756608,2.09456085532 50.3633871036,0.062205800792 49.8756218905,4.03235505452 66.4179104478,6.06471010905 64.5481437976,21.2836155817 56.0038077362,27.9581849929" stroke="rgb(0,0,255)" stroke-width="1.0" transform="translate(0,901.0)" /><text fill="none" stroke="rgb(246,146,30)" transform="translate(21.6666666667,906.0) rotate(0.0611227741173)" x="0" y="0">(0,2) W</text></g><g id="-32E"><polygon fill="none" points="31.9257561922,25.0 7.66666666667,25.0 0,17.3333333333 0,2.0 16.6666666667,2.0 16.6666666667,-2.0 0,-2.0 0,-17.3333333333 7.66666666667,-25.0 34.985706499,-25.0 62.1008728998,-21.6686806787 68.775442311,-13.1243446173 66.9056756608,2.09456085532 50.3633871036,0.062205800792 49.8756218905,4.03235505452 66.4179104478,6.06471010905 64.5481437976,21.2836155817 56.0038077362,27.9581849929" stroke="rgb(0,0,255)" stroke-width="1.0" transform="translate(0,954.0)" /><text fill="none" stroke="rgb(246,146,30)" transform="translate(21.6666666667,959.0) rotate(0.0611227741173)" x="0" y="0">(-3,2) E</text></g><g id="2-3E"><polygon fill="none" points="31.9257561922,25.0 7.66666666667,25.0 0,17.3333333333 0,2.0 16.6666666667,2.0 16.6666666667,-2.0 0,-2.0 0,-17.3333333333 7.66666666667,-25.0 34.985706499,-25.0 62.1008728998,-21.6686806787 68.775442311,-13.1243446173 66.9056756608,2.09456085532 50.3633871036,0.062205800792 49.8756218905,4.03235505452 66.4179104478,6.06471010905 64.5481437976,21.2836155817 56.0038077362,27.9581849929" stroke="rgb(0,0,255)" stroke-width="1.0" transform="translate(0,1007.0)" /><text fill="none" stroke="rgb(246,146,30)" transform="translate(21.6666666667,1012.0) rotate(0.0611227741173)" x="0" y="0">(2,-3) E</text></g><g id="-12W"><polygon fill="none" points="31.9021445861,25.0 7.66666666667,25.0 0,17.3333333333 0,2.0 16.6666666667,2.0 16.6666666667,-2.0 0,-2.0 0,-17.3333333333 7.66666666667,-25.0 35.0134244714,-25.0 62.1492244498,-21.6097902773 68.8063033838,-13.0518199793 66.9054120197,2.16322925275 50.3673150283,0.0970429874155 49.8714303247,4.06618626534 66.409527316,6.13237253067 64.5086359519,21.3474217627 55.9506656538,28.0045006967" stroke="rgb(0,0,255)" stroke-width="1.0" transform="translate(0,1060.0)" /><text fill="none" stroke="rgb(246,146,30)" transform="translate(21.6666666667,1065.0) rotate(0.0621454707533)" x="0" y="0">(-1,2) W</text></g><g id="1-3W"><polygon fill="none" points="31.9021445861,25.0 7.66666666667,25.0 0,17.3333333333 0,2.0 16.6666666667,2.0 16.6666666667,-2.0 0,-2.0 0,-17.3333333333 7.66666666667,-25.0 35.0134244714,-25.0 62.1492244498,-21.6097902773 68.8063033838,-13.0518199793 66.9054120197,2.16322925275 50.3673150283,0.0970429874155 49.8714303247,4.06618626534 66.409527316,6.13237253067 64.5086359519,21.3474217627 55.9506656538,28.0045006967" stroke="rgb(0,0,255)" stroke-width="1.0" transform="translate(0,1113.0)" /><text fill="none" stroke="rgb(246,146,30)" transform="translate(21.6666666667,1118.0) rotate(0.0621454707533)" x="0" y="0">(1,-3) W</text></g><g id="-22E"><polygon fill="none" points="31.9021445861,25.0 7.66666666667,25.0 0,17.3333333333 0,2.0 16.6666666667,2.0 16.6666666667,-2.0 0,-2.0 0,-17.3333333333 7.66666666667,-25.0 35.0134244714,-25.0 62.1492244498,-21.6097902773 68.8063033838,-13.0518199793 66.9054120197,2.16322925275 50.3673150283,0.0970429874155 49.8714303247,4.06618626534 66.409527316,6.13237253067 64.5086359519,21.3474217627 55.9506656538,28.0045006967" stroke="rgb(0,0,255)" stroke-width="1.0" transform="translate(0,1166.0)" /><text fill="none" stroke="rgb(246,146,30)" transform="translate(21.6666666667,1171.0) rotate(0.0621454707533)" x="0" y="0">(-2,2) E</text></g><g id="1-3E"><polygon fill="none" points="31.9021445861,25.0 7.66666666667,25.0 0,17.3333333333 0,2.0 16.6666666667,2.0 16.6666666667,-2.0 0,-2.0 0,-17.3333333333 7.66666666667,-25.0 35.0134244714,-25.0 62.1492244498,-21.6097902773 68.8063033838,-13.0518199793 66.9054120197,2.16322925275 50.3673150283,0.0970429874155 49.8714303247,4.06618626534 66.409527316,6.13237253067 64.5086359519,21.3474217627 55.9506656538,28.0045006967" stroke="rgb(0,0,255)" stroke-width="1.0" transform="translate(0,1219.0)" /><text fill="none" stroke="rgb(246,146,30)" transform="translate(21.6666666667,1224.0) rotate(0.0621454707533)" x="0" y="0">(1,-3) E</text></g><g id="-1-2W"><polygon fill="none" points="31.9021445861,25.0 7.66666666667,25.0 0,17.3333333333 0,2.0 16.6666666667,2.0 16.6666666667,-2.0 0,-2.0 0,-17.3333333333 7.66666666667,-25.0 35.0134244714,-25.0 62.1492244498,-21.6097902773 68.8063033838,-13.0518199793 66.9054120197,2.16322925275 50.3673150283,0.0970429874155 49.8714303247,4.06618626534 66.409527316,6.13237253067 64.5086359519,21.3474217627 55.9506656538,28.0045006967" stroke="rgb(0,0,255)" stroke-width="1.0" transform="translate(0,1272.0)" /><text fill="none" stroke="rgb(246,146,30)" transform="translate(21.6666666667,1277.0) rotate(0.0621454707533)" x="0" y="0">(-1,-2) W</text></g><g id="11W"><polygon fill="none" points="31.9021445861,25.0 7.66666666667,25.0 0,17.3333333333 0,2.0 16.6666666667,2.0 16.6666666667,-2.0 0,-2.0 0,-17.3333333333 7.66666666667,-25.0 35.0134244714,-25.0 62.1492244498,-21.6097902773 68.8063033838,-13.0518199793 66.9054120197,2.16322925275 50.3673150283,0.0970429874155 49.8714303247,4.06618626534 66.409527316,6.13237253067 64.5086359519,21.3474217627 55.9506656538,28.0045006967" stroke="rgb(0,0,255)" stroke-width="1.0" transform="translate(0,1325.0)" /><text fill="none" stroke="rgb(246,146,30)" transform="translate(21.6666666667,1330.0) rotate(0.0621454707533)" x="0" y="0">(1,1) W</text></g><g id="-31E"><polygon fill="none" points="31.9021445861,25.0 7.66666666667,25.0 0,17.3333333333 0,2.0 16.6666666667,2.0 16.6666666667,-2.0 0,-2.0 0,-17.3333333333 7.66666666667,-25.0 35.0134244714,-25.0 62.1492244498,-21.6097902773 68.8063033838,-13.0518199793 66.9054120197,2.16322925275 50.3673150283,0.0970429874155 49.8714303247,4.06618626534 66.409527316,6.13237253067 64.5086359519,21.3474217627 55.9506656538,28.0045006967" stroke="rgb(0,0,255)" stroke-width="1.0" transform="translate(0,1378.0)" /><text fill="none" stroke="rgb(246,146,30)" transform="translate(21.6666666667,1383.0) rotate(0.0621454707533)" x="0" y="0">(-3,1) E</text></g><g id="2-2E"><polygon fill="none" points="31.9021445861,25.0 7.66666666667,25.0 0,17.3333333333 0,2.0 16.6666666667,2.0 16.6666666667,-2.0 0,-2.0 0,-17.3333333333 7.66666666667,-25.0 35.0134244714,-25.0 62.1492244498,-21.6097902773 68.8063033838,-13.0518199793 66.9054120197,2.16322925275 50.3673150283,0.0970429874155 49.8714303247,4.06618626534 66.409527316,6.13237253067 64.5086359519,21.3474217627 55.9506656538,28.0045006967" stroke="rgb(0,0,255)" stroke-width="1.0" transform="translate(0,1431.0)" /><text fill="none" stroke="rgb(246,146,30)" transform="translate(21.6666666667,1436.0) rotate(0.0621454707533)" x="0" y="0">(2,-2) E</text></g><g id="-1-1W"><polygon fill="none" points="31.7907483778,25.0 7.66666666667,25.0 0,17.3333333333 0,2.0 16.6666666667,2.0 16.6666666667,-2.0 0,-2.0 0,-17.3333333333 7.66666666667,-25.0 35.1441939333,-25.0 62.3756272289,-21.330729587 68.9498450256,-12.7089423062 66.9022755414,2.48706277145 50.3848787179,0.261443766906 49.8507301568,4.22561900454 66.3681269803,6.45123800908 64.3205574961,21.6472430867 55.6987702152,28.2214608834" stroke="rgb(0,0,255)" stroke-width="1.0" transform="translate(0,1484.0)" /><text fill="none" stroke="rgb(246,146,30)" transform="translate(21.6666666667,1489.0) rotate(0.0669686176655)" x="0" y="0">(-1,-1) W</text></g><g id="-11W"><polygon fill="none" points="31.7907483778,25.0 7.66666666667,25.0 0,17.3333333333 0,2.0 16.6666666667,2.0 16.6666666667,-2.0 0,-2.0 0,-17.3333333333 7.66666666667,-25.0 35.1441939333,-25.0 62.3756272289,-21.330729587 68.9498450256,-12.7089423062 66.9022755414,2.48706277145 50.3848787179,0.261443766906 49.8507301568,4.22561900454 66.3681269803,6.45123800908 64.3205574961,21.6472430867 55.6987702152,28.2214608834" stroke="rgb(0,0,255)" stroke-width="1.0" transform="translate(0,1537.0)" /><text fill="none" stroke="rgb(246,146,30)" transform="translate(21.6666666667,1542.0) rotate(0.0669686176655)" x="0" y="0">(-1,1) W</text></g><g id="1-2W"><polygon fill="none" points="31.7907483778,25.0 7.66666666667,25.0 0,17.3333333333 0,2.0 16.6666666667,2.0 16.6666666667,-2.0 0,-2.0 0,-17.3333333333 7.66666666667,-25.0 35.1441939333,-25.0 62.3756272289,-21.330729587 68.9498450256,-12.7089423062 66.9022755414,2.48706277145 50.3848787179,0.261443766906 49.8507301568,4.22561900454 66.3681269803,6.45123800908 64.3205574961,21.6472430867 55.6987702152,28.2214608834" stroke="rgb(0,0,255)" stroke-width="1.0" transform="translate(0,1590.0)" /><text fill="none" stroke="rgb(246,146,30)" transform="translate(21.6666666667,1595.0) rotate(0.0669686176655)" x="0" y="0">(1,-2) W</text></g><g id="10W"><polygon fill="none" points="31.7907483778,25.0 7.66666666667,25.0 0,17.3333333333 0,2.0 16.6666666667,2.0 16.6666666667,-2.0 0,-2.0 0,-17.3333333333 7.66666666667,-25.0 35.1441939333,-25.0 62.3756272289,-21.330729587 68.9498450256,-12.7089423062 66.9022755414,2.48706277145 50.3848787179,0.261443766906 49.8507301568,4.22561900454 66.3681269803,6.45123800908 64.3205574961,21.6472430867 55.6987702152,28.2214608834" stroke="rgb(0,0,255)" stroke-width="1.0" transform="translate(0,1643.0)" /><text fill="none" stroke="rgb(246,146,30)" transform="translate(21.6666666667,1648.0) rotate(0.0669686176655)" x="0" y="0">(1,0) W</text></g><g id="-20E"><polygon fill="none" points="31.7907483778,25.0 7.66666666667,25.0 0,17.3333333333 0,2.0 16.6666666667,2.0 16.6666666667,-2.0 0,-2.0 0,-17.3333333333 7.66666666667,-25.0 35.1441939333,-25.0 62.3756272289,-21.330729587 68.9498450256,-12.7089423062 66.9022755414,2.48706277145 50.3848787179,0.261443766906 49.8507301568,4.22561900454 66.3681269803,6.45123800908 64.3205574961,21.6472430867 55.6987702152,28.2214608834" stroke="rgb(0,0,255)" stroke-width="1.0" transform="translate(0,1696.0)" /><text fill="none" stroke="rgb(246,146,30)" transform="translate(21.6666666667,1701.0) rotate(0.0669686176655)" x="0" y="0">(-2,0) E</text></g><g id="-11E"><polygon fill="none" points="31.7907483778,25.0 7.66666666667,25.0 0,17.3333333333 0,2.0 16.6666666667,2.0 16.6666666667,-2.0 0,-2.0 0,-17.3333333333 7.66666666667,-25.0 35.1441939333,-25.0 62.3756272289,-21.330729587 68.9498450256,-12.7089423062 66.9022755414,2.48706277145 50.3848787179,0.261443766906 49.8507301568,4.22561900454 66.3681269803,6.45123800908 64.3205574961,21.6472430867 55.6987702152,28.2214608834" stroke="rgb(0,0,255)" stroke-width="1.0" transform="translate(0,1749.0)" /><text fill="none" stroke="rgb(246,146,30)" transform="translate(21.6666666667,1754.0) rotate(0.0669686176655)" x="0" y="0">(-1,1) E</text></g><g id="0-2E"><polygon fill="none" points="31.7907483778,25.0 7.66666666667,25.0 0,17.3333333333 0,2.0 16.6666666667,2.0 16.6666666667,-2.0 0,-2.0 0,-17.3333333333 7.66666666667,-25.0 35.1441939333,-25.0 62.3756272289,-21.330729587 68.9498450256,-12.7089423062 66.9022755414,2.48706277145 50.3848787179,0.261443766906 49.8507301568,4.22561900454 66.3681269803,6.45123800908 64.3205574961,21.6472430867 55.6987702152,28.2214608834" stroke="rgb(0,0,255)" stroke-width="1.0" transform="translate(0,1802.0)" /><text fill="none" stroke="rgb(246,146,30)" transform="translate(21.6666666667,1807.0) rotate(0.0669686176655)" x="0" y="0">(0,-2) E</text></g><g id="1-1E"><polygon fill="none" points="31.7907483778,25.0 7.66666666667,25.0 0,17.3333333333 0,2.0 16.6666666667,2.0 16.6666666667,-2.0 0,-2.0 0,-17.3333333333 7.66666666667,-25.0 35.1441939333,-25.0 62.3756272289,-21.330729587 68.9498450256,-12.7089423062 66.9022755414,2.48706277145 50.3848787179,0.261443766906 49.8507301568,4.22561900454 66.3681269803,6.45123800908 64.3205574961,21.6472430867 55.6987702152,28.2214608834" stroke="rgb(0,0,255)" stroke-width="1.0" transform="translate(0,1855.0)" /><text fill="none" stroke="rgb(246,146,30)" transform="translate(21.6666666667,1860.0) rotate(0.0669686176655)" x="0" y="0">(1,-1) E</text></g><g id="0-2W"><polygon fill="none" points="31.779137363,25.0 7.66666666667,25.0 0,17.3333333333 0,2.0 16.6666666667,2.0 16.6666666667,-2.0 0,-2.0 0,-17.3333333333 7.66666666667,-25.0 35.157824255,-25.0 62.3990622289,-21.3015274509 68.9646109638,-12.6731367918 66.9017690395,2.52080260211 50.3866175244,0.278583119235 49.8484848485,4.24221948287 66.3636363636,6.48443896574 64.3007944394,21.6783783597 55.6724037803,28.2439270945" stroke="rgb(0,0,255)" stroke-width="1.0" transform="translate(0,1908.0)" /><text fill="none" stroke="rgb(246,146,30)" transform="translate(21.6666666667,1913.0) rotate(0.0674711667501)" x="0" y="0">(0,-2) W</text></g><g id="01W"><polygon fill="none" points="31.779137363,25.0 7.66666666667,25.0 0,17.3333333333 0,2.0 16.6666666667,2.0 16.6666666667,-2.0 0,-2.0 0,-17.3333333333 7.66666666667,-25.0 35.157824255,-25.0 62.3990622289,-21.3015274509 68.9646109638,-12.6731367918 66.9017690395,2.52080260211 50.3866175244,0.278583119235 49.8484848485,4.24221948287 66.3636363636,6.48443896574 64.3007944394,21.6783783597 55.6724037803,28.2439270945" stroke="rgb(0,0,255)" stroke-width="1.0" transform="translate(0,1961.0)" /><text fill="none" stroke="rgb(246,146,30)" transform="translate(21.6666666667,1966.0) rotate(0.0674711667501)" x="0" y="0">(0,1) W</text></g><g id="-21E"><polygon fill="none" points="31.779137363,25.0 7.66666666667,25.0 0,17.3333333333 0,2.0 16.6666666667,2.0 16.6666666667,-2.0 0,-2.0 0,-17.3333333333 7.66666666667,-25.0 35.157824255,-25.0 62.3990622289,-21.3015274509 68.9646109638,-12.6731367918 66.9017690395,2.52080260211 50.3866175244,0.278583119235 49.8484848485,4.24221948287 66.3636363636,6.48443896574 64.3007944394,21.6783783597 55.6724037803,28.2439270945" stroke="rgb(0,0,255)" stroke-width="1.0" transform="translate(0,2014.0)" /><text fill="none" stroke="rgb(246,146,30)" transform="translate(21.6666666667,2019.0) rotate(0.0674711667501)" x="0" y="0">(-2,1) E</text></g><g id="1-2E"><polygon fill="none" points="31.779137363,25.0 7.66666666667,25.0 0,17.3333333333 0,2.0 16.6666666667,2.0 16.6666666667,-2.0 0,-2.0 0,-17.3333333333 7.66666666667,-25.0 35.157824255,-25.0 62.3990622289,-21.3015274509 68.9646109638,-12.6731367918 66.9017690395,2.52080260211 50.3866175244,0.278583119235 49.8484848485,4.24221948287 66.3636363636,6.48443896574 64.3007944394,21.6783783597 55.6724037803,28.2439270945" stroke="rgb(0,0,255)" stroke-width="1.0" transform="translate(0,2067.0)" /><text fill="none" stroke="rgb(246,146,30)" transform="translate(21.6666666667,2072.0) rotate(0.0674711667501)" x="0" y="0">(1,-2) E</text></g><g id="-10W"><polygon fill="none" points="31.7474227683,25.0 7.66666666667,25.0 0,17.3333333333 0,2.0 16.6666666667,2.0 16.6666666667,-2.0 0,-2.0 0,-17.3333333333 7.66666666667,-25.0 35.1950544314,-25.0 62.4629153151,-21.2216543629 69.0047544193,-12.5752738086 66.9002129693,2.61294584997 50.3912785578,0.325400795607 49.8422677448,4.28754505436 66.3512021563,6.57509010872 64.2466607063,21.7633097673 55.600280152,28.3051488715" stroke="rgb(0,0,255)" stroke-width="1.0" transform="translate(0,2120.0)" /><text fill="none" stroke="rgb(246,146,30)" transform="translate(21.6666666667,2125.0) rotate(0.0688436662987)" x="0" y="0">(-1,0) W</text></g><g id="1-1W"><polygon fill="none" points="31.7474227683,25.0 7.66666666667,25.0 0,17.3333333333 0,2.0 16.6666666667,2.0 16.6666666667,-2.0 0,-2.0 0,-17.3333333333 7.66666666667,-25.0 35.1950544314,-25.0 62.4629153151,-21.2216543629 69.0047544193,-12.5752738086 66.9002129693,2.61294584997 50.3912785578,0.325400795607 49.8422677448,4.28754505436 66.3512021563,6.57509010872 64.2466607063,21.7633097673 55.600280152,28.3051488715" stroke="rgb(0,0,255)" stroke-width="1.0" transform="translate(0,2173.0)" /><text fill="none" stroke="rgb(246,146,30)" transform="translate(21.6666666667,2178.0) rotate(0.0688436662987)" x="0" y="0">(1,-1) W</text></g><g id="-1-1E"><polygon fill="none" points="31.7474227683,25.0 7.66666666667,25.0 0,17.3333333333 0,2.0 16.6666666667,2.0 16.6666666667,-2.0 0,-2.0 0,-17.3333333333 7.66666666667,-25.0 35.1950544314,-25.0 62.4629153151,-21.2216543629 69.0047544193,-12.5752738086 66.9002129693,2.61294584997 50.3912785578,0.325400795607 49.8422677448,4.28754505436 66.3512021563,6.57509010872 64.2466607063,21.7633097673 55.600280152,28.3051488715" stroke="rgb(0,0,255)" stroke-width="1.0" transform="translate(0,2226.0)" /><text fill="none" stroke="rgb(246,146,30)" transform="translate(21.6666666667,2231.0) rotate(0.0688436662987)" x="0" y="0">(-1,-1) E</text></g><g id="00E"><polygon fill="none" points="31.7474227683,25.0 7.66666666667,25.0 0,17.3333333333 0,2.0 16.6666666667,2.0 16.6666666667,-2.0 0,-2.0 0,-17.3333333333 7.66666666667,-25.0 35.1950544314,-25.0 62.4629153151,-21.2216543629 69.0047544193,-12.5752738086 66.9002129693,2.61294584997 50.3912785578,0.325400795607 49.8422677448,4.28754505436 66.3512021563,6.57509010872 64.2466607063,21.7633097673 55.600280152,28.3051488715" stroke="rgb(0,0,255)" stroke-width="1.0" transform="translate(0,2279.0)" /><text fill="none" stroke="rgb(246,146,30)" transform="translate(21.6666666667,2284.0) rotate(0.0688436662987)" x="0" y="0">(0,0) E</text></g><g id="0-1W"><polygon fill="none" points="31.686269123,25.0 7.66666666667,25.0 0,17.3333333333 0,2.0 16.6666666667,2.0 16.6666666667,-2.0 0,-2.0 0,-17.3333333333 7.66666666667,-25.0 35.2668434932,-25.0 62.5853858624,-21.0671888321 69.0813806889,-12.3863129103 66.8964995936,2.79055783802 50.3999009542,0.415687082274 49.8299319728,4.37487075574 66.3265306122,6.74974151149 64.141649517,21.9266122598 55.4607735952,28.4226070863" stroke="rgb(0,0,255)" stroke-width="1.0" transform="translate(0,2332.0)" /><text fill="none" stroke="rgb(246,146,30)" transform="translate(21.6666666667,2337.0) rotate(0.0714894498855)" x="0" y="0">(0,-1) W</text></g><g id="00W"><polygon fill="none" points="31.686269123,25.0 7.66666666667,25.0 0,17.3333333333 0,2.0 16.6666666667,2.0 16.6666666667,-2.0 0,-2.0 0,-17.3333333333 7.66666666667,-25.0 35.2668434932,-25.0 62.5853858624,-21.0671888321 69.0813806889,-12.3863129103 66.8964995936,2.79055783802 50.3999009542,0.415687082274 49.8299319728,4.37487075574 66.3265306122,6.74974151149 64.141649517,21.9266122598 55.4607735952,28.4226070863" stroke="rgb(0,0,255)" stroke-width="1.0" transform="translate(0,2385.0)" /><text fill="none" stroke="rgb(246,146,30)" transform="translate(21.6666666667,2390.0) rotate(0.0714894498855)" x="0" y="0">(0,0) W</text></g><g id="-10E"><polygon fill="none" points="31.686269123,25.0 7.66666666667,25.0 0,17.3333333333 0,2.0 16.6666666667,2.0 16.6666666667,-2.0 0,-2.0 0,-17.3333333333 7.66666666667,-25.0 35.2668434932,-25.0 62.5853858624,-21.0671888321 69.0813806889,-12.3863129103 66.8964995936,2.79055783802 50.3999009542,0.415687082274 49.8299319728,4.37487075574 66.3265306122,6.74974151149 64.141649517,21.9266122598 55.4607735952,28.4226070863" stroke="rgb(0,0,255)" stroke-width="1.0" transform="translate(0,2438.0)" /><text fill="none" stroke="rgb(246,146,30)" transform="translate(21.6666666667,2443.0) rotate(0.0714894498855)" x="0" y="0">(-1,0) E</text></g><g id="0-1E"><polygon fill="none" points="31.686269123,25.0 7.66666666667,25.0 0,17.3333333333 0,2.0 16.6666666667,2.0 16.6666666667,-2.0 0,-2.0 0,-17.3333333333 7.66666666667,-25.0 35.2668434932,-25.0 62.5853858624,-21.0671888321 69.0813806889,-12.3863129103 66.8964995936,2.79055783802 50.3999009542,0.415687082274 49.8299319728,4.37487075574 66.3265306122,6.74974151149 64.141649517,21.9266122598 55.4607735952,28.4226070863" stroke="rgb(0,0,255)" stroke-width="1.0" transform="translate(0,2491.0)" /><text fill="none" stroke="rgb(246,146,30)" transform="translate(21.6666666667,2496.0) rotate(0.0714894498855)" x="0" y="0">(0,-1) E</text></g><g id="-30S"><polygon fill="none" points="31.0560884405,25.0 7.66666666667,25.0 0,17.3333333333 0,2.0 16.6666666667,2.0 16.6666666667,-2.0 0,-2.0 0,-17.3333333333 7.66666666667,-25.0 36.0066208162,-25.0 63.796329798,-19.4425657087 69.8107163561,-10.4213291036 66.8038663091,4.6142940596 50.4607976534,1.34597879112 49.676401989,5.26831526848 66.0194706447,8.53663053696 63.0126205977,23.5722537002 53.9913839925,29.5866402583" stroke="rgb(0,0,255)" stroke-width="1.0" transform="translate(0,2544.0)" /><text fill="none" stroke="rgb(246,146,30)" transform="translate(21.6666666667,2549.0) rotate(0.0986889999237)" x="0" y="0">(-3,0) S</text></g><g id="-2-1S"><polygon fill="none" points="30.9961202846,25.0 7.66666666667,25.0 0,17.3333333333 0,2.0 16.6666666667,2.0 16.6666666667,-2.0 0,-2.0 0,-17.3333333333 7.66666666667,-25.0 36.0770182167,-25.0 63.906624182,-19.2850103232 69.8743571489,-10.2328437984 66.7899235911,4.78705569318 50.4639458828,1.4344105216 49.6593110416,5.35264517158 65.9852887499,8.70529034317 62.900855192,23.7251898348 53.8486886673,29.6929228017" stroke="rgb(0,0,255)" stroke-width="1.0" transform="translate(0,2597.0)" /><text fill="none" stroke="rgb(246,146,30)" transform="translate(21.6666666667,2602.0) rotate(0.101270333791)" x="0" y="0">(-2,-1) S</text></g><g id="-1-2S"><polygon fill="none" points="30.9961202846,25.0 7.66666666667,25.0 0,17.3333333333 0,2.0 16.6666666667,2.0 16.6666666667,-2.0 0,-2.0 0,-17.3333333333 7.66666666667,-25.0 36.0770182167,-25.0 63.906624182,-19.2850103232 69.8743571489,-10.2328437984 66.7899235911,4.78705569318 50.4639458828,1.4344105216 49.6593110416,5.35264517158 65.9852887499,8.70529034317 62.900855192,23.7251898348 53.8486886673,29.6929228017" stroke="rgb(0,0,255)" stroke-width="1.0" transform="translate(0,2650.0)" /><text fill="none" stroke="rgb(246,146,30)" transform="translate(21.6666666667,2655.0) rotate(0.101270333791)" x="0" y="0">(-1,-2) S</text></g><g id="-31S"><polygon fill="none" points="30.7465153922,25.0 7.66666666667,25.0 0,17.3333333333 0,2.0 16.6666666667,2.0 16.6666666667,-2.0 0,-2.0 0,-17.3333333333 7.66666666667,-25.0 36.3700326556,-25.0 64.3562986904,-18.6240975132 70.1284249954,-9.44596516104 66.7224189483,5.50429349619 50.4721377991,1.80211301019 49.5836144825,5.70218048599 65.8338956317,9.40436097199 62.4278895845,24.3546196292 53.2497572324,30.1267459343" stroke="rgb(0,0,255)" stroke-width="1.0" transform="translate(0,2703.0)" /><text fill="none" stroke="rgb(246,146,30)" transform="translate(21.6666666667,2708.0) rotate(0.111999678224)" x="0" y="0">(-3,1) S</text></g><g id="-32S"><polygon fill="none" points="30.6087077414,25.0 7.66666666667,25.0 0,17.3333333333 0,2.0 16.6666666667,2.0 16.6666666667,-2.0 0,-2.0 0,-17.3333333333 7.66666666667,-25.0 36.5318068543,-25.0 64.598015687,-18.2557995424 70.2612042187,-9.01005180576 66.6786450137,5.8988844626 50.4732795046,2.00479837021 49.5386988424,5.89408609239 65.7440643515,9.78817218477 62.1615051465,24.6971084531 52.9157574098,30.3602969848" stroke="rgb(0,0,255)" stroke-width="1.0" transform="translate(0,2756.0)" /><text fill="none" stroke="rgb(246,146,30)" transform="translate(21.6666666667,2761.0) rotate(0.11791246659)" x="0" y="0">(-3,2) S</text></g><g id="0-2S"><polygon fill="none" points="30.5890210586,25.0 7.66666666667,25.0 0,17.3333333333 0,2.0 16.6666666667,2.0 16.6666666667,-2.0 0,-2.0 0,-17.3333333333 7.66666666667,-25.0 36.554917308,-25.0 64.6321634322,-18.20299513 70.2797368456,-8.94770096414 66.6720160931,5.95516661508 50.4732469853,2.0337310146 49.5321024412,5.92143560048 65.730871549,9.84287120096 62.1231507966,24.7457387802 52.8678566307,30.3933121936" stroke="rgb(0,0,255)" stroke-width="1.0" transform="translate(0,2809.0)" /><text fill="none" stroke="rgb(246,146,30)" transform="translate(21.6666666667,2814.0) rotate(0.118756479304)" x="0" y="0">(0,-2) S</text></g><g id="02S"><polygon fill="none" points="30.5890210586,25.0 7.66666666667,25.0 0,17.3333333333 0,2.0 16.6666666667,2.0 16.6666666667,-2.0 0,-2.0 0,-17.3333333333 7.66666666667,-25.0 36.554917308,-25.0 64.6321634322,-18.20299513 70.2797368456,-8.94770096414 66.6720160931,5.95516661508 50.4732469853,2.0337310146 49.5321024412,5.92143560048 65.730871549,9.84287120096 62.1231507966,24.7457387802 52.8678566307,30.3933121936" stroke="rgb(0,0,255)" stroke-width="1.0" transform="translate(0,2862.0)" /><text fill="none" stroke="rgb(246,146,30)" transform="translate(21.6666666667,2867.0) rotate(0.118756479304)" x="0" y="0">(0,2) S</text></g><g id="-20S"><polygon fill="none" points="30.5890210586,25.0 7.66666666667,25.0 0,17.3333333333 0,2.0 16.6666666667,2.0 16.6666666667,-2.0 0,-2.0 0,-17.3333333333 7.66666666667,-25.0 36.554917308,-25.0 64.6321634322,-18.20299513 70.2797368456,-8.94770096414 66.6720160931,5.95516661508 50.4732469853,2.0337310146 49.5321024412,5.92143560048 65.730871549,9.84287120096 62.1231507966,24.7457387802 52.8678566307,30.3933121936" stroke="rgb(0,0,255)" stroke-width="1.0" transform="translate(0,2915.0)" /><text fill="none" stroke="rgb(246,146,30)" transform="translate(21.6666666667,2920.0) rotate(0.118756479304)" x="0" y="0">(-2,0) S</text></g><g id="20S"><polygon fill="none" points="30.5890210586,25.0 7.66666666667,25.0 0,17.3333333333 0,2.0 16.6666666667,2.0 16.6666666667,-2.0 0,-2.0 0,-17.3333333333 7.66666666667,-25.0 36.554917308,-25.0 64.6321634322,-18.20299513 70.2797368456,-8.94770096414 66.6720160931,5.95516661508 50.4732469853,2.0337310146 49.5321024412,5.92143560048 65.730871549,9.84287120096 62.1231507966,24.7457387802 52.8678566307,30.3933121936" stroke="rgb(0,0,255)" stroke-width="1.0" transform="translate(0,2968.0)" /><text fill="none" stroke="rgb(246,146,30)" transform="translate(21.6666666667,2973.0) rotate(0.118756479304)" x="0" y="0">(2,0) S</text></g><g id="-1-1S"><polygon fill="none" points="30.5300906974,25.0 7.66666666667,25.0 0,17.3333333333 0,2.0 16.6666666667,2.0 16.6666666667,-2.0 0,-2.0 0,-17.3333333333 7.66666666667,-25.0 36.6240964277,-25.0 64.7338073762,-18.0446503501 70.3345612402,-8.7609489487 66.6516137026,6.12350631668 50.4728579794,2.12030247155 49.5120890566,6.00320384513 65.6908447798,10.0064076903 62.0078972423,24.8908629556 52.7241958408,30.4916168196" stroke="rgb(0,0,255)" stroke-width="1.0" transform="translate(0,3021.0)" /><text fill="none" stroke="rgb(246,146,30)" transform="translate(21.6666666667,3026.0) rotate(0.121281937048)" x="0" y="0">(-1,-1) S</text></g><g id="11S"><polygon fill="none" points="30.5300906974,25.0 7.66666666667,25.0 0,17.3333333333 0,2.0 16.6666666667,2.0 16.6666666667,-2.0 0,-2.0 0,-17.3333333333 7.66666666667,-25.0 36.6240964277,-25.0 64.7338073762,-18.0446503501 70.3345612402,-8.7609489487 66.6516137026,6.12350631668 50.4728579794,2.12030247155 49.5120890566,6.00320384513 65.6908447798,10.0064076903 62.0078972423,24.8908629556 52.7241958408,30.4916168196" stroke="rgb(0,0,255)" stroke-width="1.0" transform="translate(0,3074.0)" /><text fill="none" stroke="rgb(246,146,30)" transform="translate(21.6666666667,3079.0) rotate(0.121281937048)" x="0" y="0">(1,1) S</text></g><g id="-22S"><polygon fill="none" points="30.3640461012,25.0 7.66666666667,25.0 0,17.3333333333 0,2.0 16.6666666667,2.0 16.6666666667,-2.0 0,-2.0 0,-17.3333333333 7.66666666667,-25.0 36.8190183449,-25.0 65.0155552141,-17.5962903244 70.4837821657,-8.23391618315 66.5896349761,6.59668490974 50.4694163968,2.36391622536 49.4535519126,6.23276868438 65.5737704918,10.4655373688 61.6796233022,25.2961384617 52.3172491609,30.7643654133" stroke="rgb(0,0,255)" stroke-width="1.0" transform="translate(0,3127.0)" /><text fill="none" stroke="rgb(246,146,30)" transform="translate(21.6666666667,3132.0) rotate(0.128389313635)" x="0" y="0">(-2,2) S</text></g><g id="2-2S"><polygon fill="none" points="30.3640461012,25.0 7.66666666667,25.0 0,17.3333333333 0,2.0 16.6666666667,2.0 16.6666666667,-2.0 0,-2.0 0,-17.3333333333 7.66666666667,-25.0 36.8190183449,-25.0 65.0155552141,-17.5962903244 70.4837821657,-8.23391618315 66.5896349761,6.59668490974 50.4694163968,2.36391622536 49.4535519126,6.23276868438 65.5737704918,10.4655373688 61.6796233022,25.2961384617 52.3172491609,30.7643654133" stroke="rgb(0,0,255)" stroke-width="1.0" transform="translate(0,3180.0)" /><text fill="none" stroke="rgb(246,146,30)" transform="translate(21.6666666667,3185.0) rotate(0.128389313635)" x="0" y="0">(2,-2) S</text></g><g id="-12S"><polygon fill="none" points="30.3456063232,25.0 7.66666666667,25.0 0,17.3333333333 0,2.0 16.6666666667,2.0 16.6666666667,-2.0 0,-2.0 0,-17.3333333333 7.66666666667,-25.0 36.8406650409,-25.0 65.0464193874,-17.5463027374 70.4998749704,-8.17531678287 66.5823445987,6.64912475463 50.4688211884,2.39093956807 49.4468567436,6.25818518655 65.560380154,10.5163703731 61.6428497823,25.3408119106 52.2718638278,30.7942674935" stroke="rgb(0,0,255)" stroke-width="1.0" transform="translate(0,3233.0)" /><text fill="none" stroke="rgb(246,146,30)" transform="translate(21.6666666667,3238.0) rotate(0.129177819572)" x="0" y="0">(-1,2) S</text></g><g id="1-2S"><polygon fill="none" points="30.3456063232,25.0 7.66666666667,25.0 0,17.3333333333 0,2.0 16.6666666667,2.0 16.6666666667,-2.0 0,-2.0 0,-17.3333333333 7.66666666667,-25.0 36.8406650409,-25.0 65.0464193874,-17.5463027374 70.4998749704,-8.17531678287 66.5823445987,6.64912475463 50.4688211884,2.39093956807 49.4468567436,6.25818518655 65.560380154,10.5163703731 61.6428497823,25.3408119106 52.2718638278,30.7942674935" stroke="rgb(0,0,255)" stroke-width="1.0" transform="translate(0,3286.0)" /><text fill="none" stroke="rgb(246,146,30)" transform="translate(21.6666666667,3291.0) rotate(0.129177819572)" x="0" y="0">(1,-2) S</text></g><g id="-21S"><polygon fill="none" points="30.3456063232,25.0 7.66666666667,25.0 0,17.3333333333 0,2.0 16.6666666667,2.0 16.6666666667,-2.0 0,-2.0 0,-17.3333333333 7.66666666667,-25.0 36.8406650409,-25.0 65.0464193874,-17.5463027374 70.4998749704,-8.17531678287 66.5823445987,6.64912475463 50.4688211884,2.39093956807 49.4468567436,6.25818518655 65.560380154,10.5163703731 61.6428497823,25.3408119106 52.2718638278,30.7942674935" stroke="rgb(0,0,255)" stroke-width="1.0" transform="translate(0,3339.0)" /><text fill="none" stroke="rgb(246,146,30)" transform="translate(21.6666666667,3344.0) rotate(0.129177819572)" x="0" y="0">(-2,1) S</text></g><g id="2-1S"><polygon fill="none" points="30.3456063232,25.0 7.66666666667,25.0 0,17.3333333333 0,2.0 16.6666666667,2.0 16.6666666667,-2.0 0,-2.0 0,-17.3333333333 7.66666666667,-25.0 36.8406650409,-25.0 65.0464193874,-17.5463027374 70.4998749704,-8.17531678287 66.5823445987,6.64912475463 50.4688211884,2.39093956807 49.4468567436,6.25818518655 65.560380154,10.5163703731 61.6428497823,25.3408119106 52.2718638278,30.7942674935" stroke="rgb(0,0,255)" stroke-width="1.0" transform="translate(0,3392.0)" /><text fill="none" stroke="rgb(246,146,30)" transform="translate(21.6666666667,3397.0) rotate(0.129177819572)" x="0" y="0">(2,-1) S</text></g><g id="-10S"><polygon fill="none" points="30.1818581163,25.0 7.66666666667,25.0 0,17.3333333333 0,2.0 16.6666666667,2.0 16.6666666667,-2.0 0,-2.0 0,-17.3333333333 7.66666666667,-25.0 37.0328911968,-25.0 65.3167548243,-17.1007467788 70.6385834085,-7.65438789954 66.5140531135,7.11379956394 50.4616754358,2.63061446064 49.385711011,6.48318510329 65.4380886887,10.9663702066 61.3135583937,25.7345576701 51.8671995144,31.0563862543" stroke="rgb(0,0,255)" stroke-width="1.0" transform="translate(0,3445.0)" /><text fill="none" stroke="rgb(246,146,30)" transform="translate(21.6666666667,3450.0) rotate(0.136172688035)" x="0" y="0">(-1,0) S</text></g><g id="0-1S"><polygon fill="none" points="30.1818581163,25.0 7.66666666667,25.0 0,17.3333333333 0,2.0 16.6666666667,2.0 16.6666666667,-2.0 0,-2.0 0,-17.3333333333 7.66666666667,-25.0 37.0328911968,-25.0 65.3167548243,-17.1007467788 70.6385834085,-7.65438789954 66.5140531135,7.11379956394 50.4616754358,2.63061446064 49.385711011,6.48318510329 65.4380886887,10.9663702066 61.3135583937,25.7345576701 51.8671995144,31.0563862543" stroke="rgb(0,0,255)" stroke-width="1.0" transform="translate(0,3498.0)" /><text fill="none" stroke="rgb(246,146,30)" transform="translate(21.6666666667,3503.0) rotate(0.136172688035)" x="0" y="0">(0,-1) S</text></g><g id="01S"><polygon fill="none" points="30.1818581163,25.0 7.66666666667,25.0 0,17.3333333333 0,2.0 16.6666666667,2.0 16.6666666667,-2.0 0,-2.0 0,-17.3333333333 7.66666666667,-25.0 37.0328911968,-25.0 65.3167548243,-17.1007467788 70.6385834085,-7.65438789954 66.5140531135,7.11379956394 50.4616754358,2.63061446064 49.385711011,6.48318510329 65.4380886887,10.9663702066 61.3135583937,25.7345576701 51.8671995144,31.0563862543" stroke="rgb(0,0,255)" stroke-width="1.0" transform="translate(0,3551.0)" /><text fill="none" stroke="rgb(246,146,30)" transform="translate(21.6666666667,3556.0) rotate(0.136172688035)" x="0" y="0">(0,1) S</text></g><g id="10S"><polygon fill="none" points="30.1818581163,25.0 7.66666666667,25.0 0,17.3333333333 0,2.0 16.6666666667,2.0 16.6666666667,-2.0 0,-2.0 0,-17.3333333333 7.66666666667,-25.0 37.0328911968,-25.0 65.3167548243,-17.1007467788 70.6385834085,-7.65438789954 66.5140531135,7.11379956394 50.4616754358,2.63061446064 49.385711011,6.48318510329 65.4380886887,10.9663702066 61.3135583937,25.7345576701 51.8671995144,31.0563862543" stroke="rgb(0,0,255)" stroke-width="1.0" transform="translate(0,3604.0)" /><text fill="none" stroke="rgb(246,146,30)" transform="translate(21.6666666667,3609.0) rotate(0.136172688035)" x="0" y="0">(1,0) S</text></g><g id="-11S"><polygon fill="none" points="30.1126891401,25.0 7.66666666667,25.0 0,17.3333333333 0,2.0 16.6666666667,2.0 16.6666666667,-2.0 0,-2.0 0,-17.3333333333 7.66666666667,-25.0 37.1140895602,-25.0 65.4289192655,-16.9116668077 70.6949083187,-7.43406611725 66.4832966813,7.30952362634 50.4576556557,2.73168489009 49.358974359,6.57783873625 65.3846153846,11.1556774725 61.1730037473,25.8992672161 51.6954030568,31.1652562692" stroke="rgb(0,0,255)" stroke-width="1.0" transform="translate(0,3657.0)" /><text fill="none" stroke="rgb(246,146,30)" transform="translate(21.6666666667,3662.0) rotate(0.139123411367)" x="0" y="0">(-1,1) S</text></g><g id="1-1S"><polygon fill="none" points="30.1126891401,25.0 7.66666666667,25.0 0,17.3333333333 0,2.0 16.6666666667,2.0 16.6666666667,-2.0 0,-2.0 0,-17.3333333333 7.66666666667,-25.0 37.1140895602,-25.0 65.4289192655,-16.9116668077 70.6949083187,-7.43406611725 66.4832966813,7.30952362634 50.4576556557,2.73168489009 49.358974359,6.57783873625 65.3846153846,11.1556774725 61.1730037473,25.8992672161 51.6954030568,31.1652562692" stroke="rgb(0,0,255)" stroke-width="1.0" transform="translate(0,3710.0)" /><text fill="none" stroke="rgb(246,146,30)" transform="translate(21.6666666667,3715.0) rotate(0.139123411367)" x="0" y="0">(1,-1) S</text></g><g id="00S"><polygon fill="none" points="30.0135692855,25.0 7.66666666667,25.0 0,17.3333333333 0,2.0 16.6666666667,2.0 16.6666666667,-2.0 0,-2.0 0,-17.3333333333 7.66666666667,-25.0 37.2304476504,-25.0 65.5875436959,-16.6398415139 70.7732760184,-7.11809084316 66.4372576702,7.58939215003 50.4508631124,2.87632872808 49.3197278912,6.71306342196 65.306122449,11.4261268439 60.9701041008,26.1336098371 51.4483534301,31.3193421596" stroke="rgb(0,0,255)" stroke-width="1.0" transform="translate(0,3763.0)" /><text fill="none" stroke="rgb(246,146,30)" transform="translate(21.6666666667,3768.0) rotate(0.143347568905)" x="0" y="0">(0,0) S</text></g></svg>