<?xml version="1.0" encoding="UTF-8" standalone="no"?>
<svg
   xmlns:dc="http://purl.org/dc/elements/1.1/"
   xmlns:cc="http://creativecommons.org/ns#"
   xmlns:rdf="http://www.w3.org/1999/02/22-rdf-syntax-ns#"
   xmlns:svg="http://www.w3.org/2000/svg"
   xmlns="http://www.w3.org/2000/svg"
   xmlns:sodipodi="http://sodipodi.sourceforge.net/DTD/sodipodi-0.dtd"
   xmlns:inkscape="http://www.inkscape.org/namespaces/inkscape"
   height="384mm"
   version="1.1"
   width="790mm"
   id="svg2"
   inkscape:version="0.91 r13725"
   sodipodi:docname="faces2.svg">
  <metadata
     id="metadata628">
    <rdf:RDF>
      <cc:Work
         rdf:about="">
        <dc:format>image/svg+xml</dc:format>
        <dc:type
           rdf:resource="http://purl.org/dc/dcmitype/StillImage" />
        <dc:title></dc:title>
      </cc:Work>
    </rdf:RDF>
  </metadata>
  <sodipodi:namedview
     pagecolor="#ffffff"
     bordercolor="#666666"
     borderopacity="1"
     objecttolerance="10"
     gridtolerance="10"
     guidetolerance="10"
     inkscape:pageopacity="0"
     inkscape:pageshadow="2"
     inkscape:window-width="910"
     inkscape:window-height="568"
     id="namedview626"
     showgrid="false"
     inkscape:zoom="0.21"
     inkscape:cx="476.30467"
     inkscape:cy="680.31496"
     inkscape:window-x="0"
     inkscape:window-y="0"
     inkscape:window-maximized="0"
     inkscape:current-layer="svg2" />
  <defs
     id="defs4" />
  <path
     style="color:#000000;font-style:normal;font-variant:normal;font-weight:normal;font-stretch:normal;font-size:medium;line-height:normal;font-family:sans-serif;text-indent:0;text-align:start;text-decoration:none;text-decoration-line:none;text-decoration-style:solid;text-decoration-color:#000000;letter-spacing:normal;word-spacing:normal;text-transform:none;direction:ltr;block-progression:tb;writing-mode:lr-tb;baseline-shift:baseline;text-anchor:start;white-space:normal;clip-rule:nonzero;display:inline;overflow:visible;visibility:visible;opacity:1;isolation:auto;mix-blend-mode:normal;color-interpolation:sRGB;color-interpolation-filters:linearRGB;solid-color:#000000;solid-opacity:1;fill:#0000ff;fill-opacity:1;fill-rule:nonzero;stroke:none;stroke-width:0.03543307;stroke-linecap:butt;stroke-linejoin:miter;stroke-miterlimit:4;stroke-dasharray:none;stroke-dashoffset:0;stroke-opacity:1;color-rendering:auto;image-rendering:auto;shape-rendering:auto;text-rendering:auto;enable-background:accumulate"
     d="m -0.01757813,-0.01757813 0,0.01757813 0,384.01758 790.03515813,0 0,-384.03515813 -790.03515813,0 z m 0.03515626,0.03515626 789.96484187,0 0,383.96484187 -789.96484187,0 0,-383.96484187 z"
     id="rect6"
     inkscape:connector-curvature="0" />
  <g
     id="triangle-30"
     transform="translate(38.095238,139.04762)"
     style="stroke-width:0.03543307;stroke-miterlimit:4;stroke-dasharray:none">
    <g
       style="stroke:#f69200;stroke-width:0.03543307;stroke-miterlimit:4;stroke-dasharray:none"
       id="text9">
      <path
         d="m 113.2513,71.305847 3.1582,0 0,0.960938 -3.1582,0 0,-0.960938 z"
         style="stroke:#f69200;stroke-width:0.03543307;stroke-miterlimit:4;stroke-dasharray:none"
         id="path4890" />
      <path
         d="m 121.87044,70.356628 q 0.84961,0.181641 1.32422,0.75586 0.48047,0.574219 0.48047,1.417969 0,1.294921 -0.89063,2.003906 -0.89062,0.708984 -2.53125,0.708984 -0.55078,0 -1.13672,-0.111328 -0.58008,-0.105469 -1.20117,-0.322266 l 0,-1.142578 q 0.49219,0.28711 1.07812,0.433594 0.58594,0.146484 1.22461,0.146484 1.11329,0 1.69336,-0.439453 0.58594,-0.439453 0.58594,-1.277343 0,-0.773438 -0.54492,-1.207032 -0.53906,-0.439453 -1.50586,-0.439453 l -1.01953,0 0,-0.972656 1.0664,0 q 0.87305,0 1.33594,-0.345703 0.46289,-0.351563 0.46289,-1.007813 0,-0.673828 -0.48047,-1.03125 -0.47461,-0.363281 -1.36523,-0.363281 -0.48633,0 -1.04297,0.105469 -0.55664,0.105469 -1.22461,0.328125 l 0,-1.054688 q 0.67383,-0.1875 1.25977,-0.28125 0.59179,-0.09375 1.11328,-0.09375 1.34765,0 2.13281,0.615235 0.78516,0.609375 0.78516,1.652343 0,0.726563 -0.41602,1.230469 -0.41601,0.498047 -1.18359,0.691406 z"
         style="stroke:#f69200;stroke-width:0.03543307;stroke-miterlimit:4;stroke-dasharray:none"
         id="path4892" />
      <path
         d="m 126.04817,73.585144 1.23633,0 0,1.007813 -0.96094,1.875 -0.75586,0 0.48047,-1.875 0,-1.007813 z"
         style="stroke:#f69200;stroke-width:0.03543307;stroke-miterlimit:4;stroke-dasharray:none"
         id="path4894" />
      <path
         d="m 132.27669,67.104675 q -0.91406,0 -1.37696,0.902344 -0.45703,0.896484 -0.45703,2.701172 0,1.798828 0.45703,2.701172 0.4629,0.896484 1.37696,0.896484 0.91992,0 1.37695,-0.896484 0.46289,-0.902344 0.46289,-2.701172 0,-1.804688 -0.46289,-2.701172 -0.45703,-0.902344 -1.37695,-0.902344 z m 0,-0.9375 q 1.4707,0 2.24414,1.166016 0.7793,1.160156 0.7793,3.375 0,2.208984 -0.7793,3.375 -0.77344,1.160156 -2.24414,1.160156 -1.47071,0 -2.25,-1.160156 -0.77344,-1.166016 -0.77344,-3.375 0,-2.214844 0.77344,-3.375 0.77929,-1.166016 2.25,-1.166016 z"
         style="stroke:#f69200;stroke-width:0.03543307;stroke-miterlimit:4;stroke-dasharray:none"
         id="path4896" />
      <path
         d="m 137.28059,66.325378 1.1836,0 0,7.751954 4.25976,0 0,0.996093 -5.44336,0 0,-8.748047 z"
         style="stroke:#f69200;stroke-width:0.03543307;stroke-miterlimit:4;stroke-dasharray:none"
         id="path4898" />
    </g>
    <path
       style="fill:none;stroke:#0000ff;stroke-width:0.03543307;stroke-miterlimit:4;stroke-dasharray:none"
       d="m 130.66536,0 0,37.5 4,0 0,-37.5 130.66536,0 -61.52636,95.926657 -31.56525,-20.245621 -2.15953,3.36696 31.56525,20.24562 L 140.11847,195.22027 71.225431,99.23494 101.6905,77.368772 99.358112,74.119164 68.893039,95.985333 0,0 Z"
       id="polygon11" />
    <g
       transform="matrix(-1,0,0,-1,136.66536,7.5)"
       style="stroke:#f69200;stroke-width:0.03543307;stroke-miterlimit:4;stroke-dasharray:none"
       id="text13">
      <path
         d="m 1.7207031,-9.1054688 q -0.78515622,1.3476563 -1.1660156,2.6660157 -0.38085938,1.3183594 -0.38085938,2.671875 0,1.3535156 0.38085938,2.6835937 0.38671875,1.32421878 1.1660156,2.6660156 l -0.93749998,0 Q -0.09570312,0.20507813 -0.53515625,-1.125 -0.96875,-2.4550781 -0.96875,-3.7675781 q 0,-1.3066406 0.43359375,-2.6308594 0.43359375,-1.3242187 1.31835937,-2.7070313 l 0.93749998,0 z"
         style="stroke:#f69200;stroke-width:0.03543307;stroke-miterlimit:4;stroke-dasharray:none"
         id="path4902" />
      <path
         d="m 3.2734375,-3.7675781 3.1582031,0 0,0.9609375 -3.1582031,0 0,-0.9609375 z"
         style="stroke:#f69200;stroke-width:0.03543307;stroke-miterlimit:4;stroke-dasharray:none"
         id="path4904" />
      <path
         d="m 11.892578,-4.7167969 q 0.84961,0.1816407 1.324219,0.7558594 0.480469,0.5742187 0.480469,1.4179687 0,1.2949219 -0.890625,2.0039063 -0.890625,0.70898437 -2.53125,0.70898437 -0.5507816,0 -1.1367191,-0.11132812 Q 8.5585938,-0.046875 7.9375,-0.26367188 l 0,-1.14257812 q 0.4921875,0.2871094 1.078125,0.43359375 0.5859375,0.14648437 1.224609,0.14648437 1.113282,0 1.69336,-0.43945312 0.585937,-0.4394531 0.585937,-1.2773438 0,-0.7734375 -0.544922,-1.2070312 -0.539062,-0.4394531 -1.505859,-0.4394531 l -1.0195312,0 0,-0.9726563 1.0664062,0 q 0.873047,0 1.335938,-0.3457031 0.46289,-0.3515625 0.46289,-1.0078125 0,-0.6738281 -0.480469,-1.03125 -0.474609,-0.3632812 -1.365234,-0.3632812 -0.4863281,0 -1.0429687,0.1054687 -0.5566407,0.1054688 -1.2246094,0.328125 l 0,-1.0546875 Q 8.875,-8.71875 9.4609375,-8.8125 q 0.5917965,-0.09375 1.1132815,-0.09375 1.347656,0 2.132812,0.6152344 0.785157,0.609375 0.785157,1.6523437 0,0.7265625 -0.416016,1.2304688 -0.416016,0.4980469 -1.183594,0.6914062 z"
         style="stroke:#f69200;stroke-width:0.03543307;stroke-miterlimit:4;stroke-dasharray:none"
         id="path4906" />
      <path
         d="m 16.070312,-1.4882812 1.236329,0 0,1.00781245 -0.960938,1.87499995 -0.755859,0 0.480468,-1.87499995 0,-1.00781245 z"
         style="stroke:#f69200;stroke-width:0.03543307;stroke-miterlimit:4;stroke-dasharray:none"
         id="path4908" />
      <path
         d="m 22.298828,-7.96875 q -0.914062,0 -1.376953,0.9023438 -0.457031,0.8964843 -0.457031,2.7011718 0,1.7988281 0.457031,2.7011719 0.462891,0.89648438 1.376953,0.89648438 0.919922,0 1.376953,-0.89648438 0.462891,-0.9023438 0.462891,-2.7011719 0,-1.8046875 -0.462891,-2.7011718 Q 23.21875,-7.96875 22.298828,-7.96875 Z m 0,-0.9375 q 1.470703,0 2.244141,1.1660156 0.779297,1.1601563 0.779297,3.375 0,2.2089844 -0.779297,3.37500002 -0.773438,1.16015625 -2.244141,1.16015625 -1.470703,0 -2.25,-1.16015625 -0.773437,-1.16601562 -0.773437,-3.37500002 0,-2.2148437 0.773437,-3.375 0.779297,-1.1660156 2.25,-1.1660156 z"
         style="stroke:#f69200;stroke-width:0.03543307;stroke-miterlimit:4;stroke-dasharray:none"
         id="path4910" />
      <path
         d="m 27.085937,-9.1054688 0.9375,0 q 0.878907,1.3828126 1.3125,2.7070313 0.439454,1.3242188 0.439454,2.6308594 0,1.3125 -0.439454,2.6425781 -0.433593,1.33007813 -1.3125,2.7070312 l -0.9375,0 q 0.779297,-1.34179682 1.160157,-2.6660156 0.386718,-1.3300781 0.386718,-2.6835937 0,-1.3535156 -0.386718,-2.671875 -0.38086,-1.3183594 -1.160157,-2.6660157 z"
         style="stroke:#f69200;stroke-width:0.03543307;stroke-miterlimit:4;stroke-dasharray:none"
         id="path4912" />
      <path
         d="m 35.03125,-8.7480469 1.195312,0 1.839844,7.3945313 1.833985,-7.3945313 1.330078,0 1.839843,7.3945313 1.833985,-7.3945313 1.201172,0 L 43.908203,0 42.419922,0 40.574219,-7.59375 38.710937,0 37.222656,0 35.03125,-8.7480469 Z"
         style="stroke:#f69200;stroke-width:0.03543307;stroke-miterlimit:4;stroke-dasharray:none"
         id="path4914" />
    </g>
    <g
       transform="matrix(0.53988322,-0.84173993,0.84173993,0.53988322,206.72459,71.360137)"
       style="stroke:#f69200;stroke-width:0.03543307;stroke-miterlimit:4;stroke-dasharray:none"
       id="text15">
      <path
         d="m 1.7207031,-9.1054688 q -0.78515622,1.3476563 -1.1660156,2.6660157 -0.38085938,1.3183594 -0.38085938,2.671875 0,1.3535156 0.38085938,2.6835937 0.38671875,1.32421878 1.1660156,2.6660156 l -0.93749998,0 Q -0.09570312,0.20507813 -0.53515625,-1.125 -0.96875,-2.4550781 -0.96875,-3.7675781 q 0,-1.3066406 0.43359375,-2.6308594 0.43359375,-1.3242187 1.31835937,-2.7070313 l 0.93749998,0 z"
         style="stroke:#f69200;stroke-width:0.03543307;stroke-miterlimit:4;stroke-dasharray:none"
         id="path4917" />
      <path
         d="m 3.2734375,-3.7675781 3.1582031,0 0,0.9609375 -3.1582031,0 0,-0.9609375 z"
         style="stroke:#f69200;stroke-width:0.03543307;stroke-miterlimit:4;stroke-dasharray:none"
         id="path4919" />
      <path
         d="m 11.892578,-4.7167969 q 0.84961,0.1816407 1.324219,0.7558594 0.480469,0.5742187 0.480469,1.4179687 0,1.2949219 -0.890625,2.0039063 -0.890625,0.70898437 -2.53125,0.70898437 -0.5507816,0 -1.1367191,-0.11132812 Q 8.5585938,-0.046875 7.9375,-0.26367188 l 0,-1.14257812 q 0.4921875,0.2871094 1.078125,0.43359375 0.5859375,0.14648437 1.224609,0.14648437 1.113282,0 1.69336,-0.43945312 0.585937,-0.4394531 0.585937,-1.2773438 0,-0.7734375 -0.544922,-1.2070312 -0.539062,-0.4394531 -1.505859,-0.4394531 l -1.0195312,0 0,-0.9726563 1.0664062,0 q 0.873047,0 1.335938,-0.3457031 0.46289,-0.3515625 0.46289,-1.0078125 0,-0.6738281 -0.480469,-1.03125 -0.474609,-0.3632812 -1.365234,-0.3632812 -0.4863281,0 -1.0429687,0.1054687 -0.5566407,0.1054688 -1.2246094,0.328125 l 0,-1.0546875 Q 8.875,-8.71875 9.4609375,-8.8125 q 0.5917965,-0.09375 1.1132815,-0.09375 1.347656,0 2.132812,0.6152344 0.785157,0.609375 0.785157,1.6523437 0,0.7265625 -0.416016,1.2304688 -0.416016,0.4980469 -1.183594,0.6914062 z"
         style="stroke:#f69200;stroke-width:0.03543307;stroke-miterlimit:4;stroke-dasharray:none"
         id="path4921" />
      <path
         d="m 16.070312,-1.4882812 1.236329,0 0,1.00781245 -0.960938,1.87499995 -0.755859,0 0.480468,-1.87499995 0,-1.00781245 z"
         style="stroke:#f69200;stroke-width:0.03543307;stroke-miterlimit:4;stroke-dasharray:none"
         id="path4923" />
      <path
         d="m 22.298828,-7.96875 q -0.914062,0 -1.376953,0.9023438 -0.457031,0.8964843 -0.457031,2.7011718 0,1.7988281 0.457031,2.7011719 0.462891,0.89648438 1.376953,0.89648438 0.919922,0 1.376953,-0.89648438 0.462891,-0.9023438 0.462891,-2.7011719 0,-1.8046875 -0.462891,-2.7011718 Q 23.21875,-7.96875 22.298828,-7.96875 Z m 0,-0.9375 q 1.470703,0 2.244141,1.1660156 0.779297,1.1601563 0.779297,3.375 0,2.2089844 -0.779297,3.37500002 -0.773438,1.16015625 -2.244141,1.16015625 -1.470703,0 -2.25,-1.16015625 -0.773437,-1.16601562 -0.773437,-3.37500002 0,-2.2148437 0.773437,-3.375 0.779297,-1.1660156 2.25,-1.1660156 z"
         style="stroke:#f69200;stroke-width:0.03543307;stroke-miterlimit:4;stroke-dasharray:none"
         id="path4925" />
      <path
         d="m 27.085937,-9.1054688 0.9375,0 q 0.878907,1.3828126 1.3125,2.7070313 0.439454,1.3242188 0.439454,2.6308594 0,1.3125 -0.439454,2.6425781 -0.433593,1.33007813 -1.3125,2.7070312 l -0.9375,0 q 0.779297,-1.34179682 1.160157,-2.6660156 0.386718,-1.3300781 0.386718,-2.6835937 0,-1.3535156 -0.386718,-2.671875 -0.38086,-1.3183594 -1.160157,-2.6660157 z"
         style="stroke:#f69200;stroke-width:0.03543307;stroke-miterlimit:4;stroke-dasharray:none"
         id="path4927" />
      <path
         d="m 35.03125,-8.7480469 1.195312,0 1.839844,7.3945313 1.833985,-7.3945313 1.330078,0 1.839843,7.3945313 1.833985,-7.3945313 1.201172,0 L 43.908203,0 42.419922,0 40.574219,-7.59375 38.710937,0 37.222656,0 35.03125,-8.7480469 Z"
         style="stroke:#f69200;stroke-width:0.03543307;stroke-miterlimit:4;stroke-dasharray:none"
         id="path4929" />
    </g>
    <g
       transform="matrix(0.58309783,0.81240195,-0.81240195,0.58309783,74.859235,97.610137)"
       style="stroke:#f69200;stroke-width:0.03543307;stroke-miterlimit:4;stroke-dasharray:none"
       id="text17">
      <path
         d="m 1.7207031,-9.1054688 q -0.78515622,1.3476563 -1.1660156,2.6660157 -0.38085938,1.3183594 -0.38085938,2.671875 0,1.3535156 0.38085938,2.6835937 0.38671875,1.32421878 1.1660156,2.6660156 l -0.93749998,0 Q -0.09570312,0.20507813 -0.53515625,-1.125 -0.96875,-2.4550781 -0.96875,-3.7675781 q 0,-1.3066406 0.43359375,-2.6308594 0.43359375,-1.3242187 1.31835937,-2.7070313 l 0.93749998,0 z"
         style="stroke:#f69200;stroke-width:0.03543307;stroke-miterlimit:4;stroke-dasharray:none"
         id="path4932" />
      <path
         d="m 3.2734375,-3.7675781 3.1582031,0 0,0.9609375 -3.1582031,0 0,-0.9609375 z"
         style="stroke:#f69200;stroke-width:0.03543307;stroke-miterlimit:4;stroke-dasharray:none"
         id="path4934" />
      <path
         d="m 11.892578,-4.7167969 q 0.84961,0.1816407 1.324219,0.7558594 0.480469,0.5742187 0.480469,1.4179687 0,1.2949219 -0.890625,2.0039063 -0.890625,0.70898437 -2.53125,0.70898437 -0.5507816,0 -1.1367191,-0.11132812 Q 8.5585938,-0.046875 7.9375,-0.26367188 l 0,-1.14257812 q 0.4921875,0.2871094 1.078125,0.43359375 0.5859375,0.14648437 1.224609,0.14648437 1.113282,0 1.69336,-0.43945312 0.585937,-0.4394531 0.585937,-1.2773438 0,-0.7734375 -0.544922,-1.2070312 -0.539062,-0.4394531 -1.505859,-0.4394531 l -1.0195312,0 0,-0.9726563 1.0664062,0 q 0.873047,0 1.335938,-0.3457031 0.46289,-0.3515625 0.46289,-1.0078125 0,-0.6738281 -0.480469,-1.03125 -0.474609,-0.3632812 -1.365234,-0.3632812 -0.4863281,0 -1.0429687,0.1054687 -0.5566407,0.1054688 -1.2246094,0.328125 l 0,-1.0546875 Q 8.875,-8.71875 9.4609375,-8.8125 q 0.5917965,-0.09375 1.1132815,-0.09375 1.347656,0 2.132812,0.6152344 0.785157,0.609375 0.785157,1.6523437 0,0.7265625 -0.416016,1.2304688 -0.416016,0.4980469 -1.183594,0.6914062 z"
         style="stroke:#f69200;stroke-width:0.03543307;stroke-miterlimit:4;stroke-dasharray:none"
         id="path4936" />
      <path
         d="m 16.070312,-1.4882812 1.236329,0 0,1.00781245 -0.960938,1.87499995 -0.755859,0 0.480468,-1.87499995 0,-1.00781245 z"
         style="stroke:#f69200;stroke-width:0.03543307;stroke-miterlimit:4;stroke-dasharray:none"
         id="path4938" />
      <path
         d="m 22.298828,-7.96875 q -0.914062,0 -1.376953,0.9023438 -0.457031,0.8964843 -0.457031,2.7011718 0,1.7988281 0.457031,2.7011719 0.462891,0.89648438 1.376953,0.89648438 0.919922,0 1.376953,-0.89648438 0.462891,-0.9023438 0.462891,-2.7011719 0,-1.8046875 -0.462891,-2.7011718 Q 23.21875,-7.96875 22.298828,-7.96875 Z m 0,-0.9375 q 1.470703,0 2.244141,1.1660156 0.779297,1.1601563 0.779297,3.375 0,2.2089844 -0.779297,3.37500002 -0.773438,1.16015625 -2.244141,1.16015625 -1.470703,0 -2.25,-1.16015625 -0.773437,-1.16601562 -0.773437,-3.37500002 0,-2.2148437 0.773437,-3.375 0.779297,-1.1660156 2.25,-1.1660156 z"
         style="stroke:#f69200;stroke-width:0.03543307;stroke-miterlimit:4;stroke-dasharray:none"
         id="path4940" />
      <path
         d="m 27.085937,-9.1054688 0.9375,0 q 0.878907,1.3828126 1.3125,2.7070313 0.439454,1.3242188 0.439454,2.6308594 0,1.3125 -0.439454,2.6425781 -0.433593,1.33007813 -1.3125,2.7070312 l -0.9375,0 q 0.779297,-1.34179682 1.160157,-2.6660156 0.386718,-1.3300781 0.386718,-2.6835937 0,-1.3535156 -0.386718,-2.671875 -0.38086,-1.3183594 -1.160157,-2.6660157 z"
         style="stroke:#f69200;stroke-width:0.03543307;stroke-miterlimit:4;stroke-dasharray:none"
         id="path4942" />
      <path
         d="m 41.054687,-8.4609375 0,1.1542969 q -0.673828,-0.3222656 -1.271484,-0.4804688 -0.597656,-0.1582031 -1.154297,-0.1582031 -0.966797,0 -1.49414,0.375 -0.521485,0.375 -0.521485,1.0664063 0,0.5800781 0.345703,0.8789062 0.351563,0.2929688 1.324219,0.4746094 l 0.714844,0.1464844 q 1.324219,0.2519531 1.951172,0.890625 0.632812,0.6328124 0.632812,1.6992187 0,1.2714844 -0.855469,1.92773437 -0.849609,0.65625 -2.496093,0.65625 -0.621094,0 -1.324219,-0.14062499 -0.697266,-0.140625 -1.447266,-0.41601563 l 0,-1.21874995 q 0.720703,0.4042968 1.41211,0.60937495 0.691406,0.20507813 1.359375,0.20507813 1.013672,0 1.564453,-0.39843748 0.550781,-0.3984375 0.550781,-1.1367188 0,-0.6445312 -0.398437,-1.0078125 -0.392579,-0.3632812 -1.294922,-0.5449219 l -0.720703,-0.1406249 q -1.324219,-0.2636719 -1.916016,-0.8261719 -0.591797,-0.5625 -0.591797,-1.5644531 0,-1.1601563 0.814453,-1.8281251 0.820313,-0.6679687 2.25586,-0.6679687 0.615234,0 1.253906,0.1113281 0.638672,0.1113281 1.30664,0.3339844 z"
         style="stroke:#f69200;stroke-width:0.03543307;stroke-miterlimit:4;stroke-dasharray:none"
         id="path4944" />
    </g>
  </g>
  <g
     id="triangle-31"
     transform="translate(275.330719339,20)"
     style="stroke-width:0.03543307;stroke-miterlimit:4;stroke-dasharray:none">
    <g
       style="stroke:#f69200;stroke-width:0.03543307;stroke-miterlimit:4;stroke-dasharray:none"
       id="text20">
      <path
         d="m 106.36476,73.314461 3.1582,0 0,0.960937 -3.1582,0 0,-0.960937 z"
         style="stroke:#f69200;stroke-width:0.03543307;stroke-miterlimit:4;stroke-dasharray:none"
         id="path4833" />
      <path
         d="m 114.9839,72.365242 q 0.84961,0.181641 1.32422,0.755859 0.48047,0.574219 0.48047,1.417969 0,1.294922 -0.89063,2.003906 -0.89062,0.708985 -2.53125,0.708985 -0.55078,0 -1.13671,-0.111328 -0.58008,-0.105469 -1.20118,-0.322266 l 0,-1.142578 q 0.49219,0.287109 1.07813,0.433594 0.58594,0.146484 1.22461,0.146484 1.11328,0 1.69336,-0.439453 0.58594,-0.439453 0.58594,-1.277344 0,-0.773437 -0.54493,-1.207031 -0.53906,-0.439453 -1.50586,-0.439453 l -1.01953,0 0,-0.972656 1.06641,0 q 0.87305,0 1.33594,-0.345704 0.46289,-0.351562 0.46289,-1.007812 0,-0.673828 -0.48047,-1.03125 -0.47461,-0.363281 -1.36524,-0.363281 -0.48632,0 -1.04296,0.105468 -0.55665,0.105469 -1.22461,0.328125 l 0,-1.054687 q 0.67382,-0.1875 1.25976,-0.28125 0.5918,-0.09375 1.11328,-0.09375 1.34766,0 2.13282,0.615234 0.78515,0.609375 0.78515,1.652344 0,0.726563 -0.41601,1.230469 -0.41602,0.498047 -1.1836,0.691406 z"
         style="stroke:#f69200;stroke-width:0.03543307;stroke-miterlimit:4;stroke-dasharray:none"
         id="path4835" />
      <path
         d="m 119.16164,75.593758 1.23632,0 0,1.007812 -0.96093,1.875 -0.75586,0 0.48047,-1.875 0,-1.007812 z"
         style="stroke:#f69200;stroke-width:0.03543307;stroke-miterlimit:4;stroke-dasharray:none"
         id="path4837" />
      <path
         d="m 123.06398,76.085945 1.93359,0 0,-6.673828 -2.10351,0.421875 0,-1.078125 2.0918,-0.421875 1.18359,0 0,7.751953 1.93359,0 0,0.996094 -5.03906,0 0,-0.996094 z"
         style="stroke:#f69200;stroke-width:0.03543307;stroke-miterlimit:4;stroke-dasharray:none"
         id="path4839" />
      <path
         d="m 130.39406,68.333992 1.18359,0 0,7.751953 4.25977,0 0,0.996094 -5.44336,0 0,-8.748047 z"
         style="stroke:#f69200;stroke-width:0.03543307;stroke-miterlimit:4;stroke-dasharray:none"
         id="path4841" />
    </g>
    <path
       style="fill:none;stroke:#0000ff;stroke-width:0.03543307;stroke-miterlimit:4;stroke-dasharray:none"
       d="m 0,0 123.77882,0 0,37.5 4,0 0,-37.5 123.77883,0 -49.4171,98.834205 -33.54102,-16.77051 -1.78886,3.577709 33.54102,16.770506 -49.4171,98.83421 -74.267296,-99.02306 29.999996,-22.500001 -2.4,-3.2 -29.999996,22.5 z"
       id="polygon22" />
    <g
       transform="translate(129.778823734,7.5) rotate(180.0)"
       style="stroke:#f69200;stroke-width:0.03543307;stroke-miterlimit:4;stroke-dasharray:none"
       id="text24">
      <path
         d="m 1.7207031,-9.1054688 q -0.78515622,1.3476563 -1.1660156,2.6660157 -0.38085938,1.3183594 -0.38085938,2.671875 0,1.3535156 0.38085938,2.6835937 0.38671875,1.32421878 1.1660156,2.6660156 l -0.93749998,0 Q -0.09570312,0.20507813 -0.53515625,-1.125 -0.96875,-2.4550781 -0.96875,-3.7675781 q 0,-1.3066406 0.43359375,-2.6308594 0.43359375,-1.3242187 1.31835937,-2.7070313 l 0.93749998,0 z"
         style="stroke:#f69200;stroke-width:0.03543307;stroke-miterlimit:4;stroke-dasharray:none"
         id="path4845" />
      <path
         d="m 3.2734375,-3.7675781 3.1582031,0 0,0.9609375 -3.1582031,0 0,-0.9609375 z"
         style="stroke:#f69200;stroke-width:0.03543307;stroke-miterlimit:4;stroke-dasharray:none"
         id="path4847" />
      <path
         d="m 11.892578,-4.7167969 q 0.84961,0.1816407 1.324219,0.7558594 0.480469,0.5742187 0.480469,1.4179687 0,1.2949219 -0.890625,2.0039063 -0.890625,0.70898437 -2.53125,0.70898437 -0.5507816,0 -1.1367191,-0.11132812 Q 8.5585938,-0.046875 7.9375,-0.26367188 l 0,-1.14257812 q 0.4921875,0.2871094 1.078125,0.43359375 0.5859375,0.14648437 1.224609,0.14648437 1.113282,0 1.69336,-0.43945312 0.585937,-0.4394531 0.585937,-1.2773438 0,-0.7734375 -0.544922,-1.2070312 -0.539062,-0.4394531 -1.505859,-0.4394531 l -1.0195312,0 0,-0.9726563 1.0664062,0 q 0.873047,0 1.335938,-0.3457031 0.46289,-0.3515625 0.46289,-1.0078125 0,-0.6738281 -0.480469,-1.03125 -0.474609,-0.3632812 -1.365234,-0.3632812 -0.4863281,0 -1.0429687,0.1054687 -0.5566407,0.1054688 -1.2246094,0.328125 l 0,-1.0546875 Q 8.875,-8.71875 9.4609375,-8.8125 q 0.5917965,-0.09375 1.1132815,-0.09375 1.347656,0 2.132812,0.6152344 0.785157,0.609375 0.785157,1.6523437 0,0.7265625 -0.416016,1.2304688 -0.416016,0.4980469 -1.183594,0.6914062 z"
         style="stroke:#f69200;stroke-width:0.03543307;stroke-miterlimit:4;stroke-dasharray:none"
         id="path4849" />
      <path
         d="m 16.070312,-1.4882812 1.236329,0 0,1.00781245 -0.960938,1.87499995 -0.755859,0 0.480468,-1.87499995 0,-1.00781245 z"
         style="stroke:#f69200;stroke-width:0.03543307;stroke-miterlimit:4;stroke-dasharray:none"
         id="path4851" />
      <path
         d="m 19.972656,-0.99609375 1.933594,0 0,-6.67382815 -2.103516,0.421875 0,-1.078125 2.091797,-0.421875 1.183594,0 0,7.75195315 1.933594,0 0,0.99609375 -5.039063,0 0,-0.99609375 z"
         style="stroke:#f69200;stroke-width:0.03543307;stroke-miterlimit:4;stroke-dasharray:none"
         id="path4853" />
      <path
         d="m 27.085937,-9.1054688 0.9375,0 q 0.878907,1.3828126 1.3125,2.7070313 0.439454,1.3242188 0.439454,2.6308594 0,1.3125 -0.439454,2.6425781 -0.433593,1.33007813 -1.3125,2.7070312 l -0.9375,0 q 0.779297,-1.34179682 1.160157,-2.6660156 0.386718,-1.3300781 0.386718,-2.6835937 0,-1.3535156 -0.386718,-2.671875 -0.38086,-1.3183594 -1.160157,-2.6660157 z"
         style="stroke:#f69200;stroke-width:0.03543307;stroke-miterlimit:4;stroke-dasharray:none"
         id="path4855" />
      <path
         d="m 35.03125,-8.7480469 1.195312,0 1.839844,7.3945313 1.833985,-7.3945313 1.330078,0 1.839843,7.3945313 1.833985,-7.3945313 1.201172,0 L 43.908203,0 42.419922,0 40.574219,-7.59375 38.710937,0 37.222656,0 35.03125,-8.7480469 Z"
         style="stroke:#f69200;stroke-width:0.03543307;stroke-miterlimit:4;stroke-dasharray:none"
         id="path4857" />
    </g>
    <g
       transform="translate(205.246117975,74.3730589875) rotate(-63.4349488229)"
       style="stroke:#f69200;stroke-width:0.03543307;stroke-miterlimit:4;stroke-dasharray:none"
       id="text26">
      <path
         d="m 1.7207031,-9.1054688 q -0.78515622,1.3476563 -1.1660156,2.6660157 -0.38085938,1.3183594 -0.38085938,2.671875 0,1.3535156 0.38085938,2.6835937 0.38671875,1.32421878 1.1660156,2.6660156 l -0.93749998,0 Q -0.09570312,0.20507813 -0.53515625,-1.125 -0.96875,-2.4550781 -0.96875,-3.7675781 q 0,-1.3066406 0.43359375,-2.6308594 0.43359375,-1.3242187 1.31835937,-2.7070313 l 0.93749998,0 z"
         style="stroke:#f69200;stroke-width:0.03543307;stroke-miterlimit:4;stroke-dasharray:none"
         id="path4860" />
      <path
         d="m 3.2734375,-3.7675781 3.1582031,0 0,0.9609375 -3.1582031,0 0,-0.9609375 z"
         style="stroke:#f69200;stroke-width:0.03543307;stroke-miterlimit:4;stroke-dasharray:none"
         id="path4862" />
      <path
         d="m 11.892578,-4.7167969 q 0.84961,0.1816407 1.324219,0.7558594 0.480469,0.5742187 0.480469,1.4179687 0,1.2949219 -0.890625,2.0039063 -0.890625,0.70898437 -2.53125,0.70898437 -0.5507816,0 -1.1367191,-0.11132812 Q 8.5585938,-0.046875 7.9375,-0.26367188 l 0,-1.14257812 q 0.4921875,0.2871094 1.078125,0.43359375 0.5859375,0.14648437 1.224609,0.14648437 1.113282,0 1.69336,-0.43945312 0.585937,-0.4394531 0.585937,-1.2773438 0,-0.7734375 -0.544922,-1.2070312 -0.539062,-0.4394531 -1.505859,-0.4394531 l -1.0195312,0 0,-0.9726563 1.0664062,0 q 0.873047,0 1.335938,-0.3457031 0.46289,-0.3515625 0.46289,-1.0078125 0,-0.6738281 -0.480469,-1.03125 -0.474609,-0.3632812 -1.365234,-0.3632812 -0.4863281,0 -1.0429687,0.1054687 -0.5566407,0.1054688 -1.2246094,0.328125 l 0,-1.0546875 Q 8.875,-8.71875 9.4609375,-8.8125 q 0.5917965,-0.09375 1.1132815,-0.09375 1.347656,0 2.132812,0.6152344 0.785157,0.609375 0.785157,1.6523437 0,0.7265625 -0.416016,1.2304688 -0.416016,0.4980469 -1.183594,0.6914062 z"
         style="stroke:#f69200;stroke-width:0.03543307;stroke-miterlimit:4;stroke-dasharray:none"
         id="path4864" />
      <path
         d="m 16.070312,-1.4882812 1.236329,0 0,1.00781245 -0.960938,1.87499995 -0.755859,0 0.480468,-1.87499995 0,-1.00781245 z"
         style="stroke:#f69200;stroke-width:0.03543307;stroke-miterlimit:4;stroke-dasharray:none"
         id="path4866" />
      <path
         d="m 19.972656,-0.99609375 1.933594,0 0,-6.67382815 -2.103516,0.421875 0,-1.078125 2.091797,-0.421875 1.183594,0 0,7.75195315 1.933594,0 0,0.99609375 -5.039063,0 0,-0.99609375 z"
         style="stroke:#f69200;stroke-width:0.03543307;stroke-miterlimit:4;stroke-dasharray:none"
         id="path4868" />
      <path
         d="m 27.085937,-9.1054688 0.9375,0 q 0.878907,1.3828126 1.3125,2.7070313 0.439454,1.3242188 0.439454,2.6308594 0,1.3125 -0.439454,2.6425781 -0.433593,1.33007813 -1.3125,2.7070312 l -0.9375,0 q 0.779297,-1.34179682 1.160157,-2.6660156 0.386718,-1.3300781 0.386718,-2.6835937 0,-1.3535156 -0.386718,-2.671875 -0.38086,-1.3183594 -1.160157,-2.6660157 z"
         style="stroke:#f69200;stroke-width:0.03543307;stroke-miterlimit:4;stroke-dasharray:none"
         id="path4870" />
      <path
         d="m 35.03125,-8.7480469 1.195312,0 1.839844,7.3945313 1.833985,-7.3945313 1.330078,0 1.839843,7.3945313 1.833985,-7.3945313 1.201172,0 L 43.908203,0 42.419922,0 40.574219,-7.59375 38.710937,0 37.222656,0 35.03125,-8.7480469 Z"
         style="stroke:#f69200;stroke-width:0.03543307;stroke-miterlimit:4;stroke-dasharray:none"
         id="path4872" />
    </g>
    <g
       transform="translate(80.2672942406,100.623058987) rotate(53.1301023542)"
       style="stroke:#f69200;stroke-width:0.03543307;stroke-miterlimit:4;stroke-dasharray:none"
       id="text28">
      <path
         d="m 1.7207031,-9.1054688 q -0.78515622,1.3476563 -1.1660156,2.6660157 -0.38085938,1.3183594 -0.38085938,2.671875 0,1.3535156 0.38085938,2.6835937 0.38671875,1.32421878 1.1660156,2.6660156 l -0.93749998,0 Q -0.09570312,0.20507813 -0.53515625,-1.125 -0.96875,-2.4550781 -0.96875,-3.7675781 q 0,-1.3066406 0.43359375,-2.6308594 0.43359375,-1.3242187 1.31835937,-2.7070313 l 0.93749998,0 z"
         style="stroke:#f69200;stroke-width:0.03543307;stroke-miterlimit:4;stroke-dasharray:none"
         id="path4875" />
      <path
         d="m 3.2734375,-3.7675781 3.1582031,0 0,0.9609375 -3.1582031,0 0,-0.9609375 z"
         style="stroke:#f69200;stroke-width:0.03543307;stroke-miterlimit:4;stroke-dasharray:none"
         id="path4877" />
      <path
         d="m 11.892578,-4.7167969 q 0.84961,0.1816407 1.324219,0.7558594 0.480469,0.5742187 0.480469,1.4179687 0,1.2949219 -0.890625,2.0039063 -0.890625,0.70898437 -2.53125,0.70898437 -0.5507816,0 -1.1367191,-0.11132812 Q 8.5585938,-0.046875 7.9375,-0.26367188 l 0,-1.14257812 q 0.4921875,0.2871094 1.078125,0.43359375 0.5859375,0.14648437 1.224609,0.14648437 1.113282,0 1.69336,-0.43945312 0.585937,-0.4394531 0.585937,-1.2773438 0,-0.7734375 -0.544922,-1.2070312 -0.539062,-0.4394531 -1.505859,-0.4394531 l -1.0195312,0 0,-0.9726563 1.0664062,0 q 0.873047,0 1.335938,-0.3457031 0.46289,-0.3515625 0.46289,-1.0078125 0,-0.6738281 -0.480469,-1.03125 -0.474609,-0.3632812 -1.365234,-0.3632812 -0.4863281,0 -1.0429687,0.1054687 -0.5566407,0.1054688 -1.2246094,0.328125 l 0,-1.0546875 Q 8.875,-8.71875 9.4609375,-8.8125 q 0.5917965,-0.09375 1.1132815,-0.09375 1.347656,0 2.132812,0.6152344 0.785157,0.609375 0.785157,1.6523437 0,0.7265625 -0.416016,1.2304688 -0.416016,0.4980469 -1.183594,0.6914062 z"
         style="stroke:#f69200;stroke-width:0.03543307;stroke-miterlimit:4;stroke-dasharray:none"
         id="path4879" />
      <path
         d="m 16.070312,-1.4882812 1.236329,0 0,1.00781245 -0.960938,1.87499995 -0.755859,0 0.480468,-1.87499995 0,-1.00781245 z"
         style="stroke:#f69200;stroke-width:0.03543307;stroke-miterlimit:4;stroke-dasharray:none"
         id="path4881" />
      <path
         d="m 19.972656,-0.99609375 1.933594,0 0,-6.67382815 -2.103516,0.421875 0,-1.078125 2.091797,-0.421875 1.183594,0 0,7.75195315 1.933594,0 0,0.99609375 -5.039063,0 0,-0.99609375 z"
         style="stroke:#f69200;stroke-width:0.03543307;stroke-miterlimit:4;stroke-dasharray:none"
         id="path4883" />
      <path
         d="m 27.085937,-9.1054688 0.9375,0 q 0.878907,1.3828126 1.3125,2.7070313 0.439454,1.3242188 0.439454,2.6308594 0,1.3125 -0.439454,2.6425781 -0.433593,1.33007813 -1.3125,2.7070312 l -0.9375,0 q 0.779297,-1.34179682 1.160157,-2.6660156 0.386718,-1.3300781 0.386718,-2.6835937 0,-1.3535156 -0.386718,-2.671875 -0.38086,-1.3183594 -1.160157,-2.6660157 z"
         style="stroke:#f69200;stroke-width:0.03543307;stroke-miterlimit:4;stroke-dasharray:none"
         id="path4885" />
      <path
         d="m 41.054687,-8.4609375 0,1.1542969 q -0.673828,-0.3222656 -1.271484,-0.4804688 -0.597656,-0.1582031 -1.154297,-0.1582031 -0.966797,0 -1.49414,0.375 -0.521485,0.375 -0.521485,1.0664063 0,0.5800781 0.345703,0.8789062 0.351563,0.2929688 1.324219,0.4746094 l 0.714844,0.1464844 q 1.324219,0.2519531 1.951172,0.890625 0.632812,0.6328124 0.632812,1.6992187 0,1.2714844 -0.855469,1.92773437 -0.849609,0.65625 -2.496093,0.65625 -0.621094,0 -1.324219,-0.14062499 -0.697266,-0.140625 -1.447266,-0.41601563 l 0,-1.21874995 q 0.720703,0.4042968 1.41211,0.60937495 0.691406,0.20507813 1.359375,0.20507813 1.013672,0 1.564453,-0.39843748 0.550781,-0.3984375 0.550781,-1.1367188 0,-0.6445312 -0.398437,-1.0078125 -0.392579,-0.3632812 -1.294922,-0.5449219 l -0.720703,-0.1406249 q -1.324219,-0.2636719 -1.916016,-0.8261719 -0.591797,-0.5625 -0.591797,-1.5644531 0,-1.1601563 0.814453,-1.8281251 0.820313,-0.6679687 2.25586,-0.6679687 0.615234,0 1.253906,0.1113281 0.638672,0.1113281 1.30664,0.3339844 z"
         style="stroke:#f69200;stroke-width:0.03543307;stroke-miterlimit:4;stroke-dasharray:none"
         id="path4887" />
    </g>
  </g>
  <g
     id="triangle-32"
     transform="translate(503.55503,148.57143)"
     style="stroke-width:0.03543307;stroke-miterlimit:4;stroke-dasharray:none">
    <g
       style="stroke:#f69200;stroke-width:0.03543307;stroke-miterlimit:4;stroke-dasharray:none"
       id="text31">
      <path
         d="m 113.2513,71.305847 3.1582,0 0,0.960938 -3.1582,0 0,-0.960938 z"
         style="stroke:#f69200;stroke-width:0.03543307;stroke-miterlimit:4;stroke-dasharray:none"
         id="path4776" />
      <path
         d="m 121.87044,70.356628 q 0.84961,0.181641 1.32422,0.75586 0.48047,0.574219 0.48047,1.417969 0,1.294921 -0.89063,2.003906 -0.89062,0.708984 -2.53125,0.708984 -0.55078,0 -1.13672,-0.111328 -0.58008,-0.105469 -1.20117,-0.322266 l 0,-1.142578 q 0.49219,0.28711 1.07812,0.433594 0.58594,0.146484 1.22461,0.146484 1.11329,0 1.69336,-0.439453 0.58594,-0.439453 0.58594,-1.277343 0,-0.773438 -0.54492,-1.207032 -0.53906,-0.439453 -1.50586,-0.439453 l -1.01953,0 0,-0.972656 1.0664,0 q 0.87305,0 1.33594,-0.345703 0.46289,-0.351563 0.46289,-1.007813 0,-0.673828 -0.48047,-1.03125 -0.47461,-0.363281 -1.36523,-0.363281 -0.48633,0 -1.04297,0.105469 -0.55664,0.105469 -1.22461,0.328125 l 0,-1.054688 q 0.67383,-0.1875 1.25977,-0.28125 0.59179,-0.09375 1.11328,-0.09375 1.34765,0 2.13281,0.615235 0.78516,0.609375 0.78516,1.652343 0,0.726563 -0.41602,1.230469 -0.41601,0.498047 -1.18359,0.691406 z"
         style="stroke:#f69200;stroke-width:0.03543307;stroke-miterlimit:4;stroke-dasharray:none"
         id="path4778" />
      <path
         d="m 126.04817,73.585144 1.23633,0 0,1.007813 -0.96094,1.875 -0.75586,0 0.48047,-1.875 0,-1.007813 z"
         style="stroke:#f69200;stroke-width:0.03543307;stroke-miterlimit:4;stroke-dasharray:none"
         id="path4780" />
      <path
         d="m 130.76497,74.077332 4.13086,0 0,0.996093 -5.55469,0 0,-0.996093 q 0.67383,-0.697266 1.83399,-1.869141 1.16601,-1.177734 1.46484,-1.517578 0.56836,-0.638672 0.79101,-1.078125 0.22852,-0.445313 0.22852,-0.873047 0,-0.697266 -0.49219,-1.136719 -0.48633,-0.439453 -1.27148,-0.439453 -0.55664,0 -1.17774,0.193359 -0.61523,0.19336 -1.31836,0.585938 l 0,-1.195313 q 0.71485,-0.287109 1.33594,-0.433593 0.6211,-0.146485 1.13672,-0.146485 1.35938,0 2.16797,0.679688 0.80859,0.679687 0.80859,1.816406 0,0.539063 -0.20507,1.025391 -0.19922,0.480468 -0.73243,1.136718 -0.14648,0.169922 -0.93164,0.984375 -0.78515,0.808594 -2.21484,2.267579 z"
         style="stroke:#f69200;stroke-width:0.03543307;stroke-miterlimit:4;stroke-dasharray:none"
         id="path4782" />
      <path
         d="m 137.28059,66.325378 1.1836,0 0,7.751954 4.25976,0 0,0.996093 -5.44336,0 0,-8.748047 z"
         style="stroke:#f69200;stroke-width:0.03543307;stroke-miterlimit:4;stroke-dasharray:none"
         id="path4784" />
    </g>
    <path
       style="fill:none;stroke:#0000ff;stroke-width:0.03543307;stroke-miterlimit:4;stroke-dasharray:none"
       d="m 130.66536,0 0,37.5 4,0 0,-37.5 130.66536,0 -61.52636,95.926657 -31.56525,-20.245621 -2.15953,3.36696 31.56525,20.24562 L 140.11847,195.22027 71.225431,99.23494 101.6905,77.368772 99.358112,74.119164 68.893039,95.985333 0,0 Z"
       id="polygon33" />
    <g
       transform="matrix(-1,0,0,-1,136.66536,7.5)"
       style="stroke:#f69200;stroke-width:0.03543307;stroke-miterlimit:4;stroke-dasharray:none"
       id="text35">
      <path
         d="m 1.7207031,-9.1054688 q -0.78515622,1.3476563 -1.1660156,2.6660157 -0.38085938,1.3183594 -0.38085938,2.671875 0,1.3535156 0.38085938,2.6835937 0.38671875,1.32421878 1.1660156,2.6660156 l -0.93749998,0 Q -0.09570312,0.20507813 -0.53515625,-1.125 -0.96875,-2.4550781 -0.96875,-3.7675781 q 0,-1.3066406 0.43359375,-2.6308594 0.43359375,-1.3242187 1.31835937,-2.7070313 l 0.93749998,0 z"
         style="stroke:#f69200;stroke-width:0.03543307;stroke-miterlimit:4;stroke-dasharray:none"
         id="path4788" />
      <path
         d="m 3.2734375,-3.7675781 3.1582031,0 0,0.9609375 -3.1582031,0 0,-0.9609375 z"
         style="stroke:#f69200;stroke-width:0.03543307;stroke-miterlimit:4;stroke-dasharray:none"
         id="path4790" />
      <path
         d="m 11.892578,-4.7167969 q 0.84961,0.1816407 1.324219,0.7558594 0.480469,0.5742187 0.480469,1.4179687 0,1.2949219 -0.890625,2.0039063 -0.890625,0.70898437 -2.53125,0.70898437 -0.5507816,0 -1.1367191,-0.11132812 Q 8.5585938,-0.046875 7.9375,-0.26367188 l 0,-1.14257812 q 0.4921875,0.2871094 1.078125,0.43359375 0.5859375,0.14648437 1.224609,0.14648437 1.113282,0 1.69336,-0.43945312 0.585937,-0.4394531 0.585937,-1.2773438 0,-0.7734375 -0.544922,-1.2070312 -0.539062,-0.4394531 -1.505859,-0.4394531 l -1.0195312,0 0,-0.9726563 1.0664062,0 q 0.873047,0 1.335938,-0.3457031 0.46289,-0.3515625 0.46289,-1.0078125 0,-0.6738281 -0.480469,-1.03125 -0.474609,-0.3632812 -1.365234,-0.3632812 -0.4863281,0 -1.0429687,0.1054687 -0.5566407,0.1054688 -1.2246094,0.328125 l 0,-1.0546875 Q 8.875,-8.71875 9.4609375,-8.8125 q 0.5917965,-0.09375 1.1132815,-0.09375 1.347656,0 2.132812,0.6152344 0.785157,0.609375 0.785157,1.6523437 0,0.7265625 -0.416016,1.2304688 -0.416016,0.4980469 -1.183594,0.6914062 z"
         style="stroke:#f69200;stroke-width:0.03543307;stroke-miterlimit:4;stroke-dasharray:none"
         id="path4792" />
      <path
         d="m 16.070312,-1.4882812 1.236329,0 0,1.00781245 -0.960938,1.87499995 -0.755859,0 0.480468,-1.87499995 0,-1.00781245 z"
         style="stroke:#f69200;stroke-width:0.03543307;stroke-miterlimit:4;stroke-dasharray:none"
         id="path4794" />
      <path
         d="m 20.787109,-0.99609375 4.13086,0 0,0.99609375 -5.554688,0 0,-0.99609375 q 0.673828,-0.69726565 1.833985,-1.86914065 1.166015,-1.1777343 1.464843,-1.5175781 0.56836,-0.6386719 0.791016,-1.078125 0.228516,-0.4453125 0.228516,-0.8730469 0,-0.6972656 -0.492188,-1.1367187 -0.486328,-0.4394531 -1.271484,-0.4394531 -0.556641,0 -1.177735,0.1933593 -0.615234,0.1933594 -1.318359,0.5859375 l 0,-1.1953125 q 0.714844,-0.2871094 1.335937,-0.4335937 0.621094,-0.1464844 1.136719,-0.1464844 1.359375,0 2.167969,0.6796875 0.808594,0.6796875 0.808594,1.8164063 0,0.5390625 -0.205078,1.0253906 -0.199219,0.4804687 -0.732422,1.1367187 -0.146485,0.1699219 -0.931641,0.984375 -0.785156,0.8085938 -2.214844,2.26757815 z"
         style="stroke:#f69200;stroke-width:0.03543307;stroke-miterlimit:4;stroke-dasharray:none"
         id="path4796" />
      <path
         d="m 27.085937,-9.1054688 0.9375,0 q 0.878907,1.3828126 1.3125,2.7070313 0.439454,1.3242188 0.439454,2.6308594 0,1.3125 -0.439454,2.6425781 -0.433593,1.33007813 -1.3125,2.7070312 l -0.9375,0 q 0.779297,-1.34179682 1.160157,-2.6660156 0.386718,-1.3300781 0.386718,-2.6835937 0,-1.3535156 -0.386718,-2.671875 -0.38086,-1.3183594 -1.160157,-2.6660157 z"
         style="stroke:#f69200;stroke-width:0.03543307;stroke-miterlimit:4;stroke-dasharray:none"
         id="path4798" />
      <path
         d="m 41.054687,-8.4609375 0,1.1542969 q -0.673828,-0.3222656 -1.271484,-0.4804688 -0.597656,-0.1582031 -1.154297,-0.1582031 -0.966797,0 -1.49414,0.375 -0.521485,0.375 -0.521485,1.0664063 0,0.5800781 0.345703,0.8789062 0.351563,0.2929688 1.324219,0.4746094 l 0.714844,0.1464844 q 1.324219,0.2519531 1.951172,0.890625 0.632812,0.6328124 0.632812,1.6992187 0,1.2714844 -0.855469,1.92773437 -0.849609,0.65625 -2.496093,0.65625 -0.621094,0 -1.324219,-0.14062499 -0.697266,-0.140625 -1.447266,-0.41601563 l 0,-1.21874995 q 0.720703,0.4042968 1.41211,0.60937495 0.691406,0.20507813 1.359375,0.20507813 1.013672,0 1.564453,-0.39843748 0.550781,-0.3984375 0.550781,-1.1367188 0,-0.6445312 -0.398437,-1.0078125 -0.392579,-0.3632812 -1.294922,-0.5449219 l -0.720703,-0.1406249 q -1.324219,-0.2636719 -1.916016,-0.8261719 -0.591797,-0.5625 -0.591797,-1.5644531 0,-1.1601563 0.814453,-1.8281251 0.820313,-0.6679687 2.25586,-0.6679687 0.615234,0 1.253906,0.1113281 0.638672,0.1113281 1.30664,0.3339844 z"
         style="stroke:#f69200;stroke-width:0.03543307;stroke-miterlimit:4;stroke-dasharray:none"
         id="path4800" />
    </g>
    <g
       transform="matrix(0.53988322,-0.84173993,0.84173993,0.53988322,206.72459,71.360137)"
       style="stroke:#f69200;stroke-width:0.03543307;stroke-miterlimit:4;stroke-dasharray:none"
       id="text37">
      <path
         d="m 1.7207031,-9.1054688 q -0.78515622,1.3476563 -1.1660156,2.6660157 -0.38085938,1.3183594 -0.38085938,2.671875 0,1.3535156 0.38085938,2.6835937 0.38671875,1.32421878 1.1660156,2.6660156 l -0.93749998,0 Q -0.09570312,0.20507813 -0.53515625,-1.125 -0.96875,-2.4550781 -0.96875,-3.7675781 q 0,-1.3066406 0.43359375,-2.6308594 0.43359375,-1.3242187 1.31835937,-2.7070313 l 0.93749998,0 z"
         style="stroke:#f69200;stroke-width:0.03543307;stroke-miterlimit:4;stroke-dasharray:none"
         id="path4803" />
      <path
         d="m 3.2734375,-3.7675781 3.1582031,0 0,0.9609375 -3.1582031,0 0,-0.9609375 z"
         style="stroke:#f69200;stroke-width:0.03543307;stroke-miterlimit:4;stroke-dasharray:none"
         id="path4805" />
      <path
         d="m 11.892578,-4.7167969 q 0.84961,0.1816407 1.324219,0.7558594 0.480469,0.5742187 0.480469,1.4179687 0,1.2949219 -0.890625,2.0039063 -0.890625,0.70898437 -2.53125,0.70898437 -0.5507816,0 -1.1367191,-0.11132812 Q 8.5585938,-0.046875 7.9375,-0.26367188 l 0,-1.14257812 q 0.4921875,0.2871094 1.078125,0.43359375 0.5859375,0.14648437 1.224609,0.14648437 1.113282,0 1.69336,-0.43945312 0.585937,-0.4394531 0.585937,-1.2773438 0,-0.7734375 -0.544922,-1.2070312 -0.539062,-0.4394531 -1.505859,-0.4394531 l -1.0195312,0 0,-0.9726563 1.0664062,0 q 0.873047,0 1.335938,-0.3457031 0.46289,-0.3515625 0.46289,-1.0078125 0,-0.6738281 -0.480469,-1.03125 -0.474609,-0.3632812 -1.365234,-0.3632812 -0.4863281,0 -1.0429687,0.1054687 -0.5566407,0.1054688 -1.2246094,0.328125 l 0,-1.0546875 Q 8.875,-8.71875 9.4609375,-8.8125 q 0.5917965,-0.09375 1.1132815,-0.09375 1.347656,0 2.132812,0.6152344 0.785157,0.609375 0.785157,1.6523437 0,0.7265625 -0.416016,1.2304688 -0.416016,0.4980469 -1.183594,0.6914062 z"
         style="stroke:#f69200;stroke-width:0.03543307;stroke-miterlimit:4;stroke-dasharray:none"
         id="path4807" />
      <path
         d="m 16.070312,-1.4882812 1.236329,0 0,1.00781245 -0.960938,1.87499995 -0.755859,0 0.480468,-1.87499995 0,-1.00781245 z"
         style="stroke:#f69200;stroke-width:0.03543307;stroke-miterlimit:4;stroke-dasharray:none"
         id="path4809" />
      <path
         d="m 20.787109,-0.99609375 4.13086,0 0,0.99609375 -5.554688,0 0,-0.99609375 q 0.673828,-0.69726565 1.833985,-1.86914065 1.166015,-1.1777343 1.464843,-1.5175781 0.56836,-0.6386719 0.791016,-1.078125 0.228516,-0.4453125 0.228516,-0.8730469 0,-0.6972656 -0.492188,-1.1367187 -0.486328,-0.4394531 -1.271484,-0.4394531 -0.556641,0 -1.177735,0.1933593 -0.615234,0.1933594 -1.318359,0.5859375 l 0,-1.1953125 q 0.714844,-0.2871094 1.335937,-0.4335937 0.621094,-0.1464844 1.136719,-0.1464844 1.359375,0 2.167969,0.6796875 0.808594,0.6796875 0.808594,1.8164063 0,0.5390625 -0.205078,1.0253906 -0.199219,0.4804687 -0.732422,1.1367187 -0.146485,0.1699219 -0.931641,0.984375 -0.785156,0.8085938 -2.214844,2.26757815 z"
         style="stroke:#f69200;stroke-width:0.03543307;stroke-miterlimit:4;stroke-dasharray:none"
         id="path4811" />
      <path
         d="m 27.085937,-9.1054688 0.9375,0 q 0.878907,1.3828126 1.3125,2.7070313 0.439454,1.3242188 0.439454,2.6308594 0,1.3125 -0.439454,2.6425781 -0.433593,1.33007813 -1.3125,2.7070312 l -0.9375,0 q 0.779297,-1.34179682 1.160157,-2.6660156 0.386718,-1.3300781 0.386718,-2.6835937 0,-1.3535156 -0.386718,-2.671875 -0.38086,-1.3183594 -1.160157,-2.6660157 z"
         style="stroke:#f69200;stroke-width:0.03543307;stroke-miterlimit:4;stroke-dasharray:none"
         id="path4813" />
      <path
         d="m 35.03125,-8.7480469 1.195312,0 1.839844,7.3945313 1.833985,-7.3945313 1.330078,0 1.839843,7.3945313 1.833985,-7.3945313 1.201172,0 L 43.908203,0 42.419922,0 40.574219,-7.59375 38.710937,0 37.222656,0 35.03125,-8.7480469 Z"
         style="stroke:#f69200;stroke-width:0.03543307;stroke-miterlimit:4;stroke-dasharray:none"
         id="path4815" />
    </g>
    <g
       transform="matrix(0.58309783,0.81240195,-0.81240195,0.58309783,74.859235,97.610137)"
       style="stroke:#f69200;stroke-width:0.03543307;stroke-miterlimit:4;stroke-dasharray:none"
       id="text39">
      <path
         d="m 1.7207031,-9.1054688 q -0.78515622,1.3476563 -1.1660156,2.6660157 -0.38085938,1.3183594 -0.38085938,2.671875 0,1.3535156 0.38085938,2.6835937 0.38671875,1.32421878 1.1660156,2.6660156 l -0.93749998,0 Q -0.09570312,0.20507813 -0.53515625,-1.125 -0.96875,-2.4550781 -0.96875,-3.7675781 q 0,-1.3066406 0.43359375,-2.6308594 0.43359375,-1.3242187 1.31835937,-2.7070313 l 0.93749998,0 z"
         style="stroke:#f69200;stroke-width:0.03543307;stroke-miterlimit:4;stroke-dasharray:none"
         id="path4818" />
      <path
         d="m 3.2734375,-3.7675781 3.1582031,0 0,0.9609375 -3.1582031,0 0,-0.9609375 z"
         style="stroke:#f69200;stroke-width:0.03543307;stroke-miterlimit:4;stroke-dasharray:none"
         id="path4820" />
      <path
         d="m 11.892578,-4.7167969 q 0.84961,0.1816407 1.324219,0.7558594 0.480469,0.5742187 0.480469,1.4179687 0,1.2949219 -0.890625,2.0039063 -0.890625,0.70898437 -2.53125,0.70898437 -0.5507816,0 -1.1367191,-0.11132812 Q 8.5585938,-0.046875 7.9375,-0.26367188 l 0,-1.14257812 q 0.4921875,0.2871094 1.078125,0.43359375 0.5859375,0.14648437 1.224609,0.14648437 1.113282,0 1.69336,-0.43945312 0.585937,-0.4394531 0.585937,-1.2773438 0,-0.7734375 -0.544922,-1.2070312 -0.539062,-0.4394531 -1.505859,-0.4394531 l -1.0195312,0 0,-0.9726563 1.0664062,0 q 0.873047,0 1.335938,-0.3457031 0.46289,-0.3515625 0.46289,-1.0078125 0,-0.6738281 -0.480469,-1.03125 -0.474609,-0.3632812 -1.365234,-0.3632812 -0.4863281,0 -1.0429687,0.1054687 -0.5566407,0.1054688 -1.2246094,0.328125 l 0,-1.0546875 Q 8.875,-8.71875 9.4609375,-8.8125 q 0.5917965,-0.09375 1.1132815,-0.09375 1.347656,0 2.132812,0.6152344 0.785157,0.609375 0.785157,1.6523437 0,0.7265625 -0.416016,1.2304688 -0.416016,0.4980469 -1.183594,0.6914062 z"
         style="stroke:#f69200;stroke-width:0.03543307;stroke-miterlimit:4;stroke-dasharray:none"
         id="path4822" />
      <path
         d="m 16.070312,-1.4882812 1.236329,0 0,1.00781245 -0.960938,1.87499995 -0.755859,0 0.480468,-1.87499995 0,-1.00781245 z"
         style="stroke:#f69200;stroke-width:0.03543307;stroke-miterlimit:4;stroke-dasharray:none"
         id="path4824" />
      <path
         d="m 20.787109,-0.99609375 4.13086,0 0,0.99609375 -5.554688,0 0,-0.99609375 q 0.673828,-0.69726565 1.833985,-1.86914065 1.166015,-1.1777343 1.464843,-1.5175781 0.56836,-0.6386719 0.791016,-1.078125 0.228516,-0.4453125 0.228516,-0.8730469 0,-0.6972656 -0.492188,-1.1367187 -0.486328,-0.4394531 -1.271484,-0.4394531 -0.556641,0 -1.177735,0.1933593 -0.615234,0.1933594 -1.318359,0.5859375 l 0,-1.1953125 q 0.714844,-0.2871094 1.335937,-0.4335937 0.621094,-0.1464844 1.136719,-0.1464844 1.359375,0 2.167969,0.6796875 0.808594,0.6796875 0.808594,1.8164063 0,0.5390625 -0.205078,1.0253906 -0.199219,0.4804687 -0.732422,1.1367187 -0.146485,0.1699219 -0.931641,0.984375 -0.785156,0.8085938 -2.214844,2.26757815 z"
         style="stroke:#f69200;stroke-width:0.03543307;stroke-miterlimit:4;stroke-dasharray:none"
         id="path4826" />
      <path
         d="m 27.085937,-9.1054688 0.9375,0 q 0.878907,1.3828126 1.3125,2.7070313 0.439454,1.3242188 0.439454,2.6308594 0,1.3125 -0.439454,2.6425781 -0.433593,1.33007813 -1.3125,2.7070312 l -0.9375,0 q 0.779297,-1.34179682 1.160157,-2.6660156 0.386718,-1.3300781 0.386718,-2.6835937 0,-1.3535156 -0.386718,-2.671875 -0.38086,-1.3183594 -1.160157,-2.6660157 z"
         style="stroke:#f69200;stroke-width:0.03543307;stroke-miterlimit:4;stroke-dasharray:none"
         id="path4828" />
      <path
         d="m 35.03125,-8.7480469 1.195312,0 1.839844,7.3945313 1.833985,-7.3945313 1.330078,0 1.839843,7.3945313 1.833985,-7.3945313 1.201172,0 L 43.908203,0 42.419922,0 40.574219,-7.59375 38.710937,0 37.222656,0 35.03125,-8.7480469 Z"
         style="stroke:#f69200;stroke-width:0.03543307;stroke-miterlimit:4;stroke-dasharray:none"
         id="path4830" />
    </g>
  </g>
</svg>
