<?xml version="1.0" encoding="utf-8" ?>
<svg baseProfile="full" height="384mm" style="font-size:6;" version="1.1" viewBox="0 0 790 384" width="790mm" xmlns="http://www.w3.org/2000/svg" xmlns:ev="http://www.w3.org/2001/xml-events" xmlns:xlink="http://www.w3.org/1999/xlink"><defs /><rect fill="none" height="384" stroke="rgb(0,0,255)" stroke-width="1.0" width="790" x="0" y="0" /><g id="triangle-20" transform="translate(0.0,20)"><text fill="none" stroke="rgb(246,146,30)" x="25.8938993767" y="33.1965753467">-2,0L</text><polygon fill="none" points="0,0 43.8938993767,0 43.8938993767,13.3333333333 47.8938993767,13.3333333333 47.8938993767,0 91.7877987534,0 68.1627354498,33.1658907463 57.3029202914,25.4301171907 54.9821882247,28.6880617382 65.8420033831,36.4238352938 42.2169400795,69.58972604 22.1458164453,36.5048081755 33.5454508155,29.5891654719 31.4707580044,26.1692751609 20.0711236342,33.0849178645" stroke="rgb(0,0,255)" stroke-width="1.0" /><text fill="none" stroke="rgb(246,146,30)" transform="translate(49.8938993767,2.66666666667) rotate(180.0)" x="-2.0" y="0">(-2,0) S</text><text fill="none" stroke="rgb(246,146,30)" transform="translate(71.0023694164,25.4615296867) rotate(-54.5365839143)" x="-2.0" y="0">(-2,0) E</text><text fill="none" stroke="rgb(246,146,30)" transform="translate(25.9084700397,34.79486302) rotate(58.7567054257)" x="-2.0" y="0">(-2,0) W</text></g><g id="triangle-21" transform="translate(101.787798753,20)"><text fill="none" stroke="rgb(246,146,30)" x="22.7200187266" y="34.9199632064">-2,1L</text><polygon fill="none" points="0,0 40.7200187266,0 40.7200187266,13.3333333333 44.7200187266,13.3333333333 44.7200187266,0 85.4400374532,0 59.9735424994,35.7509725359 49.113727341,28.0151989803 46.7929952743,31.2731435278 57.6528104327,39.0089170834 32.1863154789,74.7598896193 16.8840335966,39.2169302148 29.1306029641,33.9444245008 27.5488512499,30.2704536905 15.3022818824,35.5429594045" stroke="rgb(0,0,255)" stroke-width="1.0" /><text fill="none" stroke="rgb(246,146,30)" transform="translate(46.7200187266,2.66666666667) rotate(180.0)" x="-2.0" y="0">(-2,1) S</text><text fill="none" stroke="rgb(246,146,30)" transform="translate(62.8131764661,28.0466114763) rotate(-54.5365839143)" x="-2.0" y="0">(-2,1) E</text><text fill="none" stroke="rgb(246,146,30)" transform="translate(20.8931577395,37.3799448097) rotate(66.70671066)" x="-2.0" y="0">(-2,1) W</text></g><g id="triangle-1-1" transform="translate(197.227836207,20)"><text fill="none" stroke="rgb(246,146,30)" x="22.7200187266" y="33.5637675585">-1,-1L</text><polygon fill="none" points="0,0 40.7200187266,0 40.7200187266,13.3333333333 44.7200187266,13.3333333333 44.7200187266,0 85.4400374532,0 67.6497830794,33.5783687709 55.8678993001,27.3361742538 53.995240945,30.8707393876 65.7771247242,37.1129339047 47.9868703504,70.6913026756 25.1167228464,37.0004095702 36.1484443957,29.5118250953 33.9018690532,26.2023086305 22.870147504,33.6908931054" stroke="rgb(0,0,255)" stroke-width="1.0" /><text fill="none" stroke="rgb(246,146,30)" transform="translate(46.7200187266,2.66666666667) rotate(180.0)" x="-2.0" y="0">(-1,-1) S</text><text fill="none" stroke="rgb(246,146,30)" transform="translate(70.7134539018,26.0123180045) rotate(-62.0847781638)" x="-2.0" y="0">(-1,-1) E</text><text fill="none" stroke="rgb(246,146,30)" transform="translate(28.7934351752,35.3456513378) rotate(55.8304436724)" x="-2.0" y="0">(-1,-1) W</text></g><g id="triangle-10" transform="translate(292.66787366,20)"><text fill="none" stroke="rgb(246,146,30)" x="20.6970514902" y="33.2243636981">-1,0L</text><polygon fill="none" points="0,0 38.6970514902,0 38.6970514902,13.3333333333 42.6970514902,13.3333333333 42.6970514902,0 81.3941029805,0 61.3884574931,33.1245519618 49.975166924,26.2314702008 47.9072423957,29.6554573715 59.3205329648,36.5485391325 39.3148874774,69.6730910943 20.6403159256,36.5783728245 32.2524977747,30.0258915783 30.2867534008,26.5422370236 18.6745715518,33.0947182698" stroke="rgb(0,0,255)" stroke-width="1.0" /><text fill="none" stroke="rgb(246,146,30)" transform="translate(44.6970514902,2.66666666667) rotate(180.0)" x="-2.0" y="0">(-1,0) S</text><text fill="none" stroke="rgb(246,146,30)" transform="translate(64.3544952289,25.5032122138) rotate(-58.8700312158)" x="-2.0" y="0">(-1,0) E</text><text fill="none" stroke="rgb(246,146,30)" transform="translate(24.4574437387,34.8365455472) rotate(60.5649843921)" x="-2.0" y="0">(-1,0) W</text></g><g id="triangle-11" transform="translate(384.06197664,20)"><text fill="none" stroke="rgb(246,146,30)" x="20.0" y="35.1661147842">-1,1L</text><polygon fill="none" points="0,0 38.0,0 38.0,13.3333333333 42.0,13.3333333333 42.0,0 80.0,0 60.9363291776,35.9818896095 49.1544453983,29.7396950923 47.2817870432,33.2742602261 59.0636708224,39.5164547432 40.0,75.4983443527 20.9363291776,39.5164547432 32.7182129568,33.2742602261 30.8455546017,29.7396950923 19.0636708224,35.9818896095" stroke="rgb(0,0,255)" stroke-width="1.0" /><text fill="none" stroke="rgb(246,146,30)" transform="translate(44.0,2.66666666667) rotate(180.0)" x="-2.0" y="0">(-1,1) S</text><text fill="none" stroke="rgb(246,146,30)" transform="translate(64.0,28.415838843) rotate(-62.0847781638)" x="-2.0" y="0">(-1,1) E</text><text fill="none" stroke="rgb(246,146,30)" transform="translate(24.8,37.7491721764) rotate(62.0847781638)" x="-2.0" y="0">(-1,1) W</text></g><g id="triangle0-2" transform="translate(474.06197664,20)"><text fill="none" stroke="rgb(246,146,30)" x="20.6970514902" y="36.1586836358">0,-2L</text><polygon fill="none" points="0,0 38.6970514902,0 38.6970514902,13.3333333333 42.6970514902,13.3333333333 42.6970514902,0 81.3941029805,0 65.2918631247,37.4010400486 53.0452937572,32.1285343346 51.4635420429,35.8025051449 63.7101114105,41.0750108589 47.6078715546,78.4760509075 24.8412821829,40.9479706093 36.240916553,34.0323279057 34.166223742,30.6124375946 22.7665893718,37.5280802982" stroke="rgb(0,0,255)" stroke-width="1.0" /><text fill="none" stroke="rgb(246,146,30)" transform="translate(44.6970514902,2.66666666667) rotate(180.0)" x="-2.0" y="0">(0,-2) S</text><text fill="none" stroke="rgb(246,146,30)" transform="translate(68.5009872676,29.9046921204) rotate(-66.70671066)" x="-2.0" y="0">(0,-2) E</text><text fill="none" stroke="rgb(246,146,30)" transform="translate(28.6039357773,39.2380254538) rotate(58.7567054257)" x="-2.0" y="0">(0,-2) W</text></g><g id="triangle0-1" transform="translate(565.456079621,20)"><text fill="none" stroke="rgb(246,146,30)" x="20.0" y="33.6290781313">0,-1L</text><polygon fill="none" points="0,0 38.0,0 38.0,13.3333333333 42.0,13.3333333333 42.0,0 80.0,0 60.9828721869,33.7017899195 49.3706903379,27.1493086733 47.404945964,30.632963228 59.0171278131,37.1854444743 40.0,70.8872343938 20.9828721869,37.1854444743 32.595054036,30.632963228 30.6293096621,27.1493086733 19.0171278131,33.7017899195" stroke="rgb(0,0,255)" stroke-width="1.0" /><text fill="none" stroke="rgb(246,146,30)" transform="translate(44.0,2.66666666667) rotate(180.0)" x="-2.0" y="0">(0,-1) S</text><text fill="none" stroke="rgb(246,146,30)" transform="translate(64.0,26.1102838636) rotate(-60.5649843921)" x="-2.0" y="0">(0,-1) E</text><text fill="none" stroke="rgb(246,146,30)" transform="translate(24.8,35.4436171969) rotate(60.5649843921)" x="-2.0" y="0">(0,-1) W</text></g><g id="triangle00" transform="translate(655.456079621,20)"><text fill="none" stroke="rgb(246,146,30)" x="20.6970514902" y="33.2243636981">0,0L</text><polygon fill="none" points="0,0 38.6970514902,0 38.6970514902,13.3333333333 42.6970514902,13.3333333333 42.6970514902,0 81.3941029805,0 62.7195314287,33.0947182698 51.1073495797,26.5422370236 49.1416052058,30.0258915783 60.7537870549,36.5783728245 42.0792155031,69.6730910943 22.0735700157,36.5485391325 33.4868605848,29.6554573715 31.4189360565,26.2314702008 20.0056454874,33.1245519618" stroke="rgb(0,0,255)" stroke-width="1.0" /><text fill="none" stroke="rgb(246,146,30)" transform="translate(44.6970514902,2.66666666667) rotate(180.0)" x="-2.0" y="0">(0,0) S</text><text fill="none" stroke="rgb(246,146,30)" transform="translate(65.7366592418,25.5032122138) rotate(-60.5649843921)" x="-2.0" y="0">(0,0) E</text><text fill="none" stroke="rgb(246,146,30)" transform="translate(25.8396077516,34.8365455472) rotate(58.8700312158)" x="-2.0" y="0">(0,0) W</text></g><g id="triangle01" transform="translate(746.850182601,20)"><text fill="none" stroke="rgb(246,146,30)" x="22.7200187266" y="34.9199632064">0,1L</text><polygon fill="none" points="0,0 40.7200187266,0 40.7200187266,13.3333333333 44.7200187266,13.3333333333 44.7200187266,0 85.4400374532,0 70.1377555708,35.5429594045 57.8911862033,30.2704536905 56.3094344891,33.9444245008 68.5560038566,39.2169302148 53.2537219742,74.7598896193 27.7872270205,39.0089170834 38.6470421788,31.2731435278 36.3263101122,28.0151989803 25.4664949538,35.7509725359" stroke="rgb(0,0,255)" stroke-width="1.0" /><text fill="none" stroke="rgb(246,146,30)" transform="translate(46.7200187266,2.66666666667) rotate(180.0)" x="-2.0" y="0">(0,1) S</text><text fill="none" stroke="rgb(246,146,30)" transform="translate(73.3468797137,28.0466114763) rotate(-66.70671066)" x="-2.0" y="0">(0,1) E</text><text fill="none" stroke="rgb(246,146,30)" transform="translate(31.4268609871,37.3799448097) rotate(54.5365839143)" x="-2.0" y="0">(0,1) W</text></g><g id="triangle1-2" transform="translate(842.290220054,20)"><text fill="none" stroke="rgb(246,146,30)" x="20.6970514902" y="36.1586836358">1,-2L</text><polygon fill="none" points="0,0 38.6970514902,0 38.6970514902,13.3333333333 42.6970514902,13.3333333333 42.6970514902,0 81.3941029805,0 58.6275136087,37.5280802982 47.2278792385,30.6124375946 45.1531864275,34.0323279057 56.5528207976,40.9479706093 33.7862314259,78.4760509075 17.68399157,41.0750108589 29.9305609376,35.8025051449 28.3488092233,32.1285343346 16.1022398558,37.4010400486" stroke="rgb(0,0,255)" stroke-width="1.0" /><text fill="none" stroke="rgb(246,146,30)" transform="translate(44.6970514902,2.66666666667) rotate(180.0)" x="-2.0" y="0">(1,-2) S</text><text fill="none" stroke="rgb(246,146,30)" transform="translate(61.5901672032,29.9046921204) rotate(-58.7567054257)" x="-2.0" y="0">(1,-2) E</text><text fill="none" stroke="rgb(246,146,30)" transform="translate(21.6931157129,39.2380254538) rotate(66.70671066)" x="-2.0" y="0">(1,-2) W</text></g><g id="triangle1-1" transform="translate(933.684323035,20)"><text fill="none" stroke="rgb(246,146,30)" x="22.7200187266" y="33.5637675585">1,-1L</text><polygon fill="none" points="0,0 40.7200187266,0 40.7200187266,13.3333333333 44.7200187266,13.3333333333 44.7200187266,0 85.4400374532,0 62.5698899492,33.6908931054 51.5381683999,26.2023086305 49.2915930575,29.5118250953 60.3233146067,37.0004095702 37.4531671028,70.6913026756 19.6629127289,37.1129339047 31.4447965082,30.8707393876 29.5721381531,27.3361742538 17.7902543738,33.5783687709" stroke="rgb(0,0,255)" stroke-width="1.0" /><text fill="none" stroke="rgb(246,146,30)" transform="translate(46.7200187266,2.66666666667) rotate(180.0)" x="-2.0" y="0">(1,-1) S</text><text fill="none" stroke="rgb(246,146,30)" transform="translate(65.446602278,26.0123180045) rotate(-55.8304436724)" x="-2.0" y="0">(1,-1) E</text><text fill="none" stroke="rgb(246,146,30)" transform="translate(23.5265835514,35.3456513378) rotate(62.0847781638)" x="-2.0" y="0">(1,-1) W</text></g><g id="triangle10" transform="translate(1029.12436049,20)"><text fill="none" stroke="rgb(246,146,30)" x="25.8938993767" y="33.1965753467">1,0L</text><polygon fill="none" points="0,0 43.8938993767,0 43.8938993767,13.3333333333 47.8938993767,13.3333333333 47.8938993767,0 91.7877987534,0 71.7166751192,33.0849178645 60.317040749,26.1692751609 58.242347938,29.5891654719 69.6419823082,36.5048081755 49.570858674,69.58972604 25.9457953703,36.4238352938 36.8056105287,28.6880617382 34.484878462,25.4301171907 23.6250633036,33.1658907463" stroke="rgb(0,0,255)" stroke-width="1.0" /><text fill="none" stroke="rgb(246,146,30)" transform="translate(49.8938993767,2.66666666667) rotate(180.0)" x="-2.0" y="0">(1,0) S</text><text fill="none" stroke="rgb(246,146,30)" transform="translate(74.6793287137,25.4615296867) rotate(-58.7567054257)" x="-2.0" y="0">(1,0) E</text><text fill="none" stroke="rgb(246,146,30)" transform="translate(29.585429337,34.79486302) rotate(54.5365839143)" x="-2.0" y="0">(1,0) W</text></g><g id="triangle-2-1" transform="translate(1130.91215924,20)"><text fill="none" stroke="rgb(246,146,30)" x="22.7200187266" y="34.9199632064">-2,-1R</text><polygon fill="none" points="0,0 40.7200187266,0 40.7200187266,13.3333333333 44.7200187266,13.3333333333 44.7200187266,0 85.4400374532,0 59.9735424994,35.7509725359 49.113727341,28.0151989803 46.7929952743,31.2731435278 57.6528104327,39.0089170834 32.1863154789,74.7598896193 16.8840335966,39.2169302148 29.1306029641,33.9444245008 27.5488512499,30.2704536905 15.3022818824,35.5429594045" stroke="rgb(0,0,255)" stroke-width="1.0" /><text fill="none" stroke="rgb(246,146,30)" transform="translate(46.7200187266,2.66666666667) rotate(180.0)" x="-2.0" y="0">(-1,-1) W</text><text fill="none" stroke="rgb(246,146,30)" transform="translate(62.8131764661,28.0466114763) rotate(-54.5365839143)" x="-2.0" y="0">(-2,0) S</text><text fill="none" stroke="rgb(246,146,30)" transform="translate(20.8931577395,37.3799448097) rotate(66.70671066)" x="-2.0" y="0">(-2,-1) E</text></g><g id="triangle-20" transform="translate(1226.35219669,20)"><text fill="none" stroke="rgb(246,146,30)" x="20.0" y="35.1661147842">-2,0R</text><polygon fill="none" points="0,0 38.0,0 38.0,13.3333333333 42.0,13.3333333333 42.0,0 80.0,0 60.9363291776,35.9818896095 49.1544453983,29.7396950923 47.2817870432,33.2742602261 59.0636708224,39.5164547432 40.0,75.4983443527 20.9363291776,39.5164547432 32.7182129568,33.2742602261 30.8455546017,29.7396950923 19.0636708224,35.9818896095" stroke="rgb(0,0,255)" stroke-width="1.0" /><text fill="none" stroke="rgb(246,146,30)" transform="translate(44.0,2.66666666667) rotate(180.0)" x="-2.0" y="0">(-1,0) W</text><text fill="none" stroke="rgb(246,146,30)" transform="translate(64.0,28.415838843) rotate(-62.0847781638)" x="-2.0" y="0">(-2,1) S</text><text fill="none" stroke="rgb(246,146,30)" transform="translate(24.8,37.7491721764) rotate(62.0847781638)" x="-2.0" y="0">(-2,0) E</text></g><g id="triangle-21" transform="translate(1316.35219669,20)"><text fill="none" stroke="rgb(246,146,30)" x="22.7200187266" y="34.9199632064">-2,1R</text><polygon fill="none" points="0,0 40.7200187266,0 40.7200187266,13.3333333333 44.7200187266,13.3333333333 44.7200187266,0 85.4400374532,0 70.1377555708,35.5429594045 57.8911862033,30.2704536905 56.3094344891,33.9444245008 68.5560038566,39.2169302148 53.2537219742,74.7598896193 27.7872270205,39.0089170834 38.6470421788,31.2731435278 36.3263101122,28.0151989803 25.4664949538,35.7509725359" stroke="rgb(0,0,255)" stroke-width="1.0" /><text fill="none" stroke="rgb(246,146,30)" transform="translate(46.7200187266,2.66666666667) rotate(180.0)" x="-2.0" y="0">(-1,1) W</text><text fill="none" stroke="rgb(246,146,30)" transform="translate(73.3468797137,28.0466114763) rotate(-66.70671066)" x="-2.0" y="0">(-2,2) S</text><text fill="none" stroke="rgb(246,146,30)" transform="translate(31.4268609871,37.3799448097) rotate(54.5365839143)" x="-2.0" y="0">(-2,1) E</text></g><g id="triangle-1-2" transform="translate(1411.79223415,20)"><text fill="none" stroke="rgb(246,146,30)" x="25.8938993767" y="33.1965753467">-1,-2R</text><polygon fill="none" points="0,0 43.8938993767,0 43.8938993767,13.3333333333 47.8938993767,13.3333333333 47.8938993767,0 91.7877987534,0 68.1627354498,33.1658907463 57.3029202914,25.4301171907 54.9821882247,28.6880617382 65.8420033831,36.4238352938 42.2169400795,69.58972604 22.1458164453,36.5048081755 33.5454508155,29.5891654719 31.4707580044,26.1692751609 20.0711236342,33.0849178645" stroke="rgb(0,0,255)" stroke-width="1.0" /><text fill="none" stroke="rgb(246,146,30)" transform="translate(49.8938993767,2.66666666667) rotate(180.0)" x="-2.0" y="0">(0,-2) W</text><text fill="none" stroke="rgb(246,146,30)" transform="translate(71.0023694164,25.4615296867) rotate(-54.5365839143)" x="-2.0" y="0">(-1,-1) S</text><text fill="none" stroke="rgb(246,146,30)" transform="translate(25.9084700397,34.79486302) rotate(58.7567054257)" x="-2.0" y="0">(-1,-2) E</text></g><g id="triangle-1-1" transform="translate(1513.5800329,20)"><text fill="none" stroke="rgb(246,146,30)" x="20.6970514902" y="33.2243636981">-1,-1R</text><polygon fill="none" points="0,0 38.6970514902,0 38.6970514902,13.3333333333 42.6970514902,13.3333333333 42.6970514902,0 81.3941029805,0 61.3884574931,33.1245519618 49.975166924,26.2314702008 47.9072423957,29.6554573715 59.3205329648,36.5485391325 39.3148874774,69.6730910943 20.6403159256,36.5783728245 32.2524977747,30.0258915783 30.2867534008,26.5422370236 18.6745715518,33.0947182698" stroke="rgb(0,0,255)" stroke-width="1.0" /><text fill="none" stroke="rgb(246,146,30)" transform="translate(44.6970514902,2.66666666667) rotate(180.0)" x="-2.0" y="0">(0,-1) W</text><text fill="none" stroke="rgb(246,146,30)" transform="translate(64.3544952289,25.5032122138) rotate(-58.8700312158)" x="-2.0" y="0">(-1,0) S</text><text fill="none" stroke="rgb(246,146,30)" transform="translate(24.4574437387,34.8365455472) rotate(60.5649843921)" x="-2.0" y="0">(-1,-1) E</text></g><g id="triangle-10" transform="translate(1604.97413588,20)"><text fill="none" stroke="rgb(246,146,30)" x="20.6970514902" y="33.2243636981">-1,0R</text><polygon fill="none" points="0,0 38.6970514902,0 38.6970514902,13.3333333333 42.6970514902,13.3333333333 42.6970514902,0 81.3941029805,0 62.7195314287,33.0947182698 51.1073495797,26.5422370236 49.1416052058,30.0258915783 60.7537870549,36.5783728245 42.0792155031,69.6730910943 22.0735700157,36.5485391325 33.4868605848,29.6554573715 31.4189360565,26.2314702008 20.0056454874,33.1245519618" stroke="rgb(0,0,255)" stroke-width="1.0" /><text fill="none" stroke="rgb(246,146,30)" transform="translate(44.6970514902,2.66666666667) rotate(180.0)" x="-2.0" y="0">(0,0) W</text><text fill="none" stroke="rgb(246,146,30)" transform="translate(65.7366592418,25.5032122138) rotate(-60.5649843921)" x="-2.0" y="0">(-1,1) S</text><text fill="none" stroke="rgb(246,146,30)" transform="translate(25.8396077516,34.8365455472) rotate(58.8700312158)" x="-2.0" y="0">(-1,0) E</text></g><g id="triangle-11" transform="translate(1696.36823886,20)"><text fill="none" stroke="rgb(246,146,30)" x="25.8938993767" y="33.1965753467">-1,1R</text><polygon fill="none" points="0,0 43.8938993767,0 43.8938993767,13.3333333333 47.8938993767,13.3333333333 47.8938993767,0 91.7877987534,0 71.7166751192,33.0849178645 60.317040749,26.1692751609 58.242347938,29.5891654719 69.6419823082,36.5048081755 49.570858674,69.58972604 25.9457953703,36.4238352938 36.8056105287,28.6880617382 34.484878462,25.4301171907 23.6250633036,33.1658907463" stroke="rgb(0,0,255)" stroke-width="1.0" /><text fill="none" stroke="rgb(246,146,30)" transform="translate(49.8938993767,2.66666666667) rotate(180.0)" x="-2.0" y="0">(0,1) W</text><text fill="none" stroke="rgb(246,146,30)" transform="translate(74.6793287137,25.4615296867) rotate(-58.7567054257)" x="-2.0" y="0">(-1,2) S</text><text fill="none" stroke="rgb(246,146,30)" transform="translate(29.585429337,34.79486302) rotate(54.5365839143)" x="-2.0" y="0">(-1,1) E</text></g><g id="triangle0-2" transform="translate(1798.15603762,20)"><text fill="none" stroke="rgb(246,146,30)" x="22.7200187266" y="33.5637675585">0,-2R</text><polygon fill="none" points="0,0 40.7200187266,0 40.7200187266,13.3333333333 44.7200187266,13.3333333333 44.7200187266,0 85.4400374532,0 67.6497830794,33.5783687709 55.8678993001,27.3361742538 53.995240945,30.8707393876 65.7771247242,37.1129339047 47.9868703504,70.6913026756 25.1167228464,37.0004095702 36.1484443957,29.5118250953 33.9018690532,26.2023086305 22.870147504,33.6908931054" stroke="rgb(0,0,255)" stroke-width="1.0" /><text fill="none" stroke="rgb(246,146,30)" transform="translate(46.7200187266,2.66666666667) rotate(180.0)" x="-2.0" y="0">(1,-2) W</text><text fill="none" stroke="rgb(246,146,30)" transform="translate(70.7134539018,26.0123180045) rotate(-62.0847781638)" x="-2.0" y="0">(0,-1) S</text><text fill="none" stroke="rgb(246,146,30)" transform="translate(28.7934351752,35.3456513378) rotate(55.8304436724)" x="-2.0" y="0">(0,-2) E</text></g><g id="triangle0-1" transform="translate(1893.59607507,20)"><text fill="none" stroke="rgb(246,146,30)" x="20.0" y="33.6290781313">0,-1R</text><polygon fill="none" points="0,0 38.0,0 38.0,13.3333333333 42.0,13.3333333333 42.0,0 80.0,0 60.9828721869,33.7017899195 49.3706903379,27.1493086733 47.404945964,30.632963228 59.0171278131,37.1854444743 40.0,70.8872343938 20.9828721869,37.1854444743 32.595054036,30.632963228 30.6293096621,27.1493086733 19.0171278131,33.7017899195" stroke="rgb(0,0,255)" stroke-width="1.0" /><text fill="none" stroke="rgb(246,146,30)" transform="translate(44.0,2.66666666667) rotate(180.0)" x="-2.0" y="0">(1,-1) W</text><text fill="none" stroke="rgb(246,146,30)" transform="translate(64.0,26.1102838636) rotate(-60.5649843921)" x="-2.0" y="0">(0,0) S</text><text fill="none" stroke="rgb(246,146,30)" transform="translate(24.8,35.4436171969) rotate(60.5649843921)" x="-2.0" y="0">(0,-1) E</text></g><g id="triangle00" transform="translate(1983.59607507,20)"><text fill="none" stroke="rgb(246,146,30)" x="22.7200187266" y="33.5637675585">0,0R</text><polygon fill="none" points="0,0 40.7200187266,0 40.7200187266,13.3333333333 44.7200187266,13.3333333333 44.7200187266,0 85.4400374532,0 62.5698899492,33.6908931054 51.5381683999,26.2023086305 49.2915930575,29.5118250953 60.3233146067,37.0004095702 37.4531671028,70.6913026756 19.6629127289,37.1129339047 31.4447965082,30.8707393876 29.5721381531,27.3361742538 17.7902543738,33.5783687709" stroke="rgb(0,0,255)" stroke-width="1.0" /><text fill="none" stroke="rgb(246,146,30)" transform="translate(46.7200187266,2.66666666667) rotate(180.0)" x="-2.0" y="0">(1,0) W</text><text fill="none" stroke="rgb(246,146,30)" transform="translate(65.446602278,26.0123180045) rotate(-55.8304436724)" x="-2.0" y="0">(0,1) S</text><text fill="none" stroke="rgb(246,146,30)" transform="translate(23.5265835514,35.3456513378) rotate(62.0847781638)" x="-2.0" y="0">(0,0) E</text></g><g id="triangle1-2" transform="translate(2079.03611252,20)"><text fill="none" stroke="rgb(246,146,30)" x="20.6970514902" y="36.1586836358">1,-2R</text><polygon fill="none" points="0,0 38.6970514902,0 38.6970514902,13.3333333333 42.6970514902,13.3333333333 42.6970514902,0 81.3941029805,0 65.2918631247,37.4010400486 53.0452937572,32.1285343346 51.4635420429,35.8025051449 63.7101114105,41.0750108589 47.6078715546,78.4760509075 24.8412821829,40.9479706093 36.240916553,34.0323279057 34.166223742,30.6124375946 22.7665893718,37.5280802982" stroke="rgb(0,0,255)" stroke-width="1.0" /><text fill="none" stroke="rgb(246,146,30)" transform="translate(44.6970514902,2.66666666667) rotate(180.0)" x="-2.0" y="0">(2,-2) W</text><text fill="none" stroke="rgb(246,146,30)" transform="translate(68.5009872676,29.9046921204) rotate(-66.70671066)" x="-2.0" y="0">(1,-1) S</text><text fill="none" stroke="rgb(246,146,30)" transform="translate(28.6039357773,39.2380254538) rotate(58.7567054257)" x="-2.0" y="0">(1,-2) E</text></g><g id="triangle1-1" transform="translate(2170.4302155,20)"><text fill="none" stroke="rgb(246,146,30)" x="20.6970514902" y="36.1586836358">1,-1R</text><polygon fill="none" points="0,0 38.6970514902,0 38.6970514902,13.3333333333 42.6970514902,13.3333333333 42.6970514902,0 81.3941029805,0 58.6275136087,37.5280802982 47.2278792385,30.6124375946 45.1531864275,34.0323279057 56.5528207976,40.9479706093 33.7862314259,78.4760509075 17.68399157,41.0750108589 29.9305609376,35.8025051449 28.3488092233,32.1285343346 16.1022398558,37.4010400486" stroke="rgb(0,0,255)" stroke-width="1.0" /><text fill="none" stroke="rgb(246,146,30)" transform="translate(44.6970514902,2.66666666667) rotate(180.0)" x="-2.0" y="0">(2,-1) W</text><text fill="none" stroke="rgb(246,146,30)" transform="translate(61.5901672032,29.9046921204) rotate(-58.7567054257)" x="-2.0" y="0">(1,0) S</text><text fill="none" stroke="rgb(246,146,30)" transform="translate(21.6931157129,39.2380254538) rotate(66.70671066)" x="-2.0" y="0">(1,-1) E</text></g></svg>