<?xml version="1.0" encoding="utf-8"?>
<!-- Generator: Adobe Illustrator 19.1.0, SVG Export Plug-In . SVG Version: 6.00 Build 0)  -->
<svg version="1.1" id="Layer_1" xmlns:ev="http://www.w3.org/2001/xml-events"
	 xmlns="http://www.w3.org/2000/svg" xmlns:xlink="http://www.w3.org/1999/xlink" x="0px" y="0px"
	 viewBox="814 -148.5 2239.4 1088.5" style="enable-background:new 814 -148.5 2239.4 1088.5;" xml:space="preserve">
<style type="text/css">
	.st0{fill:none;stroke:#F6921E;}
	.st1{font-family:'ArialMT';}
	.st2{font-size:12px;}
	.st3{fill:none;stroke:#0000FF;}
</style>
<g id="triangle-10" transform="translate(0.0,20)">
	<text transform="matrix(-1 -6.790808e-04 6.790808e-04 -1 1353.6493 246.2639)" class="st0 st1 st2">-1,0L</text>
	<polygon class="st3" points="1453.7,322.6 1335.6,322.5 1335.6,285 1331.6,285 1331.6,322.5 1213.4,322.4 1265.2,224.8 
		1298.4,242.4 1300.2,238.9 1267.1,221.3 1318.9,123.7 1385.2,221.5 1354.2,242.5 1356.4,245.8 1387.5,224.8 	"/>
	<text transform="matrix(1 6.790808e-04 -6.790808e-04 1 1327.6068 315.0242)" class="st0 st1 st2">(-1,0) S</text>
	<text transform="matrix(-0.4688 0.8833 -0.8833 -0.4688 1263.1055 247.5504)" class="st0 st1 st2">(-1,0) W</text>
	<text transform="matrix(-0.5611 -0.8278 0.8278 -0.5611 1382.6584 224.8045)" class="st0 st1 st2">(-1,0) E</text>
</g>
<g id="triangle0-1" transform="translate(250.300105337,20)">
	<text transform="matrix(-0.9999 -1.001966e-02 1.001966e-02 -0.9999 1222.04 475.3437)" class="st0 st1 st2">0,-1L</text>
	<polygon class="st3" points="1321.4,552.6 1203.3,551.4 1203.7,513.9 1199.7,513.9 1199.3,551.4 1081.1,550.2 1148.5,453.1 
		1179.3,474.5 1181.6,471.2 1150.7,449.8 1218.1,352.8 1268.8,450.9 1235.5,468.1 1237.4,471.7 1270.7,454.5 	"/>
	<text transform="matrix(0.9999 1.001966e-02 -1.001966e-02 0.9999 1195.3535 543.8549)" class="st0 st1 st2">(0,-1) S</text>
	<text transform="matrix(-0.5699 0.8217 -0.8217 -0.5699 1146.4873 476.0464)" class="st0 st1 st2">(0,-1) W</text>
	<text transform="matrix(-0.4593 -0.8883 0.8883 -0.4593 1265.871 454.4136)" class="st0 st1 st2">(0,-1) E</text>
</g>
<g id="triangle00" transform="translate(500.600210674,20)">
	<text transform="matrix(-0.9999 -1.699686e-02 1.699686e-02 -0.9999 1121.972 247.9223)" class="st0 st1 st2">0,0L</text>
	<polygon class="st3" points="1213.1,330.3 1102.6,328.4 1103.2,290.9 1099.2,290.8 1098.6,328.3 988.1,326.4 1045.2,223 
		1078,241.1 1080,237.6 1047.1,219.5 1104.2,116 1157.7,221.4 1124.3,238.4 1126.1,241.9 1159.6,224.9 	"/>
	<text transform="matrix(0.9999 1.699686e-02 -1.699686e-02 0.9999 1094.7306 320.748)" class="st0 st1 st2">(0,0) S</text>
	<text transform="matrix(-0.4831 0.8756 -0.8756 -0.4831 1042.6843 245.6676)" class="st0 st1 st2">(0,0) W</text>
	<text transform="matrix(-0.4531 -0.8915 0.8915 -0.4531 1154.755 224.853)" class="st0 st1 st2">(0,0) E</text>
</g>
<g id="triangle-1-1" transform="translate(735.600210674,20)">
	<text transform="matrix(0.9988 4.939486e-02 -4.939486e-02 0.9988 566.2458 413.8361)" class="st0 st1 st2">-1,-1R</text>
	<polygon class="st3" points="477.8,328.6 588.2,334 586.4,371.5 590.4,371.7 592.2,334.2 702.6,339.7 642.2,441.2 609.9,422.1 
		607.9,425.5 640.1,444.7 579.7,546.2 529.6,439.2 563.6,423.3 561.9,419.7 527.9,435.6 	"/>
	<text transform="matrix(-0.9988 -4.939486e-02 4.939486e-02 -0.9988 595.8337 341.9321)" class="st0 st1 st2">(-1,-1) E</text>
	<text transform="matrix(0.5112 -0.8594 0.8594 0.5112 645.4179 418.6599)" class="st0 st1 st2">(0,-1) W</text>
	<text transform="matrix(0.4239 0.9057 -0.9057 0.4239 532.7325 435.8307)" class="st0 st1 st2">(-1,0) S</text>
</g>
<g id="triangle-10_1_" transform="translate(970.600210674,20)">
	<text transform="matrix(0.5482 0.8364 0.8364 -0.5482 498.9879 151.3403)" class="st0 st1 st2">-1,0R</text>
	<polygon class="st3" points="498.4,111.3 497.8,148.8 501.8,148.9 502.4,111.4 620.6,113.3 567.3,210.1 534.4,192 532.5,195.5 
		565.3,213.6 512,310.4 447.3,211.6 478.6,191 476.4,187.6 445.1,208.2 380.3,109.4 	"/>
	<text transform="matrix(-0.5482 -0.8364 -0.8364 0.5482 455.7223 210.7862)" class="st0 st1 st2">(-1,0) E</text>
	<text transform="matrix(-0.4824 0.8759 0.8759 0.4824 547.4973 227.8073)" class="st0 st1 st2">(0,0) W</text>
	<text transform="matrix(0.9999 1.621442e-02 1.621442e-02 -0.9999 501.0663 115.3154)" class="st0 st1 st2">(-1,1) S</text>
</g>
<g id="triangle0-1_1_" transform="translate(1220.90031601,20)">
	<text transform="matrix(-0.4778 0.8785 -0.8785 -0.4778 377.4477 396.0164)" class="st0 st1 st2">0,-1R</text>
	<polygon class="st3" points="492.3,344.5 435.9,448.3 402.9,430.4 401,433.9 433.9,451.8 377.5,555.6 323.3,450.6 356.6,433.4 
		354.8,429.8 321.5,447 267.3,342 377.8,343.2 377.4,380.7 381.4,380.8 381.8,343.3 	"/>
	<text transform="matrix(0.4778 -0.8785 0.8785 0.4778 425.4407 451.7155)" class="st0 st1 st2">(0,-1) E</text>
	<text transform="matrix(0.4585 0.8887 -0.8887 0.4585 342.6364 463.0788)" class="st0 st1 st2">(1,-1) W</text>
	<text transform="matrix(-0.9999 -1.090793e-02 1.090793e-02 -0.9999 379.5157 347.4909)" class="st0 st1 st2">(0,0) S</text>
</g>
</svg>
