<?xml version="1.0" encoding="utf-8" ?>
<svg baseProfile="full" height="279.4mm" version="1.1" viewBox="0,0,215.9,279.4" width="215.9mm" xmlns="http://www.w3.org/2000/svg" xmlns:ev="http://www.w3.org/2001/xml-events" xmlns:xlink="http://www.w3.org/1999/xlink"><defs /><rect fill="none" height="279.4" stroke="rgb(0,0,255)" stroke-width="1.0" width="215.9" x="0" y="0" /><g id="triangle-30" transform="translate(0.0,0)"><text fill="none" stroke="rgb(246,146,30)" x="38.9623820754" y="38.921521951">-3,0L</text><polygon fill="none" points="0,0 56.9623820754,0 56.9623820754,16.6666666667 60.9623820754,16.6666666667 60.9623820754,0 117.924764151,0 91.1795862437,41.6988030696 77.1505874369,32.7007493769 74.9910545507,36.0677090905 89.0200533574,45.0657627833 62.2748754504,86.7645658529 32.3036333835,45.0070868182 45.8436658147,35.2887896659 43.5112744981,32.0391818824 29.9712420669,41.7574790347" stroke="rgb(0,0,255)" stroke-width="1.0" /><text fill="none" stroke="rgb(246,146,30)" transform="translate(62.9623820754,3.33333333333) rotate(180.0)" x="-2.0" y="0">(-3,0) W</text><text fill="none" stroke="rgb(246,146,30)" transform="translate(94.0998198005,31.7156162598) rotate(-57.3243104133)" x="-2.0" y="0">(-3,0) W</text><text fill="none" stroke="rgb(246,146,30)" transform="translate(35.9374377252,43.3822829264) rotate(54.3312762775)" x="-2.0" y="0">(-3,0) S</text></g><g id="triangle-31" transform="translate(117.924764151,0)"><text fill="none" stroke="rgb(246,146,30)" x="35.9016994375" y="39.8142397">-3,1L</text><polygon fill="none" points="0,0 53.9016994375,0 53.9016994375,16.6666666667 57.9016994375,16.6666666667 57.9016994375,0 111.803398875,0 90.337146291,42.932505168 75.430026441,35.478945243 73.641172059,39.056654007 88.548291909,46.510213932 67.082039325,89.4427191 34.7410196625,46.32135955 48.0743529958,36.32135955 45.6743529958,33.12135955 32.3410196625,43.12135955" stroke="rgb(0,0,255)" stroke-width="1.0" /><text fill="none" stroke="rgb(246,146,30)" transform="translate(59.9016994375,3.33333333333) rotate(180.0)" x="-2.0" y="0">(-3,1) W</text><text fill="none" stroke="rgb(246,146,30)" transform="translate(93.4427191,33.0546928833) rotate(-63.4349488229)" x="-2.0" y="0">(-3,1) W</text><text fill="none" stroke="rgb(246,146,30)" transform="translate(38.3410196625,44.72135955) rotate(53.1301023542)" x="-2.0" y="0">(-3,1) S</text></g><g id="triangle-32" transform="translate(229.728163026,0)"><text fill="none" stroke="rgb(246,146,30)" x="38.9623820754" y="38.921521951">-3,2L</text><polygon fill="none" points="0,0 56.9623820754,0 56.9623820754,16.6666666667 60.9623820754,16.6666666667 60.9623820754,0 117.924764151,0 91.1795862437,41.6988030696 77.1505874369,32.7007493769 74.9910545507,36.0677090905 89.0200533574,45.0657627833 62.2748754504,86.7645658529 32.3036333835,45.0070868182 45.8436658147,35.2887896659 43.5112744981,32.0391818824 29.9712420669,41.7574790347" stroke="rgb(0,0,255)" stroke-width="1.0" /><text fill="none" stroke="rgb(246,146,30)" transform="translate(62.9623820754,3.33333333333) rotate(180.0)" x="-2.0" y="0">(-3,2) S</text><text fill="none" stroke="rgb(246,146,30)" transform="translate(94.0998198005,31.7156162598) rotate(-57.3243104133)" x="-2.0" y="0">(-3,2) W</text><text fill="none" stroke="rgb(246,146,30)" transform="translate(35.9374377252,43.3822829264) rotate(54.3312762775)" x="-2.0" y="0">(-3,2) W</text></g><g id="triangle-2-1" transform="translate(347.652927176,0)"><text fill="none" stroke="rgb(246,146,30)" x="35.9016994375" y="39.1070819943">-2,-1L</text><polygon fill="none" points="0,0 53.9016994375,0 53.9016994375,16.6666666667 57.9016994375,16.6666666667 57.9016994375,0 111.803398875,0 87.6460944813,41.9276841803 73.204937722,33.6071812369 71.2080170156,37.0730588592 85.6491737749,45.3935618025 61.4918693812,87.3212459829 31.8974673203,45.2958516001 45.5243723929,35.6997463527 43.2213071335,32.4292891352 29.5944020609,42.0253943827" stroke="rgb(0,0,255)" stroke-width="1.0" /><text fill="none" stroke="rgb(246,146,30)" transform="translate(59.9016994375,3.33333333333) rotate(180.0)" x="-2.0" y="0">(-2,-1) S</text><text fill="none" stroke="rgb(246,146,30)" transform="translate(90.6476341281,31.9939563248) rotate(-60.0509180501)" x="-2.0" y="0">(-2,-1) S</text><text fill="none" stroke="rgb(246,146,30)" transform="translate(35.5459346906,43.6606229914) rotate(54.8466846281)" x="-2.0" y="0">(-2,-1) W</text></g><g id="triangle-20" transform="translate(459.456326051,0)"><text fill="none" stroke="rgb(246,146,30)" x="33.4000234082" y="38.9333459588">-2,0L</text><polygon fill="none" points="0,0 51.4000234082,0 51.4000234082,16.6666666667 55.4000234082,16.6666666667 55.4000234082,0 106.800046816,0 82.2134976013,41.6774237925 67.8585380542,33.2090760093 65.8261345862,36.6542663006 80.1810941333,45.1226140838 55.5945449182,86.8000378764 28.8759650751,45.0841870534 42.9106993681,36.0950819198 40.7533141361,32.7267456895 26.7185798431,41.715850823" stroke="rgb(0,0,255)" stroke-width="1.0" /><text fill="none" stroke="rgb(246,146,30)" transform="translate(57.4000234082,3.33333333333) rotate(180.0)" x="-2.0" y="0">(-2,0) W</text><text fill="none" stroke="rgb(246,146,30)" transform="translate(85.1972958673,31.7333522715) rotate(-59.4625879552)" x="-2.0" y="0">(-2,0) W</text><text fill="none" stroke="rgb(246,146,30)" transform="translate(32.5972724591,43.4000189382) rotate(57.3608497187)" x="-2.0" y="0">(-2,0) S</text></g><g id="triangle-21" transform="translate(566.256372868,0)"><text fill="none" stroke="rgb(246,146,30)" x="33.4000234082" y="38.9333459588">-2,1L</text><polygon fill="none" points="0,0 51.4000234082,0 51.4000234082,16.6666666667 55.4000234082,16.6666666667 55.4000234082,0 106.800046816,0 82.2134976013,41.6774237925 67.8585380542,33.2090760093 65.8261345862,36.6542663006 80.1810941333,45.1226140838 55.5945449182,86.8000378764 28.8759650751,45.0841870534 42.9106993681,36.0950819198 40.7533141361,32.7267456895 26.7185798431,41.715850823" stroke="rgb(0,0,255)" stroke-width="1.0" /><text fill="none" stroke="rgb(246,146,30)" transform="translate(57.4000234082,3.33333333333) rotate(180.0)" x="-2.0" y="0">(-2,1) S</text><text fill="none" stroke="rgb(246,146,30)" transform="translate(85.1972958673,31.7333522715) rotate(-59.4625879552)" x="-2.0" y="0">(-2,1) W</text><text fill="none" stroke="rgb(246,146,30)" transform="translate(32.5972724591,43.4000189382) rotate(57.3608497187)" x="-2.0" y="0">(-2,1) W</text></g><g id="triangle-22" transform="translate(673.056419684,0)"><text fill="none" stroke="rgb(246,146,30)" x="35.9016994375" y="39.1070819943">-2,2L</text><polygon fill="none" points="0,0 53.9016994375,0 53.9016994375,16.6666666667 57.9016994375,16.6666666667 57.9016994375,0 111.803398875,0 87.6460944813,41.9276841803 73.204937722,33.6071812369 71.2080170156,37.0730588592 85.6491737749,45.3935618025 61.4918693812,87.3212459829 31.8974673203,45.2958516001 45.5243723929,35.6997463527 43.2213071335,32.4292891352 29.5944020609,42.0253943827" stroke="rgb(0,0,255)" stroke-width="1.0" /><text fill="none" stroke="rgb(246,146,30)" transform="translate(59.9016994375,3.33333333333) rotate(180.0)" x="-2.0" y="0">(-2,2) S</text><text fill="none" stroke="rgb(246,146,30)" transform="translate(90.6476341281,31.9939563248) rotate(-60.0509180501)" x="-2.0" y="0">(-2,2) E</text><text fill="none" stroke="rgb(246,146,30)" transform="translate(35.5459346906,43.6606229914) rotate(54.8466846281)" x="-2.0" y="0">(-2,2) W</text></g><g id="triangle-1-2" transform="translate(784.859818559,0)"><text fill="none" stroke="rgb(246,146,30)" x="35.9016994375" y="39.1070819943">-1,-2L</text><polygon fill="none" points="0,0 53.9016994375,0 53.9016994375,16.6666666667 57.9016994375,16.6666666667 57.9016994375,0 111.803398875,0 87.6460944813,41.9276841803 73.204937722,33.6071812369 71.2080170156,37.0730588592 85.6491737749,45.3935618025 61.4918693812,87.3212459829 31.8974673203,45.2958516001 45.5243723929,35.6997463527 43.2213071335,32.4292891352 29.5944020609,42.0253943827" stroke="rgb(0,0,255)" stroke-width="1.0" /><text fill="none" stroke="rgb(246,146,30)" transform="translate(59.9016994375,3.33333333333) rotate(180.0)" x="-2.0" y="0">(-1,-2) S</text><text fill="none" stroke="rgb(246,146,30)" transform="translate(90.6476341281,31.9939563248) rotate(-60.0509180501)" x="-2.0" y="0">(-1,-2) S</text><text fill="none" stroke="rgb(246,146,30)" transform="translate(35.5459346906,43.6606229914) rotate(54.8466846281)" x="-2.0" y="0">(-1,-2) S</text></g><g id="triangle-1-1" transform="translate(896.663217434,0)"><text fill="none" stroke="rgb(246,146,30)" x="31.5388203202" y="39.1491544065">-1,-1L</text><polygon fill="none" points="0,0 49.5388203202,0 49.5388203202,16.6666666667 53.5388203202,16.6666666667 53.5388203202,0 103.07764064,0 79.794220637,41.9747823454 65.2196434337,33.8902615108 63.2793584334,37.3881600396 77.8539356367,45.4726808742 54.5705156332,87.4474632195 28.344081346,45.4204616217 42.4834981125,36.59693221 40.3658510537,33.203472186 26.2264342872,42.0270015978" stroke="rgb(0,0,255)" stroke-width="1.0" /><text fill="none" stroke="rgb(246,146,30)" transform="translate(55.5388203202,3.33333333333) rotate(180.0)" x="-2.0" y="0">(-1,-1) S</text><text fill="none" stroke="rgb(246,146,30)" transform="translate(82.8240781368,32.0570649431) rotate(-60.9828593754)" x="-2.0" y="0">(-1,-1) S</text><text fill="none" stroke="rgb(246,146,30)" transform="translate(32.0852578166,43.7237316098) rotate(58.0342812492)" x="-2.0" y="0">(-1,-1) W</text></g><g id="triangle-10" transform="translate(999.740858075,0)"><text fill="none" stroke="rgb(246,146,30)" x="30.3891109269" y="38.9414380708">-1,0L</text><polygon fill="none" points="0,0 48.3891109269,0 48.3891109269,16.6666666667 52.3891109269,16.6666666667 52.3891109269,0 100.778221854,0 76.9635528126,41.675670822 62.4928337772,33.406688516 60.5082780238,36.8796610845 74.9789970592,45.1486433905 51.164328018,86.8243142124 26.5975486244,45.1352340293 40.9565229834,36.6736955678 38.9257537526,33.2275417216 24.5667793936,41.6890801831" stroke="rgb(0,0,255)" stroke-width="1.0" /><text fill="none" stroke="rgb(246,146,30)" transform="translate(54.3891109269,3.33333333333) rotate(180.0)" x="-2.0" y="0">(-1,0) W</text><text fill="none" stroke="rgb(246,146,30)" transform="translate(79.9712749359,31.7454904396) rotate(-60.2551187031)" x="-2.0" y="0">(-1,0) W</text><text fill="none" stroke="rgb(246,146,30)" transform="translate(30.382164009,43.4121571062) rotate(59.4897625939)" x="-2.0" y="0">(-1,0) S</text></g><g id="triangle-11" transform="translate(1100.51907993,0)"><text fill="none" stroke="rgb(246,146,30)" x="31.5388203202" y="39.1491544065">-1,1L</text><polygon fill="none" points="0,0 49.5388203202,0 49.5388203202,16.6666666667 53.5388203202,16.6666666667 53.5388203202,0 103.07764064,0 79.794220637,41.9747823454 65.2196434337,33.8902615108 63.2793584334,37.3881600396 77.8539356367,45.4726808742 54.5705156332,87.4474632195 28.344081346,45.4204616217 42.4834981125,36.59693221 40.3658510537,33.203472186 26.2264342872,42.0270015978" stroke="rgb(0,0,255)" stroke-width="1.0" /><text fill="none" stroke="rgb(246,146,30)" transform="translate(55.5388203202,3.33333333333) rotate(180.0)" x="-2.0" y="0">(-1,1) S</text><text fill="none" stroke="rgb(246,146,30)" transform="translate(82.8240781368,32.0570649431) rotate(-60.9828593754)" x="-2.0" y="0">(-1,1) E</text><text fill="none" stroke="rgb(246,146,30)" transform="translate(32.0852578166,43.7237316098) rotate(58.0342812492)" x="-2.0" y="0">(-1,1) S</text></g><g id="triangle-12" transform="translate(1203.59672057,0)"><text fill="none" stroke="rgb(246,146,30)" x="35.9016994375" y="39.1070819943">-1,2L</text><polygon fill="none" points="0,0 53.9016994375,0 53.9016994375,16.6666666667 57.9016994375,16.6666666667 57.9016994375,0 111.803398875,0 87.6460944813,41.9276841803 73.204937722,33.6071812369 71.2080170156,37.0730588592 85.6491737749,45.3935618025 61.4918693812,87.3212459829 31.8974673203,45.2958516001 45.5243723929,35.6997463527 43.2213071335,32.4292891352 29.5944020609,42.0253943827" stroke="rgb(0,0,255)" stroke-width="1.0" /><text fill="none" stroke="rgb(246,146,30)" transform="translate(59.9016994375,3.33333333333) rotate(180.0)" x="-2.0" y="0">(-1,2) S</text><text fill="none" stroke="rgb(246,146,30)" transform="translate(90.6476341281,31.9939563248) rotate(-60.0509180501)" x="-2.0" y="0">(-1,2) E</text><text fill="none" stroke="rgb(246,146,30)" transform="translate(35.5459346906,43.6606229914) rotate(54.8466846281)" x="-2.0" y="0">(-1,2) S</text></g><g id="triangle0-3" transform="translate(1315.40011944,0)"><text fill="none" stroke="rgb(246,146,30)" x="38.9623820754" y="38.921521951">0,-3L</text><polygon fill="none" points="0,0 56.9623820754,0 56.9623820754,16.6666666667 60.9623820754,16.6666666667 60.9623820754,0 117.924764151,0 91.1795862437,41.6988030696 77.1505874369,32.7007493769 74.9910545507,36.0677090905 89.0200533574,45.0657627833 62.2748754504,86.7645658529 32.3036333835,45.0070868182 45.8436658147,35.2887896659 43.5112744981,32.0391818824 29.9712420669,41.7574790347" stroke="rgb(0,0,255)" stroke-width="1.0" /><text fill="none" stroke="rgb(246,146,30)" transform="translate(62.9623820754,3.33333333333) rotate(180.0)" x="-2.0" y="0">(0,-3) S</text><text fill="none" stroke="rgb(246,146,30)" transform="translate(94.0998198005,31.7156162598) rotate(-57.3243104133)" x="-2.0" y="0">(0,-3) E</text><text fill="none" stroke="rgb(246,146,30)" transform="translate(35.9374377252,43.3822829264) rotate(54.3312762775)" x="-2.0" y="0">(0,-3) S</text></g><g id="triangle0-2" transform="translate(1433.32488359,0)"><text fill="none" stroke="rgb(246,146,30)" x="33.4000234082" y="38.9333459588">0,-2L</text><polygon fill="none" points="0,0 51.4000234082,0 51.4000234082,16.6666666667 55.4000234082,16.6666666667 55.4000234082,0 106.800046816,0 82.2134976013,41.6774237925 67.8585380542,33.2090760093 65.8261345862,36.6542663006 80.1810941333,45.1226140838 55.5945449182,86.8000378764 28.8759650751,45.0841870534 42.9106993681,36.0950819198 40.7533141361,32.7267456895 26.7185798431,41.715850823" stroke="rgb(0,0,255)" stroke-width="1.0" /><text fill="none" stroke="rgb(246,146,30)" transform="translate(57.4000234082,3.33333333333) rotate(180.0)" x="-2.0" y="0">(0,-2) S</text><text fill="none" stroke="rgb(246,146,30)" transform="translate(85.1972958673,31.7333522715) rotate(-59.4625879552)" x="-2.0" y="0">(0,-2) E</text><text fill="none" stroke="rgb(246,146,30)" transform="translate(32.5972724591,43.4000189382) rotate(57.3608497187)" x="-2.0" y="0">(0,-2) S</text></g><g id="triangle0-1" transform="translate(1540.12493041,0)"><text fill="none" stroke="rgb(246,146,30)" x="30.3891109269" y="38.9414380708">0,-1L</text><polygon fill="none" points="0,0 48.3891109269,0 48.3891109269,16.6666666667 52.3891109269,16.6666666667 52.3891109269,0 100.778221854,0 76.9635528126,41.675670822 62.4928337772,33.406688516 60.5082780238,36.8796610845 74.9789970592,45.1486433905 51.164328018,86.8243142124 26.5975486244,45.1352340293 40.9565229834,36.6736955678 38.9257537526,33.2275417216 24.5667793936,41.6890801831" stroke="rgb(0,0,255)" stroke-width="1.0" /><text fill="none" stroke="rgb(246,146,30)" transform="translate(54.3891109269,3.33333333333) rotate(180.0)" x="-2.0" y="0">(0,-1) S</text><text fill="none" stroke="rgb(246,146,30)" transform="translate(79.9712749359,31.7454904396) rotate(-60.2551187031)" x="-2.0" y="0">(0,-1) E</text><text fill="none" stroke="rgb(246,146,30)" transform="translate(30.382164009,43.4121571062) rotate(59.4897625939)" x="-2.0" y="0">(0,-1) S</text></g><g id="triangle00" transform="translate(1640.90315226,0)"><text fill="none" stroke="rgb(246,146,30)" x="30.3891109269" y="38.9414380708">0,0L</text><polygon fill="none" points="0,0 48.3891109269,0 48.3891109269,16.6666666667 52.3891109269,16.6666666667 52.3891109269,0 100.778221854,0 76.9635528126,41.675670822 62.4928337772,33.406688516 60.5082780238,36.8796610845 74.9789970592,45.1486433905 51.164328018,86.8243142124 26.5975486244,45.1352340293 40.9565229834,36.6736955678 38.9257537526,33.2275417216 24.5667793936,41.6890801831" stroke="rgb(0,0,255)" stroke-width="1.0" /><text fill="none" stroke="rgb(246,146,30)" transform="translate(54.3891109269,3.33333333333) rotate(180.0)" x="-2.0" y="0">(0,0) S</text><text fill="none" stroke="rgb(246,146,30)" transform="translate(79.9712749359,31.7454904396) rotate(-60.2551187031)" x="-2.0" y="0">(0,0) S</text><text fill="none" stroke="rgb(246,146,30)" transform="translate(30.382164009,43.4121571062) rotate(59.4897625939)" x="-2.0" y="0">(0,0) W</text></g><g id="triangle01" transform="translate(1741.68137412,0)"><text fill="none" stroke="rgb(246,146,30)" x="33.4000234082" y="38.9333459588">0,1L</text><polygon fill="none" points="0,0 51.4000234082,0 51.4000234082,16.6666666667 55.4000234082,16.6666666667 55.4000234082,0 106.800046816,0 82.2134976013,41.6774237925 67.8585380542,33.2090760093 65.8261345862,36.6542663006 80.1810941333,45.1226140838 55.5945449182,86.8000378764 28.8759650751,45.0841870534 42.9106993681,36.0950819198 40.7533141361,32.7267456895 26.7185798431,41.715850823" stroke="rgb(0,0,255)" stroke-width="1.0" /><text fill="none" stroke="rgb(246,146,30)" transform="translate(57.4000234082,3.33333333333) rotate(180.0)" x="-2.0" y="0">(0,1) S</text><text fill="none" stroke="rgb(246,146,30)" transform="translate(85.1972958673,31.7333522715) rotate(-59.4625879552)" x="-2.0" y="0">(0,1) S</text><text fill="none" stroke="rgb(246,146,30)" transform="translate(32.5972724591,43.4000189382) rotate(57.3608497187)" x="-2.0" y="0">(0,1) S</text></g><g id="triangle02" transform="translate(1848.48142094,0)"><text fill="none" stroke="rgb(246,146,30)" x="38.9623820754" y="38.921521951">0,2L</text><polygon fill="none" points="0,0 56.9623820754,0 56.9623820754,16.6666666667 60.9623820754,16.6666666667 60.9623820754,0 117.924764151,0 91.1795862437,41.6988030696 77.1505874369,32.7007493769 74.9910545507,36.0677090905 89.0200533574,45.0657627833 62.2748754504,86.7645658529 32.3036333835,45.0070868182 45.8436658147,35.2887896659 43.5112744981,32.0391818824 29.9712420669,41.7574790347" stroke="rgb(0,0,255)" stroke-width="1.0" /><text fill="none" stroke="rgb(246,146,30)" transform="translate(62.9623820754,3.33333333333) rotate(180.0)" x="-2.0" y="0">(0,2) S</text><text fill="none" stroke="rgb(246,146,30)" transform="translate(94.0998198005,31.7156162598) rotate(-57.3243104133)" x="-2.0" y="0">(0,2) S</text><text fill="none" stroke="rgb(246,146,30)" transform="translate(35.9374377252,43.3822829264) rotate(54.3312762775)" x="-2.0" y="0">(0,2) S</text></g><g id="triangle1-3" transform="translate(1966.40618509,0)"><text fill="none" stroke="rgb(246,146,30)" x="35.9016994375" y="39.8142397">1,-3L</text><polygon fill="none" points="0,0 53.9016994375,0 53.9016994375,16.6666666667 57.9016994375,16.6666666667 57.9016994375,0 111.803398875,0 90.337146291,42.932505168 75.430026441,35.478945243 73.641172059,39.056654007 88.548291909,46.510213932 67.082039325,89.4427191 34.7410196625,46.32135955 48.0743529958,36.32135955 45.6743529958,33.12135955 32.3410196625,43.12135955" stroke="rgb(0,0,255)" stroke-width="1.0" /><text fill="none" stroke="rgb(246,146,30)" transform="translate(59.9016994375,3.33333333333) rotate(180.0)" x="-2.0" y="0">(1,-3) S</text><text fill="none" stroke="rgb(246,146,30)" transform="translate(93.4427191,33.0546928833) rotate(-63.4349488229)" x="-2.0" y="0">(1,-3) E</text><text fill="none" stroke="rgb(246,146,30)" transform="translate(38.3410196625,44.72135955) rotate(53.1301023542)" x="-2.0" y="0">(1,-3) S</text></g><g id="triangle1-2" transform="translate(2078.20958396,0)"><text fill="none" stroke="rgb(246,146,30)" x="33.4000234082" y="38.9333459588">1,-2L</text><polygon fill="none" points="0,0 51.4000234082,0 51.4000234082,16.6666666667 55.4000234082,16.6666666667 55.4000234082,0 106.800046816,0 82.2134976013,41.6774237925 67.8585380542,33.2090760093 65.8261345862,36.6542663006 80.1810941333,45.1226140838 55.5945449182,86.8000378764 28.8759650751,45.0841870534 42.9106993681,36.0950819198 40.7533141361,32.7267456895 26.7185798431,41.715850823" stroke="rgb(0,0,255)" stroke-width="1.0" /><text fill="none" stroke="rgb(246,146,30)" transform="translate(57.4000234082,3.33333333333) rotate(180.0)" x="-2.0" y="0">(1,-2) S</text><text fill="none" stroke="rgb(246,146,30)" transform="translate(85.1972958673,31.7333522715) rotate(-59.4625879552)" x="-2.0" y="0">(1,-2) E</text><text fill="none" stroke="rgb(246,146,30)" transform="translate(32.5972724591,43.4000189382) rotate(57.3608497187)" x="-2.0" y="0">(1,-2) W</text></g><g id="triangle1-1" transform="translate(2185.00963078,0)"><text fill="none" stroke="rgb(246,146,30)" x="31.5388203202" y="39.1491544065">1,-1L</text><polygon fill="none" points="0,0 49.5388203202,0 49.5388203202,16.6666666667 53.5388203202,16.6666666667 53.5388203202,0 103.07764064,0 79.794220637,41.9747823454 65.2196434337,33.8902615108 63.2793584334,37.3881600396 77.8539356367,45.4726808742 54.5705156332,87.4474632195 28.344081346,45.4204616217 42.4834981125,36.59693221 40.3658510537,33.203472186 26.2264342872,42.0270015978" stroke="rgb(0,0,255)" stroke-width="1.0" /><text fill="none" stroke="rgb(246,146,30)" transform="translate(55.5388203202,3.33333333333) rotate(180.0)" x="-2.0" y="0">(1,-1) W</text><text fill="none" stroke="rgb(246,146,30)" transform="translate(82.8240781368,32.0570649431) rotate(-60.9828593754)" x="-2.0" y="0">(1,-1) W</text><text fill="none" stroke="rgb(246,146,30)" transform="translate(32.0852578166,43.7237316098) rotate(58.0342812492)" x="-2.0" y="0">(1,-1) S</text></g><g id="triangle10" transform="translate(2288.08727142,0)"><text fill="none" stroke="rgb(246,146,30)" x="33.4000234082" y="38.9333459588">1,0L</text><polygon fill="none" points="0,0 51.4000234082,0 51.4000234082,16.6666666667 55.4000234082,16.6666666667 55.4000234082,0 106.800046816,0 82.2134976013,41.6774237925 67.8585380542,33.2090760093 65.8261345862,36.6542663006 80.1810941333,45.1226140838 55.5945449182,86.8000378764 28.8759650751,45.0841870534 42.9106993681,36.0950819198 40.7533141361,32.7267456895 26.7185798431,41.715850823" stroke="rgb(0,0,255)" stroke-width="1.0" /><text fill="none" stroke="rgb(246,146,30)" transform="translate(57.4000234082,3.33333333333) rotate(180.0)" x="-2.0" y="0">(1,0) S</text><text fill="none" stroke="rgb(246,146,30)" transform="translate(85.1972958673,31.7333522715) rotate(-59.4625879552)" x="-2.0" y="0">(1,0) S</text><text fill="none" stroke="rgb(246,146,30)" transform="translate(32.5972724591,43.4000189382) rotate(57.3608497187)" x="-2.0" y="0">(1,0) W</text></g><g id="triangle11" transform="translate(2394.88731823,0)"><text fill="none" stroke="rgb(246,146,30)" x="35.9016994375" y="39.8142397">1,1L</text><polygon fill="none" points="0,0 53.9016994375,0 53.9016994375,16.6666666667 57.9016994375,16.6666666667 57.9016994375,0 111.803398875,0 90.337146291,42.932505168 75.430026441,35.478945243 73.641172059,39.056654007 88.548291909,46.510213932 67.082039325,89.4427191 34.7410196625,46.32135955 48.0743529958,36.32135955 45.6743529958,33.12135955 32.3410196625,43.12135955" stroke="rgb(0,0,255)" stroke-width="1.0" /><text fill="none" stroke="rgb(246,146,30)" transform="translate(59.9016994375,3.33333333333) rotate(180.0)" x="-2.0" y="0">(1,1) S</text><text fill="none" stroke="rgb(246,146,30)" transform="translate(93.4427191,33.0546928833) rotate(-63.4349488229)" x="-2.0" y="0">(1,1) S</text><text fill="none" stroke="rgb(246,146,30)" transform="translate(38.3410196625,44.72135955) rotate(53.1301023542)" x="-2.0" y="0">(1,1) W</text></g><g id="triangle2-3" transform="translate(2506.69071711,0)"><text fill="none" stroke="rgb(246,146,30)" x="38.9623820754" y="38.921521951">2,-3L</text><polygon fill="none" points="0,0 56.9623820754,0 56.9623820754,16.6666666667 60.9623820754,16.6666666667 60.9623820754,0 117.924764151,0 91.1795862437,41.6988030696 77.1505874369,32.7007493769 74.9910545507,36.0677090905 89.0200533574,45.0657627833 62.2748754504,86.7645658529 32.3036333835,45.0070868182 45.8436658147,35.2887896659 43.5112744981,32.0391818824 29.9712420669,41.7574790347" stroke="rgb(0,0,255)" stroke-width="1.0" /><text fill="none" stroke="rgb(246,146,30)" transform="translate(62.9623820754,3.33333333333) rotate(180.0)" x="-2.0" y="0">(2,-3) S</text><text fill="none" stroke="rgb(246,146,30)" transform="translate(94.0998198005,31.7156162598) rotate(-57.3243104133)" x="-2.0" y="0">(2,-3) E</text><text fill="none" stroke="rgb(246,146,30)" transform="translate(35.9374377252,43.3822829264) rotate(54.3312762775)" x="-2.0" y="0">(2,-3) W</text></g><g id="triangle2-2" transform="translate(2624.61548126,0)"><text fill="none" stroke="rgb(246,146,30)" x="35.9016994375" y="39.1070819943">2,-2L</text><polygon fill="none" points="0,0 53.9016994375,0 53.9016994375,16.6666666667 57.9016994375,16.6666666667 57.9016994375,0 111.803398875,0 87.6460944813,41.9276841803 73.204937722,33.6071812369 71.2080170156,37.0730588592 85.6491737749,45.3935618025 61.4918693812,87.3212459829 31.8974673203,45.2958516001 45.5243723929,35.6997463527 43.2213071335,32.4292891352 29.5944020609,42.0253943827" stroke="rgb(0,0,255)" stroke-width="1.0" /><text fill="none" stroke="rgb(246,146,30)" transform="translate(59.9016994375,3.33333333333) rotate(180.0)" x="-2.0" y="0">(2,-2) S</text><text fill="none" stroke="rgb(246,146,30)" transform="translate(90.6476341281,31.9939563248) rotate(-60.0509180501)" x="-2.0" y="0">(2,-2) W</text><text fill="none" stroke="rgb(246,146,30)" transform="translate(35.5459346906,43.6606229914) rotate(54.8466846281)" x="-2.0" y="0">(2,-2) W</text></g><g id="triangle2-1" transform="translate(2736.41888013,0)"><text fill="none" stroke="rgb(246,146,30)" x="35.9016994375" y="39.1070819943">2,-1L</text><polygon fill="none" points="0,0 53.9016994375,0 53.9016994375,16.6666666667 57.9016994375,16.6666666667 57.9016994375,0 111.803398875,0 87.6460944813,41.9276841803 73.204937722,33.6071812369 71.2080170156,37.0730588592 85.6491737749,45.3935618025 61.4918693812,87.3212459829 31.8974673203,45.2958516001 45.5243723929,35.6997463527 43.2213071335,32.4292891352 29.5944020609,42.0253943827" stroke="rgb(0,0,255)" stroke-width="1.0" /><text fill="none" stroke="rgb(246,146,30)" transform="translate(59.9016994375,3.33333333333) rotate(180.0)" x="-2.0" y="0">(2,-1) W</text><text fill="none" stroke="rgb(246,146,30)" transform="translate(90.6476341281,31.9939563248) rotate(-60.0509180501)" x="-2.0" y="0">(2,-1) W</text><text fill="none" stroke="rgb(246,146,30)" transform="translate(35.5459346906,43.6606229914) rotate(54.8466846281)" x="-2.0" y="0">(2,-1) S</text></g><g id="triangle20" transform="translate(2848.22227901,0)"><text fill="none" stroke="rgb(246,146,30)" x="38.9623820754" y="38.921521951">2,0L</text><polygon fill="none" points="0,0 56.9623820754,0 56.9623820754,16.6666666667 60.9623820754,16.6666666667 60.9623820754,0 117.924764151,0 91.1795862437,41.6988030696 77.1505874369,32.7007493769 74.9910545507,36.0677090905 89.0200533574,45.0657627833 62.2748754504,86.7645658529 32.3036333835,45.0070868182 45.8436658147,35.2887896659 43.5112744981,32.0391818824 29.9712420669,41.7574790347" stroke="rgb(0,0,255)" stroke-width="1.0" /><text fill="none" stroke="rgb(246,146,30)" transform="translate(62.9623820754,3.33333333333) rotate(180.0)" x="-2.0" y="0">(2,0) S</text><text fill="none" stroke="rgb(246,146,30)" transform="translate(94.0998198005,31.7156162598) rotate(-57.3243104133)" x="-2.0" y="0">(2,0) S</text><text fill="none" stroke="rgb(246,146,30)" transform="translate(35.9374377252,43.3822829264) rotate(54.3312762775)" x="-2.0" y="0">(2,0) W</text></g><g id="triangle-3-1" transform="translate(2966.14704316,0)"><text fill="none" stroke="rgb(246,146,30)" x="38.9623820754" y="38.921521951">-3,-1L</text><polygon fill="none" points="0,0 56.9623820754,0 56.9623820754,16.6666666667 60.9623820754,16.6666666667 60.9623820754,0 117.924764151,0 91.1795862437,41.6988030696 77.1505874369,32.7007493769 74.9910545507,36.0677090905 89.0200533574,45.0657627833 62.2748754504,86.7645658529 32.3036333835,45.0070868182 45.8436658147,35.2887896659 43.5112744981,32.0391818824 29.9712420669,41.7574790347" stroke="rgb(0,0,255)" stroke-width="1.0" /><text fill="none" stroke="rgb(246,146,30)" transform="translate(62.9623820754,3.33333333333) rotate(180.0)" x="-2.0" y="0">(-3,-1) E</text><text fill="none" stroke="rgb(246,146,30)" transform="translate(94.0998198005,31.7156162598) rotate(-57.3243104133)" x="-2.0" y="0">(-3,-1) E</text><text fill="none" stroke="rgb(246,146,30)" transform="translate(35.9374377252,43.3822829264) rotate(54.3312762775)" x="-2.0" y="0">(-3,-1) E</text></g><g id="triangle-30" transform="translate(3084.07180731,0)"><text fill="none" stroke="rgb(246,146,30)" x="35.9016994375" y="39.1070819943">-3,0L</text><polygon fill="none" points="0,0 53.9016994375,0 53.9016994375,16.6666666667 57.9016994375,16.6666666667 57.9016994375,0 111.803398875,0 87.6460944813,41.9276841803 73.204937722,33.6071812369 71.2080170156,37.0730588592 85.6491737749,45.3935618025 61.4918693812,87.3212459829 31.8974673203,45.2958516001 45.5243723929,35.6997463527 43.2213071335,32.4292891352 29.5944020609,42.0253943827" stroke="rgb(0,0,255)" stroke-width="1.0" /><text fill="none" stroke="rgb(246,146,30)" transform="translate(59.9016994375,3.33333333333) rotate(180.0)" x="-2.0" y="0">(-3,0) E</text><text fill="none" stroke="rgb(246,146,30)" transform="translate(90.6476341281,31.9939563248) rotate(-60.0509180501)" x="-2.0" y="0">(-2,0) W</text><text fill="none" stroke="rgb(246,146,30)" transform="translate(35.5459346906,43.6606229914) rotate(54.8466846281)" x="-2.0" y="0">(-3,0) E</text></g><g id="triangle-31" transform="translate(3195.87520619,0)"><text fill="none" stroke="rgb(246,146,30)" x="35.9016994375" y="39.1070819943">-3,1L</text><polygon fill="none" points="0,0 53.9016994375,0 53.9016994375,16.6666666667 57.9016994375,16.6666666667 57.9016994375,0 111.803398875,0 87.6460944813,41.9276841803 73.204937722,33.6071812369 71.2080170156,37.0730588592 85.6491737749,45.3935618025 61.4918693812,87.3212459829 31.8974673203,45.2958516001 45.5243723929,35.6997463527 43.2213071335,32.4292891352 29.5944020609,42.0253943827" stroke="rgb(0,0,255)" stroke-width="1.0" /><text fill="none" stroke="rgb(246,146,30)" transform="translate(59.9016994375,3.33333333333) rotate(180.0)" x="-2.0" y="0">(-3,1) E</text><text fill="none" stroke="rgb(246,146,30)" transform="translate(90.6476341281,31.9939563248) rotate(-60.0509180501)" x="-2.0" y="0">(-2,1) W</text><text fill="none" stroke="rgb(246,146,30)" transform="translate(35.5459346906,43.6606229914) rotate(54.8466846281)" x="-2.0" y="0">(-3,2) S</text></g><g id="triangle-32" transform="translate(3307.67860506,0)"><text fill="none" stroke="rgb(246,146,30)" x="38.9623820754" y="38.921521951">-3,2L</text><polygon fill="none" points="0,0 56.9623820754,0 56.9623820754,16.6666666667 60.9623820754,16.6666666667 60.9623820754,0 117.924764151,0 91.1795862437,41.6988030696 77.1505874369,32.7007493769 74.9910545507,36.0677090905 89.0200533574,45.0657627833 62.2748754504,86.7645658529 32.3036333835,45.0070868182 45.8436658147,35.2887896659 43.5112744981,32.0391818824 29.9712420669,41.7574790347" stroke="rgb(0,0,255)" stroke-width="1.0" /><text fill="none" stroke="rgb(246,146,30)" transform="translate(62.9623820754,3.33333333333) rotate(180.0)" x="-2.0" y="0">(-3,2) E</text><text fill="none" stroke="rgb(246,146,30)" transform="translate(94.0998198005,31.7156162598) rotate(-57.3243104133)" x="-2.0" y="0">(-3,3) S</text><text fill="none" stroke="rgb(246,146,30)" transform="translate(35.9374377252,43.3822829264) rotate(54.3312762775)" x="-2.0" y="0">(-3,3) S</text></g><g id="triangle-2-2" transform="translate(3425.60336921,0)"><text fill="none" stroke="rgb(246,146,30)" x="35.9016994375" y="39.8142397">-2,-2L</text><polygon fill="none" points="0,0 53.9016994375,0 53.9016994375,16.6666666667 57.9016994375,16.6666666667 57.9016994375,0 111.803398875,0 90.337146291,42.932505168 75.430026441,35.478945243 73.641172059,39.056654007 88.548291909,46.510213932 67.082039325,89.4427191 34.7410196625,46.32135955 48.0743529958,36.32135955 45.6743529958,33.12135955 32.3410196625,43.12135955" stroke="rgb(0,0,255)" stroke-width="1.0" /><text fill="none" stroke="rgb(246,146,30)" transform="translate(59.9016994375,3.33333333333) rotate(180.0)" x="-2.0" y="0">(-2,-2) E</text><text fill="none" stroke="rgb(246,146,30)" transform="translate(93.4427191,33.0546928833) rotate(-63.4349488229)" x="-2.0" y="0">(-2,-2) E</text><text fill="none" stroke="rgb(246,146,30)" transform="translate(38.3410196625,44.72135955) rotate(53.1301023542)" x="-2.0" y="0">(-2,-1) S</text></g><g id="triangle-2-1" transform="translate(3537.40676809,0)"><text fill="none" stroke="rgb(246,146,30)" x="33.4000234082" y="38.9333459588">-2,-1L</text><polygon fill="none" points="0,0 51.4000234082,0 51.4000234082,16.6666666667 55.4000234082,16.6666666667 55.4000234082,0 106.800046816,0 82.2134976013,41.6774237925 67.8585380542,33.2090760093 65.8261345862,36.6542663006 80.1810941333,45.1226140838 55.5945449182,86.8000378764 28.8759650751,45.0841870534 42.9106993681,36.0950819198 40.7533141361,32.7267456895 26.7185798431,41.715850823" stroke="rgb(0,0,255)" stroke-width="1.0" /><text fill="none" stroke="rgb(246,146,30)" transform="translate(57.4000234082,3.33333333333) rotate(180.0)" x="-2.0" y="0">(-2,-1) E</text><text fill="none" stroke="rgb(246,146,30)" transform="translate(85.1972958673,31.7333522715) rotate(-59.4625879552)" x="-2.0" y="0">(-2,-1) E</text><text fill="none" stroke="rgb(246,146,30)" transform="translate(32.5972724591,43.4000189382) rotate(57.3608497187)" x="-2.0" y="0">(-2,-1) E</text></g><g id="triangle-20" transform="translate(3644.2068149,0)"><text fill="none" stroke="rgb(246,146,30)" x="31.5388203202" y="39.1491544065">-2,0L</text><polygon fill="none" points="0,0 49.5388203202,0 49.5388203202,16.6666666667 53.5388203202,16.6666666667 53.5388203202,0 103.07764064,0 79.794220637,41.9747823454 65.2196434337,33.8902615108 63.2793584334,37.3881600396 77.8539356367,45.4726808742 54.5705156332,87.4474632195 28.344081346,45.4204616217 42.4834981125,36.59693221 40.3658510537,33.203472186 26.2264342872,42.0270015978" stroke="rgb(0,0,255)" stroke-width="1.0" /><text fill="none" stroke="rgb(246,146,30)" transform="translate(55.5388203202,3.33333333333) rotate(180.0)" x="-2.0" y="0">(-2,0) E</text><text fill="none" stroke="rgb(246,146,30)" transform="translate(82.8240781368,32.0570649431) rotate(-60.9828593754)" x="-2.0" y="0">(-1,0) W</text><text fill="none" stroke="rgb(246,146,30)" transform="translate(32.0852578166,43.7237316098) rotate(58.0342812492)" x="-2.0" y="0">(-2,0) E</text></g><g id="triangle-21" transform="translate(3747.28445554,0)"><text fill="none" stroke="rgb(246,146,30)" x="33.4000234082" y="38.9333459588">-2,1L</text><polygon fill="none" points="0,0 51.4000234082,0 51.4000234082,16.6666666667 55.4000234082,16.6666666667 55.4000234082,0 106.800046816,0 82.2134976013,41.6774237925 67.8585380542,33.2090760093 65.8261345862,36.6542663006 80.1810941333,45.1226140838 55.5945449182,86.8000378764 28.8759650751,45.0841870534 42.9106993681,36.0950819198 40.7533141361,32.7267456895 26.7185798431,41.715850823" stroke="rgb(0,0,255)" stroke-width="1.0" /><text fill="none" stroke="rgb(246,146,30)" transform="translate(57.4000234082,3.33333333333) rotate(180.0)" x="-2.0" y="0">(-2,1) E</text><text fill="none" stroke="rgb(246,146,30)" transform="translate(85.1972958673,31.7333522715) rotate(-59.4625879552)" x="-2.0" y="0">(-2,2) S</text><text fill="none" stroke="rgb(246,146,30)" transform="translate(32.5972724591,43.4000189382) rotate(57.3608497187)" x="-2.0" y="0">(-2,2) S</text></g><g id="triangle-22" transform="translate(3854.08450236,0)"><text fill="none" stroke="rgb(246,146,30)" x="35.9016994375" y="39.8142397">-2,2L</text><polygon fill="none" points="0,0 53.9016994375,0 53.9016994375,16.6666666667 57.9016994375,16.6666666667 57.9016994375,0 111.803398875,0 90.337146291,42.932505168 75.430026441,35.478945243 73.641172059,39.056654007 88.548291909,46.510213932 67.082039325,89.4427191 34.7410196625,46.32135955 48.0743529958,36.32135955 45.6743529958,33.12135955 32.3410196625,43.12135955" stroke="rgb(0,0,255)" stroke-width="1.0" /><text fill="none" stroke="rgb(246,146,30)" transform="translate(59.9016994375,3.33333333333) rotate(180.0)" x="-2.0" y="0">(-2,3) S</text><text fill="none" stroke="rgb(246,146,30)" transform="translate(93.4427191,33.0546928833) rotate(-63.4349488229)" x="-2.0" y="0">(-2,3) S</text><text fill="none" stroke="rgb(246,146,30)" transform="translate(38.3410196625,44.72135955) rotate(53.1301023542)" x="-2.0" y="0">(-2,2) E</text></g><g id="triangle-1-3" transform="translate(3965.88790124,0)"><text fill="none" stroke="rgb(246,146,30)" x="38.9623820754" y="38.921521951">-1,-3L</text><polygon fill="none" points="0,0 56.9623820754,0 56.9623820754,16.6666666667 60.9623820754,16.6666666667 60.9623820754,0 117.924764151,0 91.1795862437,41.6988030696 77.1505874369,32.7007493769 74.9910545507,36.0677090905 89.0200533574,45.0657627833 62.2748754504,86.7645658529 32.3036333835,45.0070868182 45.8436658147,35.2887896659 43.5112744981,32.0391818824 29.9712420669,41.7574790347" stroke="rgb(0,0,255)" stroke-width="1.0" /><text fill="none" stroke="rgb(246,146,30)" transform="translate(62.9623820754,3.33333333333) rotate(180.0)" x="-2.0" y="0">(-1,-3) E</text><text fill="none" stroke="rgb(246,146,30)" transform="translate(94.0998198005,31.7156162598) rotate(-57.3243104133)" x="-2.0" y="0">(-1,-3) E</text><text fill="none" stroke="rgb(246,146,30)" transform="translate(35.9374377252,43.3822829264) rotate(54.3312762775)" x="-2.0" y="0">(-1,-2) S</text></g><g id="triangle-1-2" transform="translate(4083.81266539,0)"><text fill="none" stroke="rgb(246,146,30)" x="33.4000234082" y="38.9333459588">-1,-2L</text><polygon fill="none" points="0,0 51.4000234082,0 51.4000234082,16.6666666667 55.4000234082,16.6666666667 55.4000234082,0 106.800046816,0 82.2134976013,41.6774237925 67.8585380542,33.2090760093 65.8261345862,36.6542663006 80.1810941333,45.1226140838 55.5945449182,86.8000378764 28.8759650751,45.0841870534 42.9106993681,36.0950819198 40.7533141361,32.7267456895 26.7185798431,41.715850823" stroke="rgb(0,0,255)" stroke-width="1.0" /><text fill="none" stroke="rgb(246,146,30)" transform="translate(57.4000234082,3.33333333333) rotate(180.0)" x="-2.0" y="0">(-1,-2) E</text><text fill="none" stroke="rgb(246,146,30)" transform="translate(85.1972958673,31.7333522715) rotate(-59.4625879552)" x="-2.0" y="0">(-1,-2) E</text><text fill="none" stroke="rgb(246,146,30)" transform="translate(32.5972724591,43.4000189382) rotate(57.3608497187)" x="-2.0" y="0">(-1,-1) S</text></g><g id="triangle-1-1" transform="translate(4190.6127122,0)"><text fill="none" stroke="rgb(246,146,30)" x="30.3891109269" y="38.9414380708">-1,-1L</text><polygon fill="none" points="0,0 48.3891109269,0 48.3891109269,16.6666666667 52.3891109269,16.6666666667 52.3891109269,0 100.778221854,0 76.9635528126,41.675670822 62.4928337772,33.406688516 60.5082780238,36.8796610845 74.9789970592,45.1486433905 51.164328018,86.8243142124 26.5975486244,45.1352340293 40.9565229834,36.6736955678 38.9257537526,33.2275417216 24.5667793936,41.6890801831" stroke="rgb(0,0,255)" stroke-width="1.0" /><text fill="none" stroke="rgb(246,146,30)" transform="translate(54.3891109269,3.33333333333) rotate(180.0)" x="-2.0" y="0">(-1,-1) E</text><text fill="none" stroke="rgb(246,146,30)" transform="translate(79.9712749359,31.7454904396) rotate(-60.2551187031)" x="-2.0" y="0">(-1,-1) E</text><text fill="none" stroke="rgb(246,146,30)" transform="translate(30.382164009,43.4121571062) rotate(59.4897625939)" x="-2.0" y="0">(-1,0) S</text></g><g id="triangle-10" transform="translate(4291.39093406,0)"><text fill="none" stroke="rgb(246,146,30)" x="30.3891109269" y="38.9414380708">-1,0L</text><polygon fill="none" points="0,0 48.3891109269,0 48.3891109269,16.6666666667 52.3891109269,16.6666666667 52.3891109269,0 100.778221854,0 76.9635528126,41.675670822 62.4928337772,33.406688516 60.5082780238,36.8796610845 74.9789970592,45.1486433905 51.164328018,86.8243142124 26.5975486244,45.1352340293 40.9565229834,36.6736955678 38.9257537526,33.2275417216 24.5667793936,41.6890801831" stroke="rgb(0,0,255)" stroke-width="1.0" /><text fill="none" stroke="rgb(246,146,30)" transform="translate(54.3891109269,3.33333333333) rotate(180.0)" x="-2.0" y="0">(-1,1) S</text><text fill="none" stroke="rgb(246,146,30)" transform="translate(79.9712749359,31.7454904396) rotate(-60.2551187031)" x="-2.0" y="0">(-1,1) S</text><text fill="none" stroke="rgb(246,146,30)" transform="translate(30.382164009,43.4121571062) rotate(59.4897625939)" x="-2.0" y="0">(-1,0) E</text></g><g id="triangle-11" transform="translate(4392.16915591,0)"><text fill="none" stroke="rgb(246,146,30)" x="33.4000234082" y="38.9333459588">-1,1L</text><polygon fill="none" points="0,0 51.4000234082,0 51.4000234082,16.6666666667 55.4000234082,16.6666666667 55.4000234082,0 106.800046816,0 82.2134976013,41.6774237925 67.8585380542,33.2090760093 65.8261345862,36.6542663006 80.1810941333,45.1226140838 55.5945449182,86.8000378764 28.8759650751,45.0841870534 42.9106993681,36.0950819198 40.7533141361,32.7267456895 26.7185798431,41.715850823" stroke="rgb(0,0,255)" stroke-width="1.0" /><text fill="none" stroke="rgb(246,146,30)" transform="translate(57.4000234082,3.33333333333) rotate(180.0)" x="-2.0" y="0">(-1,2) S</text><text fill="none" stroke="rgb(246,146,30)" transform="translate(85.1972958673,31.7333522715) rotate(-59.4625879552)" x="-2.0" y="0">(-1,2) S</text><text fill="none" stroke="rgb(246,146,30)" transform="translate(32.5972724591,43.4000189382) rotate(57.3608497187)" x="-2.0" y="0">(-1,1) E</text></g><g id="triangle-12" transform="translate(4498.96920273,0)"><text fill="none" stroke="rgb(246,146,30)" x="38.9623820754" y="38.921521951">-1,2L</text><polygon fill="none" points="0,0 56.9623820754,0 56.9623820754,16.6666666667 60.9623820754,16.6666666667 60.9623820754,0 117.924764151,0 91.1795862437,41.6988030696 77.1505874369,32.7007493769 74.9910545507,36.0677090905 89.0200533574,45.0657627833 62.2748754504,86.7645658529 32.3036333835,45.0070868182 45.8436658147,35.2887896659 43.5112744981,32.0391818824 29.9712420669,41.7574790347" stroke="rgb(0,0,255)" stroke-width="1.0" /><text fill="none" stroke="rgb(246,146,30)" transform="translate(62.9623820754,3.33333333333) rotate(180.0)" x="-2.0" y="0">(-1,3) S</text><text fill="none" stroke="rgb(246,146,30)" transform="translate(94.0998198005,31.7156162598) rotate(-57.3243104133)" x="-2.0" y="0">(-1,3) S</text><text fill="none" stroke="rgb(246,146,30)" transform="translate(35.9374377252,43.3822829264) rotate(54.3312762775)" x="-2.0" y="0">(-1,2) E</text></g><g id="triangle0-3" transform="translate(4616.89396688,0)"><text fill="none" stroke="rgb(246,146,30)" x="35.9016994375" y="39.1070819943">0,-3L</text><polygon fill="none" points="0,0 53.9016994375,0 53.9016994375,16.6666666667 57.9016994375,16.6666666667 57.9016994375,0 111.803398875,0 87.6460944813,41.9276841803 73.204937722,33.6071812369 71.2080170156,37.0730588592 85.6491737749,45.3935618025 61.4918693812,87.3212459829 31.8974673203,45.2958516001 45.5243723929,35.6997463527 43.2213071335,32.4292891352 29.5944020609,42.0253943827" stroke="rgb(0,0,255)" stroke-width="1.0" /><text fill="none" stroke="rgb(246,146,30)" transform="translate(59.9016994375,3.33333333333) rotate(180.0)" x="-2.0" y="0">(0,-2) S</text><text fill="none" stroke="rgb(246,146,30)" transform="translate(90.6476341281,31.9939563248) rotate(-60.0509180501)" x="-2.0" y="0">(0,-2) S</text><text fill="none" stroke="rgb(246,146,30)" transform="translate(35.5459346906,43.6606229914) rotate(54.8466846281)" x="-2.0" y="0">(0,-3) E</text></g><g id="triangle0-2" transform="translate(4728.69736575,0)"><text fill="none" stroke="rgb(246,146,30)" x="31.5388203202" y="39.1491544065">0,-2L</text><polygon fill="none" points="0,0 49.5388203202,0 49.5388203202,16.6666666667 53.5388203202,16.6666666667 53.5388203202,0 103.07764064,0 79.794220637,41.9747823454 65.2196434337,33.8902615108 63.2793584334,37.3881600396 77.8539356367,45.4726808742 54.5705156332,87.4474632195 28.344081346,45.4204616217 42.4834981125,36.59693221 40.3658510537,33.203472186 26.2264342872,42.0270015978" stroke="rgb(0,0,255)" stroke-width="1.0" /><text fill="none" stroke="rgb(246,146,30)" transform="translate(55.5388203202,3.33333333333) rotate(180.0)" x="-2.0" y="0">(0,-1) S</text><text fill="none" stroke="rgb(246,146,30)" transform="translate(82.8240781368,32.0570649431) rotate(-60.9828593754)" x="-2.0" y="0">(0,-1) S</text><text fill="none" stroke="rgb(246,146,30)" transform="translate(32.0852578166,43.7237316098) rotate(58.0342812492)" x="-2.0" y="0">(0,-2) E</text></g><g id="triangle0-1" transform="translate(4831.77500639,0)"><text fill="none" stroke="rgb(246,146,30)" x="30.3891109269" y="38.9414380708">0,-1L</text><polygon fill="none" points="0,0 48.3891109269,0 48.3891109269,16.6666666667 52.3891109269,16.6666666667 52.3891109269,0 100.778221854,0 76.9635528126,41.675670822 62.4928337772,33.406688516 60.5082780238,36.8796610845 74.9789970592,45.1486433905 51.164328018,86.8243142124 26.5975486244,45.1352340293 40.9565229834,36.6736955678 38.9257537526,33.2275417216 24.5667793936,41.6890801831" stroke="rgb(0,0,255)" stroke-width="1.0" /><text fill="none" stroke="rgb(246,146,30)" transform="translate(54.3891109269,3.33333333333) rotate(180.0)" x="-2.0" y="0">(0,-1) E</text><text fill="none" stroke="rgb(246,146,30)" transform="translate(79.9712749359,31.7454904396) rotate(-60.2551187031)" x="-2.0" y="0">(1,-1) W</text><text fill="none" stroke="rgb(246,146,30)" transform="translate(30.382164009,43.4121571062) rotate(59.4897625939)" x="-2.0" y="0">(0,-1) E</text></g><g id="triangle00" transform="translate(4932.55322825,0)"><text fill="none" stroke="rgb(246,146,30)" x="31.5388203202" y="39.1491544065">0,0L</text><polygon fill="none" points="0,0 49.5388203202,0 49.5388203202,16.6666666667 53.5388203202,16.6666666667 53.5388203202,0 103.07764064,0 79.794220637,41.9747823454 65.2196434337,33.8902615108 63.2793584334,37.3881600396 77.8539356367,45.4726808742 54.5705156332,87.4474632195 28.344081346,45.4204616217 42.4834981125,36.59693221 40.3658510537,33.203472186 26.2264342872,42.0270015978" stroke="rgb(0,0,255)" stroke-width="1.0" /><text fill="none" stroke="rgb(246,146,30)" transform="translate(55.5388203202,3.33333333333) rotate(180.0)" x="-2.0" y="0">(0,0) E</text><text fill="none" stroke="rgb(246,146,30)" transform="translate(82.8240781368,32.0570649431) rotate(-60.9828593754)" x="-2.0" y="0">(0,0) E</text><text fill="none" stroke="rgb(246,146,30)" transform="translate(32.0852578166,43.7237316098) rotate(58.0342812492)" x="-2.0" y="0">(0,1) S</text></g><g id="triangle01" transform="translate(5035.63086889,0)"><text fill="none" stroke="rgb(246,146,30)" x="35.9016994375" y="39.1070819943">0,1L</text><polygon fill="none" points="0,0 53.9016994375,0 53.9016994375,16.6666666667 57.9016994375,16.6666666667 57.9016994375,0 111.803398875,0 87.6460944813,41.9276841803 73.204937722,33.6071812369 71.2080170156,37.0730588592 85.6491737749,45.3935618025 61.4918693812,87.3212459829 31.8974673203,45.2958516001 45.5243723929,35.6997463527 43.2213071335,32.4292891352 29.5944020609,42.0253943827" stroke="rgb(0,0,255)" stroke-width="1.0" /><text fill="none" stroke="rgb(246,146,30)" transform="translate(59.9016994375,3.33333333333) rotate(180.0)" x="-2.0" y="0">(0,1) E</text><text fill="none" stroke="rgb(246,146,30)" transform="translate(90.6476341281,31.9939563248) rotate(-60.0509180501)" x="-2.0" y="0">(0,1) E</text><text fill="none" stroke="rgb(246,146,30)" transform="translate(35.5459346906,43.6606229914) rotate(54.8466846281)" x="-2.0" y="0">(0,2) S</text></g><g id="triangle1-3" transform="translate(5147.43426776,0)"><text fill="none" stroke="rgb(246,146,30)" x="35.9016994375" y="39.1070819943">1,-3L</text><polygon fill="none" points="0,0 53.9016994375,0 53.9016994375,16.6666666667 57.9016994375,16.6666666667 57.9016994375,0 111.803398875,0 87.6460944813,41.9276841803 73.204937722,33.6071812369 71.2080170156,37.0730588592 85.6491737749,45.3935618025 61.4918693812,87.3212459829 31.8974673203,45.2958516001 45.5243723929,35.6997463527 43.2213071335,32.4292891352 29.5944020609,42.0253943827" stroke="rgb(0,0,255)" stroke-width="1.0" /><text fill="none" stroke="rgb(246,146,30)" transform="translate(59.9016994375,3.33333333333) rotate(180.0)" x="-2.0" y="0">(1,-3) E</text><text fill="none" stroke="rgb(246,146,30)" transform="translate(90.6476341281,31.9939563248) rotate(-60.0509180501)" x="-2.0" y="0">(1,-2) S</text><text fill="none" stroke="rgb(246,146,30)" transform="translate(35.5459346906,43.6606229914) rotate(54.8466846281)" x="-2.0" y="0">(1,-2) S</text></g><g id="triangle1-2" transform="translate(5259.23766664,0)"><text fill="none" stroke="rgb(246,146,30)" x="33.4000234082" y="38.9333459588">1,-2L</text><polygon fill="none" points="0,0 51.4000234082,0 51.4000234082,16.6666666667 55.4000234082,16.6666666667 55.4000234082,0 106.800046816,0 82.2134976013,41.6774237925 67.8585380542,33.2090760093 65.8261345862,36.6542663006 80.1810941333,45.1226140838 55.5945449182,86.8000378764 28.8759650751,45.0841870534 42.9106993681,36.0950819198 40.7533141361,32.7267456895 26.7185798431,41.715850823" stroke="rgb(0,0,255)" stroke-width="1.0" /><text fill="none" stroke="rgb(246,146,30)" transform="translate(57.4000234082,3.33333333333) rotate(180.0)" x="-2.0" y="0">(1,-2) E</text><text fill="none" stroke="rgb(246,146,30)" transform="translate(85.1972958673,31.7333522715) rotate(-59.4625879552)" x="-2.0" y="0">(2,-2) W</text><text fill="none" stroke="rgb(246,146,30)" transform="translate(32.5972724591,43.4000189382) rotate(57.3608497187)" x="-2.0" y="0">(1,-1) S</text></g><g id="triangle1-1" transform="translate(5366.03771345,0)"><text fill="none" stroke="rgb(246,146,30)" x="33.4000234082" y="38.9333459588">1,-1L</text><polygon fill="none" points="0,0 51.4000234082,0 51.4000234082,16.6666666667 55.4000234082,16.6666666667 55.4000234082,0 106.800046816,0 82.2134976013,41.6774237925 67.8585380542,33.2090760093 65.8261345862,36.6542663006 80.1810941333,45.1226140838 55.5945449182,86.8000378764 28.8759650751,45.0841870534 42.9106993681,36.0950819198 40.7533141361,32.7267456895 26.7185798431,41.715850823" stroke="rgb(0,0,255)" stroke-width="1.0" /><text fill="none" stroke="rgb(246,146,30)" transform="translate(57.4000234082,3.33333333333) rotate(180.0)" x="-2.0" y="0">(1,-1) E</text><text fill="none" stroke="rgb(246,146,30)" transform="translate(85.1972958673,31.7333522715) rotate(-59.4625879552)" x="-2.0" y="0">(2,-1) W</text><text fill="none" stroke="rgb(246,146,30)" transform="translate(32.5972724591,43.4000189382) rotate(57.3608497187)" x="-2.0" y="0">(1,-1) E</text></g><g id="triangle10" transform="translate(5472.83776027,0)"><text fill="none" stroke="rgb(246,146,30)" x="35.9016994375" y="39.1070819943">1,0L</text><polygon fill="none" points="0,0 53.9016994375,0 53.9016994375,16.6666666667 57.9016994375,16.6666666667 57.9016994375,0 111.803398875,0 87.6460944813,41.9276841803 73.204937722,33.6071812369 71.2080170156,37.0730588592 85.6491737749,45.3935618025 61.4918693812,87.3212459829 31.8974673203,45.2958516001 45.5243723929,35.6997463527 43.2213071335,32.4292891352 29.5944020609,42.0253943827" stroke="rgb(0,0,255)" stroke-width="1.0" /><text fill="none" stroke="rgb(246,146,30)" transform="translate(59.9016994375,3.33333333333) rotate(180.0)" x="-2.0" y="0">(1,0) E</text><text fill="none" stroke="rgb(246,146,30)" transform="translate(90.6476341281,31.9939563248) rotate(-60.0509180501)" x="-2.0" y="0">(1,0) E</text><text fill="none" stroke="rgb(246,146,30)" transform="translate(35.5459346906,43.6606229914) rotate(54.8466846281)" x="-2.0" y="0">(1,0) E</text></g><g id="triangle2-3" transform="translate(5584.64115914,0)"><text fill="none" stroke="rgb(246,146,30)" x="38.9623820754" y="38.921521951">2,-3L</text><polygon fill="none" points="0,0 56.9623820754,0 56.9623820754,16.6666666667 60.9623820754,16.6666666667 60.9623820754,0 117.924764151,0 91.1795862437,41.6988030696 77.1505874369,32.7007493769 74.9910545507,36.0677090905 89.0200533574,45.0657627833 62.2748754504,86.7645658529 32.3036333835,45.0070868182 45.8436658147,35.2887896659 43.5112744981,32.0391818824 29.9712420669,41.7574790347" stroke="rgb(0,0,255)" stroke-width="1.0" /><text fill="none" stroke="rgb(246,146,30)" transform="translate(62.9623820754,3.33333333333) rotate(180.0)" x="-2.0" y="0">(2,-3) E</text><text fill="none" stroke="rgb(246,146,30)" transform="translate(94.0998198005,31.7156162598) rotate(-57.3243104133)" x="-2.0" y="0">(3,-3) W</text><text fill="none" stroke="rgb(246,146,30)" transform="translate(35.9374377252,43.3822829264) rotate(54.3312762775)" x="-2.0" y="0">(2,-2) S</text></g><g id="triangle2-2" transform="translate(5702.5659233,0)"><text fill="none" stroke="rgb(246,146,30)" x="35.9016994375" y="39.8142397">2,-2L</text><polygon fill="none" points="0,0 53.9016994375,0 53.9016994375,16.6666666667 57.9016994375,16.6666666667 57.9016994375,0 111.803398875,0 90.337146291,42.932505168 75.430026441,35.478945243 73.641172059,39.056654007 88.548291909,46.510213932 67.082039325,89.4427191 34.7410196625,46.32135955 48.0743529958,36.32135955 45.6743529958,33.12135955 32.3410196625,43.12135955" stroke="rgb(0,0,255)" stroke-width="1.0" /><text fill="none" stroke="rgb(246,146,30)" transform="translate(59.9016994375,3.33333333333) rotate(180.0)" x="-2.0" y="0">(2,-2) E</text><text fill="none" stroke="rgb(246,146,30)" transform="translate(93.4427191,33.0546928833) rotate(-63.4349488229)" x="-2.0" y="0">(3,-2) W</text><text fill="none" stroke="rgb(246,146,30)" transform="translate(38.3410196625,44.72135955) rotate(53.1301023542)" x="-2.0" y="0">(2,-2) E</text></g><g id="triangle2-1" transform="translate(5814.36932217,0)"><text fill="none" stroke="rgb(246,146,30)" x="38.9623820754" y="38.921521951">2,-1L</text><polygon fill="none" points="0,0 56.9623820754,0 56.9623820754,16.6666666667 60.9623820754,16.6666666667 60.9623820754,0 117.924764151,0 91.1795862437,41.6988030696 77.1505874369,32.7007493769 74.9910545507,36.0677090905 89.0200533574,45.0657627833 62.2748754504,86.7645658529 32.3036333835,45.0070868182 45.8436658147,35.2887896659 43.5112744981,32.0391818824 29.9712420669,41.7574790347" stroke="rgb(0,0,255)" stroke-width="1.0" /><text fill="none" stroke="rgb(246,146,30)" transform="translate(62.9623820754,3.33333333333) rotate(180.0)" x="-2.0" y="0">(2,-1) E</text><text fill="none" stroke="rgb(246,146,30)" transform="translate(94.0998198005,31.7156162598) rotate(-57.3243104133)" x="-2.0" y="0">(3,-1) W</text><text fill="none" stroke="rgb(246,146,30)" transform="translate(35.9374377252,43.3822829264) rotate(54.3312762775)" x="-2.0" y="0">(2,-1) E</text></g></svg>