<?xml version="1.0" encoding="utf-8" ?>
<svg baseProfile="full" height="384mm" version="1.1" width="790mm" xmlns="http://www.w3.org/2000/svg" xmlns:ev="http://www.w3.org/2001/xml-events" xmlns:xlink="http://www.w3.org/1999/xlink"><defs /><rect fill="none" height="384" stroke="rgb(0,0,255)" stroke-width="1.0" width="790" x="0" y="0" /><g id="triangle-30" transform="translate(0.0,20)"><text fill="none" stroke="rgb(246,146,30)" x="112.66535967" y="75.0734243897">-3,0L</text><polygon fill="none" points="0,0 130.66535967,0 130.66535967,37.5 134.66535967,37.5 134.66535967,0 265.330719339,0 203.804360994,95.9266567277 172.239113679,75.681035919 170.079580793,79.0479956326 201.644828108,99.2936164413 140.118469763,195.220273169 71.2254305399,99.2349404762 101.69050351,77.3687718836 99.3581121936,74.1191641001 68.8930392234,95.9853326928" stroke="rgb(0,0,255)" stroke-width="1.0" /><text fill="none" stroke="rgb(246,146,30)" transform="translate(136.66535967,7.5) rotate(180.0)" x="-2.0" y="0">(-3,0) W</text><text fill="none" stroke="rgb(246,146,30)" transform="translate(206.724594551,71.3601365845) rotate(-57.3243104133)" x="-2.0" y="0">(-3,0) W</text><text fill="none" stroke="rgb(246,146,30)" transform="translate(74.8592348817,97.6101365845) rotate(54.3312762775)" x="-2.0" y="0">(-3,0) S</text></g><g id="triangle-31" transform="translate(275.330719339,20)"><text fill="none" stroke="rgb(246,146,30)" x="105.778823734" y="77.082039325">-3,1L</text><polygon fill="none" points="0,0 123.778823734,0 123.778823734,37.5 127.778823734,37.5 127.778823734,0 251.557647469,0 202.140545166,98.8342046055 168.599525503,82.0636947742 166.810671121,85.6414035382 200.351690784,102.411913369 150.934588481,201.246117975 76.6672942406,102.223058987 106.667294241,79.7230589875 104.267294241,76.5230589875 74.2672942406,99.0230589875" stroke="rgb(0,0,255)" stroke-width="1.0" /><text fill="none" stroke="rgb(246,146,30)" transform="translate(129.778823734,7.5) rotate(180.0)" x="-2.0" y="0">(-3,1) W</text><text fill="none" stroke="rgb(246,146,30)" transform="translate(205.246117975,74.3730589875) rotate(-63.4349488229)" x="-2.0" y="0">(-3,1) W</text><text fill="none" stroke="rgb(246,146,30)" transform="translate(80.2672942406,100.623058987) rotate(53.1301023542)" x="-2.0" y="0">(-3,1) S</text></g><g id="triangle-32" transform="translate(536.888366808,20)"><text fill="none" stroke="rgb(246,146,30)" x="112.66535967" y="75.0734243897">-3,2L</text><polygon fill="none" points="0,0 130.66535967,0 130.66535967,37.5 134.66535967,37.5 134.66535967,0 265.330719339,0 203.804360994,95.9266567277 172.239113679,75.681035919 170.079580793,79.0479956326 201.644828108,99.2936164413 140.118469763,195.220273169 71.2254305399,99.2349404762 101.69050351,77.3687718836 99.3581121936,74.1191641001 68.8930392234,95.9853326928" stroke="rgb(0,0,255)" stroke-width="1.0" /><text fill="none" stroke="rgb(246,146,30)" transform="translate(136.66535967,7.5) rotate(180.0)" x="-2.0" y="0">(-3,2) S</text><text fill="none" stroke="rgb(246,146,30)" transform="translate(206.724594551,71.3601365845) rotate(-57.3243104133)" x="-2.0" y="0">(-3,2) W</text><text fill="none" stroke="rgb(246,146,30)" transform="translate(74.8592348817,97.6101365845) rotate(54.3312762775)" x="-2.0" y="0">(-3,2) W</text></g><g id="triangle-2-1" transform="translate(812.219086147,20)"><text fill="none" stroke="rgb(246,146,30)" x="105.778823734" y="75.4909344871">-2,-1L</text><polygon fill="none" points="0,0 123.778823734,0 123.778823734,37.5 127.778823734,37.5 127.778823734,0 251.557647469,0 195.955637141,96.5034629196 163.463034433,77.782331297 161.466113727,81.2482089192 193.958716435,99.9693405418 138.356706108,196.472803461 70.3298856836,99.8716303394 100.990422097,78.2803935326 98.6873568375,75.0099363152 68.0268204242,96.601173122" stroke="rgb(0,0,255)" stroke-width="1.0" /><text fill="none" stroke="rgb(246,146,30)" transform="translate(129.778823734,7.5) rotate(180.0)" x="-2.0" y="0">(-2,-1) S</text><text fill="none" stroke="rgb(246,146,30)" transform="translate(198.957176788,71.9864017307) rotate(-60.0509180501)" x="-2.0" y="0">(-2,-1) S</text><text fill="none" stroke="rgb(246,146,30)" transform="translate(73.9783530539,98.2364017307) rotate(54.8466846281)" x="-2.0" y="0">(-2,-1) W</text></g><g id="triangle-20" transform="translate(1073.77673362,20)"><text fill="none" stroke="rgb(246,146,30)" x="100.150052669" y="75.1000284073">-2,0L</text><polygon fill="none" points="0,0 118.150052669,0 118.150052669,37.5 122.150052669,37.5 122.150052669,0 240.300105337,0 183.710117435,95.9274474653 151.411458454,76.8736649529 149.379054986,80.3188552442 181.677713967,99.3726377566 125.087726066,195.300085222 63.622555649,99.3342107261 95.2007078083,79.1087241756 93.0433225762,75.7403879453 61.4651704169,95.9658744958" stroke="rgb(0,0,255)" stroke-width="1.0" /><text fill="none" stroke="rgb(246,146,30)" transform="translate(124.150052669,7.5) rotate(180.0)" x="-2.0" y="0">(-2,0) W</text><text fill="none" stroke="rgb(246,146,30)" transform="translate(186.693915701,71.4000426109) rotate(-59.4625879552)" x="-2.0" y="0">(-2,0) W</text><text fill="none" stroke="rgb(246,146,30)" transform="translate(67.3438630329,97.6500426109) rotate(57.3608497187)" x="-2.0" y="0">(-2,0) S</text></g><g id="triangle-21" transform="translate(1324.07683895,20)"><text fill="none" stroke="rgb(246,146,30)" x="100.150052669" y="75.1000284073">-2,1L</text><polygon fill="none" points="0,0 118.150052669,0 118.150052669,37.5 122.150052669,37.5 122.150052669,0 240.300105337,0 183.710117435,95.9274474653 151.411458454,76.8736649529 149.379054986,80.3188552442 181.677713967,99.3726377566 125.087726066,195.300085222 63.622555649,99.3342107261 95.2007078083,79.1087241756 93.0433225762,75.7403879453 61.4651704169,95.9658744958" stroke="rgb(0,0,255)" stroke-width="1.0" /><text fill="none" stroke="rgb(246,146,30)" transform="translate(124.150052669,7.5) rotate(180.0)" x="-2.0" y="0">(-2,1) S</text><text fill="none" stroke="rgb(246,146,30)" transform="translate(186.693915701,71.4000426109) rotate(-59.4625879552)" x="-2.0" y="0">(-2,1) W</text><text fill="none" stroke="rgb(246,146,30)" transform="translate(67.3438630329,97.6500426109) rotate(57.3608497187)" x="-2.0" y="0">(-2,1) W</text></g><g id="triangle-22" transform="translate(1574.37694429,20)"><text fill="none" stroke="rgb(246,146,30)" x="105.778823734" y="75.4909344871">-2,2L</text><polygon fill="none" points="0,0 123.778823734,0 123.778823734,37.5 127.778823734,37.5 127.778823734,0 251.557647469,0 195.955637141,96.5034629196 163.463034433,77.782331297 161.466113727,81.2482089192 193.958716435,99.9693405418 138.356706108,196.472803461 70.3298856836,99.8716303394 100.990422097,78.2803935326 98.6873568375,75.0099363152 68.0268204242,96.601173122" stroke="rgb(0,0,255)" stroke-width="1.0" /><text fill="none" stroke="rgb(246,146,30)" transform="translate(129.778823734,7.5) rotate(180.0)" x="-2.0" y="0">(-2,2) S</text><text fill="none" stroke="rgb(246,146,30)" transform="translate(198.957176788,71.9864017307) rotate(-60.0509180501)" x="-2.0" y="0">(-2,2) E</text><text fill="none" stroke="rgb(246,146,30)" transform="translate(73.9783530539,98.2364017307) rotate(54.8466846281)" x="-2.0" y="0">(-2,2) W</text></g><g id="triangle-1-2" transform="translate(1835.93459176,20)"><text fill="none" stroke="rgb(246,146,30)" x="105.778823734" y="75.4909344871">-1,-2L</text><polygon fill="none" points="0,0 123.778823734,0 123.778823734,37.5 127.778823734,37.5 127.778823734,0 251.557647469,0 195.955637141,96.5034629196 163.463034433,77.782331297 161.466113727,81.2482089192 193.958716435,99.9693405418 138.356706108,196.472803461 70.3298856836,99.8716303394 100.990422097,78.2803935326 98.6873568375,75.0099363152 68.0268204242,96.601173122" stroke="rgb(0,0,255)" stroke-width="1.0" /><text fill="none" stroke="rgb(246,146,30)" transform="translate(129.778823734,7.5) rotate(180.0)" x="-2.0" y="0">(-1,-2) S</text><text fill="none" stroke="rgb(246,146,30)" transform="translate(198.957176788,71.9864017307) rotate(-60.0509180501)" x="-2.0" y="0">(-1,-2) S</text><text fill="none" stroke="rgb(246,146,30)" transform="translate(73.9783530539,98.2364017307) rotate(54.8466846281)" x="-2.0" y="0">(-1,-2) S</text></g><g id="triangle-1-1" transform="translate(2097.49223923,20)"><text fill="none" stroke="rgb(246,146,30)" x="95.9623457205" y="75.5855974146">-1,-1L</text><polygon fill="none" points="0,0 113.96234572,0 113.96234572,37.5 117.96234572,37.5 117.96234572,0 231.924691441,0 178.324318308,96.6294468576 145.531519601,78.4392749798 143.5912346,81.9371735086 176.384033308,100.127345386 122.783660175,196.756792244 62.4506536167,100.075126134 94.2643413414,80.2221849575 92.1466942826,76.8287249335 60.3330065579,96.68166611" stroke="rgb(0,0,255)" stroke-width="1.0" /><text fill="none" stroke="rgb(246,146,30)" transform="translate(119.96234572,7.5) rotate(180.0)" x="-2.0" y="0">(-1,-1) S</text><text fill="none" stroke="rgb(246,146,30)" transform="translate(181.354175808,72.128396122) rotate(-60.9828593754)" x="-2.0" y="0">(-1,-1) S</text><text fill="none" stroke="rgb(246,146,30)" transform="translate(66.1918300873,98.378396122) rotate(58.0342812492)" x="-2.0" y="0">(-1,-1) W</text></g><g id="triangle-10" transform="translate(2339.41693067,20)"><text fill="none" stroke="rgb(246,146,30)" x="93.3754995854" y="75.1182356593">-1,0L</text><polygon fill="none" points="0,0 111.375499585,0 111.375499585,37.5 115.375499585,37.5 115.375499585,0 226.750999171,0 171.927646482,95.9408672048 139.368528653,77.3356570164 137.383972899,80.8086295849 169.943090729,99.4138397733 115.119738041,195.354706978 58.5752536357,99.4004304121 90.8829459434,80.3619688736 88.8521767126,76.9158150275 56.5444844049,95.9542765659" stroke="rgb(0,0,255)" stroke-width="1.0" /><text fill="none" stroke="rgb(246,146,30)" transform="translate(117.375499585,7.5) rotate(180.0)" x="-2.0" y="0">(-1,0) W</text><text fill="none" stroke="rgb(246,146,30)" transform="translate(174.935368606,71.427353489) rotate(-60.2551187031)" x="-2.0" y="0">(-1,0) W</text><text fill="none" stroke="rgb(246,146,30)" transform="translate(62.3598690203,97.677353489) rotate(59.4897625939)" x="-2.0" y="0">(-1,0) S</text></g><g id="triangle-11" transform="translate(2576.16792984,20)"><text fill="none" stroke="rgb(246,146,30)" x="95.9623457205" y="75.5855974146">-1,1L</text><polygon fill="none" points="0,0 113.96234572,0 113.96234572,37.5 117.96234572,37.5 117.96234572,0 231.924691441,0 178.324318308,96.6294468576 145.531519601,78.4392749798 143.5912346,81.9371735086 176.384033308,100.127345386 122.783660175,196.756792244 62.4506536167,100.075126134 94.2643413414,80.2221849575 92.1466942826,76.8287249335 60.3330065579,96.68166611" stroke="rgb(0,0,255)" stroke-width="1.0" /><text fill="none" stroke="rgb(246,146,30)" transform="translate(119.96234572,7.5) rotate(180.0)" x="-2.0" y="0">(-1,1) S</text><text fill="none" stroke="rgb(246,146,30)" transform="translate(181.354175808,72.128396122) rotate(-60.9828593754)" x="-2.0" y="0">(-1,1) E</text><text fill="none" stroke="rgb(246,146,30)" transform="translate(66.1918300873,98.378396122) rotate(58.0342812492)" x="-2.0" y="0">(-1,1) S</text></g><g id="triangle-12" transform="translate(2818.09262128,20)"><text fill="none" stroke="rgb(246,146,30)" x="105.778823734" y="75.4909344871">-1,2L</text><polygon fill="none" points="0,0 123.778823734,0 123.778823734,37.5 127.778823734,37.5 127.778823734,0 251.557647469,0 195.955637141,96.5034629196 163.463034433,77.782331297 161.466113727,81.2482089192 193.958716435,99.9693405418 138.356706108,196.472803461 70.3298856836,99.8716303394 100.990422097,78.2803935326 98.6873568375,75.0099363152 68.0268204242,96.601173122" stroke="rgb(0,0,255)" stroke-width="1.0" /><text fill="none" stroke="rgb(246,146,30)" transform="translate(129.778823734,7.5) rotate(180.0)" x="-2.0" y="0">(-1,2) S</text><text fill="none" stroke="rgb(246,146,30)" transform="translate(198.957176788,71.9864017307) rotate(-60.0509180501)" x="-2.0" y="0">(-1,2) E</text><text fill="none" stroke="rgb(246,146,30)" transform="translate(73.9783530539,98.2364017307) rotate(54.8466846281)" x="-2.0" y="0">(-1,2) S</text></g><g id="triangle0-3" transform="translate(3079.65026875,20)"><text fill="none" stroke="rgb(246,146,30)" x="112.66535967" y="75.0734243897">0,-3L</text><polygon fill="none" points="0,0 130.66535967,0 130.66535967,37.5 134.66535967,37.5 134.66535967,0 265.330719339,0 203.804360994,95.9266567277 172.239113679,75.681035919 170.079580793,79.0479956326 201.644828108,99.2936164413 140.118469763,195.220273169 71.2254305399,99.2349404762 101.69050351,77.3687718836 99.3581121936,74.1191641001 68.8930392234,95.9853326928" stroke="rgb(0,0,255)" stroke-width="1.0" /><text fill="none" stroke="rgb(246,146,30)" transform="translate(136.66535967,7.5) rotate(180.0)" x="-2.0" y="0">(0,-3) S</text><text fill="none" stroke="rgb(246,146,30)" transform="translate(206.724594551,71.3601365845) rotate(-57.3243104133)" x="-2.0" y="0">(0,-3) E</text><text fill="none" stroke="rgb(246,146,30)" transform="translate(74.8592348817,97.6101365845) rotate(54.3312762775)" x="-2.0" y="0">(0,-3) S</text></g><g id="triangle0-2" transform="translate(3354.98098809,20)"><text fill="none" stroke="rgb(246,146,30)" x="100.150052669" y="75.1000284073">0,-2L</text><polygon fill="none" points="0,0 118.150052669,0 118.150052669,37.5 122.150052669,37.5 122.150052669,0 240.300105337,0 183.710117435,95.9274474653 151.411458454,76.8736649529 149.379054986,80.3188552442 181.677713967,99.3726377566 125.087726066,195.300085222 63.622555649,99.3342107261 95.2007078083,79.1087241756 93.0433225762,75.7403879453 61.4651704169,95.9658744958" stroke="rgb(0,0,255)" stroke-width="1.0" /><text fill="none" stroke="rgb(246,146,30)" transform="translate(124.150052669,7.5) rotate(180.0)" x="-2.0" y="0">(0,-2) S</text><text fill="none" stroke="rgb(246,146,30)" transform="translate(186.693915701,71.4000426109) rotate(-59.4625879552)" x="-2.0" y="0">(0,-2) E</text><text fill="none" stroke="rgb(246,146,30)" transform="translate(67.3438630329,97.6500426109) rotate(57.3608497187)" x="-2.0" y="0">(0,-2) S</text></g><g id="triangle0-1" transform="translate(3605.28109342,20)"><text fill="none" stroke="rgb(246,146,30)" x="93.3754995854" y="75.1182356593">0,-1L</text><polygon fill="none" points="0,0 111.375499585,0 111.375499585,37.5 115.375499585,37.5 115.375499585,0 226.750999171,0 171.927646482,95.9408672048 139.368528653,77.3356570164 137.383972899,80.8086295849 169.943090729,99.4138397733 115.119738041,195.354706978 58.5752536357,99.4004304121 90.8829459434,80.3619688736 88.8521767126,76.9158150275 56.5444844049,95.9542765659" stroke="rgb(0,0,255)" stroke-width="1.0" /><text fill="none" stroke="rgb(246,146,30)" transform="translate(117.375499585,7.5) rotate(180.0)" x="-2.0" y="0">(0,-1) S</text><text fill="none" stroke="rgb(246,146,30)" transform="translate(174.935368606,71.427353489) rotate(-60.2551187031)" x="-2.0" y="0">(0,-1) E</text><text fill="none" stroke="rgb(246,146,30)" transform="translate(62.3598690203,97.677353489) rotate(59.4897625939)" x="-2.0" y="0">(0,-1) S</text></g><g id="triangle00" transform="translate(3842.0320926,20)"><text fill="none" stroke="rgb(246,146,30)" x="93.3754995854" y="75.1182356593">0,0L</text><polygon fill="none" points="0,0 111.375499585,0 111.375499585,37.5 115.375499585,37.5 115.375499585,0 226.750999171,0 171.927646482,95.9408672048 139.368528653,77.3356570164 137.383972899,80.8086295849 169.943090729,99.4138397733 115.119738041,195.354706978 58.5752536357,99.4004304121 90.8829459434,80.3619688736 88.8521767126,76.9158150275 56.5444844049,95.9542765659" stroke="rgb(0,0,255)" stroke-width="1.0" /><text fill="none" stroke="rgb(246,146,30)" transform="translate(117.375499585,7.5) rotate(180.0)" x="-2.0" y="0">(0,0) S</text><text fill="none" stroke="rgb(246,146,30)" transform="translate(174.935368606,71.427353489) rotate(-60.2551187031)" x="-2.0" y="0">(0,0) S</text><text fill="none" stroke="rgb(246,146,30)" transform="translate(62.3598690203,97.677353489) rotate(59.4897625939)" x="-2.0" y="0">(0,0) W</text></g><g id="triangle01" transform="translate(4078.78309177,20)"><text fill="none" stroke="rgb(246,146,30)" x="100.150052669" y="75.1000284073">0,1L</text><polygon fill="none" points="0,0 118.150052669,0 118.150052669,37.5 122.150052669,37.5 122.150052669,0 240.300105337,0 183.710117435,95.9274474653 151.411458454,76.8736649529 149.379054986,80.3188552442 181.677713967,99.3726377566 125.087726066,195.300085222 63.622555649,99.3342107261 95.2007078083,79.1087241756 93.0433225762,75.7403879453 61.4651704169,95.9658744958" stroke="rgb(0,0,255)" stroke-width="1.0" /><text fill="none" stroke="rgb(246,146,30)" transform="translate(124.150052669,7.5) rotate(180.0)" x="-2.0" y="0">(0,1) S</text><text fill="none" stroke="rgb(246,146,30)" transform="translate(186.693915701,71.4000426109) rotate(-59.4625879552)" x="-2.0" y="0">(0,1) S</text><text fill="none" stroke="rgb(246,146,30)" transform="translate(67.3438630329,97.6500426109) rotate(57.3608497187)" x="-2.0" y="0">(0,1) S</text></g><g id="triangle02" transform="translate(4329.0831971,20)"><text fill="none" stroke="rgb(246,146,30)" x="112.66535967" y="75.0734243897">0,2L</text><polygon fill="none" points="0,0 130.66535967,0 130.66535967,37.5 134.66535967,37.5 134.66535967,0 265.330719339,0 203.804360994,95.9266567277 172.239113679,75.681035919 170.079580793,79.0479956326 201.644828108,99.2936164413 140.118469763,195.220273169 71.2254305399,99.2349404762 101.69050351,77.3687718836 99.3581121936,74.1191641001 68.8930392234,95.9853326928" stroke="rgb(0,0,255)" stroke-width="1.0" /><text fill="none" stroke="rgb(246,146,30)" transform="translate(136.66535967,7.5) rotate(180.0)" x="-2.0" y="0">(0,2) S</text><text fill="none" stroke="rgb(246,146,30)" transform="translate(206.724594551,71.3601365845) rotate(-57.3243104133)" x="-2.0" y="0">(0,2) S</text><text fill="none" stroke="rgb(246,146,30)" transform="translate(74.8592348817,97.6101365845) rotate(54.3312762775)" x="-2.0" y="0">(0,2) S</text></g><g id="triangle1-3" transform="translate(4604.41391644,20)"><text fill="none" stroke="rgb(246,146,30)" x="105.778823734" y="77.082039325">1,-3L</text><polygon fill="none" points="0,0 123.778823734,0 123.778823734,37.5 127.778823734,37.5 127.778823734,0 251.557647469,0 202.140545166,98.8342046055 168.599525503,82.0636947742 166.810671121,85.6414035382 200.351690784,102.411913369 150.934588481,201.246117975 76.6672942406,102.223058987 106.667294241,79.7230589875 104.267294241,76.5230589875 74.2672942406,99.0230589875" stroke="rgb(0,0,255)" stroke-width="1.0" /><text fill="none" stroke="rgb(246,146,30)" transform="translate(129.778823734,7.5) rotate(180.0)" x="-2.0" y="0">(1,-3) S</text><text fill="none" stroke="rgb(246,146,30)" transform="translate(205.246117975,74.3730589875) rotate(-63.4349488229)" x="-2.0" y="0">(1,-3) E</text><text fill="none" stroke="rgb(246,146,30)" transform="translate(80.2672942406,100.623058987) rotate(53.1301023542)" x="-2.0" y="0">(1,-3) S</text></g><g id="triangle1-2" transform="translate(4865.97156391,20)"><text fill="none" stroke="rgb(246,146,30)" x="100.150052669" y="75.1000284073">1,-2L</text><polygon fill="none" points="0,0 118.150052669,0 118.150052669,37.5 122.150052669,37.5 122.150052669,0 240.300105337,0 183.710117435,95.9274474653 151.411458454,76.8736649529 149.379054986,80.3188552442 181.677713967,99.3726377566 125.087726066,195.300085222 63.622555649,99.3342107261 95.2007078083,79.1087241756 93.0433225762,75.7403879453 61.4651704169,95.9658744958" stroke="rgb(0,0,255)" stroke-width="1.0" /><text fill="none" stroke="rgb(246,146,30)" transform="translate(124.150052669,7.5) rotate(180.0)" x="-2.0" y="0">(1,-2) S</text><text fill="none" stroke="rgb(246,146,30)" transform="translate(186.693915701,71.4000426109) rotate(-59.4625879552)" x="-2.0" y="0">(1,-2) E</text><text fill="none" stroke="rgb(246,146,30)" transform="translate(67.3438630329,97.6500426109) rotate(57.3608497187)" x="-2.0" y="0">(1,-2) W</text></g><g id="triangle1-1" transform="translate(5116.27166925,20)"><text fill="none" stroke="rgb(246,146,30)" x="95.9623457205" y="75.5855974146">1,-1L</text><polygon fill="none" points="0,0 113.96234572,0 113.96234572,37.5 117.96234572,37.5 117.96234572,0 231.924691441,0 178.324318308,96.6294468576 145.531519601,78.4392749798 143.5912346,81.9371735086 176.384033308,100.127345386 122.783660175,196.756792244 62.4506536167,100.075126134 94.2643413414,80.2221849575 92.1466942826,76.8287249335 60.3330065579,96.68166611" stroke="rgb(0,0,255)" stroke-width="1.0" /><text fill="none" stroke="rgb(246,146,30)" transform="translate(119.96234572,7.5) rotate(180.0)" x="-2.0" y="0">(1,-1) W</text><text fill="none" stroke="rgb(246,146,30)" transform="translate(181.354175808,72.128396122) rotate(-60.9828593754)" x="-2.0" y="0">(1,-1) W</text><text fill="none" stroke="rgb(246,146,30)" transform="translate(66.1918300873,98.378396122) rotate(58.0342812492)" x="-2.0" y="0">(1,-1) S</text></g><g id="triangle10" transform="translate(5358.19636069,20)"><text fill="none" stroke="rgb(246,146,30)" x="100.150052669" y="75.1000284073">1,0L</text><polygon fill="none" points="0,0 118.150052669,0 118.150052669,37.5 122.150052669,37.5 122.150052669,0 240.300105337,0 183.710117435,95.9274474653 151.411458454,76.8736649529 149.379054986,80.3188552442 181.677713967,99.3726377566 125.087726066,195.300085222 63.622555649,99.3342107261 95.2007078083,79.1087241756 93.0433225762,75.7403879453 61.4651704169,95.9658744958" stroke="rgb(0,0,255)" stroke-width="1.0" /><text fill="none" stroke="rgb(246,146,30)" transform="translate(124.150052669,7.5) rotate(180.0)" x="-2.0" y="0">(1,0) S</text><text fill="none" stroke="rgb(246,146,30)" transform="translate(186.693915701,71.4000426109) rotate(-59.4625879552)" x="-2.0" y="0">(1,0) S</text><text fill="none" stroke="rgb(246,146,30)" transform="translate(67.3438630329,97.6500426109) rotate(57.3608497187)" x="-2.0" y="0">(1,0) W</text></g><g id="triangle11" transform="translate(5608.49646603,20)"><text fill="none" stroke="rgb(246,146,30)" x="105.778823734" y="77.082039325">1,1L</text><polygon fill="none" points="0,0 123.778823734,0 123.778823734,37.5 127.778823734,37.5 127.778823734,0 251.557647469,0 202.140545166,98.8342046055 168.599525503,82.0636947742 166.810671121,85.6414035382 200.351690784,102.411913369 150.934588481,201.246117975 76.6672942406,102.223058987 106.667294241,79.7230589875 104.267294241,76.5230589875 74.2672942406,99.0230589875" stroke="rgb(0,0,255)" stroke-width="1.0" /><text fill="none" stroke="rgb(246,146,30)" transform="translate(129.778823734,7.5) rotate(180.0)" x="-2.0" y="0">(1,1) S</text><text fill="none" stroke="rgb(246,146,30)" transform="translate(205.246117975,74.3730589875) rotate(-63.4349488229)" x="-2.0" y="0">(1,1) S</text><text fill="none" stroke="rgb(246,146,30)" transform="translate(80.2672942406,100.623058987) rotate(53.1301023542)" x="-2.0" y="0">(1,1) W</text></g><g id="triangle2-3" transform="translate(5870.0541135,20)"><text fill="none" stroke="rgb(246,146,30)" x="112.66535967" y="75.0734243897">2,-3L</text><polygon fill="none" points="0,0 130.66535967,0 130.66535967,37.5 134.66535967,37.5 134.66535967,0 265.330719339,0 203.804360994,95.9266567277 172.239113679,75.681035919 170.079580793,79.0479956326 201.644828108,99.2936164413 140.118469763,195.220273169 71.2254305399,99.2349404762 101.69050351,77.3687718836 99.3581121936,74.1191641001 68.8930392234,95.9853326928" stroke="rgb(0,0,255)" stroke-width="1.0" /><text fill="none" stroke="rgb(246,146,30)" transform="translate(136.66535967,7.5) rotate(180.0)" x="-2.0" y="0">(2,-3) S</text><text fill="none" stroke="rgb(246,146,30)" transform="translate(206.724594551,71.3601365845) rotate(-57.3243104133)" x="-2.0" y="0">(2,-3) E</text><text fill="none" stroke="rgb(246,146,30)" transform="translate(74.8592348817,97.6101365845) rotate(54.3312762775)" x="-2.0" y="0">(2,-3) W</text></g><g id="triangle2-2" transform="translate(6145.38483283,20)"><text fill="none" stroke="rgb(246,146,30)" x="105.778823734" y="75.4909344871">2,-2L</text><polygon fill="none" points="0,0 123.778823734,0 123.778823734,37.5 127.778823734,37.5 127.778823734,0 251.557647469,0 195.955637141,96.5034629196 163.463034433,77.782331297 161.466113727,81.2482089192 193.958716435,99.9693405418 138.356706108,196.472803461 70.3298856836,99.8716303394 100.990422097,78.2803935326 98.6873568375,75.0099363152 68.0268204242,96.601173122" stroke="rgb(0,0,255)" stroke-width="1.0" /><text fill="none" stroke="rgb(246,146,30)" transform="translate(129.778823734,7.5) rotate(180.0)" x="-2.0" y="0">(2,-2) S</text><text fill="none" stroke="rgb(246,146,30)" transform="translate(198.957176788,71.9864017307) rotate(-60.0509180501)" x="-2.0" y="0">(2,-2) W</text><text fill="none" stroke="rgb(246,146,30)" transform="translate(73.9783530539,98.2364017307) rotate(54.8466846281)" x="-2.0" y="0">(2,-2) W</text></g><g id="triangle2-1" transform="translate(6406.9424803,20)"><text fill="none" stroke="rgb(246,146,30)" x="105.778823734" y="75.4909344871">2,-1L</text><polygon fill="none" points="0,0 123.778823734,0 123.778823734,37.5 127.778823734,37.5 127.778823734,0 251.557647469,0 195.955637141,96.5034629196 163.463034433,77.782331297 161.466113727,81.2482089192 193.958716435,99.9693405418 138.356706108,196.472803461 70.3298856836,99.8716303394 100.990422097,78.2803935326 98.6873568375,75.0099363152 68.0268204242,96.601173122" stroke="rgb(0,0,255)" stroke-width="1.0" /><text fill="none" stroke="rgb(246,146,30)" transform="translate(129.778823734,7.5) rotate(180.0)" x="-2.0" y="0">(2,-1) W</text><text fill="none" stroke="rgb(246,146,30)" transform="translate(198.957176788,71.9864017307) rotate(-60.0509180501)" x="-2.0" y="0">(2,-1) W</text><text fill="none" stroke="rgb(246,146,30)" transform="translate(73.9783530539,98.2364017307) rotate(54.8466846281)" x="-2.0" y="0">(2,-1) S</text></g><g id="triangle20" transform="translate(6668.50012777,20)"><text fill="none" stroke="rgb(246,146,30)" x="112.66535967" y="75.0734243897">2,0L</text><polygon fill="none" points="0,0 130.66535967,0 130.66535967,37.5 134.66535967,37.5 134.66535967,0 265.330719339,0 203.804360994,95.9266567277 172.239113679,75.681035919 170.079580793,79.0479956326 201.644828108,99.2936164413 140.118469763,195.220273169 71.2254305399,99.2349404762 101.69050351,77.3687718836 99.3581121936,74.1191641001 68.8930392234,95.9853326928" stroke="rgb(0,0,255)" stroke-width="1.0" /><text fill="none" stroke="rgb(246,146,30)" transform="translate(136.66535967,7.5) rotate(180.0)" x="-2.0" y="0">(2,0) S</text><text fill="none" stroke="rgb(246,146,30)" transform="translate(206.724594551,71.3601365845) rotate(-57.3243104133)" x="-2.0" y="0">(2,0) S</text><text fill="none" stroke="rgb(246,146,30)" transform="translate(74.8592348817,97.6101365845) rotate(54.3312762775)" x="-2.0" y="0">(2,0) W</text></g><g id="triangle-3-1" transform="translate(6943.83084711,20)"><text fill="none" stroke="rgb(246,146,30)" x="112.66535967" y="75.0734243897">-3,-1L</text><polygon fill="none" points="0,0 130.66535967,0 130.66535967,37.5 134.66535967,37.5 134.66535967,0 265.330719339,0 203.804360994,95.9266567277 172.239113679,75.681035919 170.079580793,79.0479956326 201.644828108,99.2936164413 140.118469763,195.220273169 71.2254305399,99.2349404762 101.69050351,77.3687718836 99.3581121936,74.1191641001 68.8930392234,95.9853326928" stroke="rgb(0,0,255)" stroke-width="1.0" /><text fill="none" stroke="rgb(246,146,30)" transform="translate(136.66535967,7.5) rotate(180.0)" x="-2.0" y="0">(-3,-1) E</text><text fill="none" stroke="rgb(246,146,30)" transform="translate(206.724594551,71.3601365845) rotate(-57.3243104133)" x="-2.0" y="0">(-3,-1) E</text><text fill="none" stroke="rgb(246,146,30)" transform="translate(74.8592348817,97.6101365845) rotate(54.3312762775)" x="-2.0" y="0">(-3,-1) E</text></g><g id="triangle-30" transform="translate(7219.16156645,20)"><text fill="none" stroke="rgb(246,146,30)" x="105.778823734" y="75.4909344871">-3,0L</text><polygon fill="none" points="0,0 123.778823734,0 123.778823734,37.5 127.778823734,37.5 127.778823734,0 251.557647469,0 195.955637141,96.5034629196 163.463034433,77.782331297 161.466113727,81.2482089192 193.958716435,99.9693405418 138.356706108,196.472803461 70.3298856836,99.8716303394 100.990422097,78.2803935326 98.6873568375,75.0099363152 68.0268204242,96.601173122" stroke="rgb(0,0,255)" stroke-width="1.0" /><text fill="none" stroke="rgb(246,146,30)" transform="translate(129.778823734,7.5) rotate(180.0)" x="-2.0" y="0">(-3,0) E</text><text fill="none" stroke="rgb(246,146,30)" transform="translate(198.957176788,71.9864017307) rotate(-60.0509180501)" x="-2.0" y="0">(-2,0) W</text><text fill="none" stroke="rgb(246,146,30)" transform="translate(73.9783530539,98.2364017307) rotate(54.8466846281)" x="-2.0" y="0">(-3,0) E</text></g><g id="triangle-31" transform="translate(7480.71921392,20)"><text fill="none" stroke="rgb(246,146,30)" x="105.778823734" y="75.4909344871">-3,1L</text><polygon fill="none" points="0,0 123.778823734,0 123.778823734,37.5 127.778823734,37.5 127.778823734,0 251.557647469,0 195.955637141,96.5034629196 163.463034433,77.782331297 161.466113727,81.2482089192 193.958716435,99.9693405418 138.356706108,196.472803461 70.3298856836,99.8716303394 100.990422097,78.2803935326 98.6873568375,75.0099363152 68.0268204242,96.601173122" stroke="rgb(0,0,255)" stroke-width="1.0" /><text fill="none" stroke="rgb(246,146,30)" transform="translate(129.778823734,7.5) rotate(180.0)" x="-2.0" y="0">(-3,1) E</text><text fill="none" stroke="rgb(246,146,30)" transform="translate(198.957176788,71.9864017307) rotate(-60.0509180501)" x="-2.0" y="0">(-2,1) W</text><text fill="none" stroke="rgb(246,146,30)" transform="translate(73.9783530539,98.2364017307) rotate(54.8466846281)" x="-2.0" y="0">(-3,2) S</text></g><g id="triangle-32" transform="translate(7742.27686139,20)"><text fill="none" stroke="rgb(246,146,30)" x="112.66535967" y="75.0734243897">-3,2L</text><polygon fill="none" points="0,0 130.66535967,0 130.66535967,37.5 134.66535967,37.5 134.66535967,0 265.330719339,0 203.804360994,95.9266567277 172.239113679,75.681035919 170.079580793,79.0479956326 201.644828108,99.2936164413 140.118469763,195.220273169 71.2254305399,99.2349404762 101.69050351,77.3687718836 99.3581121936,74.1191641001 68.8930392234,95.9853326928" stroke="rgb(0,0,255)" stroke-width="1.0" /><text fill="none" stroke="rgb(246,146,30)" transform="translate(136.66535967,7.5) rotate(180.0)" x="-2.0" y="0">(-3,2) E</text><text fill="none" stroke="rgb(246,146,30)" transform="translate(206.724594551,71.3601365845) rotate(-57.3243104133)" x="-2.0" y="0">(-3,3) S</text><text fill="none" stroke="rgb(246,146,30)" transform="translate(74.8592348817,97.6101365845) rotate(54.3312762775)" x="-2.0" y="0">(-3,3) S</text></g><g id="triangle-2-2" transform="translate(8017.60758073,20)"><text fill="none" stroke="rgb(246,146,30)" x="105.778823734" y="77.082039325">-2,-2L</text><polygon fill="none" points="0,0 123.778823734,0 123.778823734,37.5 127.778823734,37.5 127.778823734,0 251.557647469,0 202.140545166,98.8342046055 168.599525503,82.0636947742 166.810671121,85.6414035382 200.351690784,102.411913369 150.934588481,201.246117975 76.6672942406,102.223058987 106.667294241,79.7230589875 104.267294241,76.5230589875 74.2672942406,99.0230589875" stroke="rgb(0,0,255)" stroke-width="1.0" /><text fill="none" stroke="rgb(246,146,30)" transform="translate(129.778823734,7.5) rotate(180.0)" x="-2.0" y="0">(-2,-2) E</text><text fill="none" stroke="rgb(246,146,30)" transform="translate(205.246117975,74.3730589875) rotate(-63.4349488229)" x="-2.0" y="0">(-2,-2) E</text><text fill="none" stroke="rgb(246,146,30)" transform="translate(80.2672942406,100.623058987) rotate(53.1301023542)" x="-2.0" y="0">(-2,-2) E</text></g><g id="triangle-2-1" transform="translate(8279.1652282,20)"><text fill="none" stroke="rgb(246,146,30)" x="100.150052669" y="75.1000284073">-2,-1L</text><polygon fill="none" points="0,0 118.150052669,0 118.150052669,37.5 122.150052669,37.5 122.150052669,0 240.300105337,0 183.710117435,95.9274474653 151.411458454,76.8736649529 149.379054986,80.3188552442 181.677713967,99.3726377566 125.087726066,195.300085222 63.622555649,99.3342107261 95.2007078083,79.1087241756 93.0433225762,75.7403879453 61.4651704169,95.9658744958" stroke="rgb(0,0,255)" stroke-width="1.0" /><text fill="none" stroke="rgb(246,146,30)" transform="translate(124.150052669,7.5) rotate(180.0)" x="-2.0" y="0">(-2,-1) E</text><text fill="none" stroke="rgb(246,146,30)" transform="translate(186.693915701,71.4000426109) rotate(-59.4625879552)" x="-2.0" y="0">(-2,-1) E</text><text fill="none" stroke="rgb(246,146,30)" transform="translate(67.3438630329,97.6500426109) rotate(57.3608497187)" x="-2.0" y="0">(-2,-1) E</text></g><g id="triangle-20" transform="translate(8529.46533353,20)"><text fill="none" stroke="rgb(246,146,30)" x="95.9623457205" y="75.5855974146">-2,0L</text><polygon fill="none" points="0,0 113.96234572,0 113.96234572,37.5 117.96234572,37.5 117.96234572,0 231.924691441,0 178.324318308,96.6294468576 145.531519601,78.4392749798 143.5912346,81.9371735086 176.384033308,100.127345386 122.783660175,196.756792244 62.4506536167,100.075126134 94.2643413414,80.2221849575 92.1466942826,76.8287249335 60.3330065579,96.68166611" stroke="rgb(0,0,255)" stroke-width="1.0" /><text fill="none" stroke="rgb(246,146,30)" transform="translate(119.96234572,7.5) rotate(180.0)" x="-2.0" y="0">(-2,0) E</text><text fill="none" stroke="rgb(246,146,30)" transform="translate(181.354175808,72.128396122) rotate(-60.9828593754)" x="-2.0" y="0">(-1,0) W</text><text fill="none" stroke="rgb(246,146,30)" transform="translate(66.1918300873,98.378396122) rotate(58.0342812492)" x="-2.0" y="0">(-2,0) E</text></g><g id="triangle-21" transform="translate(8771.39002497,20)"><text fill="none" stroke="rgb(246,146,30)" x="100.150052669" y="75.1000284073">-2,1L</text><polygon fill="none" points="0,0 118.150052669,0 118.150052669,37.5 122.150052669,37.5 122.150052669,0 240.300105337,0 183.710117435,95.9274474653 151.411458454,76.8736649529 149.379054986,80.3188552442 181.677713967,99.3726377566 125.087726066,195.300085222 63.622555649,99.3342107261 95.2007078083,79.1087241756 93.0433225762,75.7403879453 61.4651704169,95.9658744958" stroke="rgb(0,0,255)" stroke-width="1.0" /><text fill="none" stroke="rgb(246,146,30)" transform="translate(124.150052669,7.5) rotate(180.0)" x="-2.0" y="0">(-2,1) E</text><text fill="none" stroke="rgb(246,146,30)" transform="translate(186.693915701,71.4000426109) rotate(-59.4625879552)" x="-2.0" y="0">(-2,2) S</text><text fill="none" stroke="rgb(246,146,30)" transform="translate(67.3438630329,97.6500426109) rotate(57.3608497187)" x="-2.0" y="0">(-2,2) S</text></g><g id="triangle-22" transform="translate(9021.69013031,20)"><text fill="none" stroke="rgb(246,146,30)" x="105.778823734" y="77.082039325">-2,2L</text><polygon fill="none" points="0,0 123.778823734,0 123.778823734,37.5 127.778823734,37.5 127.778823734,0 251.557647469,0 202.140545166,98.8342046055 168.599525503,82.0636947742 166.810671121,85.6414035382 200.351690784,102.411913369 150.934588481,201.246117975 76.6672942406,102.223058987 106.667294241,79.7230589875 104.267294241,76.5230589875 74.2672942406,99.0230589875" stroke="rgb(0,0,255)" stroke-width="1.0" /><text fill="none" stroke="rgb(246,146,30)" transform="translate(129.778823734,7.5) rotate(180.0)" x="-2.0" y="0">(-2,3) S</text><text fill="none" stroke="rgb(246,146,30)" transform="translate(205.246117975,74.3730589875) rotate(-63.4349488229)" x="-2.0" y="0">(-2,3) S</text><text fill="none" stroke="rgb(246,146,30)" transform="translate(80.2672942406,100.623058987) rotate(53.1301023542)" x="-2.0" y="0">(-2,2) E</text></g><g id="triangle-1-3" transform="translate(9283.24777778,20)"><text fill="none" stroke="rgb(246,146,30)" x="112.66535967" y="75.0734243897">-1,-3L</text><polygon fill="none" points="0,0 130.66535967,0 130.66535967,37.5 134.66535967,37.5 134.66535967,0 265.330719339,0 203.804360994,95.9266567277 172.239113679,75.681035919 170.079580793,79.0479956326 201.644828108,99.2936164413 140.118469763,195.220273169 71.2254305399,99.2349404762 101.69050351,77.3687718836 99.3581121936,74.1191641001 68.8930392234,95.9853326928" stroke="rgb(0,0,255)" stroke-width="1.0" /><text fill="none" stroke="rgb(246,146,30)" transform="translate(136.66535967,7.5) rotate(180.0)" x="-2.0" y="0">(-1,-3) E</text><text fill="none" stroke="rgb(246,146,30)" transform="translate(206.724594551,71.3601365845) rotate(-57.3243104133)" x="-2.0" y="0">(-1,-3) E</text><text fill="none" stroke="rgb(246,146,30)" transform="translate(74.8592348817,97.6101365845) rotate(54.3312762775)" x="-2.0" y="0">(-1,-2) S</text></g><g id="triangle-1-2" transform="translate(9558.57849712,20)"><text fill="none" stroke="rgb(246,146,30)" x="100.150052669" y="75.1000284073">-1,-2L</text><polygon fill="none" points="0,0 118.150052669,0 118.150052669,37.5 122.150052669,37.5 122.150052669,0 240.300105337,0 183.710117435,95.9274474653 151.411458454,76.8736649529 149.379054986,80.3188552442 181.677713967,99.3726377566 125.087726066,195.300085222 63.622555649,99.3342107261 95.2007078083,79.1087241756 93.0433225762,75.7403879453 61.4651704169,95.9658744958" stroke="rgb(0,0,255)" stroke-width="1.0" /><text fill="none" stroke="rgb(246,146,30)" transform="translate(124.150052669,7.5) rotate(180.0)" x="-2.0" y="0">(-1,-2) E</text><text fill="none" stroke="rgb(246,146,30)" transform="translate(186.693915701,71.4000426109) rotate(-59.4625879552)" x="-2.0" y="0">(-1,-2) E</text><text fill="none" stroke="rgb(246,146,30)" transform="translate(67.3438630329,97.6500426109) rotate(57.3608497187)" x="-2.0" y="0">(-1,-1) S</text></g><g id="triangle-1-1" transform="translate(9808.87860246,20)"><text fill="none" stroke="rgb(246,146,30)" x="93.3754995854" y="75.1182356593">-1,-1L</text><polygon fill="none" points="0,0 111.375499585,0 111.375499585,37.5 115.375499585,37.5 115.375499585,0 226.750999171,0 171.927646482,95.9408672048 139.368528653,77.3356570164 137.383972899,80.8086295849 169.943090729,99.4138397733 115.119738041,195.354706978 58.5752536357,99.4004304121 90.8829459434,80.3619688736 88.8521767126,76.9158150275 56.5444844049,95.9542765659" stroke="rgb(0,0,255)" stroke-width="1.0" /><text fill="none" stroke="rgb(246,146,30)" transform="translate(117.375499585,7.5) rotate(180.0)" x="-2.0" y="0">(-1,-1) E</text><text fill="none" stroke="rgb(246,146,30)" transform="translate(174.935368606,71.427353489) rotate(-60.2551187031)" x="-2.0" y="0">(-1,-1) E</text><text fill="none" stroke="rgb(246,146,30)" transform="translate(62.3598690203,97.677353489) rotate(59.4897625939)" x="-2.0" y="0">(-1,0) S</text></g><g id="triangle-10" transform="translate(10045.6296016,20)"><text fill="none" stroke="rgb(246,146,30)" x="93.3754995854" y="75.1182356593">-1,0L</text><polygon fill="none" points="0,0 111.375499585,0 111.375499585,37.5 115.375499585,37.5 115.375499585,0 226.750999171,0 171.927646482,95.9408672048 139.368528653,77.3356570164 137.383972899,80.8086295849 169.943090729,99.4138397733 115.119738041,195.354706978 58.5752536357,99.4004304121 90.8829459434,80.3619688736 88.8521767126,76.9158150275 56.5444844049,95.9542765659" stroke="rgb(0,0,255)" stroke-width="1.0" /><text fill="none" stroke="rgb(246,146,30)" transform="translate(117.375499585,7.5) rotate(180.0)" x="-2.0" y="0">(-1,1) S</text><text fill="none" stroke="rgb(246,146,30)" transform="translate(174.935368606,71.427353489) rotate(-60.2551187031)" x="-2.0" y="0">(-1,1) S</text><text fill="none" stroke="rgb(246,146,30)" transform="translate(62.3598690203,97.677353489) rotate(59.4897625939)" x="-2.0" y="0">(-1,0) E</text></g><g id="triangle-11" transform="translate(10282.3806008,20)"><text fill="none" stroke="rgb(246,146,30)" x="100.150052669" y="75.1000284073">-1,1L</text><polygon fill="none" points="0,0 118.150052669,0 118.150052669,37.5 122.150052669,37.5 122.150052669,0 240.300105337,0 183.710117435,95.9274474653 151.411458454,76.8736649529 149.379054986,80.3188552442 181.677713967,99.3726377566 125.087726066,195.300085222 63.622555649,99.3342107261 95.2007078083,79.1087241756 93.0433225762,75.7403879453 61.4651704169,95.9658744958" stroke="rgb(0,0,255)" stroke-width="1.0" /><text fill="none" stroke="rgb(246,146,30)" transform="translate(124.150052669,7.5) rotate(180.0)" x="-2.0" y="0">(-1,2) S</text><text fill="none" stroke="rgb(246,146,30)" transform="translate(186.693915701,71.4000426109) rotate(-59.4625879552)" x="-2.0" y="0">(-1,2) S</text><text fill="none" stroke="rgb(246,146,30)" transform="translate(67.3438630329,97.6500426109) rotate(57.3608497187)" x="-2.0" y="0">(-1,1) E</text></g><g id="triangle-12" transform="translate(10532.6807061,20)"><text fill="none" stroke="rgb(246,146,30)" x="112.66535967" y="75.0734243897">-1,2L</text><polygon fill="none" points="0,0 130.66535967,0 130.66535967,37.5 134.66535967,37.5 134.66535967,0 265.330719339,0 203.804360994,95.9266567277 172.239113679,75.681035919 170.079580793,79.0479956326 201.644828108,99.2936164413 140.118469763,195.220273169 71.2254305399,99.2349404762 101.69050351,77.3687718836 99.3581121936,74.1191641001 68.8930392234,95.9853326928" stroke="rgb(0,0,255)" stroke-width="1.0" /><text fill="none" stroke="rgb(246,146,30)" transform="translate(136.66535967,7.5) rotate(180.0)" x="-2.0" y="0">(-1,3) S</text><text fill="none" stroke="rgb(246,146,30)" transform="translate(206.724594551,71.3601365845) rotate(-57.3243104133)" x="-2.0" y="0">(-1,3) S</text><text fill="none" stroke="rgb(246,146,30)" transform="translate(74.8592348817,97.6101365845) rotate(54.3312762775)" x="-2.0" y="0">(-1,2) E</text></g><g id="triangle0-3" transform="translate(10808.0114255,20)"><text fill="none" stroke="rgb(246,146,30)" x="105.778823734" y="75.4909344871">0,-3L</text><polygon fill="none" points="0,0 123.778823734,0 123.778823734,37.5 127.778823734,37.5 127.778823734,0 251.557647469,0 195.955637141,96.5034629196 163.463034433,77.782331297 161.466113727,81.2482089192 193.958716435,99.9693405418 138.356706108,196.472803461 70.3298856836,99.8716303394 100.990422097,78.2803935326 98.6873568375,75.0099363152 68.0268204242,96.601173122" stroke="rgb(0,0,255)" stroke-width="1.0" /><text fill="none" stroke="rgb(246,146,30)" transform="translate(129.778823734,7.5) rotate(180.0)" x="-2.0" y="0">(0,-2) S</text><text fill="none" stroke="rgb(246,146,30)" transform="translate(198.957176788,71.9864017307) rotate(-60.0509180501)" x="-2.0" y="0">(0,-2) S</text><text fill="none" stroke="rgb(246,146,30)" transform="translate(73.9783530539,98.2364017307) rotate(54.8466846281)" x="-2.0" y="0">(0,-3) E</text></g><g id="triangle0-2" transform="translate(11069.5690729,20)"><text fill="none" stroke="rgb(246,146,30)" x="95.9623457205" y="75.5855974146">0,-2L</text><polygon fill="none" points="0,0 113.96234572,0 113.96234572,37.5 117.96234572,37.5 117.96234572,0 231.924691441,0 178.324318308,96.6294468576 145.531519601,78.4392749798 143.5912346,81.9371735086 176.384033308,100.127345386 122.783660175,196.756792244 62.4506536167,100.075126134 94.2643413414,80.2221849575 92.1466942826,76.8287249335 60.3330065579,96.68166611" stroke="rgb(0,0,255)" stroke-width="1.0" /><text fill="none" stroke="rgb(246,146,30)" transform="translate(119.96234572,7.5) rotate(180.0)" x="-2.0" y="0">(0,-1) S</text><text fill="none" stroke="rgb(246,146,30)" transform="translate(181.354175808,72.128396122) rotate(-60.9828593754)" x="-2.0" y="0">(0,-1) S</text><text fill="none" stroke="rgb(246,146,30)" transform="translate(66.1918300873,98.378396122) rotate(58.0342812492)" x="-2.0" y="0">(0,-2) E</text></g><g id="triangle0-1" transform="translate(11311.4937644,20)"><text fill="none" stroke="rgb(246,146,30)" x="93.3754995854" y="75.1182356593">0,-1L</text><polygon fill="none" points="0,0 111.375499585,0 111.375499585,37.5 115.375499585,37.5 115.375499585,0 226.750999171,0 171.927646482,95.9408672048 139.368528653,77.3356570164 137.383972899,80.8086295849 169.943090729,99.4138397733 115.119738041,195.354706978 58.5752536357,99.4004304121 90.8829459434,80.3619688736 88.8521767126,76.9158150275 56.5444844049,95.9542765659" stroke="rgb(0,0,255)" stroke-width="1.0" /><text fill="none" stroke="rgb(246,146,30)" transform="translate(117.375499585,7.5) rotate(180.0)" x="-2.0" y="0">(0,-1) E</text><text fill="none" stroke="rgb(246,146,30)" transform="translate(174.935368606,71.427353489) rotate(-60.2551187031)" x="-2.0" y="0">(1,-1) W</text><text fill="none" stroke="rgb(246,146,30)" transform="translate(62.3598690203,97.677353489) rotate(59.4897625939)" x="-2.0" y="0">(0,-1) E</text></g><g id="triangle00" transform="translate(11548.2447636,20)"><text fill="none" stroke="rgb(246,146,30)" x="95.9623457205" y="75.5855974146">0,0L</text><polygon fill="none" points="0,0 113.96234572,0 113.96234572,37.5 117.96234572,37.5 117.96234572,0 231.924691441,0 178.324318308,96.6294468576 145.531519601,78.4392749798 143.5912346,81.9371735086 176.384033308,100.127345386 122.783660175,196.756792244 62.4506536167,100.075126134 94.2643413414,80.2221849575 92.1466942826,76.8287249335 60.3330065579,96.68166611" stroke="rgb(0,0,255)" stroke-width="1.0" /><text fill="none" stroke="rgb(246,146,30)" transform="translate(119.96234572,7.5) rotate(180.0)" x="-2.0" y="0">(0,0) E</text><text fill="none" stroke="rgb(246,146,30)" transform="translate(181.354175808,72.128396122) rotate(-60.9828593754)" x="-2.0" y="0">(0,0) E</text><text fill="none" stroke="rgb(246,146,30)" transform="translate(66.1918300873,98.378396122) rotate(58.0342812492)" x="-2.0" y="0">(0,1) S</text></g><g id="triangle01" transform="translate(11790.169455,20)"><text fill="none" stroke="rgb(246,146,30)" x="105.778823734" y="75.4909344871">0,1L</text><polygon fill="none" points="0,0 123.778823734,0 123.778823734,37.5 127.778823734,37.5 127.778823734,0 251.557647469,0 195.955637141,96.5034629196 163.463034433,77.782331297 161.466113727,81.2482089192 193.958716435,99.9693405418 138.356706108,196.472803461 70.3298856836,99.8716303394 100.990422097,78.2803935326 98.6873568375,75.0099363152 68.0268204242,96.601173122" stroke="rgb(0,0,255)" stroke-width="1.0" /><text fill="none" stroke="rgb(246,146,30)" transform="translate(129.778823734,7.5) rotate(180.0)" x="-2.0" y="0">(0,1) E</text><text fill="none" stroke="rgb(246,146,30)" transform="translate(198.957176788,71.9864017307) rotate(-60.0509180501)" x="-2.0" y="0">(0,1) E</text><text fill="none" stroke="rgb(246,146,30)" transform="translate(73.9783530539,98.2364017307) rotate(54.8466846281)" x="-2.0" y="0">(0,2) S</text></g><g id="triangle1-3" transform="translate(12051.7271025,20)"><text fill="none" stroke="rgb(246,146,30)" x="105.778823734" y="75.4909344871">1,-3L</text><polygon fill="none" points="0,0 123.778823734,0 123.778823734,37.5 127.778823734,37.5 127.778823734,0 251.557647469,0 195.955637141,96.5034629196 163.463034433,77.782331297 161.466113727,81.2482089192 193.958716435,99.9693405418 138.356706108,196.472803461 70.3298856836,99.8716303394 100.990422097,78.2803935326 98.6873568375,75.0099363152 68.0268204242,96.601173122" stroke="rgb(0,0,255)" stroke-width="1.0" /><text fill="none" stroke="rgb(246,146,30)" transform="translate(129.778823734,7.5) rotate(180.0)" x="-2.0" y="0">(1,-3) E</text><text fill="none" stroke="rgb(246,146,30)" transform="translate(198.957176788,71.9864017307) rotate(-60.0509180501)" x="-2.0" y="0">(1,-2) S</text><text fill="none" stroke="rgb(246,146,30)" transform="translate(73.9783530539,98.2364017307) rotate(54.8466846281)" x="-2.0" y="0">(1,-2) S</text></g><g id="triangle1-2" transform="translate(12313.2847499,20)"><text fill="none" stroke="rgb(246,146,30)" x="100.150052669" y="75.1000284073">1,-2L</text><polygon fill="none" points="0,0 118.150052669,0 118.150052669,37.5 122.150052669,37.5 122.150052669,0 240.300105337,0 183.710117435,95.9274474653 151.411458454,76.8736649529 149.379054986,80.3188552442 181.677713967,99.3726377566 125.087726066,195.300085222 63.622555649,99.3342107261 95.2007078083,79.1087241756 93.0433225762,75.7403879453 61.4651704169,95.9658744958" stroke="rgb(0,0,255)" stroke-width="1.0" /><text fill="none" stroke="rgb(246,146,30)" transform="translate(124.150052669,7.5) rotate(180.0)" x="-2.0" y="0">(1,-2) E</text><text fill="none" stroke="rgb(246,146,30)" transform="translate(186.693915701,71.4000426109) rotate(-59.4625879552)" x="-2.0" y="0">(2,-2) W</text><text fill="none" stroke="rgb(246,146,30)" transform="translate(67.3438630329,97.6500426109) rotate(57.3608497187)" x="-2.0" y="0">(1,-1) S</text></g><g id="triangle1-1" transform="translate(12563.5848553,20)"><text fill="none" stroke="rgb(246,146,30)" x="100.150052669" y="75.1000284073">1,-1L</text><polygon fill="none" points="0,0 118.150052669,0 118.150052669,37.5 122.150052669,37.5 122.150052669,0 240.300105337,0 183.710117435,95.9274474653 151.411458454,76.8736649529 149.379054986,80.3188552442 181.677713967,99.3726377566 125.087726066,195.300085222 63.622555649,99.3342107261 95.2007078083,79.1087241756 93.0433225762,75.7403879453 61.4651704169,95.9658744958" stroke="rgb(0,0,255)" stroke-width="1.0" /><text fill="none" stroke="rgb(246,146,30)" transform="translate(124.150052669,7.5) rotate(180.0)" x="-2.0" y="0">(1,-1) E</text><text fill="none" stroke="rgb(246,146,30)" transform="translate(186.693915701,71.4000426109) rotate(-59.4625879552)" x="-2.0" y="0">(2,-1) W</text><text fill="none" stroke="rgb(246,146,30)" transform="translate(67.3438630329,97.6500426109) rotate(57.3608497187)" x="-2.0" y="0">(1,-1) E</text></g><g id="triangle10" transform="translate(12813.8849606,20)"><text fill="none" stroke="rgb(246,146,30)" x="105.778823734" y="75.4909344871">1,0L</text><polygon fill="none" points="0,0 123.778823734,0 123.778823734,37.5 127.778823734,37.5 127.778823734,0 251.557647469,0 195.955637141,96.5034629196 163.463034433,77.782331297 161.466113727,81.2482089192 193.958716435,99.9693405418 138.356706108,196.472803461 70.3298856836,99.8716303394 100.990422097,78.2803935326 98.6873568375,75.0099363152 68.0268204242,96.601173122" stroke="rgb(0,0,255)" stroke-width="1.0" /><text fill="none" stroke="rgb(246,146,30)" transform="translate(129.778823734,7.5) rotate(180.0)" x="-2.0" y="0">(1,0) E</text><text fill="none" stroke="rgb(246,146,30)" transform="translate(198.957176788,71.9864017307) rotate(-60.0509180501)" x="-2.0" y="0">(1,0) E</text><text fill="none" stroke="rgb(246,146,30)" transform="translate(73.9783530539,98.2364017307) rotate(54.8466846281)" x="-2.0" y="0">(1,0) E</text></g><g id="triangle2-3" transform="translate(13075.4426081,20)"><text fill="none" stroke="rgb(246,146,30)" x="112.66535967" y="75.0734243897">2,-3L</text><polygon fill="none" points="0,0 130.66535967,0 130.66535967,37.5 134.66535967,37.5 134.66535967,0 265.330719339,0 203.804360994,95.9266567277 172.239113679,75.681035919 170.079580793,79.0479956326 201.644828108,99.2936164413 140.118469763,195.220273169 71.2254305399,99.2349404762 101.69050351,77.3687718836 99.3581121936,74.1191641001 68.8930392234,95.9853326928" stroke="rgb(0,0,255)" stroke-width="1.0" /><text fill="none" stroke="rgb(246,146,30)" transform="translate(136.66535967,7.5) rotate(180.0)" x="-2.0" y="0">(2,-3) E</text><text fill="none" stroke="rgb(246,146,30)" transform="translate(206.724594551,71.3601365845) rotate(-57.3243104133)" x="-2.0" y="0">(3,-3) W</text><text fill="none" stroke="rgb(246,146,30)" transform="translate(74.8592348817,97.6101365845) rotate(54.3312762775)" x="-2.0" y="0">(2,-2) S</text></g><g id="triangle2-2" transform="translate(13350.7733274,20)"><text fill="none" stroke="rgb(246,146,30)" x="105.778823734" y="77.082039325">2,-2L</text><polygon fill="none" points="0,0 123.778823734,0 123.778823734,37.5 127.778823734,37.5 127.778823734,0 251.557647469,0 202.140545166,98.8342046055 168.599525503,82.0636947742 166.810671121,85.6414035382 200.351690784,102.411913369 150.934588481,201.246117975 76.6672942406,102.223058987 106.667294241,79.7230589875 104.267294241,76.5230589875 74.2672942406,99.0230589875" stroke="rgb(0,0,255)" stroke-width="1.0" /><text fill="none" stroke="rgb(246,146,30)" transform="translate(129.778823734,7.5) rotate(180.0)" x="-2.0" y="0">(2,-2) E</text><text fill="none" stroke="rgb(246,146,30)" transform="translate(205.246117975,74.3730589875) rotate(-63.4349488229)" x="-2.0" y="0">(3,-2) W</text><text fill="none" stroke="rgb(246,146,30)" transform="translate(80.2672942406,100.623058987) rotate(53.1301023542)" x="-2.0" y="0">(2,-2) E</text></g><g id="triangle2-1" transform="translate(13612.3309749,20)"><text fill="none" stroke="rgb(246,146,30)" x="112.66535967" y="75.0734243897">2,-1L</text><polygon fill="none" points="0,0 130.66535967,0 130.66535967,37.5 134.66535967,37.5 134.66535967,0 265.330719339,0 203.804360994,95.9266567277 172.239113679,75.681035919 170.079580793,79.0479956326 201.644828108,99.2936164413 140.118469763,195.220273169 71.2254305399,99.2349404762 101.69050351,77.3687718836 99.3581121936,74.1191641001 68.8930392234,95.9853326928" stroke="rgb(0,0,255)" stroke-width="1.0" /><text fill="none" stroke="rgb(246,146,30)" transform="translate(136.66535967,7.5) rotate(180.0)" x="-2.0" y="0">(2,-1) E</text><text fill="none" stroke="rgb(246,146,30)" transform="translate(206.724594551,71.3601365845) rotate(-57.3243104133)" x="-2.0" y="0">(3,-1) W</text><text fill="none" stroke="rgb(246,146,30)" transform="translate(74.8592348817,97.6101365845) rotate(54.3312762775)" x="-2.0" y="0">(2,-1) E</text></g></svg>