<?xml version="1.0" encoding="UTF-8" standalone="no"?>
<svg
   xmlns:dc="http://purl.org/dc/elements/1.1/"
   xmlns:cc="http://creativecommons.org/ns#"
   xmlns:rdf="http://www.w3.org/1999/02/22-rdf-syntax-ns#"
   xmlns:svg="http://www.w3.org/2000/svg"
   xmlns="http://www.w3.org/2000/svg"
   xmlns:sodipodi="http://sodipodi.sourceforge.net/DTD/sodipodi-0.dtd"
   xmlns:inkscape="http://www.inkscape.org/namespaces/inkscape"
   height="100%"
   version="1.1"
   width="100%"
   id="svg2"
   inkscape:version="0.91 r13725"
   sodipodi:docname="modified.svg">
  <metadata
     id="metadata212">
    <rdf:RDF>
      <cc:Work
         rdf:about="">
        <dc:format>image/svg+xml</dc:format>
        <dc:type
           rdf:resource="http://purl.org/dc/dcmitype/StillImage" />
        <dc:title></dc:title>
      </cc:Work>
    </rdf:RDF>
  </metadata>
  <sodipodi:namedview
     pagecolor="#ffffff"
     bordercolor="#666666"
     borderopacity="1"
     objecttolerance="10"
     gridtolerance="10"
     guidetolerance="10"
     inkscape:pageopacity="0"
     inkscape:pageshadow="2"
     inkscape:window-width="1280"
     inkscape:window-height="687"
     id="namedview210"
     showgrid="false"
     inkscape:zoom="0.72754395"
     inkscape:cx="389.06888"
     inkscape:cy="-258.20748"
     inkscape:window-x="0"
     inkscape:window-y="0"
     inkscape:window-maximized="1"
     inkscape:current-layer="svg2" />
  <defs
     id="defs4" />
  <g
     id="triangle-20"
     transform="translate(-28,24)"
     style="fill:#ff0000">
    <text
       x="318.83072"
       y="27.635872"
       id="text7"
       style="fill:#ff0000">-2,0L</text>
    <polygon
       points="0,0 677.66142,0 450.88888,52.907618 "
       id="polygon9"
       style="fill:none;stroke:#000000;stroke-width:1" />
    <text
       transform="matrix(-1,0,0,-1,348.83071,4)"
       x="-5"
       y="0"
       id="text11"
       style="fill:#ff0000">(-2,0) W</text>
    <text
       transform="matrix(0.22720529,-0.97384689,0.97384689,0.22720529,574.27515,12.453809)"
       x="-5"
       y="0"
       id="text13"
       style="fill:#ff0000">(-2,0) W</text>
    <text
       transform="matrix(0.99318587,0.11654113,-0.11654113,0.99318587,237.44444,26.453809)"
       x="-5"
       y="0"
       id="text15"
       style="fill:#ff0000">(-2,0) S</text>
    <rect
       height="20"
       transform="translate(338.83071,0)"
       width="10"
       x="-5"
       y="0"
       id="rect17"
       style="fill:none;stroke:#000000" />
    <rect
       height="20"
       transform="matrix(-0.97384689,0.22720529,-0.22720529,-0.97384689,564.27515,26.453809)"
       width="10"
       x="-5"
       y="0"
       id="rect19"
       style="fill:none;stroke:#000000" />
    <rect
       height="20"
       transform="matrix(-0.99318587,-0.11654113,0.11654113,-0.99318587,225.44444,26.453809)"
       width="10"
       x="-5"
       y="0"
       id="rect21"
       style="fill:none;stroke:#000000" />
  </g>
  <g
     id="triangle-21"
     transform="translate(-163.52487,201.43234)"
     style="fill:#ff0000">
    <text
       x="318.83072"
       y="27.635872"
       id="text24"
       style="fill:#ff0000">-2,1L</text>
    <polygon
       points="677.66142,0 450.88888,52.907618 0,0 "
       id="polygon26"
       style="fill:none;stroke:#000000;stroke-width:1" />
    <text
       transform="matrix(-1,0,0,-1,348.83071,4)"
       x="-5"
       y="0"
       id="text28"
       style="fill:#ff0000">(-2,1) S</text>
    <text
       transform="matrix(0.22720529,-0.97384689,0.97384689,0.22720529,574.27515,12.453809)"
       x="-5"
       y="0"
       id="text30"
       style="fill:#ff0000">(-2,1) W</text>
    <text
       transform="matrix(0.99318587,0.11654113,-0.11654113,0.99318587,237.44444,26.453809)"
       x="-5"
       y="0"
       id="text32"
       style="fill:#ff0000">(-2,1) W</text>
    <rect
       height="20"
       transform="translate(338.83071,0)"
       width="10"
       x="-5"
       y="0"
       id="rect34"
       style="fill:none;stroke:#000000" />
    <rect
       height="20"
       transform="matrix(-0.97384689,0.22720529,-0.22720529,-0.97384689,564.27515,26.453809)"
       width="10"
       x="-5"
       y="0"
       id="rect36"
       style="fill:none;stroke:#000000" />
    <rect
       height="20"
       transform="matrix(-0.99318587,-0.11654113,0.11654113,-0.99318587,225.44444,26.453809)"
       width="10"
       x="-5"
       y="0"
       id="rect38"
       style="fill:none;stroke:#000000" />
  </g>
  <g
     id="triangle-1-1"
     transform="translate(52.308781,360.87288)"
     style="fill:#ff0000">
    <text
       x="206.9912"
       y="29.956284"
       id="text41"
       style="fill:#ff0000">-1,-1L</text>
    <polygon
       points="450.01747,59.868852 0,0 453.98238,0 "
       id="polygon43"
       style="fill:none;stroke:#000000;stroke-width:1" />
    <text
       transform="matrix(-1,0,0,-1,236.99119,4)"
       x="-5"
       y="0"
       id="text45"
       style="fill:#ff0000">(-1,-1) S</text>
    <text
       transform="matrix(0.99781421,-0.06608186,0.06608186,0.99781421,461.99992,15.934426)"
       x="-5"
       y="0"
       id="text47"
       style="fill:#ff0000">(-1,-1) S</text>
    <text
       transform="matrix(0.99126638,0.13187484,-0.13187484,0.99126638,237.00873,29.934426)"
       x="-5"
       y="0"
       id="text49"
       style="fill:#ff0000">(-1,-1) W</text>
    <rect
       height="20"
       transform="translate(226.99119,0)"
       width="10"
       x="-5"
       y="0"
       id="rect51"
       style="fill:none;stroke:#000000" />
    <rect
       height="20"
       transform="matrix(-0.06608186,0.99781421,-0.99781421,-0.06608186,451.99992,29.934426)"
       width="10"
       x="-5"
       y="0"
       id="rect53"
       style="fill:none;stroke:#000000" />
    <rect
       height="20"
       transform="matrix(-0.99126638,-0.13187484,0.13187484,-0.99126638,225.00873,29.934426)"
       width="10"
       x="-5"
       y="0"
       id="rect55"
       style="fill:none;stroke:#000000" />
  </g>
  <g
     id="triangle-10"
     transform="translate(-129.22408,123.46514)"
     style="fill:#ff0000">
    <text
       x="96.431313"
       y="29.83333"
       id="text58"
       style="fill:#ff0000">-1,0L</text>
    <polygon
       points="232.86262,0 225.13274,59.499991 0,0 "
       id="polygon60"
       style="fill:none;stroke:#000000;stroke-width:1" />
    <text
       transform="matrix(-1,0,0,-1,126.43131,4)"
       x="-5"
       y="0"
       id="text62"
       style="fill:#ff0000">(-1,0) W</text>
    <text
       transform="matrix(0.99166652,-0.12883133,0.12883133,0.99166652,238.99768,15.749996)"
       x="-5"
       y="0"
       id="text64"
       style="fill:#ff0000">(-1,0) W</text>
    <text
       transform="matrix(0.96680498,0.25551542,-0.25551542,0.96680498,124.56637,29.749996)"
       x="-5"
       y="0"
       id="text66"
       style="fill:#ff0000">(-1,0) S</text>
    <rect
       height="20"
       transform="translate(116.43131,0)"
       width="10"
       x="-5"
       y="0"
       id="rect68"
       style="fill:none;stroke:#000000" />
    <rect
       height="20"
       transform="matrix(-0.12883133,0.99166652,-0.99166652,-0.12883133,228.99768,29.749996)"
       width="10"
       x="-5"
       y="0"
       id="rect70"
       style="fill:none;stroke:#000000" />
    <rect
       height="20"
       transform="matrix(-0.96680498,-0.25551542,0.25551542,-0.96680498,112.56637,29.749996)"
       width="10"
       x="-5"
       y="0"
       id="rect72"
       style="fill:none;stroke:#000000" />
  </g>
  <g
     id="triangle-11"
     transform="translate(109.63854,119.46514)"
     style="fill:#ff0000">
    <text
       x="206.9912"
       y="29.956284"
       id="text75"
       style="fill:#ff0000">-1,1L</text>
    <polygon
       points="450.01747,59.868852 0,0 453.98238,0 "
       id="polygon77"
       style="fill:none;stroke:#000000;stroke-width:1" />
    <text
       transform="matrix(-1,0,0,-1,236.99119,4)"
       x="-5"
       y="0"
       id="text79"
       style="fill:#ff0000">(-1,1) S</text>
    <text
       transform="matrix(0.99781421,-0.06608186,0.06608186,0.99781421,461.99992,15.934426)"
       x="-5"
       y="0"
       id="text81"
       style="fill:#ff0000">(-1,1) E</text>
    <text
       transform="matrix(0.99126638,0.13187484,-0.13187484,0.99126638,237.00873,29.934426)"
       x="-5"
       y="0"
       id="text83"
       style="fill:#ff0000">(-1,1) S</text>
    <rect
       height="20"
       transform="translate(226.99119,0)"
       width="10"
       x="-5"
       y="0"
       id="rect85"
       style="fill:none;stroke:#000000" />
    <rect
       height="20"
       transform="matrix(-0.06608186,0.99781421,-0.99781421,-0.06608186,451.99992,29.934426)"
       width="10"
       x="-5"
       y="0"
       id="rect87"
       style="fill:none;stroke:#000000" />
    <rect
       height="20"
       transform="matrix(-0.99126638,-0.13187484,0.13187484,-0.99126638,225.00873,29.934426)"
       width="10"
       x="-5"
       y="0"
       id="rect89"
       style="fill:none;stroke:#000000" />
  </g>
  <g
     id="triangle0-2"
     transform="translate(-69.663788,275.39953)"
     style="fill:#ff0000">
    <text
       x="318.83072"
       y="27.635872"
       id="text92"
       style="fill:#ff0000">0,-2L</text>
    <polygon
       points="677.66142,0 450.88888,52.907618 0,0 "
       id="polygon94"
       style="fill:none;stroke:#000000;stroke-width:1" />
    <text
       transform="matrix(-1,0,0,-1,348.83071,4)"
       x="-5"
       y="0"
       id="text96"
       style="fill:#ff0000">(0,-2) S</text>
    <text
       transform="matrix(0.22720529,-0.97384689,0.97384689,0.22720529,574.27515,12.453809)"
       x="-5"
       y="0"
       id="text98"
       style="fill:#ff0000">(0,-2) E</text>
    <text
       transform="matrix(0.99318587,0.11654113,-0.11654113,0.99318587,237.44444,26.453809)"
       x="-5"
       y="0"
       id="text100"
       style="fill:#ff0000">(0,-2) S</text>
    <rect
       height="20"
       transform="translate(338.83071,0)"
       width="10"
       x="-5"
       y="0"
       id="rect102"
       style="fill:none;stroke:#000000" />
    <rect
       height="20"
       transform="matrix(-0.97384689,0.22720529,-0.22720529,-0.97384689,564.27515,26.453809)"
       width="10"
       x="-5"
       y="0"
       id="rect104"
       style="fill:none;stroke:#000000" />
    <rect
       height="20"
       transform="matrix(-0.99318587,-0.11654113,0.11654113,-0.99318587,225.44444,26.453809)"
       width="10"
       x="-5"
       y="0"
       id="rect106"
       style="fill:none;stroke:#000000" />
  </g>
  <g
     id="triangle0-1"
     transform="matrix(-1,0,0,-1,350.0642,191.99338)"
     style="fill:#ff0000">
    <text
       x="96.431313"
       y="29.83333"
       id="text109"
       style="fill:#ff0000">0,-1L</text>
    <polygon
       points="0,0 232.86262,0 225.13274,59.499991 "
       id="polygon111"
       style="fill:none;stroke:#000000;stroke-width:1" />
    <text
       transform="matrix(-1,0,0,-1,126.43131,4)"
       x="-5"
       y="0"
       id="text113"
       style="fill:#ff0000">(0,-1) S</text>
    <text
       transform="matrix(0.99166652,-0.12883133,0.12883133,0.99166652,238.99768,15.749996)"
       x="-5"
       y="0"
       id="text115"
       style="fill:#ff0000">(0,-1) E</text>
    <text
       transform="matrix(0.96680498,0.25551542,-0.25551542,0.96680498,124.56637,29.749996)"
       x="-5"
       y="0"
       id="text117"
       style="fill:#ff0000">(0,-1) S</text>
    <rect
       height="20"
       transform="translate(116.43131,0)"
       width="10"
       x="-5"
       y="0"
       id="rect119"
       style="fill:none;stroke:#000000" />
    <rect
       height="20"
       transform="matrix(-0.12883133,0.99166652,-0.99166652,-0.12883133,228.99768,29.749996)"
       width="10"
       x="-5"
       y="0"
       id="rect121"
       style="fill:none;stroke:#000000" />
    <rect
       height="20"
       transform="matrix(-0.96680498,-0.25551542,0.25551542,-0.96680498,112.56637,29.749996)"
       width="10"
       x="-5"
       y="0"
       id="rect123"
       style="fill:none;stroke:#000000" />
  </g>
  <g
     id="triangle00"
     transform="matrix(0.95003516,-0.31214291,0.31214291,0.95003516,314.43609,269.90386)"
     style="fill:#ff0000">
    <text
       x="96.431313"
       y="29.83333"
       id="text126"
       style="fill:#ff0000">0,0L</text>
    <polygon
       points="0,0 232.86262,0 225.13274,59.499991 "
       id="polygon128"
       style="fill:none;stroke:#000000;stroke-width:1" />
    <text
       transform="matrix(-1,0,0,-1,126.43131,4)"
       x="-5"
       y="0"
       id="text130"
       style="fill:#ff0000">(0,0) S</text>
    <text
       transform="matrix(0.99166652,-0.12883133,0.12883133,0.99166652,238.99768,15.749996)"
       x="-5"
       y="0"
       id="text132"
       style="fill:#ff0000">(0,0) S</text>
    <text
       transform="matrix(0.96680498,0.25551542,-0.25551542,0.96680498,124.56637,29.749996)"
       x="-5"
       y="0"
       id="text134"
       style="fill:#ff0000">(0,0) W</text>
    <rect
       height="20"
       transform="translate(116.43131,0)"
       width="10"
       x="-5"
       y="0"
       id="rect136"
       style="fill:none;stroke:#000000" />
    <rect
       height="20"
       transform="matrix(-0.12883133,0.99166652,-0.99166652,-0.12883133,228.99768,29.749996)"
       width="10"
       x="-5"
       y="0"
       id="rect138"
       style="fill:none;stroke:#000000" />
    <rect
       height="20"
       transform="matrix(-0.96680498,-0.25551542,0.25551542,-0.96680498,112.56637,29.749996)"
       width="10"
       x="-5"
       y="0"
       id="rect140"
       style="fill:none;stroke:#000000" />
  </g>
  <g
     id="triangle01"
     transform="matrix(-1,0,0,-1,546.0949,352.407)"
     style="fill:#ff0000">
    <text
       x="318.83072"
       y="27.635872"
       id="text143"
       style="fill:#ff0000">0,1L</text>
    <polygon
       points="677.66142,0 450.88888,52.907618 0,0 "
       id="polygon145"
       style="fill:none;stroke:#000000;stroke-width:1" />
    <text
       transform="matrix(-1,0,0,-1,348.83071,4)"
       x="-5"
       y="0"
       id="text147"
       style="fill:#ff0000">(0,1) S</text>
    <text
       transform="matrix(0.22720529,-0.97384689,0.97384689,0.22720529,574.27515,12.453809)"
       x="-5"
       y="0"
       id="text149"
       style="fill:#ff0000">(0,1) S</text>
    <text
       transform="matrix(0.99318587,0.11654113,-0.11654113,0.99318587,237.44444,26.453809)"
       x="-5"
       y="0"
       id="text151"
       style="fill:#ff0000">(0,1) S</text>
    <rect
       height="20"
       transform="translate(338.83071,0)"
       width="10"
       x="-5"
       y="0"
       id="rect153"
       style="fill:none;stroke:#000000" />
    <rect
       height="20"
       transform="matrix(-0.97384689,0.22720529,-0.22720529,-0.97384689,564.27515,26.453809)"
       width="10"
       x="-5"
       y="0"
       id="rect155"
       style="fill:none;stroke:#000000" />
    <rect
       height="20"
       transform="matrix(-0.99318587,-0.11654113,0.11654113,-0.99318587,225.44444,26.453809)"
       width="10"
       x="-5"
       y="0"
       id="rect157"
       style="fill:none;stroke:#000000" />
  </g>
  <g
     id="triangle1-2"
     transform="matrix(-1,0,0,-1,517.87531,97.31412)"
     style="fill:#ff0000">
    <text
       x="318.83072"
       y="27.635872"
       id="text160"
       style="fill:#ff0000">1,-2L</text>
    <polygon
       points="450.88888,52.907618 0,0 677.66142,0 "
       id="polygon162"
       style="fill:none;stroke:#000000;stroke-width:1" />
    <text
       transform="matrix(-1,0,0,-1,348.83071,4)"
       x="-5"
       y="0"
       id="text164"
       style="fill:#ff0000">(1,-2) S</text>
    <text
       transform="matrix(0.22720529,-0.97384689,0.97384689,0.22720529,574.27515,12.453809)"
       x="-5"
       y="0"
       id="text166"
       style="fill:#ff0000">(1,-2) E</text>
    <text
       transform="matrix(0.99318587,0.11654113,-0.11654113,0.99318587,237.44444,26.453809)"
       x="-5"
       y="0"
       id="text168"
       style="fill:#ff0000">(1,-2) W</text>
    <rect
       height="20"
       transform="translate(338.83071,0)"
       width="10"
       x="-5"
       y="0"
       id="rect170"
       style="fill:none;stroke:#000000" />
    <rect
       height="20"
       transform="matrix(-0.97384689,0.22720529,-0.22720529,-0.97384689,564.27515,26.453809)"
       width="10"
       x="-5"
       y="0"
       id="rect172"
       style="fill:none;stroke:#000000" />
    <rect
       height="20"
       transform="matrix(-0.99318587,-0.11654113,0.11654113,-0.99318587,225.44444,26.453809)"
       width="10"
       x="-5"
       y="0"
       id="rect174"
       style="fill:none;stroke:#000000" />
  </g>
  <g
     id="triangle1-1"
     transform="matrix(-1,0,0,-1,295.15711,268.94656)"
     style="fill:#ff0000">
    <text
       x="206.9912"
       y="29.956284"
       id="text177"
       style="fill:#ff0000">1,-1L</text>
    <polygon
       points="450.01747,59.868852 0,0 453.98238,0 "
       id="polygon179"
       style="fill:none;stroke:#000000;stroke-width:1" />
    <text
       transform="matrix(-1,0,0,-1,236.99119,4)"
       x="-5"
       y="0"
       id="text181"
       style="fill:#ff0000">(1,-1) W</text>
    <text
       transform="matrix(0.99781421,-0.06608186,0.06608186,0.99781421,461.99992,15.934426)"
       x="-5"
       y="0"
       id="text183"
       style="fill:#ff0000">(1,-1) W</text>
    <text
       transform="matrix(0.99126638,0.13187484,-0.13187484,0.99126638,237.00873,29.934426)"
       x="-5"
       y="0"
       id="text185"
       style="fill:#ff0000">(1,-1) S</text>
    <rect
       height="20"
       transform="translate(226.99119,0)"
       width="10"
       x="-5"
       y="0"
       id="rect187"
       style="fill:none;stroke:#000000" />
    <rect
       height="20"
       transform="matrix(-0.06608186,0.99781421,-0.99781421,-0.06608186,451.99992,29.934426)"
       width="10"
       x="-5"
       y="0"
       id="rect189"
       style="fill:none;stroke:#000000" />
    <rect
       height="20"
       transform="matrix(-0.99126638,-0.13187484,0.13187484,-0.99126638,225.00873,29.934426)"
       width="10"
       x="-5"
       y="0"
       id="rect191"
       style="fill:none;stroke:#000000" />
  </g>
  <g
     id="triangle10"
     transform="matrix(-1,0,0,-1,497.89424,421.47779)"
     style="fill:#ff0000">
    <text
       x="318.83072"
       y="27.635872"
       id="text194"
       style="fill:#ff0000">1,0L</text>
    <polygon
       points="450.88888,52.907618 0,0 677.66142,0 "
       id="polygon196"
       style="fill:none;stroke:#000000;stroke-width:1" />
    <text
       transform="matrix(-1,0,0,-1,348.83071,4)"
       x="-5"
       y="0"
       id="text198"
       style="fill:#ff0000">(1,0) S</text>
    <text
       transform="matrix(0.22720529,-0.97384689,0.97384689,0.22720529,574.27515,12.453809)"
       x="-5"
       y="0"
       id="text200"
       style="fill:#ff0000">(1,0) S</text>
    <text
       transform="matrix(0.99318587,0.11654113,-0.11654113,0.99318587,237.44444,26.453809)"
       x="-5"
       y="0"
       id="text202"
       style="fill:#ff0000">(1,0) W</text>
    <rect
       height="20"
       transform="translate(338.83071,0)"
       width="10"
       x="-5"
       y="0"
       id="rect204"
       style="fill:none;stroke:#000000" />
    <rect
       height="20"
       transform="matrix(-0.97384689,0.22720529,-0.22720529,-0.97384689,564.27515,26.453809)"
       width="10"
       x="-5"
       y="0"
       id="rect206"
       style="fill:none;stroke:#000000" />
    <rect
       height="20"
       transform="matrix(-0.99318587,-0.11654113,0.11654113,-0.99318587,225.44444,26.453809)"
       width="10"
       x="-5"
       y="0"
       id="rect208"
       style="fill:none;stroke:#000000" />
  </g>
</svg>
