<?xml version="1.0" encoding="UTF-8" standalone="no"?>
<!-- Created with Inkscape (http://www.inkscape.org/) -->

<svg
   xmlns:dc="http://purl.org/dc/elements/1.1/"
   xmlns:cc="http://creativecommons.org/ns#"
   xmlns:rdf="http://www.w3.org/1999/02/22-rdf-syntax-ns#"
   xmlns:svg="http://www.w3.org/2000/svg"
   xmlns="http://www.w3.org/2000/svg"
   xmlns:sodipodi="http://sodipodi.sourceforge.net/DTD/sodipodi-0.dtd"
   xmlns:inkscape="http://www.inkscape.org/namespaces/inkscape"
   width="744.09448819"
   height="1052.3622047"
   id="svg4456"
   version="1.1"
   inkscape:version="0.48.4 r9939"
   sodipodi:docname="2.svg">
  <defs
     id="defs4458" />
  <sodipodi:namedview
     id="base"
     pagecolor="#ffffff"
     bordercolor="#666666"
     borderopacity="1.0"
     inkscape:pageopacity="0.0"
     inkscape:pageshadow="2"
     inkscape:zoom="0.49497475"
     inkscape:cx="402.40644"
     inkscape:cy="519.737"
     inkscape:document-units="px"
     inkscape:current-layer="layer1"
     showgrid="false"
     inkscape:window-width="861"
     inkscape:window-height="676"
     inkscape:window-x="1985"
     inkscape:window-y="121"
     inkscape:window-maximized="0" />
  <metadata
     id="metadata4461">
    <rdf:RDF>
      <cc:Work
         rdf:about="">
        <dc:format>image/svg+xml</dc:format>
        <dc:type
           rdf:resource="http://purl.org/dc/dcmitype/StillImage" />
        <dc:title></dc:title>
      </cc:Work>
    </rdf:RDF>
  </metadata>
  <g
     inkscape:label="Layer 1"
     inkscape:groupmode="layer"
     id="layer1">
    <g
       id="triangle-20"
       transform="matrix(0,3.5433071,-3.5433071,0,374.80229,264.53631)"
       style="stroke-width:0.1;stroke-miterlimit:4;stroke-dasharray:none">
      <text
         x="33.400024"
         y="38.933346"
         id="text53"
         style="fill:none;stroke:#f6921e;stroke-width:0.1;stroke-miterlimit:4;stroke-dasharray:none">-2,0L</text>
      <polygon
         points="65.826135,36.654266 80.181094,45.122614 55.594545,86.800038 28.875965,45.084187 42.910699,36.095082 40.753314,32.726746 26.71858,41.715851 0,0 51.400023,0 51.400023,16.666667 55.400023,16.666667 55.400023,0 106.80005,0 82.213498,41.677424 67.858538,33.209076 "
         id="polygon55"
         style="fill:none;stroke:#0000ff;stroke-width:0.1;stroke-miterlimit:4;stroke-dasharray:none" />
      <text
         transform="matrix(-1,0,0,-1,57.400023,3.3333333)"
         x="-2"
         y="0"
         id="text57"
         style="fill:none;stroke:#f6921e;stroke-width:0.1;stroke-miterlimit:4;stroke-dasharray:none">(-2,0) W</text>
      <text
         transform="matrix(0.50810087,-0.86129757,0.86129757,0.50810087,85.197296,31.733352)"
         x="-2"
         y="0"
         id="text59"
         style="fill:none;stroke:#f6921e;stroke-width:0.1;stroke-miterlimit:4;stroke-dasharray:none">(-2,0) W</text>
      <text
         transform="matrix(0.53934631,0.84208406,-0.84208406,0.53934631,32.597272,43.400019)"
         x="-2"
         y="0"
         id="text61"
         style="fill:none;stroke:#f6921e;stroke-width:0.1;stroke-miterlimit:4;stroke-dasharray:none">(-2,0) S</text>
    </g>
    <g
       id="triangle-21"
       transform="matrix(0,3.5433071,-3.5433071,0,374.80229,642.96162)"
       style="stroke-width:0.1;stroke-miterlimit:4;stroke-dasharray:none">
      <text
         x="33.400024"
         y="38.933346"
         id="text64"
         style="fill:none;stroke:#f6921e;stroke-width:0.1;stroke-miterlimit:4;stroke-dasharray:none">-2,1L</text>
      <polygon
         points="65.826135,36.654266 80.181094,45.122614 55.594545,86.800038 28.875965,45.084187 42.910699,36.095082 40.753314,32.726746 26.71858,41.715851 0,0 51.400023,0 51.400023,16.666667 55.400023,16.666667 55.400023,0 106.80005,0 82.213498,41.677424 67.858538,33.209076 "
         id="polygon66"
         style="fill:none;stroke:#0000ff;stroke-width:0.1;stroke-miterlimit:4;stroke-dasharray:none" />
      <text
         transform="matrix(-1,0,0,-1,57.400023,3.3333333)"
         x="-2"
         y="0"
         id="text68"
         style="fill:none;stroke:#f6921e;stroke-width:0.1;stroke-miterlimit:4;stroke-dasharray:none">(-2,1) S</text>
      <text
         transform="matrix(0.50810087,-0.86129757,0.86129757,0.50810087,85.197296,31.733352)"
         x="-2"
         y="0"
         id="text70"
         style="fill:none;stroke:#f6921e;stroke-width:0.1;stroke-miterlimit:4;stroke-dasharray:none">(-2,1) W</text>
      <text
         transform="matrix(0.53934631,0.84208406,-0.84208406,0.53934631,32.597272,43.400019)"
         x="-2"
         y="0"
         id="text72"
         style="fill:none;stroke:#f6921e;stroke-width:0.1;stroke-miterlimit:4;stroke-dasharray:none">(-2,1) W</text>
    </g>
    <g
       id="triangle-22"
       transform="matrix(0,3.5433071,-3.5433071,0,733.65944,374.52987)"
       style="stroke-width:0.1;stroke-miterlimit:4;stroke-dasharray:none">
      <text
         x="35.901699"
         y="39.107082"
         id="text75"
         style="fill:none;stroke:#f6921e;stroke-width:0.1;stroke-miterlimit:4;stroke-dasharray:none">-2,2L</text>
      <polygon
         points="0,0 53.901699,0 53.901699,16.666667 57.901699,16.666667 57.901699,0 111.8034,0 87.646094,41.927684 73.204938,33.607181 71.208017,37.073059 85.649174,45.393562 61.491869,87.321246 31.897467,45.295852 45.524372,35.699746 43.221307,32.429289 29.594402,42.025394 "
         id="polygon77"
         style="fill:none;stroke:#0000ff;stroke-width:0.1;stroke-miterlimit:4;stroke-dasharray:none" />
      <text
         transform="matrix(-1,0,0,-1,59.901699,3.3333333)"
         x="-2"
         y="0"
         id="text79"
         style="fill:none;stroke:#f6921e;stroke-width:0.1;stroke-miterlimit:4;stroke-dasharray:none">(-2,2) S</text>
      <text
         transform="matrix(0.49923018,-0.86646941,0.86646941,0.49923018,90.647634,31.993956)"
         x="-2"
         y="0"
         id="text81"
         style="fill:none;stroke:#f6921e;stroke-width:0.1;stroke-miterlimit:4;stroke-dasharray:none">(-2,2) E</text>
      <text
         transform="matrix(0.57576631,0.8176143,-0.8176143,0.57576631,35.545935,43.660623)"
         x="-2"
         y="0"
         id="text83"
         style="fill:none;stroke:#f6921e;stroke-width:0.1;stroke-miterlimit:4;stroke-dasharray:none">(-2,2) W</text>
    </g>
    <g
       id="g542"
       transform="matrix(0,-3.5433071,3.5433071,0,381.7691,964.94129)"
       style="stroke-width:0.1;stroke-miterlimit:4;stroke-dasharray:none">
      <text
         x="35.901699"
         y="39.107082"
         id="text544"
         style="fill:none;stroke:#f6921e;stroke-width:0.1;stroke-miterlimit:4;stroke-dasharray:none">1,-3L</text>
      <polygon
         points="57.901699,16.666667 57.901699,0 111.8034,0 87.646094,41.927684 73.204938,33.607181 71.208017,37.073059 85.649174,45.393562 61.491869,87.321246 31.897467,45.295852 45.524372,35.699746 43.221307,32.429289 29.594402,42.025394 0,0 53.901699,0 53.901699,16.666667 "
         id="polygon546"
         style="fill:none;stroke:#0000ff;stroke-width:0.1;stroke-miterlimit:4;stroke-dasharray:none" />
      <text
         transform="matrix(-1,0,0,-1,59.901699,3.3333333)"
         x="-2"
         y="0"
         id="text548"
         style="fill:none;stroke:#f6921e;stroke-width:0.1;stroke-miterlimit:4;stroke-dasharray:none">(1,-3) E</text>
      <text
         transform="matrix(0.49923018,-0.86646941,0.86646941,0.49923018,90.647634,31.993956)"
         x="-2"
         y="0"
         id="text550"
         style="fill:none;stroke:#f6921e;stroke-width:0.1;stroke-miterlimit:4;stroke-dasharray:none">(1,-2) S</text>
      <text
         transform="matrix(0.57576631,0.8176143,-0.8176143,0.57576631,35.545935,43.660623)"
         x="-2"
         y="0"
         id="text552"
         style="fill:none;stroke:#f6921e;stroke-width:0.1;stroke-miterlimit:4;stroke-dasharray:none">(1,-2) S</text>
    </g>
    <g
       id="g554"
       transform="matrix(0,-3.5433071,3.5433071,0,381.7691,568.78762)"
       style="stroke-width:0.1;stroke-miterlimit:4;stroke-dasharray:none">
      <text
         x="33.400024"
         y="38.933346"
         id="text556"
         style="fill:none;stroke:#f6921e;stroke-width:0.1;stroke-miterlimit:4;stroke-dasharray:none">1,-2L</text>
      <polygon
         points="55.400023,16.666667 55.400023,0 106.80005,0 82.213498,41.677424 67.858538,33.209076 65.826135,36.654266 80.181094,45.122614 55.594545,86.800038 28.875965,45.084187 42.910699,36.095082 40.753314,32.726746 26.71858,41.715851 0,0 51.400023,0 51.400023,16.666667 "
         id="polygon558"
         style="fill:none;stroke:#0000ff;stroke-width:0.1;stroke-miterlimit:4;stroke-dasharray:none" />
      <text
         transform="matrix(-1,0,0,-1,57.400023,3.3333333)"
         x="-2"
         y="0"
         id="text560"
         style="fill:none;stroke:#f6921e;stroke-width:0.1;stroke-miterlimit:4;stroke-dasharray:none">(1,-2) E</text>
      <text
         transform="matrix(0.50810087,-0.86129757,0.86129757,0.50810087,85.197296,31.733352)"
         x="-2"
         y="0"
         id="text562"
         style="fill:none;stroke:#f6921e;stroke-width:0.1;stroke-miterlimit:4;stroke-dasharray:none">(2,-2) W</text>
      <text
         transform="matrix(0.53934631,0.84208406,-0.84208406,0.53934631,32.597272,43.400019)"
         x="-2"
         y="0"
         id="text564"
         style="fill:none;stroke:#f6921e;stroke-width:0.1;stroke-miterlimit:4;stroke-dasharray:none">(1,-1) S</text>
    </g>
    <g
       id="g566"
       transform="matrix(0,-3.5433071,3.5433071,0,22.911954,837.21921)"
       style="stroke-width:0.1;stroke-miterlimit:4;stroke-dasharray:none">
      <text
         x="33.400024"
         y="38.933346"
         id="text568"
         style="fill:none;stroke:#f6921e;stroke-width:0.1;stroke-miterlimit:4;stroke-dasharray:none">1,-1L</text>
      <polygon
         points="28.875965,45.084187 42.910699,36.095082 40.753314,32.726746 26.71858,41.715851 0,0 51.400023,0 51.400023,16.666667 55.400023,16.666667 55.400023,0 106.80005,0 82.213498,41.677424 67.858538,33.209076 65.826135,36.654266 80.181094,45.122614 55.594545,86.800038 "
         id="polygon570"
         style="fill:none;stroke:#0000ff;stroke-width:0.1;stroke-miterlimit:4;stroke-dasharray:none" />
      <text
         transform="matrix(-1,0,0,-1,57.400023,3.3333333)"
         x="-2"
         y="0"
         id="text572"
         style="fill:none;stroke:#f6921e;stroke-width:0.1;stroke-miterlimit:4;stroke-dasharray:none">(1,-1) E</text>
      <text
         transform="matrix(0.50810087,-0.86129757,0.86129757,0.50810087,85.197296,31.733352)"
         x="-2"
         y="0"
         id="text574"
         style="fill:none;stroke:#f6921e;stroke-width:0.1;stroke-miterlimit:4;stroke-dasharray:none">(2,-1) W</text>
      <text
         transform="matrix(0.53934631,0.84208406,-0.84208406,0.53934631,32.597272,43.400019)"
         x="-2"
         y="0"
         id="text576"
         style="fill:none;stroke:#f6921e;stroke-width:0.1;stroke-miterlimit:4;stroke-dasharray:none">(1,-1) E</text>
    </g>
    <g
       id="g578"
       transform="matrix(0,-3.5433071,3.5433071,0,22.911954,458.79402)"
       style="stroke-width:0.1;stroke-miterlimit:4;stroke-dasharray:none">
      <text
         x="35.901699"
         y="39.107082"
         id="text580"
         style="fill:none;stroke:#f6921e;stroke-width:0.1;stroke-miterlimit:4;stroke-dasharray:none">1,0L</text>
      <polygon
         points="31.897467,45.295852 45.524372,35.699746 43.221307,32.429289 29.594402,42.025394 0,0 53.901699,0 53.901699,16.666667 57.901699,16.666667 57.901699,0 111.8034,0 87.646094,41.927684 73.204938,33.607181 71.208017,37.073059 85.649174,45.393562 61.491869,87.321246 "
         id="polygon582"
         style="fill:none;stroke:#0000ff;stroke-width:0.1;stroke-miterlimit:4;stroke-dasharray:none" />
      <text
         transform="matrix(-1,0,0,-1,59.901699,3.3333333)"
         x="-2"
         y="0"
         id="text584"
         style="fill:none;stroke:#f6921e;stroke-width:0.1;stroke-miterlimit:4;stroke-dasharray:none">(1,0) E</text>
      <text
         transform="matrix(0.49923018,-0.86646941,0.86646941,0.49923018,90.647634,31.993956)"
         x="-2"
         y="0"
         id="text586"
         style="fill:none;stroke:#f6921e;stroke-width:0.1;stroke-miterlimit:4;stroke-dasharray:none">(1,0) E</text>
      <text
         transform="matrix(0.57576631,0.8176143,-0.8176143,0.57576631,35.545935,43.660623)"
         x="-2"
         y="0"
         id="text588"
         style="fill:none;stroke:#f6921e;stroke-width:0.1;stroke-miterlimit:4;stroke-dasharray:none">(1,0) E</text>
    </g>
  </g>
</svg>
