<?xml version="1.0" encoding="UTF-8" standalone="no"?>
<!-- Created with Inkscape (http://www.inkscape.org/) -->

<svg
   xmlns:dc="http://purl.org/dc/elements/1.1/"
   xmlns:cc="http://creativecommons.org/ns#"
   xmlns:rdf="http://www.w3.org/1999/02/22-rdf-syntax-ns#"
   xmlns:svg="http://www.w3.org/2000/svg"
   xmlns="http://www.w3.org/2000/svg"
   xmlns:sodipodi="http://sodipodi.sourceforge.net/DTD/sodipodi-0.dtd"
   xmlns:inkscape="http://www.inkscape.org/namespaces/inkscape"
   width="744.09448819"
   height="1052.3622047"
   id="svg4424"
   version="1.1"
   inkscape:version="0.48.4 r9939"
   sodipodi:docname="New document 7">
  <defs
     id="defs4426" />
  <sodipodi:namedview
     id="base"
     pagecolor="#ffffff"
     bordercolor="#666666"
     borderopacity="1.0"
     inkscape:pageopacity="0.0"
     inkscape:pageshadow="2"
     inkscape:zoom="0.49497475"
     inkscape:cx="414.12217"
     inkscape:cy="436.05474"
     inkscape:document-units="px"
     inkscape:current-layer="layer1"
     showgrid="false"
     inkscape:window-width="1290"
     inkscape:window-height="811"
     inkscape:window-x="2159"
     inkscape:window-y="154"
     inkscape:window-maximized="0" />
  <metadata
     id="metadata4429">
    <rdf:RDF>
      <cc:Work
         rdf:about="">
        <dc:format>image/svg+xml</dc:format>
        <dc:type
           rdf:resource="http://purl.org/dc/dcmitype/StillImage" />
        <dc:title></dc:title>
      </cc:Work>
    </rdf:RDF>
  </metadata>
  <g
     inkscape:label="Layer 1"
     inkscape:groupmode="layer"
     id="layer1">
    <g
       id="triangle0-3"
       transform="matrix(0,3.5433071,-3.5433071,0,354.34076,18.115989)"
       style="stroke-width:0.1;stroke-miterlimit:4;stroke-dasharray:none">
      <text
         x="38.962383"
         y="38.92152"
         id="text141"
         style="fill:none;stroke:#f6921e;stroke-width:0.1;stroke-miterlimit:4;stroke-dasharray:none">0,-3L</text>
      <polygon
         points="77.150587,32.700749 74.991055,36.067709 89.020053,45.065763 62.274875,86.764566 32.303633,45.007087 45.843666,35.28879 43.511274,32.039182 29.971242,41.757479 0,0 56.962382,0 56.962382,16.666667 60.962382,16.666667 60.962382,0 117.92476,0 91.179586,41.698803 "
         id="polygon143"
         style="fill:none;stroke:#0000ff;stroke-width:0.1;stroke-miterlimit:4;stroke-dasharray:none" />
      <text
         transform="matrix(-1,0,0,-1,62.962382,3.3333333)"
         x="-2"
         y="0"
         id="text145"
         style="fill:none;stroke:#f6921e;stroke-width:0.1;stroke-miterlimit:4;stroke-dasharray:none">(0,-3) S</text>
      <text
         transform="matrix(0.53988322,-0.84173993,0.84173993,0.53988322,94.09982,31.715616)"
         x="-2"
         y="0"
         id="text147"
         style="fill:none;stroke:#f6921e;stroke-width:0.1;stroke-miterlimit:4;stroke-dasharray:none">(0,-3) E</text>
      <text
         transform="matrix(0.58309783,0.81240195,-0.81240195,0.58309783,35.937438,43.382283)"
         x="-2"
         y="0"
         id="text149"
         style="fill:none;stroke:#f6921e;stroke-width:0.1;stroke-miterlimit:4;stroke-dasharray:none">(0,-3) S</text>
    </g>
    <g
       id="triangle0-2"
       transform="matrix(0,3.5433071,-3.5433071,0,354.34076,435.95959)"
       style="stroke-width:0.1;stroke-miterlimit:4;stroke-dasharray:none">
      <text
         x="33.400024"
         y="38.933346"
         id="text152"
         style="fill:none;stroke:#f6921e;stroke-width:0.1;stroke-miterlimit:4;stroke-dasharray:none">0,-2L</text>
      <polygon
         points="67.858538,33.209076 65.826135,36.654266 80.181094,45.122614 55.594545,86.800038 28.875965,45.084187 42.910699,36.095082 40.753314,32.726746 26.71858,41.715851 0,0 51.400023,0 51.400023,16.666667 55.400023,16.666667 55.400023,0 106.80005,0 82.213498,41.677424 "
         id="polygon154"
         style="fill:none;stroke:#0000ff;stroke-width:0.1;stroke-miterlimit:4;stroke-dasharray:none" />
      <text
         transform="matrix(-1,0,0,-1,57.400023,3.3333333)"
         x="-2"
         y="0"
         id="text156"
         style="fill:none;stroke:#f6921e;stroke-width:0.1;stroke-miterlimit:4;stroke-dasharray:none">(0,-2) S</text>
      <text
         transform="matrix(0.50810087,-0.86129757,0.86129757,0.50810087,85.197296,31.733352)"
         x="-2"
         y="0"
         id="text158"
         style="fill:none;stroke:#f6921e;stroke-width:0.1;stroke-miterlimit:4;stroke-dasharray:none">(0,-2) E</text>
      <text
         transform="matrix(0.53934631,0.84208406,-0.84208406,0.53934631,32.597272,43.400019)"
         x="-2"
         y="0"
         id="text160"
         style="fill:none;stroke:#f6921e;stroke-width:0.1;stroke-miterlimit:4;stroke-dasharray:none">(0,-2) S</text>
    </g>
    <g
       id="triangle0-1"
       transform="matrix(0,3.5433071,-3.5433071,0,677.99568,0.1817324)"
       style="stroke-width:0.1;stroke-miterlimit:4;stroke-dasharray:none">
      <text
         x="30.389111"
         y="38.941437"
         id="text163"
         style="fill:none;stroke:#f6921e;stroke-width:0.1;stroke-miterlimit:4;stroke-dasharray:none">0,-1L</text>
      <polygon
         points="38.925754,33.227542 24.566779,41.68908 0,0 48.389111,0 48.389111,16.666667 52.389111,16.666667 52.389111,0 100.77822,0 76.963553,41.675671 62.492834,33.406689 60.508278,36.879661 74.978997,45.148643 51.164328,86.824314 26.597549,45.135234 40.956523,36.673696 "
         id="polygon165"
         style="fill:none;stroke:#0000ff;stroke-width:0.1;stroke-miterlimit:4;stroke-dasharray:none" />
      <text
         transform="matrix(-1,0,0,-1,54.389111,3.3333333)"
         x="-2"
         y="0"
         id="text167"
         style="fill:none;stroke:#f6921e;stroke-width:0.1;stroke-miterlimit:4;stroke-dasharray:none">(0,-1) S</text>
      <text
         transform="matrix(0.49613894,-0.86824314,0.86824314,0.49613894,79.971275,31.74549)"
         x="-2"
         y="0"
         id="text169"
         style="fill:none;stroke:#f6921e;stroke-width:0.1;stroke-miterlimit:4;stroke-dasharray:none">(0,-1) E</text>
      <text
         transform="matrix(0.50769231,0.86153846,-0.86153846,0.50769231,30.382164,43.412157)"
         x="-2"
         y="0"
         id="text171"
         style="fill:none;stroke:#f6921e;stroke-width:0.1;stroke-miterlimit:4;stroke-dasharray:none">(0,-1) S</text>
    </g>
    <g
       id="triangle00"
       transform="matrix(0,3.5433071,-3.5433071,0,695.99568,367.26988)"
       style="stroke-width:0.1;stroke-miterlimit:4;stroke-dasharray:none">
      <text
         x="30.389111"
         y="38.941437"
         id="text174"
         style="fill:none;stroke:#f6921e;stroke-width:0.1;stroke-miterlimit:4;stroke-dasharray:none">0,0L</text>
      <polygon
         points="74.978997,45.148643 51.164328,86.824314 26.597549,45.135234 40.956523,36.673696 38.925754,33.227542 24.566779,41.68908 0,0 48.389111,0 48.389111,16.666667 52.389111,16.666667 52.389111,0 100.77822,0 76.963553,41.675671 62.492834,33.406689 60.508278,36.879661 "
         id="polygon176"
         style="fill:none;stroke:#0000ff;stroke-width:0.1;stroke-miterlimit:4;stroke-dasharray:none" />
      <text
         transform="matrix(-1,0,0,-1,54.389111,3.3333333)"
         x="-2"
         y="0"
         id="text178"
         style="fill:none;stroke:#f6921e;stroke-width:0.1;stroke-miterlimit:4;stroke-dasharray:none">(0,0) S</text>
      <text
         transform="matrix(0.49613894,-0.86824314,0.86824314,0.49613894,79.971275,31.74549)"
         x="-2"
         y="0"
         id="text180"
         style="fill:none;stroke:#f6921e;stroke-width:0.1;stroke-miterlimit:4;stroke-dasharray:none">(0,0) S</text>
      <text
         transform="matrix(0.50769231,0.86153846,-0.86153846,0.50769231,30.382164,43.412157)"
         x="-2"
         y="0"
         id="text182"
         style="fill:none;stroke:#f6921e;stroke-width:0.1;stroke-miterlimit:4;stroke-dasharray:none">(0,0) W</text>
    </g>
    <g
       id="g434"
       transform="matrix(0,-3.5433071,3.5433071,0,366.10534,906.6157)"
       style="stroke-width:0.1;stroke-miterlimit:4;stroke-dasharray:none">
      <text
         x="30.389111"
         y="38.941437"
         id="text436"
         style="fill:none;stroke:#f6921e;stroke-width:0.1;stroke-miterlimit:4;stroke-dasharray:none">-1,-1L</text>
      <polygon
         points="51.164328,86.824314 26.597549,45.135234 40.956523,36.673696 38.925754,33.227542 24.566779,41.68908 0,0 48.389111,0 48.389111,16.666667 52.389111,16.666667 52.389111,0 100.77822,0 76.963553,41.675671 62.492834,33.406689 60.508278,36.879661 74.978997,45.148643 "
         id="polygon438"
         style="fill:none;stroke:#0000ff;stroke-width:0.1;stroke-miterlimit:4;stroke-dasharray:none" />
      <text
         transform="matrix(-1,0,0,-1,54.389111,3.3333333)"
         x="-2"
         y="0"
         id="text440"
         style="fill:none;stroke:#f6921e;stroke-width:0.1;stroke-miterlimit:4;stroke-dasharray:none">(-1,-1) E</text>
      <text
         transform="matrix(0.49613894,-0.86824314,0.86824314,0.49613894,79.971275,31.74549)"
         x="-2"
         y="0"
         id="text442"
         style="fill:none;stroke:#f6921e;stroke-width:0.1;stroke-miterlimit:4;stroke-dasharray:none">(-1,-1) E</text>
      <text
         transform="matrix(0.50769231,0.86153846,-0.86153846,0.50769231,30.382164,43.412157)"
         x="-2"
         y="0"
         id="text444"
         style="fill:none;stroke:#f6921e;stroke-width:0.1;stroke-miterlimit:4;stroke-dasharray:none">(-1,0) S</text>
    </g>
    <g
       id="g446"
       transform="matrix(0,-3.5433071,3.5433071,0,366.10534,549.52758)"
       style="stroke-width:0.1;stroke-miterlimit:4;stroke-dasharray:none">
      <text
         x="30.389111"
         y="38.941437"
         id="text448"
         style="fill:none;stroke:#f6921e;stroke-width:0.1;stroke-miterlimit:4;stroke-dasharray:none">-1,0L</text>
      <polygon
         points="51.164328,86.824314 26.597549,45.135234 40.956523,36.673696 38.925754,33.227542 24.566779,41.68908 0,0 48.389111,0 48.389111,16.666667 52.389111,16.666667 52.389111,0 100.77822,0 76.963553,41.675671 62.492834,33.406689 60.508278,36.879661 74.978997,45.148643 "
         id="polygon450"
         style="fill:none;stroke:#0000ff;stroke-width:0.1;stroke-miterlimit:4;stroke-dasharray:none" />
      <text
         transform="matrix(-1,0,0,-1,54.389111,3.3333333)"
         x="-2"
         y="0"
         id="text452"
         style="fill:none;stroke:#f6921e;stroke-width:0.1;stroke-miterlimit:4;stroke-dasharray:none">(-1,1) S</text>
      <text
         transform="matrix(0.49613894,-0.86824314,0.86824314,0.49613894,79.971275,31.74549)"
         x="-2"
         y="0"
         id="text454"
         style="fill:none;stroke:#f6921e;stroke-width:0.1;stroke-miterlimit:4;stroke-dasharray:none">(-1,1) S</text>
      <text
         transform="matrix(0.50769231,0.86153846,-0.86153846,0.50769231,30.382164,43.412157)"
         x="-2"
         y="0"
         id="text456"
         style="fill:none;stroke:#f6921e;stroke-width:0.1;stroke-miterlimit:4;stroke-dasharray:none">(-1,0) E</text>
    </g>
    <g
       id="g458"
       transform="matrix(0,-3.5433071,3.5433071,0,46.45042,1018.6427)"
       style="stroke-width:0.1;stroke-miterlimit:4;stroke-dasharray:none">
      <text
         x="33.400024"
         y="38.933346"
         id="text460"
         style="fill:none;stroke:#f6921e;stroke-width:0.1;stroke-miterlimit:4;stroke-dasharray:none">-1,1L</text>
      <polygon
         points="67.858538,33.209076 65.826135,36.654266 80.181094,45.122614 55.594545,86.800038 28.875965,45.084187 42.910699,36.095082 40.753314,32.726746 26.71858,41.715851 0,0 51.400023,0 51.400023,16.666667 55.400023,16.666667 55.400023,0 106.80005,0 82.213498,41.677424 "
         id="polygon462"
         style="fill:none;stroke:#0000ff;stroke-width:0.1;stroke-miterlimit:4;stroke-dasharray:none" />
      <text
         transform="matrix(-1,0,0,-1,57.400023,3.3333333)"
         x="-2"
         y="0"
         id="text464"
         style="fill:none;stroke:#f6921e;stroke-width:0.1;stroke-miterlimit:4;stroke-dasharray:none">(-1,2) S</text>
      <text
         transform="matrix(0.50810087,-0.86129757,0.86129757,0.50810087,85.197296,31.733352)"
         x="-2"
         y="0"
         id="text466"
         style="fill:none;stroke:#f6921e;stroke-width:0.1;stroke-miterlimit:4;stroke-dasharray:none">(-1,2) S</text>
      <text
         transform="matrix(0.53934631,0.84208406,-0.84208406,0.53934631,32.597272,43.400019)"
         x="-2"
         y="0"
         id="text468"
         style="fill:none;stroke:#f6921e;stroke-width:0.1;stroke-miterlimit:4;stroke-dasharray:none">(-1,1) E</text>
    </g>
    <g
       id="g470"
       transform="matrix(0,-3.5433071,3.5433071,0,22.45042,648.21759)"
       style="stroke-width:0.1;stroke-miterlimit:4;stroke-dasharray:none">
      <text
         x="38.962383"
         y="38.92152"
         id="text472"
         style="fill:none;stroke:#f6921e;stroke-width:0.1;stroke-miterlimit:4;stroke-dasharray:none">-1,2L</text>
      <polygon
         points="117.92476,0 91.179586,41.698803 77.150587,32.700749 74.991055,36.067709 89.020053,45.065763 62.274875,86.764566 32.303633,45.007087 45.843666,35.28879 43.511274,32.039182 29.971242,41.757479 0,0 56.962382,0 56.962382,16.666667 60.962382,16.666667 60.962382,0 "
         id="polygon474"
         style="fill:none;stroke:#0000ff;stroke-width:0.1;stroke-miterlimit:4;stroke-dasharray:none" />
      <text
         transform="matrix(-1,0,0,-1,62.962382,3.3333333)"
         x="-2"
         y="0"
         id="text476"
         style="fill:none;stroke:#f6921e;stroke-width:0.1;stroke-miterlimit:4;stroke-dasharray:none">(-1,3) S</text>
      <text
         transform="matrix(0.53988322,-0.84173993,0.84173993,0.53988322,94.09982,31.715616)"
         x="-2"
         y="0"
         id="text478"
         style="fill:none;stroke:#f6921e;stroke-width:0.1;stroke-miterlimit:4;stroke-dasharray:none">(-1,3) S</text>
      <text
         transform="matrix(0.58309783,0.81240195,-0.81240195,0.58309783,35.937438,43.382283)"
         x="-2"
         y="0"
         id="text480"
         style="fill:none;stroke:#f6921e;stroke-width:0.1;stroke-miterlimit:4;stroke-dasharray:none">(-1,2) E</text>
    </g>
  </g>
</svg>
