<?xml version="1.0" encoding="UTF-8" standalone="no"?>
<svg
   xmlns:dc="http://purl.org/dc/elements/1.1/"
   xmlns:cc="http://creativecommons.org/ns#"
   xmlns:rdf="http://www.w3.org/1999/02/22-rdf-syntax-ns#"
   xmlns:svg="http://www.w3.org/2000/svg"
   xmlns="http://www.w3.org/2000/svg"
   xmlns:sodipodi="http://sodipodi.sourceforge.net/DTD/sodipodi-0.dtd"
   xmlns:inkscape="http://www.inkscape.org/namespaces/inkscape"
   height="279.4mm"
   version="1.1"
   viewBox="0,0,215.9,279.4"
   width="215.9mm"
   id="svg2"
   inkscape:version="0.48.4 r9939"
   sodipodi:docname="faces.svg">
  <metadata
     id="metadata628">
    <rdf:RDF>
      <cc:Work
         rdf:about="">
        <dc:format>image/svg+xml</dc:format>
        <dc:type
           rdf:resource="http://purl.org/dc/dcmitype/StillImage" />
        <dc:title></dc:title>
      </cc:Work>
    </rdf:RDF>
  </metadata>
  <sodipodi:namedview
     pagecolor="#ffffff"
     bordercolor="#666666"
     borderopacity="1"
     objecttolerance="10"
     gridtolerance="10"
     guidetolerance="10"
     inkscape:pageopacity="0"
     inkscape:pageshadow="2"
     inkscape:window-width="1647"
     inkscape:window-height="800"
     id="namedview626"
     showgrid="false"
     inkscape:zoom="0.23838384"
     inkscape:cx="382.5"
     inkscape:cy="495"
     inkscape:window-x="75"
     inkscape:window-y="121"
     inkscape:window-maximized="0"
     inkscape:current-layer="svg2" />
  <defs
     id="defs4" />
  <rect
     fill="none"
     height="279.4"
     stroke="rgb(0,0,255)"
     stroke-width="1.0"
     width="215.9"
     x="0"
     y="0"
     id="rect6" />
  <g
     id="triangle-30"
     transform="translate(0.0,0)">
    <text
       fill="none"
       stroke="rgb(246,146,30)"
       x="38.9623820754"
       y="38.921521951"
       id="text9">-3,0L</text>
    <polygon
       fill="none"
       points="0,0 56.9623820754,0 56.9623820754,16.6666666667 60.9623820754,16.6666666667 60.9623820754,0 117.924764151,0 91.1795862437,41.6988030696 77.1505874369,32.7007493769 74.9910545507,36.0677090905 89.0200533574,45.0657627833 62.2748754504,86.7645658529 32.3036333835,45.0070868182 45.8436658147,35.2887896659 43.5112744981,32.0391818824 29.9712420669,41.7574790347"
       stroke="rgb(0,0,255)"
       stroke-width="1.0"
       id="polygon11" />
    <text
       fill="none"
       stroke="rgb(246,146,30)"
       transform="translate(62.9623820754,3.33333333333) rotate(180.0)"
       x="-2.0"
       y="0"
       id="text13">(-3,0) W</text>
    <text
       fill="none"
       stroke="rgb(246,146,30)"
       transform="translate(94.0998198005,31.7156162598) rotate(-57.3243104133)"
       x="-2.0"
       y="0"
       id="text15">(-3,0) W</text>
    <text
       fill="none"
       stroke="rgb(246,146,30)"
       transform="translate(35.9374377252,43.3822829264) rotate(54.3312762775)"
       x="-2.0"
       y="0"
       id="text17">(-3,0) S</text>
  </g>
  <g
     id="triangle-31"
     transform="translate(117.924764151,0)">
    <text
       fill="none"
       stroke="rgb(246,146,30)"
       x="35.9016994375"
       y="39.8142397"
       id="text20">-3,1L</text>
    <polygon
       fill="none"
       points="0,0 53.9016994375,0 53.9016994375,16.6666666667 57.9016994375,16.6666666667 57.9016994375,0 111.803398875,0 90.337146291,42.932505168 75.430026441,35.478945243 73.641172059,39.056654007 88.548291909,46.510213932 67.082039325,89.4427191 34.7410196625,46.32135955 48.0743529958,36.32135955 45.6743529958,33.12135955 32.3410196625,43.12135955"
       stroke="rgb(0,0,255)"
       stroke-width="1.0"
       id="polygon22" />
    <text
       fill="none"
       stroke="rgb(246,146,30)"
       transform="translate(59.9016994375,3.33333333333) rotate(180.0)"
       x="-2.0"
       y="0"
       id="text24">(-3,1) W</text>
    <text
       fill="none"
       stroke="rgb(246,146,30)"
       transform="translate(93.4427191,33.0546928833) rotate(-63.4349488229)"
       x="-2.0"
       y="0"
       id="text26">(-3,1) W</text>
    <text
       fill="none"
       stroke="rgb(246,146,30)"
       transform="translate(38.3410196625,44.72135955) rotate(53.1301023542)"
       x="-2.0"
       y="0"
       id="text28">(-3,1) S</text>
  </g>
  <g
     id="triangle-32"
     transform="translate(229.728163026,0)">
    <text
       fill="none"
       stroke="rgb(246,146,30)"
       x="38.9623820754"
       y="38.921521951"
       id="text31">-3,2L</text>
    <polygon
       fill="none"
       points="0,0 56.9623820754,0 56.9623820754,16.6666666667 60.9623820754,16.6666666667 60.9623820754,0 117.924764151,0 91.1795862437,41.6988030696 77.1505874369,32.7007493769 74.9910545507,36.0677090905 89.0200533574,45.0657627833 62.2748754504,86.7645658529 32.3036333835,45.0070868182 45.8436658147,35.2887896659 43.5112744981,32.0391818824 29.9712420669,41.7574790347"
       stroke="rgb(0,0,255)"
       stroke-width="1.0"
       id="polygon33" />
    <text
       fill="none"
       stroke="rgb(246,146,30)"
       transform="translate(62.9623820754,3.33333333333) rotate(180.0)"
       x="-2.0"
       y="0"
       id="text35">(-3,2) S</text>
    <text
       fill="none"
       stroke="rgb(246,146,30)"
       transform="translate(94.0998198005,31.7156162598) rotate(-57.3243104133)"
       x="-2.0"
       y="0"
       id="text37">(-3,2) W</text>
    <text
       fill="none"
       stroke="rgb(246,146,30)"
       transform="translate(35.9374377252,43.3822829264) rotate(54.3312762775)"
       x="-2.0"
       y="0"
       id="text39">(-3,2) W</text>
  </g>
  <g
     id="triangle-2-1"
     transform="translate(347.652927176,0)">
    <text
       fill="none"
       stroke="rgb(246,146,30)"
       x="35.9016994375"
       y="39.1070819943"
       id="text42">-2,-1L</text>
    <polygon
       fill="none"
       points="0,0 53.9016994375,0 53.9016994375,16.6666666667 57.9016994375,16.6666666667 57.9016994375,0 111.803398875,0 87.6460944813,41.9276841803 73.204937722,33.6071812369 71.2080170156,37.0730588592 85.6491737749,45.3935618025 61.4918693812,87.3212459829 31.8974673203,45.2958516001 45.5243723929,35.6997463527 43.2213071335,32.4292891352 29.5944020609,42.0253943827"
       stroke="rgb(0,0,255)"
       stroke-width="1.0"
       id="polygon44" />
    <text
       fill="none"
       stroke="rgb(246,146,30)"
       transform="translate(59.9016994375,3.33333333333) rotate(180.0)"
       x="-2.0"
       y="0"
       id="text46">(-2,-1) S</text>
    <text
       fill="none"
       stroke="rgb(246,146,30)"
       transform="translate(90.6476341281,31.9939563248) rotate(-60.0509180501)"
       x="-2.0"
       y="0"
       id="text48">(-2,-1) S</text>
    <text
       fill="none"
       stroke="rgb(246,146,30)"
       transform="translate(35.5459346906,43.6606229914) rotate(54.8466846281)"
       x="-2.0"
       y="0"
       id="text50">(-2,-1) W</text>
  </g>
  <g
     id="triangle-20"
     transform="translate(459.456326051,0)">
    <text
       fill="none"
       stroke="rgb(246,146,30)"
       x="33.4000234082"
       y="38.9333459588"
       id="text53">-2,0L</text>
    <polygon
       fill="none"
       points="0,0 51.4000234082,0 51.4000234082,16.6666666667 55.4000234082,16.6666666667 55.4000234082,0 106.800046816,0 82.2134976013,41.6774237925 67.8585380542,33.2090760093 65.8261345862,36.6542663006 80.1810941333,45.1226140838 55.5945449182,86.8000378764 28.8759650751,45.0841870534 42.9106993681,36.0950819198 40.7533141361,32.7267456895 26.7185798431,41.715850823"
       stroke="rgb(0,0,255)"
       stroke-width="1.0"
       id="polygon55" />
    <text
       fill="none"
       stroke="rgb(246,146,30)"
       transform="translate(57.4000234082,3.33333333333) rotate(180.0)"
       x="-2.0"
       y="0"
       id="text57">(-2,0) W</text>
    <text
       fill="none"
       stroke="rgb(246,146,30)"
       transform="translate(85.1972958673,31.7333522715) rotate(-59.4625879552)"
       x="-2.0"
       y="0"
       id="text59">(-2,0) W</text>
    <text
       fill="none"
       stroke="rgb(246,146,30)"
       transform="translate(32.5972724591,43.4000189382) rotate(57.3608497187)"
       x="-2.0"
       y="0"
       id="text61">(-2,0) S</text>
  </g>
  <g
     id="triangle-21"
     transform="translate(566.256372868,0)">
    <text
       fill="none"
       stroke="rgb(246,146,30)"
       x="33.4000234082"
       y="38.9333459588"
       id="text64">-2,1L</text>
    <polygon
       fill="none"
       points="0,0 51.4000234082,0 51.4000234082,16.6666666667 55.4000234082,16.6666666667 55.4000234082,0 106.800046816,0 82.2134976013,41.6774237925 67.8585380542,33.2090760093 65.8261345862,36.6542663006 80.1810941333,45.1226140838 55.5945449182,86.8000378764 28.8759650751,45.0841870534 42.9106993681,36.0950819198 40.7533141361,32.7267456895 26.7185798431,41.715850823"
       stroke="rgb(0,0,255)"
       stroke-width="1.0"
       id="polygon66" />
    <text
       fill="none"
       stroke="rgb(246,146,30)"
       transform="translate(57.4000234082,3.33333333333) rotate(180.0)"
       x="-2.0"
       y="0"
       id="text68">(-2,1) S</text>
    <text
       fill="none"
       stroke="rgb(246,146,30)"
       transform="translate(85.1972958673,31.7333522715) rotate(-59.4625879552)"
       x="-2.0"
       y="0"
       id="text70">(-2,1) W</text>
    <text
       fill="none"
       stroke="rgb(246,146,30)"
       transform="translate(32.5972724591,43.4000189382) rotate(57.3608497187)"
       x="-2.0"
       y="0"
       id="text72">(-2,1) W</text>
  </g>
  <g
     id="triangle-22"
     transform="translate(673.056419684,0)">
    <text
       fill="none"
       stroke="rgb(246,146,30)"
       x="35.9016994375"
       y="39.1070819943"
       id="text75">-2,2L</text>
    <polygon
       fill="none"
       points="0,0 53.9016994375,0 53.9016994375,16.6666666667 57.9016994375,16.6666666667 57.9016994375,0 111.803398875,0 87.6460944813,41.9276841803 73.204937722,33.6071812369 71.2080170156,37.0730588592 85.6491737749,45.3935618025 61.4918693812,87.3212459829 31.8974673203,45.2958516001 45.5243723929,35.6997463527 43.2213071335,32.4292891352 29.5944020609,42.0253943827"
       stroke="rgb(0,0,255)"
       stroke-width="1.0"
       id="polygon77" />
    <text
       fill="none"
       stroke="rgb(246,146,30)"
       transform="translate(59.9016994375,3.33333333333) rotate(180.0)"
       x="-2.0"
       y="0"
       id="text79">(-2,2) S</text>
    <text
       fill="none"
       stroke="rgb(246,146,30)"
       transform="translate(90.6476341281,31.9939563248) rotate(-60.0509180501)"
       x="-2.0"
       y="0"
       id="text81">(-2,2) E</text>
    <text
       fill="none"
       stroke="rgb(246,146,30)"
       transform="translate(35.5459346906,43.6606229914) rotate(54.8466846281)"
       x="-2.0"
       y="0"
       id="text83">(-2,2) W</text>
  </g>
  <g
     id="triangle-1-2"
     transform="translate(784.859818559,0)">
    <text
       fill="none"
       stroke="rgb(246,146,30)"
       x="35.9016994375"
       y="39.1070819943"
       id="text86">-1,-2L</text>
    <polygon
       fill="none"
       points="0,0 53.9016994375,0 53.9016994375,16.6666666667 57.9016994375,16.6666666667 57.9016994375,0 111.803398875,0 87.6460944813,41.9276841803 73.204937722,33.6071812369 71.2080170156,37.0730588592 85.6491737749,45.3935618025 61.4918693812,87.3212459829 31.8974673203,45.2958516001 45.5243723929,35.6997463527 43.2213071335,32.4292891352 29.5944020609,42.0253943827"
       stroke="rgb(0,0,255)"
       stroke-width="1.0"
       id="polygon88" />
    <text
       fill="none"
       stroke="rgb(246,146,30)"
       transform="translate(59.9016994375,3.33333333333) rotate(180.0)"
       x="-2.0"
       y="0"
       id="text90">(-1,-2) S</text>
    <text
       fill="none"
       stroke="rgb(246,146,30)"
       transform="translate(90.6476341281,31.9939563248) rotate(-60.0509180501)"
       x="-2.0"
       y="0"
       id="text92">(-1,-2) S</text>
    <text
       fill="none"
       stroke="rgb(246,146,30)"
       transform="translate(35.5459346906,43.6606229914) rotate(54.8466846281)"
       x="-2.0"
       y="0"
       id="text94">(-1,-2) S</text>
  </g>
  <g
     id="triangle-1-1"
     transform="translate(896.663217434,0)">
    <text
       fill="none"
       stroke="rgb(246,146,30)"
       x="31.5388203202"
       y="39.1491544065"
       id="text97">-1,-1L</text>
    <polygon
       fill="none"
       points="0,0 49.5388203202,0 49.5388203202,16.6666666667 53.5388203202,16.6666666667 53.5388203202,0 103.07764064,0 79.794220637,41.9747823454 65.2196434337,33.8902615108 63.2793584334,37.3881600396 77.8539356367,45.4726808742 54.5705156332,87.4474632195 28.344081346,45.4204616217 42.4834981125,36.59693221 40.3658510537,33.203472186 26.2264342872,42.0270015978"
       stroke="rgb(0,0,255)"
       stroke-width="1.0"
       id="polygon99" />
    <text
       fill="none"
       stroke="rgb(246,146,30)"
       transform="translate(55.5388203202,3.33333333333) rotate(180.0)"
       x="-2.0"
       y="0"
       id="text101">(-1,-1) S</text>
    <text
       fill="none"
       stroke="rgb(246,146,30)"
       transform="translate(82.8240781368,32.0570649431) rotate(-60.9828593754)"
       x="-2.0"
       y="0"
       id="text103">(-1,-1) S</text>
    <text
       fill="none"
       stroke="rgb(246,146,30)"
       transform="translate(32.0852578166,43.7237316098) rotate(58.0342812492)"
       x="-2.0"
       y="0"
       id="text105">(-1,-1) W</text>
  </g>
  <g
     id="triangle-10"
     transform="translate(999.740858075,0)">
    <text
       fill="none"
       stroke="rgb(246,146,30)"
       x="30.3891109269"
       y="38.9414380708"
       id="text108">-1,0L</text>
    <polygon
       fill="none"
       points="0,0 48.3891109269,0 48.3891109269,16.6666666667 52.3891109269,16.6666666667 52.3891109269,0 100.778221854,0 76.9635528126,41.675670822 62.4928337772,33.406688516 60.5082780238,36.8796610845 74.9789970592,45.1486433905 51.164328018,86.8243142124 26.5975486244,45.1352340293 40.9565229834,36.6736955678 38.9257537526,33.2275417216 24.5667793936,41.6890801831"
       stroke="rgb(0,0,255)"
       stroke-width="1.0"
       id="polygon110" />
    <text
       fill="none"
       stroke="rgb(246,146,30)"
       transform="translate(54.3891109269,3.33333333333) rotate(180.0)"
       x="-2.0"
       y="0"
       id="text112">(-1,0) W</text>
    <text
       fill="none"
       stroke="rgb(246,146,30)"
       transform="translate(79.9712749359,31.7454904396) rotate(-60.2551187031)"
       x="-2.0"
       y="0"
       id="text114">(-1,0) W</text>
    <text
       fill="none"
       stroke="rgb(246,146,30)"
       transform="translate(30.382164009,43.4121571062) rotate(59.4897625939)"
       x="-2.0"
       y="0"
       id="text116">(-1,0) S</text>
  </g>
  <g
     id="triangle-11"
     transform="translate(1100.51907993,0)">
    <text
       fill="none"
       stroke="rgb(246,146,30)"
       x="31.5388203202"
       y="39.1491544065"
       id="text119">-1,1L</text>
    <polygon
       fill="none"
       points="0,0 49.5388203202,0 49.5388203202,16.6666666667 53.5388203202,16.6666666667 53.5388203202,0 103.07764064,0 79.794220637,41.9747823454 65.2196434337,33.8902615108 63.2793584334,37.3881600396 77.8539356367,45.4726808742 54.5705156332,87.4474632195 28.344081346,45.4204616217 42.4834981125,36.59693221 40.3658510537,33.203472186 26.2264342872,42.0270015978"
       stroke="rgb(0,0,255)"
       stroke-width="1.0"
       id="polygon121" />
    <text
       fill="none"
       stroke="rgb(246,146,30)"
       transform="translate(55.5388203202,3.33333333333) rotate(180.0)"
       x="-2.0"
       y="0"
       id="text123">(-1,1) S</text>
    <text
       fill="none"
       stroke="rgb(246,146,30)"
       transform="translate(82.8240781368,32.0570649431) rotate(-60.9828593754)"
       x="-2.0"
       y="0"
       id="text125">(-1,1) E</text>
    <text
       fill="none"
       stroke="rgb(246,146,30)"
       transform="translate(32.0852578166,43.7237316098) rotate(58.0342812492)"
       x="-2.0"
       y="0"
       id="text127">(-1,1) S</text>
  </g>
  <g
     id="triangle-12"
     transform="translate(1203.59672057,0)">
    <text
       fill="none"
       stroke="rgb(246,146,30)"
       x="35.9016994375"
       y="39.1070819943"
       id="text130">-1,2L</text>
    <polygon
       fill="none"
       points="0,0 53.9016994375,0 53.9016994375,16.6666666667 57.9016994375,16.6666666667 57.9016994375,0 111.803398875,0 87.6460944813,41.9276841803 73.204937722,33.6071812369 71.2080170156,37.0730588592 85.6491737749,45.3935618025 61.4918693812,87.3212459829 31.8974673203,45.2958516001 45.5243723929,35.6997463527 43.2213071335,32.4292891352 29.5944020609,42.0253943827"
       stroke="rgb(0,0,255)"
       stroke-width="1.0"
       id="polygon132" />
    <text
       fill="none"
       stroke="rgb(246,146,30)"
       transform="translate(59.9016994375,3.33333333333) rotate(180.0)"
       x="-2.0"
       y="0"
       id="text134">(-1,2) S</text>
    <text
       fill="none"
       stroke="rgb(246,146,30)"
       transform="translate(90.6476341281,31.9939563248) rotate(-60.0509180501)"
       x="-2.0"
       y="0"
       id="text136">(-1,2) E</text>
    <text
       fill="none"
       stroke="rgb(246,146,30)"
       transform="translate(35.5459346906,43.6606229914) rotate(54.8466846281)"
       x="-2.0"
       y="0"
       id="text138">(-1,2) S</text>
  </g>
  <g
     id="triangle0-3"
     transform="translate(1315.40011944,0)">
    <text
       fill="none"
       stroke="rgb(246,146,30)"
       x="38.9623820754"
       y="38.921521951"
       id="text141">0,-3L</text>
    <polygon
       fill="none"
       points="0,0 56.9623820754,0 56.9623820754,16.6666666667 60.9623820754,16.6666666667 60.9623820754,0 117.924764151,0 91.1795862437,41.6988030696 77.1505874369,32.7007493769 74.9910545507,36.0677090905 89.0200533574,45.0657627833 62.2748754504,86.7645658529 32.3036333835,45.0070868182 45.8436658147,35.2887896659 43.5112744981,32.0391818824 29.9712420669,41.7574790347"
       stroke="rgb(0,0,255)"
       stroke-width="1.0"
       id="polygon143" />
    <text
       fill="none"
       stroke="rgb(246,146,30)"
       transform="translate(62.9623820754,3.33333333333) rotate(180.0)"
       x="-2.0"
       y="0"
       id="text145">(0,-3) S</text>
    <text
       fill="none"
       stroke="rgb(246,146,30)"
       transform="translate(94.0998198005,31.7156162598) rotate(-57.3243104133)"
       x="-2.0"
       y="0"
       id="text147">(0,-3) E</text>
    <text
       fill="none"
       stroke="rgb(246,146,30)"
       transform="translate(35.9374377252,43.3822829264) rotate(54.3312762775)"
       x="-2.0"
       y="0"
       id="text149">(0,-3) S</text>
  </g>
  <g
     id="triangle0-2"
     transform="translate(1433.32488359,0)">
    <text
       fill="none"
       stroke="rgb(246,146,30)"
       x="33.4000234082"
       y="38.9333459588"
       id="text152">0,-2L</text>
    <polygon
       fill="none"
       points="0,0 51.4000234082,0 51.4000234082,16.6666666667 55.4000234082,16.6666666667 55.4000234082,0 106.800046816,0 82.2134976013,41.6774237925 67.8585380542,33.2090760093 65.8261345862,36.6542663006 80.1810941333,45.1226140838 55.5945449182,86.8000378764 28.8759650751,45.0841870534 42.9106993681,36.0950819198 40.7533141361,32.7267456895 26.7185798431,41.715850823"
       stroke="rgb(0,0,255)"
       stroke-width="1.0"
       id="polygon154" />
    <text
       fill="none"
       stroke="rgb(246,146,30)"
       transform="translate(57.4000234082,3.33333333333) rotate(180.0)"
       x="-2.0"
       y="0"
       id="text156">(0,-2) S</text>
    <text
       fill="none"
       stroke="rgb(246,146,30)"
       transform="translate(85.1972958673,31.7333522715) rotate(-59.4625879552)"
       x="-2.0"
       y="0"
       id="text158">(0,-2) E</text>
    <text
       fill="none"
       stroke="rgb(246,146,30)"
       transform="translate(32.5972724591,43.4000189382) rotate(57.3608497187)"
       x="-2.0"
       y="0"
       id="text160">(0,-2) S</text>
  </g>
  <g
     id="triangle0-1"
     transform="translate(1540.12493041,0)">
    <text
       fill="none"
       stroke="rgb(246,146,30)"
       x="30.3891109269"
       y="38.9414380708"
       id="text163">0,-1L</text>
    <polygon
       fill="none"
       points="0,0 48.3891109269,0 48.3891109269,16.6666666667 52.3891109269,16.6666666667 52.3891109269,0 100.778221854,0 76.9635528126,41.675670822 62.4928337772,33.406688516 60.5082780238,36.8796610845 74.9789970592,45.1486433905 51.164328018,86.8243142124 26.5975486244,45.1352340293 40.9565229834,36.6736955678 38.9257537526,33.2275417216 24.5667793936,41.6890801831"
       stroke="rgb(0,0,255)"
       stroke-width="1.0"
       id="polygon165" />
    <text
       fill="none"
       stroke="rgb(246,146,30)"
       transform="translate(54.3891109269,3.33333333333) rotate(180.0)"
       x="-2.0"
       y="0"
       id="text167">(0,-1) S</text>
    <text
       fill="none"
       stroke="rgb(246,146,30)"
       transform="translate(79.9712749359,31.7454904396) rotate(-60.2551187031)"
       x="-2.0"
       y="0"
       id="text169">(0,-1) E</text>
    <text
       fill="none"
       stroke="rgb(246,146,30)"
       transform="translate(30.382164009,43.4121571062) rotate(59.4897625939)"
       x="-2.0"
       y="0"
       id="text171">(0,-1) S</text>
  </g>
  <g
     id="triangle00"
     transform="translate(1640.90315226,0)">
    <text
       fill="none"
       stroke="rgb(246,146,30)"
       x="30.3891109269"
       y="38.9414380708"
       id="text174">0,0L</text>
    <polygon
       fill="none"
       points="0,0 48.3891109269,0 48.3891109269,16.6666666667 52.3891109269,16.6666666667 52.3891109269,0 100.778221854,0 76.9635528126,41.675670822 62.4928337772,33.406688516 60.5082780238,36.8796610845 74.9789970592,45.1486433905 51.164328018,86.8243142124 26.5975486244,45.1352340293 40.9565229834,36.6736955678 38.9257537526,33.2275417216 24.5667793936,41.6890801831"
       stroke="rgb(0,0,255)"
       stroke-width="1.0"
       id="polygon176" />
    <text
       fill="none"
       stroke="rgb(246,146,30)"
       transform="translate(54.3891109269,3.33333333333) rotate(180.0)"
       x="-2.0"
       y="0"
       id="text178">(0,0) S</text>
    <text
       fill="none"
       stroke="rgb(246,146,30)"
       transform="translate(79.9712749359,31.7454904396) rotate(-60.2551187031)"
       x="-2.0"
       y="0"
       id="text180">(0,0) S</text>
    <text
       fill="none"
       stroke="rgb(246,146,30)"
       transform="translate(30.382164009,43.4121571062) rotate(59.4897625939)"
       x="-2.0"
       y="0"
       id="text182">(0,0) W</text>
  </g>
  <g
     id="triangle01"
     transform="translate(1741.68137412,0)">
    <text
       fill="none"
       stroke="rgb(246,146,30)"
       x="33.4000234082"
       y="38.9333459588"
       id="text185">0,1L</text>
    <polygon
       fill="none"
       points="0,0 51.4000234082,0 51.4000234082,16.6666666667 55.4000234082,16.6666666667 55.4000234082,0 106.800046816,0 82.2134976013,41.6774237925 67.8585380542,33.2090760093 65.8261345862,36.6542663006 80.1810941333,45.1226140838 55.5945449182,86.8000378764 28.8759650751,45.0841870534 42.9106993681,36.0950819198 40.7533141361,32.7267456895 26.7185798431,41.715850823"
       stroke="rgb(0,0,255)"
       stroke-width="1.0"
       id="polygon187" />
    <text
       fill="none"
       stroke="rgb(246,146,30)"
       transform="translate(57.4000234082,3.33333333333) rotate(180.0)"
       x="-2.0"
       y="0"
       id="text189">(0,1) S</text>
    <text
       fill="none"
       stroke="rgb(246,146,30)"
       transform="translate(85.1972958673,31.7333522715) rotate(-59.4625879552)"
       x="-2.0"
       y="0"
       id="text191">(0,1) S</text>
    <text
       fill="none"
       stroke="rgb(246,146,30)"
       transform="translate(32.5972724591,43.4000189382) rotate(57.3608497187)"
       x="-2.0"
       y="0"
       id="text193">(0,1) S</text>
  </g>
  <g
     id="triangle02"
     transform="translate(1848.48142094,0)">
    <text
       fill="none"
       stroke="rgb(246,146,30)"
       x="38.9623820754"
       y="38.921521951"
       id="text196">0,2L</text>
    <polygon
       fill="none"
       points="0,0 56.9623820754,0 56.9623820754,16.6666666667 60.9623820754,16.6666666667 60.9623820754,0 117.924764151,0 91.1795862437,41.6988030696 77.1505874369,32.7007493769 74.9910545507,36.0677090905 89.0200533574,45.0657627833 62.2748754504,86.7645658529 32.3036333835,45.0070868182 45.8436658147,35.2887896659 43.5112744981,32.0391818824 29.9712420669,41.7574790347"
       stroke="rgb(0,0,255)"
       stroke-width="1.0"
       id="polygon198" />
    <text
       fill="none"
       stroke="rgb(246,146,30)"
       transform="translate(62.9623820754,3.33333333333) rotate(180.0)"
       x="-2.0"
       y="0"
       id="text200">(0,2) S</text>
    <text
       fill="none"
       stroke="rgb(246,146,30)"
       transform="translate(94.0998198005,31.7156162598) rotate(-57.3243104133)"
       x="-2.0"
       y="0"
       id="text202">(0,2) S</text>
    <text
       fill="none"
       stroke="rgb(246,146,30)"
       transform="translate(35.9374377252,43.3822829264) rotate(54.3312762775)"
       x="-2.0"
       y="0"
       id="text204">(0,2) S</text>
  </g>
  <g
     id="triangle1-3"
     transform="translate(1966.40618509,0)">
    <text
       fill="none"
       stroke="rgb(246,146,30)"
       x="35.9016994375"
       y="39.8142397"
       id="text207">1,-3L</text>
    <polygon
       fill="none"
       points="0,0 53.9016994375,0 53.9016994375,16.6666666667 57.9016994375,16.6666666667 57.9016994375,0 111.803398875,0 90.337146291,42.932505168 75.430026441,35.478945243 73.641172059,39.056654007 88.548291909,46.510213932 67.082039325,89.4427191 34.7410196625,46.32135955 48.0743529958,36.32135955 45.6743529958,33.12135955 32.3410196625,43.12135955"
       stroke="rgb(0,0,255)"
       stroke-width="1.0"
       id="polygon209" />
    <text
       fill="none"
       stroke="rgb(246,146,30)"
       transform="translate(59.9016994375,3.33333333333) rotate(180.0)"
       x="-2.0"
       y="0"
       id="text211">(1,-3) S</text>
    <text
       fill="none"
       stroke="rgb(246,146,30)"
       transform="translate(93.4427191,33.0546928833) rotate(-63.4349488229)"
       x="-2.0"
       y="0"
       id="text213">(1,-3) E</text>
    <text
       fill="none"
       stroke="rgb(246,146,30)"
       transform="translate(38.3410196625,44.72135955) rotate(53.1301023542)"
       x="-2.0"
       y="0"
       id="text215">(1,-3) S</text>
  </g>
  <g
     id="triangle1-2"
     transform="translate(2078.20958396,0)">
    <text
       fill="none"
       stroke="rgb(246,146,30)"
       x="33.4000234082"
       y="38.9333459588"
       id="text218">1,-2L</text>
    <polygon
       fill="none"
       points="0,0 51.4000234082,0 51.4000234082,16.6666666667 55.4000234082,16.6666666667 55.4000234082,0 106.800046816,0 82.2134976013,41.6774237925 67.8585380542,33.2090760093 65.8261345862,36.6542663006 80.1810941333,45.1226140838 55.5945449182,86.8000378764 28.8759650751,45.0841870534 42.9106993681,36.0950819198 40.7533141361,32.7267456895 26.7185798431,41.715850823"
       stroke="rgb(0,0,255)"
       stroke-width="1.0"
       id="polygon220" />
    <text
       fill="none"
       stroke="rgb(246,146,30)"
       transform="translate(57.4000234082,3.33333333333) rotate(180.0)"
       x="-2.0"
       y="0"
       id="text222">(1,-2) S</text>
    <text
       fill="none"
       stroke="rgb(246,146,30)"
       transform="translate(85.1972958673,31.7333522715) rotate(-59.4625879552)"
       x="-2.0"
       y="0"
       id="text224">(1,-2) E</text>
    <text
       fill="none"
       stroke="rgb(246,146,30)"
       transform="translate(32.5972724591,43.4000189382) rotate(57.3608497187)"
       x="-2.0"
       y="0"
       id="text226">(1,-2) W</text>
  </g>
  <g
     id="triangle1-1"
     transform="translate(2185.00963078,0)">
    <text
       fill="none"
       stroke="rgb(246,146,30)"
       x="31.5388203202"
       y="39.1491544065"
       id="text229">1,-1L</text>
    <polygon
       fill="none"
       points="0,0 49.5388203202,0 49.5388203202,16.6666666667 53.5388203202,16.6666666667 53.5388203202,0 103.07764064,0 79.794220637,41.9747823454 65.2196434337,33.8902615108 63.2793584334,37.3881600396 77.8539356367,45.4726808742 54.5705156332,87.4474632195 28.344081346,45.4204616217 42.4834981125,36.59693221 40.3658510537,33.203472186 26.2264342872,42.0270015978"
       stroke="rgb(0,0,255)"
       stroke-width="1.0"
       id="polygon231" />
    <text
       fill="none"
       stroke="rgb(246,146,30)"
       transform="translate(55.5388203202,3.33333333333) rotate(180.0)"
       x="-2.0"
       y="0"
       id="text233">(1,-1) W</text>
    <text
       fill="none"
       stroke="rgb(246,146,30)"
       transform="translate(82.8240781368,32.0570649431) rotate(-60.9828593754)"
       x="-2.0"
       y="0"
       id="text235">(1,-1) W</text>
    <text
       fill="none"
       stroke="rgb(246,146,30)"
       transform="translate(32.0852578166,43.7237316098) rotate(58.0342812492)"
       x="-2.0"
       y="0"
       id="text237">(1,-1) S</text>
  </g>
  <g
     id="triangle10"
     transform="translate(2288.08727142,0)">
    <text
       fill="none"
       stroke="rgb(246,146,30)"
       x="33.4000234082"
       y="38.9333459588"
       id="text240">1,0L</text>
    <polygon
       fill="none"
       points="0,0 51.4000234082,0 51.4000234082,16.6666666667 55.4000234082,16.6666666667 55.4000234082,0 106.800046816,0 82.2134976013,41.6774237925 67.8585380542,33.2090760093 65.8261345862,36.6542663006 80.1810941333,45.1226140838 55.5945449182,86.8000378764 28.8759650751,45.0841870534 42.9106993681,36.0950819198 40.7533141361,32.7267456895 26.7185798431,41.715850823"
       stroke="rgb(0,0,255)"
       stroke-width="1.0"
       id="polygon242" />
    <text
       fill="none"
       stroke="rgb(246,146,30)"
       transform="translate(57.4000234082,3.33333333333) rotate(180.0)"
       x="-2.0"
       y="0"
       id="text244">(1,0) S</text>
    <text
       fill="none"
       stroke="rgb(246,146,30)"
       transform="translate(85.1972958673,31.7333522715) rotate(-59.4625879552)"
       x="-2.0"
       y="0"
       id="text246">(1,0) S</text>
    <text
       fill="none"
       stroke="rgb(246,146,30)"
       transform="translate(32.5972724591,43.4000189382) rotate(57.3608497187)"
       x="-2.0"
       y="0"
       id="text248">(1,0) W</text>
  </g>
  <g
     id="triangle11"
     transform="translate(2394.88731823,0)">
    <text
       fill="none"
       stroke="rgb(246,146,30)"
       x="35.9016994375"
       y="39.8142397"
       id="text251">1,1L</text>
    <polygon
       fill="none"
       points="0,0 53.9016994375,0 53.9016994375,16.6666666667 57.9016994375,16.6666666667 57.9016994375,0 111.803398875,0 90.337146291,42.932505168 75.430026441,35.478945243 73.641172059,39.056654007 88.548291909,46.510213932 67.082039325,89.4427191 34.7410196625,46.32135955 48.0743529958,36.32135955 45.6743529958,33.12135955 32.3410196625,43.12135955"
       stroke="rgb(0,0,255)"
       stroke-width="1.0"
       id="polygon253" />
    <text
       fill="none"
       stroke="rgb(246,146,30)"
       transform="translate(59.9016994375,3.33333333333) rotate(180.0)"
       x="-2.0"
       y="0"
       id="text255">(1,1) S</text>
    <text
       fill="none"
       stroke="rgb(246,146,30)"
       transform="translate(93.4427191,33.0546928833) rotate(-63.4349488229)"
       x="-2.0"
       y="0"
       id="text257">(1,1) S</text>
    <text
       fill="none"
       stroke="rgb(246,146,30)"
       transform="translate(38.3410196625,44.72135955) rotate(53.1301023542)"
       x="-2.0"
       y="0"
       id="text259">(1,1) W</text>
  </g>
  <g
     id="triangle2-3"
     transform="translate(2506.69071711,0)">
    <text
       fill="none"
       stroke="rgb(246,146,30)"
       x="38.9623820754"
       y="38.921521951"
       id="text262">2,-3L</text>
    <polygon
       fill="none"
       points="0,0 56.9623820754,0 56.9623820754,16.6666666667 60.9623820754,16.6666666667 60.9623820754,0 117.924764151,0 91.1795862437,41.6988030696 77.1505874369,32.7007493769 74.9910545507,36.0677090905 89.0200533574,45.0657627833 62.2748754504,86.7645658529 32.3036333835,45.0070868182 45.8436658147,35.2887896659 43.5112744981,32.0391818824 29.9712420669,41.7574790347"
       stroke="rgb(0,0,255)"
       stroke-width="1.0"
       id="polygon264" />
    <text
       fill="none"
       stroke="rgb(246,146,30)"
       transform="translate(62.9623820754,3.33333333333) rotate(180.0)"
       x="-2.0"
       y="0"
       id="text266">(2,-3) S</text>
    <text
       fill="none"
       stroke="rgb(246,146,30)"
       transform="translate(94.0998198005,31.7156162598) rotate(-57.3243104133)"
       x="-2.0"
       y="0"
       id="text268">(2,-3) E</text>
    <text
       fill="none"
       stroke="rgb(246,146,30)"
       transform="translate(35.9374377252,43.3822829264) rotate(54.3312762775)"
       x="-2.0"
       y="0"
       id="text270">(2,-3) W</text>
  </g>
  <g
     id="triangle2-2"
     transform="translate(2624.61548126,0)">
    <text
       fill="none"
       stroke="rgb(246,146,30)"
       x="35.9016994375"
       y="39.1070819943"
       id="text273">2,-2L</text>
    <polygon
       fill="none"
       points="0,0 53.9016994375,0 53.9016994375,16.6666666667 57.9016994375,16.6666666667 57.9016994375,0 111.803398875,0 87.6460944813,41.9276841803 73.204937722,33.6071812369 71.2080170156,37.0730588592 85.6491737749,45.3935618025 61.4918693812,87.3212459829 31.8974673203,45.2958516001 45.5243723929,35.6997463527 43.2213071335,32.4292891352 29.5944020609,42.0253943827"
       stroke="rgb(0,0,255)"
       stroke-width="1.0"
       id="polygon275" />
    <text
       fill="none"
       stroke="rgb(246,146,30)"
       transform="translate(59.9016994375,3.33333333333) rotate(180.0)"
       x="-2.0"
       y="0"
       id="text277">(2,-2) S</text>
    <text
       fill="none"
       stroke="rgb(246,146,30)"
       transform="translate(90.6476341281,31.9939563248) rotate(-60.0509180501)"
       x="-2.0"
       y="0"
       id="text279">(2,-2) W</text>
    <text
       fill="none"
       stroke="rgb(246,146,30)"
       transform="translate(35.5459346906,43.6606229914) rotate(54.8466846281)"
       x="-2.0"
       y="0"
       id="text281">(2,-2) W</text>
  </g>
  <g
     id="triangle2-1"
     transform="translate(2736.41888013,0)">
    <text
       fill="none"
       stroke="rgb(246,146,30)"
       x="35.9016994375"
       y="39.1070819943"
       id="text284">2,-1L</text>
    <polygon
       fill="none"
       points="0,0 53.9016994375,0 53.9016994375,16.6666666667 57.9016994375,16.6666666667 57.9016994375,0 111.803398875,0 87.6460944813,41.9276841803 73.204937722,33.6071812369 71.2080170156,37.0730588592 85.6491737749,45.3935618025 61.4918693812,87.3212459829 31.8974673203,45.2958516001 45.5243723929,35.6997463527 43.2213071335,32.4292891352 29.5944020609,42.0253943827"
       stroke="rgb(0,0,255)"
       stroke-width="1.0"
       id="polygon286" />
    <text
       fill="none"
       stroke="rgb(246,146,30)"
       transform="translate(59.9016994375,3.33333333333) rotate(180.0)"
       x="-2.0"
       y="0"
       id="text288">(2,-1) W</text>
    <text
       fill="none"
       stroke="rgb(246,146,30)"
       transform="translate(90.6476341281,31.9939563248) rotate(-60.0509180501)"
       x="-2.0"
       y="0"
       id="text290">(2,-1) W</text>
    <text
       fill="none"
       stroke="rgb(246,146,30)"
       transform="translate(35.5459346906,43.6606229914) rotate(54.8466846281)"
       x="-2.0"
       y="0"
       id="text292">(2,-1) S</text>
  </g>
  <g
     id="triangle20"
     transform="translate(2848.22227901,0)">
    <text
       fill="none"
       stroke="rgb(246,146,30)"
       x="38.9623820754"
       y="38.921521951"
       id="text295">2,0L</text>
    <polygon
       fill="none"
       points="0,0 56.9623820754,0 56.9623820754,16.6666666667 60.9623820754,16.6666666667 60.9623820754,0 117.924764151,0 91.1795862437,41.6988030696 77.1505874369,32.7007493769 74.9910545507,36.0677090905 89.0200533574,45.0657627833 62.2748754504,86.7645658529 32.3036333835,45.0070868182 45.8436658147,35.2887896659 43.5112744981,32.0391818824 29.9712420669,41.7574790347"
       stroke="rgb(0,0,255)"
       stroke-width="1.0"
       id="polygon297" />
    <text
       fill="none"
       stroke="rgb(246,146,30)"
       transform="translate(62.9623820754,3.33333333333) rotate(180.0)"
       x="-2.0"
       y="0"
       id="text299">(2,0) S</text>
    <text
       fill="none"
       stroke="rgb(246,146,30)"
       transform="translate(94.0998198005,31.7156162598) rotate(-57.3243104133)"
       x="-2.0"
       y="0"
       id="text301">(2,0) S</text>
    <text
       fill="none"
       stroke="rgb(246,146,30)"
       transform="translate(35.9374377252,43.3822829264) rotate(54.3312762775)"
       x="-2.0"
       y="0"
       id="text303">(2,0) W</text>
  </g>
  <g
     id="triangle-3-1"
     transform="translate(2966.14704316,0)">
    <text
       fill="none"
       stroke="rgb(246,146,30)"
       x="38.9623820754"
       y="38.921521951"
       id="text306">-3,-1L</text>
    <polygon
       fill="none"
       points="0,0 56.9623820754,0 56.9623820754,16.6666666667 60.9623820754,16.6666666667 60.9623820754,0 117.924764151,0 91.1795862437,41.6988030696 77.1505874369,32.7007493769 74.9910545507,36.0677090905 89.0200533574,45.0657627833 62.2748754504,86.7645658529 32.3036333835,45.0070868182 45.8436658147,35.2887896659 43.5112744981,32.0391818824 29.9712420669,41.7574790347"
       stroke="rgb(0,0,255)"
       stroke-width="1.0"
       id="polygon308" />
    <text
       fill="none"
       stroke="rgb(246,146,30)"
       transform="translate(62.9623820754,3.33333333333) rotate(180.0)"
       x="-2.0"
       y="0"
       id="text310">(-3,-1) E</text>
    <text
       fill="none"
       stroke="rgb(246,146,30)"
       transform="translate(94.0998198005,31.7156162598) rotate(-57.3243104133)"
       x="-2.0"
       y="0"
       id="text312">(-3,-1) E</text>
    <text
       fill="none"
       stroke="rgb(246,146,30)"
       transform="translate(35.9374377252,43.3822829264) rotate(54.3312762775)"
       x="-2.0"
       y="0"
       id="text314">(-3,-1) E</text>
  </g>
  <g
     id="g316"
     transform="translate(3084.07180731,0)">
    <text
       fill="none"
       stroke="rgb(246,146,30)"
       x="35.9016994375"
       y="39.1070819943"
       id="text318">-3,0L</text>
    <polygon
       fill="none"
       points="0,0 53.9016994375,0 53.9016994375,16.6666666667 57.9016994375,16.6666666667 57.9016994375,0 111.803398875,0 87.6460944813,41.9276841803 73.204937722,33.6071812369 71.2080170156,37.0730588592 85.6491737749,45.3935618025 61.4918693812,87.3212459829 31.8974673203,45.2958516001 45.5243723929,35.6997463527 43.2213071335,32.4292891352 29.5944020609,42.0253943827"
       stroke="rgb(0,0,255)"
       stroke-width="1.0"
       id="polygon320" />
    <text
       fill="none"
       stroke="rgb(246,146,30)"
       transform="translate(59.9016994375,3.33333333333) rotate(180.0)"
       x="-2.0"
       y="0"
       id="text322">(-3,0) E</text>
    <text
       fill="none"
       stroke="rgb(246,146,30)"
       transform="translate(90.6476341281,31.9939563248) rotate(-60.0509180501)"
       x="-2.0"
       y="0"
       id="text324">(-2,0) W</text>
    <text
       fill="none"
       stroke="rgb(246,146,30)"
       transform="translate(35.5459346906,43.6606229914) rotate(54.8466846281)"
       x="-2.0"
       y="0"
       id="text326">(-3,0) E</text>
  </g>
  <g
     id="g328"
     transform="translate(3195.87520619,0)">
    <text
       fill="none"
       stroke="rgb(246,146,30)"
       x="35.9016994375"
       y="39.1070819943"
       id="text330">-3,1L</text>
    <polygon
       fill="none"
       points="0,0 53.9016994375,0 53.9016994375,16.6666666667 57.9016994375,16.6666666667 57.9016994375,0 111.803398875,0 87.6460944813,41.9276841803 73.204937722,33.6071812369 71.2080170156,37.0730588592 85.6491737749,45.3935618025 61.4918693812,87.3212459829 31.8974673203,45.2958516001 45.5243723929,35.6997463527 43.2213071335,32.4292891352 29.5944020609,42.0253943827"
       stroke="rgb(0,0,255)"
       stroke-width="1.0"
       id="polygon332" />
    <text
       fill="none"
       stroke="rgb(246,146,30)"
       transform="translate(59.9016994375,3.33333333333) rotate(180.0)"
       x="-2.0"
       y="0"
       id="text334">(-3,1) E</text>
    <text
       fill="none"
       stroke="rgb(246,146,30)"
       transform="translate(90.6476341281,31.9939563248) rotate(-60.0509180501)"
       x="-2.0"
       y="0"
       id="text336">(-2,1) W</text>
    <text
       fill="none"
       stroke="rgb(246,146,30)"
       transform="translate(35.5459346906,43.6606229914) rotate(54.8466846281)"
       x="-2.0"
       y="0"
       id="text338">(-3,2) S</text>
  </g>
  <g
     id="g340"
     transform="translate(3307.67860506,0)">
    <text
       fill="none"
       stroke="rgb(246,146,30)"
       x="38.9623820754"
       y="38.921521951"
       id="text342">-3,2L</text>
    <polygon
       fill="none"
       points="0,0 56.9623820754,0 56.9623820754,16.6666666667 60.9623820754,16.6666666667 60.9623820754,0 117.924764151,0 91.1795862437,41.6988030696 77.1505874369,32.7007493769 74.9910545507,36.0677090905 89.0200533574,45.0657627833 62.2748754504,86.7645658529 32.3036333835,45.0070868182 45.8436658147,35.2887896659 43.5112744981,32.0391818824 29.9712420669,41.7574790347"
       stroke="rgb(0,0,255)"
       stroke-width="1.0"
       id="polygon344" />
    <text
       fill="none"
       stroke="rgb(246,146,30)"
       transform="translate(62.9623820754,3.33333333333) rotate(180.0)"
       x="-2.0"
       y="0"
       id="text346">(-3,2) E</text>
    <text
       fill="none"
       stroke="rgb(246,146,30)"
       transform="translate(94.0998198005,31.7156162598) rotate(-57.3243104133)"
       x="-2.0"
       y="0"
       id="text348">(-3,3) S</text>
    <text
       fill="none"
       stroke="rgb(246,146,30)"
       transform="translate(35.9374377252,43.3822829264) rotate(54.3312762775)"
       x="-2.0"
       y="0"
       id="text350">(-3,3) S</text>
  </g>
  <g
     id="triangle-2-2"
     transform="translate(3425.60336921,0)">
    <text
       fill="none"
       stroke="rgb(246,146,30)"
       x="35.9016994375"
       y="39.8142397"
       id="text353">-2,-2L</text>
    <polygon
       fill="none"
       points="0,0 53.9016994375,0 53.9016994375,16.6666666667 57.9016994375,16.6666666667 57.9016994375,0 111.803398875,0 90.337146291,42.932505168 75.430026441,35.478945243 73.641172059,39.056654007 88.548291909,46.510213932 67.082039325,89.4427191 34.7410196625,46.32135955 48.0743529958,36.32135955 45.6743529958,33.12135955 32.3410196625,43.12135955"
       stroke="rgb(0,0,255)"
       stroke-width="1.0"
       id="polygon355" />
    <text
       fill="none"
       stroke="rgb(246,146,30)"
       transform="translate(59.9016994375,3.33333333333) rotate(180.0)"
       x="-2.0"
       y="0"
       id="text357">(-2,-2) E</text>
    <text
       fill="none"
       stroke="rgb(246,146,30)"
       transform="translate(93.4427191,33.0546928833) rotate(-63.4349488229)"
       x="-2.0"
       y="0"
       id="text359">(-2,-2) E</text>
    <text
       fill="none"
       stroke="rgb(246,146,30)"
       transform="translate(38.3410196625,44.72135955) rotate(53.1301023542)"
       x="-2.0"
       y="0"
       id="text361">(-2,-1) S</text>
  </g>
  <g
     id="g363"
     transform="translate(3537.40676809,0)">
    <text
       fill="none"
       stroke="rgb(246,146,30)"
       x="33.4000234082"
       y="38.9333459588"
       id="text365">-2,-1L</text>
    <polygon
       fill="none"
       points="0,0 51.4000234082,0 51.4000234082,16.6666666667 55.4000234082,16.6666666667 55.4000234082,0 106.800046816,0 82.2134976013,41.6774237925 67.8585380542,33.2090760093 65.8261345862,36.6542663006 80.1810941333,45.1226140838 55.5945449182,86.8000378764 28.8759650751,45.0841870534 42.9106993681,36.0950819198 40.7533141361,32.7267456895 26.7185798431,41.715850823"
       stroke="rgb(0,0,255)"
       stroke-width="1.0"
       id="polygon367" />
    <text
       fill="none"
       stroke="rgb(246,146,30)"
       transform="translate(57.4000234082,3.33333333333) rotate(180.0)"
       x="-2.0"
       y="0"
       id="text369">(-2,-1) E</text>
    <text
       fill="none"
       stroke="rgb(246,146,30)"
       transform="translate(85.1972958673,31.7333522715) rotate(-59.4625879552)"
       x="-2.0"
       y="0"
       id="text371">(-2,-1) E</text>
    <text
       fill="none"
       stroke="rgb(246,146,30)"
       transform="translate(32.5972724591,43.4000189382) rotate(57.3608497187)"
       x="-2.0"
       y="0"
       id="text373">(-2,-1) E</text>
  </g>
  <g
     id="g375"
     transform="translate(3644.2068149,0)">
    <text
       fill="none"
       stroke="rgb(246,146,30)"
       x="31.5388203202"
       y="39.1491544065"
       id="text377">-2,0L</text>
    <polygon
       fill="none"
       points="0,0 49.5388203202,0 49.5388203202,16.6666666667 53.5388203202,16.6666666667 53.5388203202,0 103.07764064,0 79.794220637,41.9747823454 65.2196434337,33.8902615108 63.2793584334,37.3881600396 77.8539356367,45.4726808742 54.5705156332,87.4474632195 28.344081346,45.4204616217 42.4834981125,36.59693221 40.3658510537,33.203472186 26.2264342872,42.0270015978"
       stroke="rgb(0,0,255)"
       stroke-width="1.0"
       id="polygon379" />
    <text
       fill="none"
       stroke="rgb(246,146,30)"
       transform="translate(55.5388203202,3.33333333333) rotate(180.0)"
       x="-2.0"
       y="0"
       id="text381">(-2,0) E</text>
    <text
       fill="none"
       stroke="rgb(246,146,30)"
       transform="translate(82.8240781368,32.0570649431) rotate(-60.9828593754)"
       x="-2.0"
       y="0"
       id="text383">(-1,0) W</text>
    <text
       fill="none"
       stroke="rgb(246,146,30)"
       transform="translate(32.0852578166,43.7237316098) rotate(58.0342812492)"
       x="-2.0"
       y="0"
       id="text385">(-2,0) E</text>
  </g>
  <g
     id="g387"
     transform="translate(3747.28445554,0)">
    <text
       fill="none"
       stroke="rgb(246,146,30)"
       x="33.4000234082"
       y="38.9333459588"
       id="text389">-2,1L</text>
    <polygon
       fill="none"
       points="0,0 51.4000234082,0 51.4000234082,16.6666666667 55.4000234082,16.6666666667 55.4000234082,0 106.800046816,0 82.2134976013,41.6774237925 67.8585380542,33.2090760093 65.8261345862,36.6542663006 80.1810941333,45.1226140838 55.5945449182,86.8000378764 28.8759650751,45.0841870534 42.9106993681,36.0950819198 40.7533141361,32.7267456895 26.7185798431,41.715850823"
       stroke="rgb(0,0,255)"
       stroke-width="1.0"
       id="polygon391" />
    <text
       fill="none"
       stroke="rgb(246,146,30)"
       transform="translate(57.4000234082,3.33333333333) rotate(180.0)"
       x="-2.0"
       y="0"
       id="text393">(-2,1) E</text>
    <text
       fill="none"
       stroke="rgb(246,146,30)"
       transform="translate(85.1972958673,31.7333522715) rotate(-59.4625879552)"
       x="-2.0"
       y="0"
       id="text395">(-2,2) S</text>
    <text
       fill="none"
       stroke="rgb(246,146,30)"
       transform="translate(32.5972724591,43.4000189382) rotate(57.3608497187)"
       x="-2.0"
       y="0"
       id="text397">(-2,2) S</text>
  </g>
  <g
     id="g399"
     transform="translate(3854.08450236,0)">
    <text
       fill="none"
       stroke="rgb(246,146,30)"
       x="35.9016994375"
       y="39.8142397"
       id="text401">-2,2L</text>
    <polygon
       fill="none"
       points="0,0 53.9016994375,0 53.9016994375,16.6666666667 57.9016994375,16.6666666667 57.9016994375,0 111.803398875,0 90.337146291,42.932505168 75.430026441,35.478945243 73.641172059,39.056654007 88.548291909,46.510213932 67.082039325,89.4427191 34.7410196625,46.32135955 48.0743529958,36.32135955 45.6743529958,33.12135955 32.3410196625,43.12135955"
       stroke="rgb(0,0,255)"
       stroke-width="1.0"
       id="polygon403" />
    <text
       fill="none"
       stroke="rgb(246,146,30)"
       transform="translate(59.9016994375,3.33333333333) rotate(180.0)"
       x="-2.0"
       y="0"
       id="text405">(-2,3) S</text>
    <text
       fill="none"
       stroke="rgb(246,146,30)"
       transform="translate(93.4427191,33.0546928833) rotate(-63.4349488229)"
       x="-2.0"
       y="0"
       id="text407">(-2,3) S</text>
    <text
       fill="none"
       stroke="rgb(246,146,30)"
       transform="translate(38.3410196625,44.72135955) rotate(53.1301023542)"
       x="-2.0"
       y="0"
       id="text409">(-2,2) E</text>
  </g>
  <g
     id="triangle-1-3"
     transform="translate(3965.88790124,0)">
    <text
       fill="none"
       stroke="rgb(246,146,30)"
       x="38.9623820754"
       y="38.921521951"
       id="text412">-1,-3L</text>
    <polygon
       fill="none"
       points="0,0 56.9623820754,0 56.9623820754,16.6666666667 60.9623820754,16.6666666667 60.9623820754,0 117.924764151,0 91.1795862437,41.6988030696 77.1505874369,32.7007493769 74.9910545507,36.0677090905 89.0200533574,45.0657627833 62.2748754504,86.7645658529 32.3036333835,45.0070868182 45.8436658147,35.2887896659 43.5112744981,32.0391818824 29.9712420669,41.7574790347"
       stroke="rgb(0,0,255)"
       stroke-width="1.0"
       id="polygon414" />
    <text
       fill="none"
       stroke="rgb(246,146,30)"
       transform="translate(62.9623820754,3.33333333333) rotate(180.0)"
       x="-2.0"
       y="0"
       id="text416">(-1,-3) E</text>
    <text
       fill="none"
       stroke="rgb(246,146,30)"
       transform="translate(94.0998198005,31.7156162598) rotate(-57.3243104133)"
       x="-2.0"
       y="0"
       id="text418">(-1,-3) E</text>
    <text
       fill="none"
       stroke="rgb(246,146,30)"
       transform="translate(35.9374377252,43.3822829264) rotate(54.3312762775)"
       x="-2.0"
       y="0"
       id="text420">(-1,-2) S</text>
  </g>
  <g
     id="g422"
     transform="translate(4083.81266539,0)">
    <text
       fill="none"
       stroke="rgb(246,146,30)"
       x="33.4000234082"
       y="38.9333459588"
       id="text424">-1,-2L</text>
    <polygon
       fill="none"
       points="0,0 51.4000234082,0 51.4000234082,16.6666666667 55.4000234082,16.6666666667 55.4000234082,0 106.800046816,0 82.2134976013,41.6774237925 67.8585380542,33.2090760093 65.8261345862,36.6542663006 80.1810941333,45.1226140838 55.5945449182,86.8000378764 28.8759650751,45.0841870534 42.9106993681,36.0950819198 40.7533141361,32.7267456895 26.7185798431,41.715850823"
       stroke="rgb(0,0,255)"
       stroke-width="1.0"
       id="polygon426" />
    <text
       fill="none"
       stroke="rgb(246,146,30)"
       transform="translate(57.4000234082,3.33333333333) rotate(180.0)"
       x="-2.0"
       y="0"
       id="text428">(-1,-2) E</text>
    <text
       fill="none"
       stroke="rgb(246,146,30)"
       transform="translate(85.1972958673,31.7333522715) rotate(-59.4625879552)"
       x="-2.0"
       y="0"
       id="text430">(-1,-2) E</text>
    <text
       fill="none"
       stroke="rgb(246,146,30)"
       transform="translate(32.5972724591,43.4000189382) rotate(57.3608497187)"
       x="-2.0"
       y="0"
       id="text432">(-1,-1) S</text>
  </g>
  <g
     id="g434"
     transform="translate(4190.6127122,0)">
    <text
       fill="none"
       stroke="rgb(246,146,30)"
       x="30.3891109269"
       y="38.9414380708"
       id="text436">-1,-1L</text>
    <polygon
       fill="none"
       points="0,0 48.3891109269,0 48.3891109269,16.6666666667 52.3891109269,16.6666666667 52.3891109269,0 100.778221854,0 76.9635528126,41.675670822 62.4928337772,33.406688516 60.5082780238,36.8796610845 74.9789970592,45.1486433905 51.164328018,86.8243142124 26.5975486244,45.1352340293 40.9565229834,36.6736955678 38.9257537526,33.2275417216 24.5667793936,41.6890801831"
       stroke="rgb(0,0,255)"
       stroke-width="1.0"
       id="polygon438" />
    <text
       fill="none"
       stroke="rgb(246,146,30)"
       transform="translate(54.3891109269,3.33333333333) rotate(180.0)"
       x="-2.0"
       y="0"
       id="text440">(-1,-1) E</text>
    <text
       fill="none"
       stroke="rgb(246,146,30)"
       transform="translate(79.9712749359,31.7454904396) rotate(-60.2551187031)"
       x="-2.0"
       y="0"
       id="text442">(-1,-1) E</text>
    <text
       fill="none"
       stroke="rgb(246,146,30)"
       transform="translate(30.382164009,43.4121571062) rotate(59.4897625939)"
       x="-2.0"
       y="0"
       id="text444">(-1,0) S</text>
  </g>
  <g
     id="g446"
     transform="translate(4291.39093406,0)">
    <text
       fill="none"
       stroke="rgb(246,146,30)"
       x="30.3891109269"
       y="38.9414380708"
       id="text448">-1,0L</text>
    <polygon
       fill="none"
       points="0,0 48.3891109269,0 48.3891109269,16.6666666667 52.3891109269,16.6666666667 52.3891109269,0 100.778221854,0 76.9635528126,41.675670822 62.4928337772,33.406688516 60.5082780238,36.8796610845 74.9789970592,45.1486433905 51.164328018,86.8243142124 26.5975486244,45.1352340293 40.9565229834,36.6736955678 38.9257537526,33.2275417216 24.5667793936,41.6890801831"
       stroke="rgb(0,0,255)"
       stroke-width="1.0"
       id="polygon450" />
    <text
       fill="none"
       stroke="rgb(246,146,30)"
       transform="translate(54.3891109269,3.33333333333) rotate(180.0)"
       x="-2.0"
       y="0"
       id="text452">(-1,1) S</text>
    <text
       fill="none"
       stroke="rgb(246,146,30)"
       transform="translate(79.9712749359,31.7454904396) rotate(-60.2551187031)"
       x="-2.0"
       y="0"
       id="text454">(-1,1) S</text>
    <text
       fill="none"
       stroke="rgb(246,146,30)"
       transform="translate(30.382164009,43.4121571062) rotate(59.4897625939)"
       x="-2.0"
       y="0"
       id="text456">(-1,0) E</text>
  </g>
  <g
     id="g458"
     transform="translate(4392.16915591,0)">
    <text
       fill="none"
       stroke="rgb(246,146,30)"
       x="33.4000234082"
       y="38.9333459588"
       id="text460">-1,1L</text>
    <polygon
       fill="none"
       points="0,0 51.4000234082,0 51.4000234082,16.6666666667 55.4000234082,16.6666666667 55.4000234082,0 106.800046816,0 82.2134976013,41.6774237925 67.8585380542,33.2090760093 65.8261345862,36.6542663006 80.1810941333,45.1226140838 55.5945449182,86.8000378764 28.8759650751,45.0841870534 42.9106993681,36.0950819198 40.7533141361,32.7267456895 26.7185798431,41.715850823"
       stroke="rgb(0,0,255)"
       stroke-width="1.0"
       id="polygon462" />
    <text
       fill="none"
       stroke="rgb(246,146,30)"
       transform="translate(57.4000234082,3.33333333333) rotate(180.0)"
       x="-2.0"
       y="0"
       id="text464">(-1,2) S</text>
    <text
       fill="none"
       stroke="rgb(246,146,30)"
       transform="translate(85.1972958673,31.7333522715) rotate(-59.4625879552)"
       x="-2.0"
       y="0"
       id="text466">(-1,2) S</text>
    <text
       fill="none"
       stroke="rgb(246,146,30)"
       transform="translate(32.5972724591,43.4000189382) rotate(57.3608497187)"
       x="-2.0"
       y="0"
       id="text468">(-1,1) E</text>
  </g>
  <g
     id="g470"
     transform="translate(4498.96920273,0)">
    <text
       fill="none"
       stroke="rgb(246,146,30)"
       x="38.9623820754"
       y="38.921521951"
       id="text472">-1,2L</text>
    <polygon
       fill="none"
       points="0,0 56.9623820754,0 56.9623820754,16.6666666667 60.9623820754,16.6666666667 60.9623820754,0 117.924764151,0 91.1795862437,41.6988030696 77.1505874369,32.7007493769 74.9910545507,36.0677090905 89.0200533574,45.0657627833 62.2748754504,86.7645658529 32.3036333835,45.0070868182 45.8436658147,35.2887896659 43.5112744981,32.0391818824 29.9712420669,41.7574790347"
       stroke="rgb(0,0,255)"
       stroke-width="1.0"
       id="polygon474" />
    <text
       fill="none"
       stroke="rgb(246,146,30)"
       transform="translate(62.9623820754,3.33333333333) rotate(180.0)"
       x="-2.0"
       y="0"
       id="text476">(-1,3) S</text>
    <text
       fill="none"
       stroke="rgb(246,146,30)"
       transform="translate(94.0998198005,31.7156162598) rotate(-57.3243104133)"
       x="-2.0"
       y="0"
       id="text478">(-1,3) S</text>
    <text
       fill="none"
       stroke="rgb(246,146,30)"
       transform="translate(35.9374377252,43.3822829264) rotate(54.3312762775)"
       x="-2.0"
       y="0"
       id="text480">(-1,2) E</text>
  </g>
  <g
     id="g482"
     transform="translate(4616.89396688,0)">
    <text
       fill="none"
       stroke="rgb(246,146,30)"
       x="35.9016994375"
       y="39.1070819943"
       id="text484">0,-3L</text>
    <polygon
       fill="none"
       points="0,0 53.9016994375,0 53.9016994375,16.6666666667 57.9016994375,16.6666666667 57.9016994375,0 111.803398875,0 87.6460944813,41.9276841803 73.204937722,33.6071812369 71.2080170156,37.0730588592 85.6491737749,45.3935618025 61.4918693812,87.3212459829 31.8974673203,45.2958516001 45.5243723929,35.6997463527 43.2213071335,32.4292891352 29.5944020609,42.0253943827"
       stroke="rgb(0,0,255)"
       stroke-width="1.0"
       id="polygon486" />
    <text
       fill="none"
       stroke="rgb(246,146,30)"
       transform="translate(59.9016994375,3.33333333333) rotate(180.0)"
       x="-2.0"
       y="0"
       id="text488">(0,-2) S</text>
    <text
       fill="none"
       stroke="rgb(246,146,30)"
       transform="translate(90.6476341281,31.9939563248) rotate(-60.0509180501)"
       x="-2.0"
       y="0"
       id="text490">(0,-2) S</text>
    <text
       fill="none"
       stroke="rgb(246,146,30)"
       transform="translate(35.5459346906,43.6606229914) rotate(54.8466846281)"
       x="-2.0"
       y="0"
       id="text492">(0,-3) E</text>
  </g>
  <g
     id="g494"
     transform="translate(4728.69736575,0)">
    <text
       fill="none"
       stroke="rgb(246,146,30)"
       x="31.5388203202"
       y="39.1491544065"
       id="text496">0,-2L</text>
    <polygon
       fill="none"
       points="0,0 49.5388203202,0 49.5388203202,16.6666666667 53.5388203202,16.6666666667 53.5388203202,0 103.07764064,0 79.794220637,41.9747823454 65.2196434337,33.8902615108 63.2793584334,37.3881600396 77.8539356367,45.4726808742 54.5705156332,87.4474632195 28.344081346,45.4204616217 42.4834981125,36.59693221 40.3658510537,33.203472186 26.2264342872,42.0270015978"
       stroke="rgb(0,0,255)"
       stroke-width="1.0"
       id="polygon498" />
    <text
       fill="none"
       stroke="rgb(246,146,30)"
       transform="translate(55.5388203202,3.33333333333) rotate(180.0)"
       x="-2.0"
       y="0"
       id="text500">(0,-1) S</text>
    <text
       fill="none"
       stroke="rgb(246,146,30)"
       transform="translate(82.8240781368,32.0570649431) rotate(-60.9828593754)"
       x="-2.0"
       y="0"
       id="text502">(0,-1) S</text>
    <text
       fill="none"
       stroke="rgb(246,146,30)"
       transform="translate(32.0852578166,43.7237316098) rotate(58.0342812492)"
       x="-2.0"
       y="0"
       id="text504">(0,-2) E</text>
  </g>
  <g
     id="g506"
     transform="translate(4831.77500639,0)">
    <text
       fill="none"
       stroke="rgb(246,146,30)"
       x="30.3891109269"
       y="38.9414380708"
       id="text508">0,-1L</text>
    <polygon
       fill="none"
       points="0,0 48.3891109269,0 48.3891109269,16.6666666667 52.3891109269,16.6666666667 52.3891109269,0 100.778221854,0 76.9635528126,41.675670822 62.4928337772,33.406688516 60.5082780238,36.8796610845 74.9789970592,45.1486433905 51.164328018,86.8243142124 26.5975486244,45.1352340293 40.9565229834,36.6736955678 38.9257537526,33.2275417216 24.5667793936,41.6890801831"
       stroke="rgb(0,0,255)"
       stroke-width="1.0"
       id="polygon510" />
    <text
       fill="none"
       stroke="rgb(246,146,30)"
       transform="translate(54.3891109269,3.33333333333) rotate(180.0)"
       x="-2.0"
       y="0"
       id="text512">(0,-1) E</text>
    <text
       fill="none"
       stroke="rgb(246,146,30)"
       transform="translate(79.9712749359,31.7454904396) rotate(-60.2551187031)"
       x="-2.0"
       y="0"
       id="text514">(1,-1) W</text>
    <text
       fill="none"
       stroke="rgb(246,146,30)"
       transform="translate(30.382164009,43.4121571062) rotate(59.4897625939)"
       x="-2.0"
       y="0"
       id="text516">(0,-1) E</text>
  </g>
  <g
     id="g518"
     transform="translate(4932.55322825,0)">
    <text
       fill="none"
       stroke="rgb(246,146,30)"
       x="31.5388203202"
       y="39.1491544065"
       id="text520">0,0L</text>
    <polygon
       fill="none"
       points="0,0 49.5388203202,0 49.5388203202,16.6666666667 53.5388203202,16.6666666667 53.5388203202,0 103.07764064,0 79.794220637,41.9747823454 65.2196434337,33.8902615108 63.2793584334,37.3881600396 77.8539356367,45.4726808742 54.5705156332,87.4474632195 28.344081346,45.4204616217 42.4834981125,36.59693221 40.3658510537,33.203472186 26.2264342872,42.0270015978"
       stroke="rgb(0,0,255)"
       stroke-width="1.0"
       id="polygon522" />
    <text
       fill="none"
       stroke="rgb(246,146,30)"
       transform="translate(55.5388203202,3.33333333333) rotate(180.0)"
       x="-2.0"
       y="0"
       id="text524">(0,0) E</text>
    <text
       fill="none"
       stroke="rgb(246,146,30)"
       transform="translate(82.8240781368,32.0570649431) rotate(-60.9828593754)"
       x="-2.0"
       y="0"
       id="text526">(0,0) E</text>
    <text
       fill="none"
       stroke="rgb(246,146,30)"
       transform="translate(32.0852578166,43.7237316098) rotate(58.0342812492)"
       x="-2.0"
       y="0"
       id="text528">(0,1) S</text>
  </g>
  <g
     id="g530"
     transform="translate(5035.63086889,0)">
    <text
       fill="none"
       stroke="rgb(246,146,30)"
       x="35.9016994375"
       y="39.1070819943"
       id="text532">0,1L</text>
    <polygon
       fill="none"
       points="0,0 53.9016994375,0 53.9016994375,16.6666666667 57.9016994375,16.6666666667 57.9016994375,0 111.803398875,0 87.6460944813,41.9276841803 73.204937722,33.6071812369 71.2080170156,37.0730588592 85.6491737749,45.3935618025 61.4918693812,87.3212459829 31.8974673203,45.2958516001 45.5243723929,35.6997463527 43.2213071335,32.4292891352 29.5944020609,42.0253943827"
       stroke="rgb(0,0,255)"
       stroke-width="1.0"
       id="polygon534" />
    <text
       fill="none"
       stroke="rgb(246,146,30)"
       transform="translate(59.9016994375,3.33333333333) rotate(180.0)"
       x="-2.0"
       y="0"
       id="text536">(0,1) E</text>
    <text
       fill="none"
       stroke="rgb(246,146,30)"
       transform="translate(90.6476341281,31.9939563248) rotate(-60.0509180501)"
       x="-2.0"
       y="0"
       id="text538">(0,1) E</text>
    <text
       fill="none"
       stroke="rgb(246,146,30)"
       transform="translate(35.5459346906,43.6606229914) rotate(54.8466846281)"
       x="-2.0"
       y="0"
       id="text540">(0,2) S</text>
  </g>
  <g
     id="g542"
     transform="translate(5147.43426776,0)">
    <text
       fill="none"
       stroke="rgb(246,146,30)"
       x="35.9016994375"
       y="39.1070819943"
       id="text544">1,-3L</text>
    <polygon
       fill="none"
       points="0,0 53.9016994375,0 53.9016994375,16.6666666667 57.9016994375,16.6666666667 57.9016994375,0 111.803398875,0 87.6460944813,41.9276841803 73.204937722,33.6071812369 71.2080170156,37.0730588592 85.6491737749,45.3935618025 61.4918693812,87.3212459829 31.8974673203,45.2958516001 45.5243723929,35.6997463527 43.2213071335,32.4292891352 29.5944020609,42.0253943827"
       stroke="rgb(0,0,255)"
       stroke-width="1.0"
       id="polygon546" />
    <text
       fill="none"
       stroke="rgb(246,146,30)"
       transform="translate(59.9016994375,3.33333333333) rotate(180.0)"
       x="-2.0"
       y="0"
       id="text548">(1,-3) E</text>
    <text
       fill="none"
       stroke="rgb(246,146,30)"
       transform="translate(90.6476341281,31.9939563248) rotate(-60.0509180501)"
       x="-2.0"
       y="0"
       id="text550">(1,-2) S</text>
    <text
       fill="none"
       stroke="rgb(246,146,30)"
       transform="translate(35.5459346906,43.6606229914) rotate(54.8466846281)"
       x="-2.0"
       y="0"
       id="text552">(1,-2) S</text>
  </g>
  <g
     id="g554"
     transform="translate(5259.23766664,0)">
    <text
       fill="none"
       stroke="rgb(246,146,30)"
       x="33.4000234082"
       y="38.9333459588"
       id="text556">1,-2L</text>
    <polygon
       fill="none"
       points="0,0 51.4000234082,0 51.4000234082,16.6666666667 55.4000234082,16.6666666667 55.4000234082,0 106.800046816,0 82.2134976013,41.6774237925 67.8585380542,33.2090760093 65.8261345862,36.6542663006 80.1810941333,45.1226140838 55.5945449182,86.8000378764 28.8759650751,45.0841870534 42.9106993681,36.0950819198 40.7533141361,32.7267456895 26.7185798431,41.715850823"
       stroke="rgb(0,0,255)"
       stroke-width="1.0"
       id="polygon558" />
    <text
       fill="none"
       stroke="rgb(246,146,30)"
       transform="translate(57.4000234082,3.33333333333) rotate(180.0)"
       x="-2.0"
       y="0"
       id="text560">(1,-2) E</text>
    <text
       fill="none"
       stroke="rgb(246,146,30)"
       transform="translate(85.1972958673,31.7333522715) rotate(-59.4625879552)"
       x="-2.0"
       y="0"
       id="text562">(2,-2) W</text>
    <text
       fill="none"
       stroke="rgb(246,146,30)"
       transform="translate(32.5972724591,43.4000189382) rotate(57.3608497187)"
       x="-2.0"
       y="0"
       id="text564">(1,-1) S</text>
  </g>
  <g
     id="g566"
     transform="translate(5366.03771345,0)">
    <text
       fill="none"
       stroke="rgb(246,146,30)"
       x="33.4000234082"
       y="38.9333459588"
       id="text568">1,-1L</text>
    <polygon
       fill="none"
       points="0,0 51.4000234082,0 51.4000234082,16.6666666667 55.4000234082,16.6666666667 55.4000234082,0 106.800046816,0 82.2134976013,41.6774237925 67.8585380542,33.2090760093 65.8261345862,36.6542663006 80.1810941333,45.1226140838 55.5945449182,86.8000378764 28.8759650751,45.0841870534 42.9106993681,36.0950819198 40.7533141361,32.7267456895 26.7185798431,41.715850823"
       stroke="rgb(0,0,255)"
       stroke-width="1.0"
       id="polygon570" />
    <text
       fill="none"
       stroke="rgb(246,146,30)"
       transform="translate(57.4000234082,3.33333333333) rotate(180.0)"
       x="-2.0"
       y="0"
       id="text572">(1,-1) E</text>
    <text
       fill="none"
       stroke="rgb(246,146,30)"
       transform="translate(85.1972958673,31.7333522715) rotate(-59.4625879552)"
       x="-2.0"
       y="0"
       id="text574">(2,-1) W</text>
    <text
       fill="none"
       stroke="rgb(246,146,30)"
       transform="translate(32.5972724591,43.4000189382) rotate(57.3608497187)"
       x="-2.0"
       y="0"
       id="text576">(1,-1) E</text>
  </g>
  <g
     id="g578"
     transform="translate(5472.83776027,0)">
    <text
       fill="none"
       stroke="rgb(246,146,30)"
       x="35.9016994375"
       y="39.1070819943"
       id="text580">1,0L</text>
    <polygon
       fill="none"
       points="0,0 53.9016994375,0 53.9016994375,16.6666666667 57.9016994375,16.6666666667 57.9016994375,0 111.803398875,0 87.6460944813,41.9276841803 73.204937722,33.6071812369 71.2080170156,37.0730588592 85.6491737749,45.3935618025 61.4918693812,87.3212459829 31.8974673203,45.2958516001 45.5243723929,35.6997463527 43.2213071335,32.4292891352 29.5944020609,42.0253943827"
       stroke="rgb(0,0,255)"
       stroke-width="1.0"
       id="polygon582" />
    <text
       fill="none"
       stroke="rgb(246,146,30)"
       transform="translate(59.9016994375,3.33333333333) rotate(180.0)"
       x="-2.0"
       y="0"
       id="text584">(1,0) E</text>
    <text
       fill="none"
       stroke="rgb(246,146,30)"
       transform="translate(90.6476341281,31.9939563248) rotate(-60.0509180501)"
       x="-2.0"
       y="0"
       id="text586">(1,0) E</text>
    <text
       fill="none"
       stroke="rgb(246,146,30)"
       transform="translate(35.5459346906,43.6606229914) rotate(54.8466846281)"
       x="-2.0"
       y="0"
       id="text588">(1,0) E</text>
  </g>
  <g
     id="g590"
     transform="translate(5584.64115914,0)">
    <text
       fill="none"
       stroke="rgb(246,146,30)"
       x="38.9623820754"
       y="38.921521951"
       id="text592">2,-3L</text>
    <polygon
       fill="none"
       points="0,0 56.9623820754,0 56.9623820754,16.6666666667 60.9623820754,16.6666666667 60.9623820754,0 117.924764151,0 91.1795862437,41.6988030696 77.1505874369,32.7007493769 74.9910545507,36.0677090905 89.0200533574,45.0657627833 62.2748754504,86.7645658529 32.3036333835,45.0070868182 45.8436658147,35.2887896659 43.5112744981,32.0391818824 29.9712420669,41.7574790347"
       stroke="rgb(0,0,255)"
       stroke-width="1.0"
       id="polygon594" />
    <text
       fill="none"
       stroke="rgb(246,146,30)"
       transform="translate(62.9623820754,3.33333333333) rotate(180.0)"
       x="-2.0"
       y="0"
       id="text596">(2,-3) E</text>
    <text
       fill="none"
       stroke="rgb(246,146,30)"
       transform="translate(94.0998198005,31.7156162598) rotate(-57.3243104133)"
       x="-2.0"
       y="0"
       id="text598">(3,-3) W</text>
    <text
       fill="none"
       stroke="rgb(246,146,30)"
       transform="translate(35.9374377252,43.3822829264) rotate(54.3312762775)"
       x="-2.0"
       y="0"
       id="text600">(2,-2) S</text>
  </g>
  <g
     id="g602"
     transform="translate(5702.5659233,0)">
    <text
       fill="none"
       stroke="rgb(246,146,30)"
       x="35.9016994375"
       y="39.8142397"
       id="text604">2,-2L</text>
    <polygon
       fill="none"
       points="0,0 53.9016994375,0 53.9016994375,16.6666666667 57.9016994375,16.6666666667 57.9016994375,0 111.803398875,0 90.337146291,42.932505168 75.430026441,35.478945243 73.641172059,39.056654007 88.548291909,46.510213932 67.082039325,89.4427191 34.7410196625,46.32135955 48.0743529958,36.32135955 45.6743529958,33.12135955 32.3410196625,43.12135955"
       stroke="rgb(0,0,255)"
       stroke-width="1.0"
       id="polygon606" />
    <text
       fill="none"
       stroke="rgb(246,146,30)"
       transform="translate(59.9016994375,3.33333333333) rotate(180.0)"
       x="-2.0"
       y="0"
       id="text608">(2,-2) E</text>
    <text
       fill="none"
       stroke="rgb(246,146,30)"
       transform="translate(93.4427191,33.0546928833) rotate(-63.4349488229)"
       x="-2.0"
       y="0"
       id="text610">(3,-2) W</text>
    <text
       fill="none"
       stroke="rgb(246,146,30)"
       transform="translate(38.3410196625,44.72135955) rotate(53.1301023542)"
       x="-2.0"
       y="0"
       id="text612">(2,-2) E</text>
  </g>
  <g
     id="g614"
     transform="translate(5814.36932217,0)">
    <text
       fill="none"
       stroke="rgb(246,146,30)"
       x="38.9623820754"
       y="38.921521951"
       id="text616">2,-1L</text>
    <polygon
       fill="none"
       points="0,0 56.9623820754,0 56.9623820754,16.6666666667 60.9623820754,16.6666666667 60.9623820754,0 117.924764151,0 91.1795862437,41.6988030696 77.1505874369,32.7007493769 74.9910545507,36.0677090905 89.0200533574,45.0657627833 62.2748754504,86.7645658529 32.3036333835,45.0070868182 45.8436658147,35.2887896659 43.5112744981,32.0391818824 29.9712420669,41.7574790347"
       stroke="rgb(0,0,255)"
       stroke-width="1.0"
       id="polygon618" />
    <text
       fill="none"
       stroke="rgb(246,146,30)"
       transform="translate(62.9623820754,3.33333333333) rotate(180.0)"
       x="-2.0"
       y="0"
       id="text620">(2,-1) E</text>
    <text
       fill="none"
       stroke="rgb(246,146,30)"
       transform="translate(94.0998198005,31.7156162598) rotate(-57.3243104133)"
       x="-2.0"
       y="0"
       id="text622">(3,-1) W</text>
    <text
       fill="none"
       stroke="rgb(246,146,30)"
       transform="translate(35.9374377252,43.3822829264) rotate(54.3312762775)"
       x="-2.0"
       y="0"
       id="text624">(2,-1) E</text>
  </g>
</svg>
